<mxfile host="app.diagrams.net" modified="2022-11-17T14:37:04.460Z" agent="5.0 (Windows NT 10.0; Win64; x64) AppleWebKit/537.36 (KHTML, like Gecko) Chrome/107.0.0.0 Safari/537.36" etag="bLX-gJ97FMYYbkJ0ybSs" version="20.5.3" type="github">
  <diagram id="5xeWnjOOrkg9GwyTt36_" name="PÃ¡gina-1">
    <mxGraphModel dx="981" dy="526" grid="1" gridSize="10" guides="1" tooltips="1" connect="1" arrows="1" fold="1" page="1" pageScale="1" pageWidth="827" pageHeight="1169" math="0" shadow="0">
      <root>
        <mxCell id="0" />
        <mxCell id="1" parent="0" />
        <mxCell id="95llRvXmpCQJrTnAEZTI-6" value="Especialista&lt;br&gt;" style="shape=umlActor;verticalLabelPosition=bottom;verticalAlign=top;html=1;outlineConnect=0;" vertex="1" parent="1">
          <mxGeometry x="80" y="40" width="40" height="80" as="geometry" />
        </mxCell>
        <mxCell id="95llRvXmpCQJrTnAEZTI-7" value="" style="endArrow=none;dashed=1;html=1;rounded=0;" edge="1" parent="1">
          <mxGeometry width="50" height="50" relative="1" as="geometry">
            <mxPoint x="100" y="1200" as="sourcePoint" />
            <mxPoint x="100" y="160" as="targetPoint" />
          </mxGeometry>
        </mxCell>
        <mxCell id="95llRvXmpCQJrTnAEZTI-8" value="" style="endArrow=classic;html=1;rounded=0;" edge="1" parent="1">
          <mxGeometry width="50" height="50" relative="1" as="geometry">
            <mxPoint x="100" y="240" as="sourcePoint" />
            <mxPoint x="320" y="240" as="targetPoint" />
          </mxGeometry>
        </mxCell>
        <mxCell id="95llRvXmpCQJrTnAEZTI-11" value="" style="shape=image;verticalLabelPosition=bottom;labelBackgroundColor=default;verticalAlign=top;aspect=fixed;imageAspect=0;image=data:image/png,iVBORw0KGgoAAAANSUhEUgAAAWIAAALdCAYAAAAWKGlHAAAgAElEQVR4nOy9e3xU1bn//957ZnKZCRDATIK2zQXwFgOxNRSUc4gStEdaQ7XQV7EC1tLTQqVaxeo5XjjVvjz10vZnxdNWbQEtfX1BFDhixWINVgXBaiCEimCYnFohE9QAmdxm9l6/P/aFPZMJV2Fifd6vVyqzZ++1nrXW3p/1rGc9e6rt2LFDIQiCIGQMPdMGCIIgfNoRIRYEQcgwIsSCIAgZRoRYEAQhw4gQC4IgZBgRYkEQhAwjQiwIgpBhRIgFQRAyjAixIAhChhEhFgRByDAixIIgCBlGhFgQBCHDiBALgiBkGBFiQRCEDCNCLAiCkGH8x3LyE4sX89prr50sWwRBED6R3Dx/PsNHjDju649JiP+2Ywcvv/LKcVcmCILwz8i3vv1thp/A9RKaEARByDAixIIgCBlGhFgQBCHDiBALgiBkGBFiQRCEDCNCLAiCkGFEiAVBEDKMCLEgCEKGESEWBEHIMCLEgiAIGUaEWBAEIcOIEAuCIGQYEWJBEIQM84kS4uLiYvLz80/a+YIgCJngmH4GM1PMmzePO+64wxXVxYsXc/PNN9PW1pb2/NGjR/P4448zevRoACKRCDU1NTQ3N3P99dfzgx/8oNc1zjmCIHw8lJSU8MADD9DW1nbY53XChAlcccUV1NbWMmjQIPLz82lubiYSibBkyRJWr17d57WhUIgvfvGLhEKhE7J19+7dbNu27YTKOBH6vRDPmDGDBx98kFWrVrFkyRJKSkp48MEH2b9/PzfddBMAtbW1AKxatQqAFStWoJTiqquuIj8/nwcffJB169YxcuRItm7dyuLFi5PqmDlzpnjOgvAxc80117jP5t13391LTEtKSnjssceYMGFCr2uLi4spLi5mwoQJRCIR7r77bpYsWdLrvPPOO4/33nuPaDTqOl7Hyvr167nkkksIh8NEo9HjKuNE6fdCfMUVV9DW1sbXvvY191hxcTHz5s1zB/epp54CIBAIuINx0003sXr1asDykOfNm0dxcTHr169n/fr1blkTJkzgzjvv5Mc//vEpbJUg/PNRUlLC7bffTnNzM3ffffdhz62treWxxx4jPz+ftrY2HnroIZYsWUJzczMA+fn5/Ou//iszZsygtrbWXeE6zpdDKBRi27ZtbNmyheLi4uOy+8c//jHPPPPMCXvVJ0K/F+LD8a//+q+sXr2a6667zj22ZcsWRqT8X5Y4s6ozyF4ef/xxdwkkCMLxc8011zBz5kyAIz5PW7ZsYf/+/SxZsoS77747yVlyxHn16tV87WtfY8aMGdx5551s2bKlz/KOV4RTrz3vvPMyEqLo90K8evVqamtrufPOO1m1ahX5+fnMmDEDwA0nHG7Q77zzTkaPHp3kUTvMmDGD4uLiJCEXBOHoGD16NNdff/1RecCpRCIR12H62c9+xvXXX9/rnNraWu644w5qamq44IIL+owTf5wUFxfT3d3Nzp07T3pdXvp91sSSJUt46KGHuOOOO3jjjTd47LHH3EE/0sDceeed3HHHHfz4xz9248ep34s3LAjHx7x585g5cyZ33nnncZeRn5/PFVdcAcBDDz3EVVddxcSJE7nuuutobm6mpKSEysrKUyLCDj09PaesLod+L8RgxXsLCgoYMWIEI0eORCkFWLMqWDfEvHnzkq7xinC62drxho91JheETyvz5s1j165dPP744x9bmW1tba7He9NNN9Hc3IymaaxevZoLLriAiRMnpnWiThbbtm1LG8I82fR7Ib7jjjuIx+NMmDDBnSF/8IMfEIlE2Lp1q3vOHXfc4V7jiPCSJUtYsmSJuwPrRbxhQTg2Ro8eTXFxsRsa/LiIRCJs2bKFxx9/nDfeeIN169axefNmBg0axMsvv3xUZZyIeHpjz5kQYfgExIh/+ctfMnPmTJ566imam5sZNGgQABdccIF7Tk1NjXu8uLjYFeUZM2Yk3TQTJ07k5ZdfltiwIPRD7r77biZMmEBxcXFSBsXhiEajnHXWWYwYMeK4N+zef/99vvSlL/HnP//5uK7/OOj3QtzW1saIESNc8Wxra+OJJ55Iihl5Z7T9+/f3KbDOwDY3N3PdddeJNywIx8CSJUtQSrnP20MPPZT0+YknnqC4uJjm5maam5t7fT4SzktVX/nKV/jlL395VDa98847nH/++XzlK1857naNGjWKHTt2EIvFjruME0XbsWOHOtqT/+M//uOUxmsEQRA+CSxatIiqqqrjvr7fx4gFQRD+2REhFgRByDAixIIgCBlGhFgQBCHDiBALgiBkGBFiQRCEDCNCLAiCkGFEiAVBEDKMCLEgCEKGESEWBEHIMCLEgiAIGUaEWBAEIcMc06+vlRQXU+X5+UlBEAQBBgwYcELXH5MQDxgwgCGDB59QhYIgCP9sBPwn9ovCEpoQBEHIMCLEgiAIGUaEWBAEIcOIEAuCIGQYEWJBEIQMI0IsCIKQYUSIBUEQMowIsSAIQoYRIRYEQcgwIsSCIAgZRoRYEAQhw4gQC4IgZBgRYkEQhAwjQiwIgpBhRIgFQRAyjAixIAhChhEhFgRByDAixIIgCBlGhFgQBCHDiBALgiBkGBFiQRCEDCNCLAiCkGFEiAVBEDKMCLEgCEKGESEWBEHIMCLEgiAIGUaEWBAEIcP4M23AkQiFQky/+mpCeXlHPDfW3s6qVauItrScAsssCgsLmVhTw7p1605pvSdCWVkZ7bHYJ8ZeQfhnp997xBWjRqGA995774h/CvjG9Omn1L4ramvpiceZforrPRxlZWV9fjf7O9/hkpoabr31VkKh0Cm0SjjZhEIhwuFwps0QjoN+L8ShUIj6+nq+9rWv4ff5DvvXfvAgS598EqXUKbFNKUVeXh6RSARlf84kmqZRM2kSP7z5ZmZ/5ztomoamaUnnFBYWsmXLFrKyszNkpXAyyMvL44677uLun/yEUCjUa9yF/k2/Dk2YpokyTcAKOyxZvLjPcx3R0TQNXddRSp30m1Ep1Ut8T0W9h7MnHA5TV1fHZ844o5ctSil+/atfcUVtLSueeor29nYAeWj/CQiFQuzbt499+/YRCoWIxWKZNkk4BvqtECulLC/T+QwYhoECNCzxcP7tCI6u66dWhPF4wbYo63pmFhnOpODYozzHnL5QSrFnzx5+/atfubZmyl7h40MphWk7LM7nTDoEwrHTb4UYcMXN/Yjt+dqf3f/quivODjWTJtHQ0HDYDamKUaMIh8O8uG5d0vFQKETNpEluDLWpqYmGrVuTvAylFMo0D00UHiF07KipqUFBr/K91NTU0N7ezsaNG9N+HwqFGHfhhW7sr6WlhYatW4lGo73OdeqfMmUKmzdv7iXCjjh/9coree3VV2ltbXW/8/bdsdSZ2o9O3znXNjU1HXEc0rW5ZtIkNrz2GtFolIpRoxg7diyhvDyiLS29NkZDoRBlw4dTUVEBQCwWc689HBWjRlFWVuaOc0NDAw1btx72/HT3i5cjjXnavj1M/6SeH4vF2LBhg3u+O/EqRXV1NW1tbfzuMCGyI5UnZIZ+LcRKKfDcVJqmoXtCEEkCYgu0pmmMu/BCLr7kEmpqarjt1lvdc73lhMNh/v273yU/P58X161zz5n9ne8wurKSSCRCfn4+AOeWlzPp0kvZ8OqrrLMfsHTehreOwsJCqi+5hJKSkj4fylGjRlH5+c9TWVnJ66+/3ivMUTtlCv92+eXs27fPPXZuebklpK+9xh9+/3u33ppJk7jxhz90z5s0aRJVVVUA/O63v2Xdn/4ESnHR+PEUDRvG/Q8+yKwZM5LaomkaV9TW8m+XX86uXbvc9p9+xhmueC+16/S2+Ue33kpbWxtlZWXUTJpEa2srkUiESCTC+Z//PBdedBF/Wru2z8nGi6ZpVIwaRdWYMVRUVNDS0kLtlClueeeWlzN23Djmff/7gCWOs669ls7OTtfetrY2Zn/nO6xauZJHf/ObXnUUFhZyww9/iGEYAOTn5xOJRDj9jDO44cYbue3WW9MKk9POvialUCjElCuvBKBh61ZaW1uTxrT2q19l+vTp7gTocOFFF7F1yxZWrVyZdLxm0iS+NnWqO/6OnZMuvZRdO3fy6G9+gwLuvucezjrrLNra2sjPz2fxkiVEIhFyc3O57tpr3X51xjZdeVu2bOHRX//6iOMjnBz69bo0VZiKioooKipi2OmnUzRsGKeffjrDhg1j4MCB6HZoQtM0GrZuJeD388GHH1JRUZE2jvuN6dOpq6vjDdtzVEpx4w9/iAIikQjZWVm8vnEjr2/ciK7rdHZ2MuXKK6mtrXXLSJ0oUsMDbW1ttLW1uZ9T47VKKSKRCG1tbb2WltOvvpqRZ57Jvn370HXdtaWzo4O2tjZOP/10vjF9ultOe3s77777rhv3bW9vp7u7m+7ubvcYWJs69fX1SfY49n179mwKwmH27dvHkMGDrTpff514PA5ATzzODTfe2Kst+fn5lJSUUDtlCgD1b73Fm3/9K4MGDeKcs89mw4YNfHPGDM6rqDjiclkpRSgUorKykrHjxlE7ZQobXnuNp1es4M2//pVNr7/OymeeQSnFF8eO5Ue33kp2dja6rvP0ihU8/dRT7GttZdu2bSisLBGvvYWFhdxy66389a9/5bTTTmP37t08vWIF7/3975xzzjn88Y9/5Ic33USpJ/PEubatrc3dmE3tA7CE2JkwksJE9nhWVVXx0Ucf8dabb7Liqad4esUKdr7zDmeddRaTLr3U9egdO6d89au88cYb6JrG6xs38vRTTxHv6QHgtIICvjF9OjF7nFv27nUnopaWFnJzc2lpaXHtKCgoYNKll7Jv3z46YjFeXLeOtc8/T8IeW+eZEDJDv/aInTgwwNtvv+0+VKmUlJTwXwsWuF7MwYMH2blzJ2379zOxpoatW7cmedHhcJgRI0fiDwT445o1KKWYNGkSPr+fyspKHnn4YbZs2QJYN+jTK1ZwzYwZ5OfnM+myy3htwwb27tmTLKwpNqUKazrSHXdsOf2MMygpKeGp5cv50wsvuOc+vWIFX73ySsaOGwfAeRUVNGzdymuvvsrL69fzzRkzqK2t5fXXX+eB++7D5/O5E5SmaUkTh5ex48YxyBbUFcuX88ILL1htslcdF154ITOvvZa2tja3ztQ27N27l/k330xLS4tbzxNLlnD/Aw+waNEirr76am679da09TtlpW6APnD//fzphReAZM9d0zSmff3r1NfX8/b27TzzzDPuNWvXrqWoqIj5P/oRiUSCcDhMS0sLmqYx/eqr+cMf/sD3vvtdbpk/n71797orq5XPPMO/f/e7vPHGG9x4441c//3vo2matWmcZsI93Fh6Pw0fPpzpV19NY2Mj/3nbbW6dAGuff55rZszgM5/9LDf88Id8a9YsAErLyli5ciWXXHwx82++2T3/+bVrKSos5Htz5rB161ZM0+Tmm24iXFDAw488AsCNN97IB62tSXsAFRUVbnn/tWBBkq3Dhw/nmhkz+JN9zwunnn7tEXuprq7mnLPP5pxzzun15ywx4VAs9OkVKygpKWHEyJEEg0H3O7DieIsWLWLw4MHU19djmiZXTJlCXV0dL7/8Mm/V12OYJoZhYJomhmmyeNEidE2jrq7O9Yr7IvVBTScwSilMz2fTNF3xnlhTQyQSYceOHTz//PMkbDucTZkVK1YQbWmhvr6e2tpa9zvHQ1+5ciXY5Zumeei/npi2tz8AJk6cSCQS4R27TtM0MZ32GwavvPIKf3n5ZSKRCNOvvvpQGzwTzpLFi9nz/vuHrjNN9u/fzyMLF1JSUsKAgQMJBoNHTPNzvt+1axfP//GPGLbtTluUUowdN47s7GwGDx7M008/7X5v2H/vv/8+O995h5KSEnfSCofDDB8xgurqam6++Wb+8f77bpmGYbB//37+55FHqKmp4f/+/ncrh92uL2li9Qizd1XhvQ+xr1FKcUVtLfX19by8fj3v79mD4RlL594655xz6OzspKysDKUUBw8epLKykiFDh1IQDh9qv2myZ88e7rrzTl599VU3s8hUivr6eurr61GGYW1se8b/YHs7JSUl6D5fUnmGabJz1y7uuusuXnvttbSTjHDy6dcesZe9e/dy9Te+gabrbpxYQVLMGOxsAdNkz969BAIB6uvrmTJlCkuXLnW9m+EjR3L6Zz7DE4sXY5omAwYM4MCBA1RXV/Pob36DaRhuzNkRN6VprH3+eeb/6Ec0NTVZdXnjzh5bU29m0zTx+Xx9fu89xzRNhgwdSn5+Pmuff95N38P25hWgKcXatWt58Gc/o729/ZDQQ9LmobvZqRSanU2SmuXhfB41ejSvb9pEw5YtvbMt7PLq33qLf5kwgaFDh7rC5G3Hnvffx3SuU8q1eefOnVw/bx719fUEg8G0qVXOasX5a2trc9umAcrxhpXCxIqvl5SUsGXLFr55zTVp75lwOEx+fj6lpaWYSlFaVkZdXR3jx49nz549SWKq7DE4cOAA2xsb2f63v1FRUcFWT3+4Y5XSd97+946nc7xs+HDKysqItrRwTR+2th88yPARIygpLWXnrl1sqa/n6quvZteuXdzzk59gGAb1b73F1q1beXfXLmvVYZpWH9vj6elM1y6nX1995RWu/uY3aWho4OGFC/nggw/YYgv31i1biMVi1jinyT0XTj79WohTY7CmUmiGAbruirAB7hIsNQa74qmnmDFzJgUFBaxcuZJYLMakSZPo7Ozk7LPP5u7/+i80XScYCtHW1kZJSYkbcvCKu2nbsWfvXsCKBfYZbvDYmtqWXjFi03Tjeo73omka8Xic/Px89tr16T6fGyJwHu69e/YAVszXQXcmD2xPLaUdqXY6bTCVorW1lcrKSjbbm4be/jRtW/e2tJCfn088Hreutb+PRCJW3Nm7meoIP5bIgBVjDRcWEo1Ge9mUKmorV66ksrLS+lLT8NlLbKcPgnamw+jRoxk9enTasUjt69zcXMCKnyvTtLJtbJu93uOePXvIz88nHA6nXc147XVsco7l5+e7+wJOHzlZGZdedtlh7cTuK8fjvvGGG7j0S1/iM5/5DO3t7Xzhggv4wgUXAPCXl1/mySeecOv39mdqBpEz6c7+9re58qqr6Orqwufz8fkvfIHPf+EL7N27l53vvMPvn3zyiPYJJ4d+KcSaph3yrJwbyhFlT/6wfXLytfYxDdhSX482cyY7d+6kdsoUfv/kk0z/5jf529/+xmLn5RBlbXSVlJQQiUQoKiqitbXVzUsG0Oxl3ABH9FKWqkmkeEZtbW2E7Q2w1DYqYIq9weVgmiZ+v/+QLdGotRHp87nevmmaFA0b5qkypa/sPvBuYKYKiePtO+3o7u4mEokwfMQIotFoUnxRM01MIM+esPLz85M9brudjgDoPp87Pn2FQ1Inpr7QbBF222EV6or7888/zwvPP++KquvpO3VgpdB5x6uoqMhdWfXqH9Nk5MiRvPCnP3H6sGG9hDgSiRAKhfDmPbjXapo7eTz26KO9HImf/vd/0xKNuv2k4fGcgY5YjKampiR7nv/jH3nh+ecpKipi5MiRjLvoIs466ywM0+SaGTN48oknrPI8+eCa3V/OOHg9/6dXrOCZFSsoGjaMkSNHcuGFF3LmWWexd+9evnrllaxauVI84gzQL4U46WF1Djoenv0AedPVvN4fWJ6hs8RavHgxM2bOZOTIkcRiMf72t78d8obtc9oPHiQnJ4f6+nou+9KX+P2TT7o3sXeT76Lx45NsdOrLz89P3qzziHtdXR2FRUW9hFgpleTNetv84QcfAHDR+PE0btuWJIqOnFyWxrty7P3oo48YNmxYkmevaZobNwR6ieMH+/bR1tbG+PHj3UwR3eOFAlw1dSrbt2+n2c4KcF6ecev3eJje9MKkxzol7NG7EcmenXej0RVa4LVXX2XI0KEUFRVRX19vnWfnkzsevOOROoJbX1/Pt2fP5u2336ayspJtDQ1JISOAwqIiho8YQfNjj3HhuHFJ/eT3+2lra2PUqFFEdu/u1Y48z293eAXw1VdecW194YUXrPvXbqvyhDDcScy5j3XdCj8Ae1taaGlp4dVXX2XGzJm0tbXxb//2b/z+ySfRlCLW3u564+4bpimbm94eb9m7l2hLC6++8gozZs7kgw8/5Bvf+AarV6066klS+Pjov5t1zlLcc8jxjHRdx+/zWRkBdlaA8/BD8uvOW+rr0bDCCf/+3e9SWVnJksWLXY/XEY8X1q4lPz+fz3/hC4yurHQfXocZM2e6S0tvHHbXrl2A5WV5aT94kP379xOJRPjenDkUFhYmfV9YVMT35sxJabJV8uLFi8nPz2f48OF89corXW/HadOll12WdpmraRotdvjgvPJyijxi7D0HDq0oHG9sxYoVVFZWkpWdbdWZ0p+jR4/mzDPPtGLXa9cm2Ztqg+YZp3Qho76utb9IX6bnTwHvvvsuRUVFRCIRZs6a5YYfvF7oRePHW+NiTwote/cyOD+furo65t9yS68xGzBgAHPssSouLu71+yGvb9zI+vXruWTiRAqLipJCEqFQiJvnz0/THCs+66T3XXXVVYe8bFtk8/LyuOxLX7I8dbuN18ycyX//9KeWh+319JVyQ1b5gwa5/ROLxTjttNOor6/nqquuSp7QNI3vzZnDrx99lBEjR/aKxztOQ8yOyQunnn7pEUPvHM28vDzm/+hHSZ6Re452aHNo9cqVvPvuu4e8Ndsr/tnPfw5AV1cXa9euTRJuNI3Fixbxm0cf5S+vvMKcuXPZ8/77bNu2DYCxY8dSMWoU7e3t7Nq1y32AHUG4ZsYMnnnmGe5/4AFaolF+/T//Y2ULPPwwt/3nf7Jo0SK+N3cuBw8coKWlhVAoxKRLL+3z18+21Ndz6aWXUl9fT9GwYdxxxx1pbXG8bK8H89qrr3LvT3/Ko489xty5c8kNBtnd1MSvf/WrvvvarvPCCy/E5/dTNGwYP73vPvcFjLFjx/LBhx9SX1/PwLw8nlyyJO2r0d4lt3cMk5bN2qFN1mPBK3oaVorigw88wA9uuIFdu3bx+z/8gadXrCDW3k4oL4+LLrqIj9ramDlrFnO/9z0ADNPkpz/9Kf/xn//Jvffe647J7t27CYfD7tuU3rxrL0+vWMHdd9/Nr371K+bY10ajUYLBYNrxdGyur6+n7qWXqDz/fC6fPJnRlZVsqa8nFotRWFjIJRMnkkgkOP/883nwgQfcie/Pf/4z18ycyZWxGO/u2kV7eztFRUWcedZZvPHGG4eyHOz6/vzii+Tn5zN4yBDuu/9+NODnP/sZLS0tfPZzn+OJJ57gtv/4D/7xj3/w7q5dxNrbKSwq4vNf+AJ1dXWsXbtWvOEM4bv++usXHPk0i20NDbz/j3+cTHuSUEpRVlZGeXk5b775Ju3t7Rw8eND9O+D8HTjAgYMH0XWdiooKXve+wWVvvoyurCQnJ4fHH3uMpnfftTxpjxgrpXjpz3/mkksuob29nQ8++IDy8nLOOOMMRo8ezdNPP80rf/kLpr3BtubZZ9GwsjkKCwuZMmUKf3z+eSZPnsy2hgZaWlr48MMP2bdvH5dffjmdXV0cOHiQcDjM2eecQzAY5H9Xr3ZT65YvW5bU7ldffZXxF13E5z//ed59913Ky8spLy/nrLPOYsuWLfx/P/85Z519NkVFRSz7f//PFcauri52vP0206ZN429vv82GDRu4+OKLrQwMewf/3PJyBufn8+z//q8rkgrYvGkT55x9Nl8cO5bOzk7OOOMMzjjjDD766CNKSkp4/733WLhwoevxOnz1yisxTZN3duxw48tJXpcdz+zq6uLNv/6V/fv3H3YTcXhZGeeWl5Obk8OfXngBn2e57vSPUooPPvyQN998k29/+9vs3buXilGjKD/vPEaeeSY5OTlomsbvHn886S249vZ23nrzTe6+5x42btyI7vNx0UUXcfbZZ6PrOo89+ijtsRjvvfcen/3sZ9nw2mtu3Qfb29n5zjvcceed7rUF9nj29PTwzNNPWxu+e/eyevVq92UJsMRYAQWnncaw009n5JlnUl5ezqD8fDo6Ouju7ubX//M/dHR2omG9mTdx4kTOOOMMTNMkOyeHkWeeiabrZGVlkZeXxwP33Zd0/9bX1zP+oovo6enhrbfeQilFT08Pf//739ne2MjkyZPx+Xx0dHRQXFLCZz/3OfYfOEBXVxdGIsETS5ZYoZyUVYxwZMaMGcOQIUOO+3ptx44dR70W+cPSpWzetOm4KzsWlFIkEgkM02TSpElJyzbXAybZc451dLDhtddotR88UymMRALDMAiHw4yurOSFtWvRfT58uu7GB51cWWdDZ8TIkVRWVpKXl0csFqO+vp6d77yDaZpc9qUv0dTUZIm5rrubLYVFRfzL+PE07d5NQ0MDpiePM5SXx/nnn8+IESMA682nV/7yFw4cPMill15KS0sL2xoaDsWBPTnFRcOGMX78eAYMGOB65M5DdumllxKNRt1r3Z1/06TQ3twZMWIE2xoa2Lp1q/t9TU0N7zY1Edm92/VQld0Hmqa51w4fMQKUSrLXiT06D6tpmlRUVFBYVOSKpiOcjmAmEgnGjhtHKBTixXXrkl4ySR1zwzDIzc2lZtIktm7dyu6mJrdM5xzveDlL6Uq7f/Py8mhvb6fp3XfZsmVL0oaVm4ds9+34f/kXd0yi0ajVxgMHuOVHP2LDxo2MGzeOn9keqlLKyv91rh0/nhEjR4K9x/DC2rXsP3CACy+8EE3T2Lhhg2uz11Zd17lo/Hi33vb2dl577TWi9gsnXmE1TZOioiLKhg9n+PDhbgbKzp072WLHxb19nbDvufMrKxkxciS6rrPSftHFvU8LCxk9ejThwkLX9rfeestaRWoafr+/18QnHJm53/++9bwcJ/1aiA07Md37q2uH+8UwNz7p2SwyTdN6IcJJttc098H2eXJrDcNwE+2TNgE59FA4oQ5nJ1/TdW1w0GoAACAASURBVDeLAUjaiXfKdR5+Z8nuFSj3OvsBcNLUvILqfO9sTiql3DxW7AfbiZU72RyGabqhGlc0PbaadhsdQQTc65SdQufWS3LesxNb99lZHO6LIkq5D7LXI3ZfHLD73yvCqePojIO37c5Yec/13hvp0si8G4XezT5v+d72ONc5x2/50Y/Y+PrrSUIMJL0kkbpB7N4Hzv1h31+O0+Bc6834cdrkCHSqLd5Jw7l3vT805ToT9nHnGjxtT5rc7e/c9EZPnNjZKPR7+lrE+Og5USHutzFiSM6FdTxgUymU/cIFJL9Ioes6mudG8+4eK/vm0u3PvhSPzHvDOmKnwaHNI6c8kvOWlZ3TnLrJpNk73pqmoXNoUywpI0TXXTF1hFbz+TBtz9TxVk2l3Ha55VtGJ204JgknJL3g4V1BOJLmvcablZGasuUdD68X5jzw3n5JfXi9cXgt3XHPZ+Utz86A8Iqdl9TJztu3bozabr93AnTa6UxWbozVOy6pttnj5PP53FWD06dJWSie+y3px6k0Dd2ZeD19mjTR2td7OgQc0fXY5m2/d9yd+1Aze/8iYC+c456JS/PY7O1f4dTQ74XYSeR3dsQdcYLkXOK+HvJ0v0/sFQznv84yUtO0Q55IH6EQr6fl3Kzeh8q7SaVpmvvwuje2pqE53rWnnV5Bc+pOysNNaady2gJJXrzzhl6qt+j1UtNlNLhibHtOpD74mpYUH9bsdqTKpLcub7mpE6QX77kK0B2PP8XL9Y6ZVywcwXJWNDget8fzThWXpGuc+yR1teWMkTPhcugesQ1PmgC9nqjbT1blSXW63rOnPd4xVPYYYZpJbxU69acKsbeMtPeiPVaON+/2g33/eO+HpO+FU0K/FeJUT005ApzmxncecDe/OMU79C4BU0XA+eyIE9heRTpPLvXB8Qi1V/BT63fDEbb9act0BNW51jRR3k0v57s0/eTmVpM88aRbfntt7qsvXO8tpZ7U5XOq0CaNV5rJL/Xc1PKd63RnTI8gDKltTRXq1HY75ybFsJ0xcdpjn1NZWUksFkvOAPGEEHSvt+kZl77qTA2tpDoCqefomgZ2mMAr+qnnOv927t/UMU1Xb7pwTrprhVNHvxViSPZWvUv6VA819fy+/psqTKkPb7oHqK90Hu8xn+fmTn3IUutJd733mHN+krfnieMdyZZ0bfB+TtcvgPsw9+WxHq5vD+c9pRPSdMfSjYP3eF9tPlL/prYx3eSRtKpRisWLF3PZZZfxgp0vnc5urzedbtWVWqczATiCmToWff1bKeV6wulscc/x3o/289LXvZDUVymTiJAZ+rUQQ9/CgtbbM0u9kbzHU2/WoxWPvjy4w9mZrs50tqUTs742n1KvSa37cNelHk9Hatl91ZlO+I7mAT6ScB7puiOdkzq26a7ry+akaw2Dlr17D730k/LmHXgEvY8y+qrTufZI13hxPN7USauva/uaFPpqr9A/6PdC7KWvG+hIN9bxxrtO5IZNJ6x9lX2ionQy43l9TW7Hy6mIPR7vuLmrAXtzrq/VwcfRhmOx8WhWU32dK3wy+EQJsSCcbDRNc9MavbF3QTiZiBALAodCJt60OK9HfKRYuCCcCCLEggBJIgwff0hGEA6HCLEg2PQlwoJwsum/P4MpCILwKUGEWBAEIcOIEAuCIGQYEWJBEIQMI0IsCIKQYUSIBUEQMowIsSAIQoYRIRYEQcgwIsSCIAgZRoRYEAQhw4gQC4IgZBgRYkEQhAwjQiwIgpBhRIgFQRAyjAixIAhChhEhFgRByDAixIIgCBlGhFgQBCHDiBALgiBkGBFiQRCEDJPR//PQcDhMYVFRJk0QBOEwxNrbCeXlZdqMw/Jx2Niydy/RaPRjsujYyagQ10yaxPSrr86kCUckGo0SDoczbUaftLS0UFhYmGkzDkt/70OQfuyzzpYWwkfZL5nqw2Ppl77OXfr737P097//uE07ajIqxKtWrmTdn/6USROOSCwWIxQKZdqMTzTShx8P0o8nTl99GIvFMmDNITIqxLFYLOMdcDR8Emzs70gffjxIP544/bEPZbNOEAQhw4gQC4IgZBgRYkEQhAwjQiwIgpBhRIgFQRAyjAixIAhChhEhFgRByDAixIIgCBlGhFgQBCHDiBALgiBkGBFiQRCEDCNCLAiCkGFEiAVBEDKMCLEgCEKGESEWBEHIMCLEgiAIGUaEWBAEIcOIEAuCIGQYEWJBEIQMI0IsCIKQYUSIBUEQMowIsSAIQoYRIRYEQcgwIsSCIAgZRoRYEAQhw4gQC4IgZBgRYkEQhAzjz7QBR0M4HGZcVRWhYBCAhu3baWhsPKYyaqqruWHuXFqiUa6bO/dkmPlPQUV5OfcuWADAt+bMIdrammGL+ieF4TCzZ86kvaODR3/3O2IdHZk2SfgE0++FePq0aUyfOrXX8YbGRu65776MPwChUIjayy8HYF1dnQjXYRg7ZgxlxcU0RSJs3Ly5z/NqJ08mFAyycfNmmiKRU2jh0VNx7rmMHTMGgNXPPktTc3OGLRI+yfRrIa6prnZFeN1LL7GtsZFQXh7Tp02joryc2ddeyy8WLsyojXnBINOnTQOsyUGEuG/GVVUxsbqadXV1hxfiyy8nHA7T0trab4V4w+bNhJcts2wUERZOkH4txBXl5YAlcL945BH3eMgWv3FVVfzCc34oFKKmuppQMHhEr8t7zbiqKsIFBcQ6OtiweTPRaLTXOU65La2tNGzfTjQapTAcZmxVlXve2Koq0LQ+wyZHU5eXsWPGkBcMsnX7dgoLCqg491xaWlvZuGmTuxIoKy2lrLiYltZWYh0djL3ggiRPsqK8nIpzz7X6sY+QjnNOS2trr4nEsRlgg6dex7am5maadu/uVVZqfWPHjCFcUABAYUEBNdXVSeWBtdyvOPdcQnl5blmxWMwdx2PtP2/fRFtbmThhQpJNFeXllJWU9LpfKsrLKSwooN1Td2qbY7EY0dZWNKz70WlHKBSyyi0u7mWjU663z5wy19XVJfVBat3CPzf9WojbYzEAykpKCIfD7g29as0a98Z1SBfCaGlt5bYFC/p8WMtKS7l9/nxXIABmz5rFzxcu5EW7/IkXX8x3Zs1y49NOuT+57z7KSkqYPWuWe7z2y1+mrLSU29KIXVlpKfcuWJBUzuxZs1i6fDlLly1La993Zs4kHA7TFIlQVlJyqP5p05h3882u8E6fNo2m3bspLCx0J4umSITbb7klaaIAaNq9m9sWLHCFY/a117qhFaBXqCcvGOQGO6beEo3SsH17km1Lly2jafduQqEQt8+f706eDk77nPPBFuvycrY2NibVFy4ocOsCa0VUce65bNy8mcJwmHsXLOg1VofrP6dvWqJR8vLyCAWDPPq739HQ2Jj2fnH6BnDt+PrMmcQ6OigMh7l9/nwAbrvrLkKefnHacSQbx1ZVUTt5Mhs3beKe++8H4Ma5c62JYPdumpqbmThhAtOnTaOhsVGE+FNEv86aWL1mDdFolFAoxG8XLuT2+fOZWF0NmkbU472VlZa6D9WqZ5/lFw8/TFMkQmFBATfOmdNn+Y4IN+3ezT333ceLL70E4ApvYTjs/ju13NmzZrlxaodHFy3i0UWL+qwrFAyycdMm5s2fz6o1awCYPnVqkjinIxQM8ouHH+bRRYusB76ggNrJk5POKSstBaXc8Mj0adMYW1VFLBbj0UWL+MXChUSjUcpKS5l97bWAJYiOCDvtazmMh3k4vjNrFhXl5bREo/zi4YddcZw+dSoV5eX8fOFCNm7aBFgrnNvuuquX990UiVjHnQn32Wf5iS1YjsA55Xv7b2J19WFtKwyH3b5pam5OCnktXbaMe+67z+2b2smTaYpEkjx/wPXyvZNRKjfMmdOnjeFw2BXWUntSrSgvd8femcDKSksB3L4SPh30a4/Y8WinT53KxIsvZuyYMYwdM4aW1lZWP/ssq557DsAVk4bGRh5dvNi6dt8+7l2wIOlm91JRXu56Lvfcfz/R1lY2bt5sHQ+HGTtmzKFlZyzmltvU3Mzt8+e7S9fdnhhm0+7dfcY0f/7ww9Y59kMeW7PGFdOykpI+H26AF+vqWLd+PXAoLDOxupqly5cf6qtolHnz57sCcqPtrS1dtsztp1AoxOxZsxhXVcWjwaDrLTft3u22r72z0/X8jgVHsJYuX86Ltq1lJSXu36o1a6i5+GLLVju8k0osFks63tTcbK0GSkvdsfrJffdZMdn16yksKGDsmDHUVFe7K5h0xGIxvjVnjts3022vd91LL7l9mBcKccPcuW6/rnvpJWonT6aivJwX6+rc9vUVdioMh10x/cXChVY71q+nrKSEivJyxl1wAevWr3c955Cn/53+W/Xcc+7Kp7/GxoWTQ78WYrAe2p8/8ghLly9n7Jgx1F5+uZU6ZHt1q557zn1Iw/bSEEgS31Ao1Ktcx8OJxWKuaDllgBXHdK7zPhRNkQjf8pyfl6bsdDQ1N1M7eTKzZ8066mvS4XiRhbad3uPeOKXTJ17bN27axOxZswiFQhQWFBx66D2bTTE7HHQsFBYUuP3tDQM5y+8TxbvU99rasH17Uuy5L9pjsaQQiON1Vpx3Xq/7xenXjZs3Uzt5srsP4fRVX4Jf6gkdOZu33rpKS0uJPfccTbt3u6EZZwURbW2lrKSEwoICK/6dMiEJ//z069CEc7M6O+ir1qzhW3PnuiEE7w0PVjzTIdbRQUNjIw2NjYcVl1SRdq75uLMffnn//YfCJ8895y5bTyXOJtgnjbwjhG6OF00p99/e+wWs+yDW0WGlJ06e7IYc+hLIvmxs2r2bhsZGd+WUulHoxIJDoRAT7RXDsebIC598+rVHfPstt7jxWWfpDJZXNJFDIuqIZlMk4m62YH/flwh7hfbnjzyS5Mk513lDBw6F4TDfsAX1aFPnvEvrXyxcSFNzsxVntr36Y8H1dD2ZCqnEbA8wFAwmhT3Kiovdc5wNPWcn/0RwMjZCwaC1orDrq508mdKSEjZu2nRCG09eL7ispMT18p1xOdZJ0/FKt27fnjSGqfeLE564wr4PDieQXhuXLl+edK63XGcsnDDNi3V1NDU3M3vWLHeiFiH+9NGvPeJVzz4LWNkIs+3NoJrqalcgHTFyMigqysu5Ye5c97xf3n9/L6/ZwZtWdO+CBYytqmJsVRW333IL99q74uvq6lyvyNn8mj51qrubn8rYMWOSRNsh1t5+6JwvfpGykhKu+PKXj7ofJl58sWuf8wAfKYbo9J0TTx5bVeX2xbqXXiLW0ZGUruW0z5sFAodEFnBjprOvvdYN4ThsfP11t76K8nI3DFOTZiPNWekcaZOyorycsVVVrlcJ1oaYY6+zSZeaQXMknPBCTXW1e1/VTp7ML++/PymDxOkfZ6I6XBw6yUY71jy2qorZ117LQ/ff7/aXs0fgfUs0Foslia8I8aePfu0RL12+3F0aOn8OLdGoG4NsaGxk6bJlTJ82jZrq6uSH37P89BKLxbjngQe4/eabrdSkW25xv3MehFgsxtJly5K8Fee4s5vf0tpKQ2Oj+zCPrarq9Qp1S2srL9bVMdHerZ8+dWpSdkK6GLaXvFAoyb6WaDRpoy4dq557zp0YvDHwpt273WsbGhuT7HLKTsXpA2ez1Mmh9cZmf7N4seVde+L0YE0IjqA1NDYysbqawoIC7l2wgNvuuivtUn9dXV3SWH556lR+sXAh9y5Y4KYBOrz40kuHFch0rKurI1xQwPRp05Luq1gsRrsnluyGJ4LBw4YlHBwbC8PhpD5viUbd+zAWi7keuTczwrmHYrGYvCDyKUTbsWNHeqVKwx+WLmVzBtJqnN3x8GmnEevoIBqNsmHz5l45r97zovv2WV6K/fA4L0S0ezxB97gng6KhsbHXA1dYUOB6X7GODtejTK3XyeHtSxhqqqspLS4mum8f6156iYrycvI8L4mk8tuFC91c3Whra9K17gsdJSWUFRf3apfD2Koq96WFhu3b056Tapf7Aoenj73nbNi0icKCgkMvJ3i885rq6sP2pWMPHP6VcG99TjzdGatS+2WJdOV7OVLfHGlcwdrULSwo6FVGKBRi3AUX9Oqn1Dame7HIKdPbd33dn8Ing7nf/z7DR4w47us/EUL8acUrxEfygAVByBwnKsT9OkYsCILwaaBfx4g/7TQ1N6f9/QdBEP65ECHux3hfnxYE4Z8XCU0IgiBkGBFiQRCEDCNCLAiCkGFEiAVBEDKMCLEgCEKGESEWBEHIMCLEgiAIGUaEWBAEIcOIEAuCIGQYEWJBEIQMI0IsCIKQYUSIBUEQMowIsSAIQoYRIRYEQcgwIsSCIAgZRoRYEAQhw4gQC4IgZBgRYkEQhAwjQiwIgpBhRIgFQRAyjAixIAhChhEhFgRByDAixIIgCBlGhFgQBCHDiBALgiBkGH+mDeiLLVu38t4//pFpM/7pGDpkCGO/+MWM1B0KhRhXVQXAhk2biHV0ZMSO/kIoFCIWi2XaDKEf0G+FWPjkMHvWLEKh0GHPaWhsZFtjIzfMnQtASzRKw/btH7stZaWlTJwwgYpzzwWgqbmZ1WvW0BSJfOx1paOvvmhobOTFurokO+9dsID2WIx5N9/8qZ+UPu2IEAsnzLiqKsLh8BHP29bYeFLtmHjxxdw4Z07SsbLSUmqqq1m6fDlLly07qfVD331RU13N9GnTuG3BAqLRKKFg8NBfKCRC/ClHhFg4YX6+cKH774rycqZPmwbAbXfd5R6PtraeVBsKw2FXhDdu2sRvFi0iLxRiYnU1tZMnM33qVBoaG2k4yZOBQ0Njoyv8heEws6+9lsKCAm6cM4fbFiygobGRefPn0xKNiggLIsTCieMNMRR6vMHU0ENhQYH773A4zOwxYygrKSEWi/GbxYuJRqNJ5Vxx+eWUlZQA0BSJsOq555LO8TJ96lTACnncc//9gCX+TYsWUVZSYk0QU6dyW2MjFeXlTKyuJhaL8eL69Uz/2tcIhUK0tLaydPnypDqccx3b19XVJYUY+qKltdVtf8P27ZSWlFA7eTJhu5yy0lKuuPxyAB793e+IdXS4YZuly5dTU13thldWrVnDxs2b3bKdawsLCmhpbeXFujomVlcD8AvPpCh8chAhFjLCjbboOFSUl/OtOXOIdXRQGA5z74IFrmg5348dM6bPeGqpLdi708SCG2zxdUS9sKCAGluIay6+mFAwaNVhf3fbggUAjK2q4vZbbullZ0V5+TELXp4dN3Y250LBIDW2eC5dtoxYR4f72flvUt/MnUs0GnX7xmvzuDFj3M8ixJ9MJH1NyAhLly3j6zNnut5rKBRi7JgxgOXdhgsKaIlG+frMmVw3Z44lQgUF1E6enLY8xxNPtynnhEVCoZArWM7n3/zud3x56lRWrVkDWKLnTADfufZaAFY9+yxfnzmTefPnu4JZUV5+2PblBYOEw2HC4bA7ifRlXypOfdfZExPAuAsucPsmFAzSEo0y7+abuW7OHDZu2nTEMoX+jQixkBEaGhuJdXSwcdOmXuEGZ5m9+rnnCOXloTSNDfbS3PFqU/EK7OFIzWhwwgyrbSEGS0S9grzxjTcI5eXR3tFB0+7dAG7YoC/GjhnDbxcu5LcLF7oebENjI48uWnREGzdu3kyso4OW1lZi7e1JdjuCvnrNGpqam60QyCmKewsnDwlNCP0Kbxx59qxZzJ41K+n70j6EOBqNEg6H0wqyV3yPZtMwFAol2XGvHarwcqQskVgsRlMkQmFBAeFwmFgsxj333XfCG3NO+05VOp5wahAhFvotGzdt6iU4fb0A0dTcTDgcpqy0tNd37oaf7c0eK+nS3o4khBs2b+YXCxcSCoX47SOPEAqFqJ08maXLlx+XDamEw2E4CXnYQmaQ0ITQr2hpbXW9RieLwflr2L6dVc89l/Y6b4x3omezqzAcdj8fTbaDg3e577Vj1XPP0RSJJGUxHI5YLMaqZ58FoHby5KMOoRzJLm+M+kgv0wj9H/GIhX7H0mXLmD1rFrWTJ7spWk4K2s8XLkwrqE6OcEV5OTfOnetmRVScdx5gpbX1JeLpaGltZdWaNdROnsyNc+cyrqqKltZWai6+GJTi+vnzjzo3etVzz1H75S9/LF7xxs2bqSgvp6a6mrxgkPaODsbZcWPhk4sIsdDvWLVmjZveNdYjMg2NjYfNELjn/vuZPnUqtZMnJ3mMDY2NSS+dHC3Oxlrt5MmuHbFYjFVr1hzTCyqOVzx92jRqJ09m3fr1x2yLw6o1awjb2SNuJsbu3WlDMsInB23Hjh3qaE/+w9KlbD5FqTLyoz8nh5P9oz/OK7uQfmPMyUSIxWJuCCLdMQf3NyMikaPe6AoFg0kvgqRe15eNfdlxpPKO1L6+vnM+OzYcS98UFhQQLiigKRKh5uKLmT1rFrFYjK+nbG4Kp4a53/8+w0eMOO7r+61HrGk6uuazPykUClBozpE004dzSHP+RzkfQLPD4c53mq6hTKs8DYWpFErXrWtMDVMz0RQo7VDJmlu7XYZybNPtkk0Uyj7PNkApNE07ZJxjlobdJqstmqZ5iz5ku9LccxV2nW4jNDS3DjCVpw9s25VTv92nms/HySTW0XFYoUonzofzLo/nh4FiHR2Hva4vG/uy40jlHU0Z6b470ud0xwrDYf5z/nxefOklmpqbGTdmjJtbvUHyiT+x9FshzgpkEcy1NjaUMgEDbGHxcuizcj9rmiW6hmFgmCZ+v59gdhZZWTqagsEDBnD+qNEU5g8Gw6Q7EWfPB63sO/Ah7e0HaPq/vbR3gg8dn66h+UD3+dB0S8A1TZEV8KEriMdNdM1Hj2HSHe+2xF3X0NAwDRPTNAHw+334A35Lm00TQykM+3urTPD5fAR81pD4s3R0TSfek0DTdBKJhNVWzdLhrKwscoO55OYEME1rAunu6SGRMNA1P4ZhkIgn0HUNXdfJyc0mLy+X04YMPeljJ5w8QqEQecEgs+2XTRwaGhs/towM4dTTb4U4GQ3QQZlpvjskxI6HaiqFrlleqYaGX9PwoVBGAjTo6U4QzAlQfekFFBWdwZChRXy4/wCvvvxn/vzieg7s7yQ3J0GulktOIIDP76fL6GLfwQ/pjncT8AXQ/D50TQetm3giTsI0UJgoTaFMDdPjnmpAwkhgGAbYoqsUmJ5JRNN8tqNrebckTBJ2O3x+Hz6fTjyesIRd6ShTxzAU8biJaSriPQamaU1Ctu9secIa+H1+QrnZDB2SR/6QQZjpulH4RNC0eze3LViQ9MJJQ2PjSflJUeHU8QkRYgDdEqmUo8oJDyg7eKEsYTIBn+7H59PI8uvoukJTGrqmoVC0fvghLdE2zhlVSdEZZzBUDSMYMjltoI93d/4f+z7o4KO9nfhycjkY6+DvrXtoi+2ny4SEZqAMRQKDhKGIxxMklGHb48QEDtmnsERZ162ghePFayjQQdf86JqOhoauawQCOpqpkTAsQVVKYSQMTAVouuU5Z/sIBHRMpYgnEiQMp2/s8w0TE4XP7jdd99HTYxKLdZCbO/Ckj5Zw8mhpbaXlGFLxhP5Pvxfi1NCDF9M03TgrtvaZthwZpgkkyAr4rPipYdqOtZ/Onhhv1jey/0A7e/Z9QNmIUhQGg4I6BUNz+EzR2bR90EP9W//H/oSP2J5uPjy4n3giQVZ2FsFgEBU36OmJYyYSblz4kMBaMWDQ7Dgt6JqG3x8A3QpHKGWLsK7j9wUARcJIoBsKnx+y/dmgTEzAMBWGqcC0Qhw5wQB5A4L4fDo93SadnT3EewzL+w/4UUoRj8fRNUDXMUzFgfYu2g7EyMvrYuRIEWJB6E/0eyG2UCiMJG/YFWhP3FgpZW+ZOV/ZHqhpElcJFOBXioDfT5fZxd92vcM/WvYSCuYCJgNDOYz43GmcOXwYytCIx+MMCA7CNHvoinfjD2gMGjKIQYOGcKAtxocffYhKWKEEXfPZsWwNHR9KJUDzgaZQykDTNAKBLNBNerrj+DWF0kBHR/dZtvqUDsqHZur4fRq6XweloTS79bofn1/D7/Oh4ibxngTdnQni3T3EE1Yv9ZgGKGuF4NNBM3VXmOPxHmeGEAShH/EJEWLcLAJN05I27KxwhPL8YWca6OCzPNKEaZIwNUzTwDANErZSq7jCoI1YVyexmLXR9o/3P2D7239n0MAQ536ulHA+hHLhjKKBxM0ApxUOJTc0iJxsRWf3fnx6gO7uBD7dT8Cv49N9qISBaUAgoOP3a2i6H13zk52dhU/XMBNZBHQd3Z5aTB00E5SBHVvW8fl0dF2zZxUrRcPv19GUTtw0UIBhQsCnyM7x0x1XdCXimMrAdPoJDWWYGJgYpkkiYWIYiVM7boIgHJF+L8Su8Nqer65Z4moqA4XCtMVLs9O5lGmiadgCCKayYqVWloIVstBNE5+ukxfKZfDQXJTm40BnJ/GeOO9/+BEftccYkhcj6MslYXQxbMhAhg4+h25jP9kDcjjY0UmOnsVp+cPI0QPEe0yC2VkMGTwAnwad7e2gTHwByM7S0QwFphX/1UwrpqywhddQJAyDrm6DeI9BIq5IxKE7oTxhFyvu4tMUOlZcWKGhEhA3EnQnTGI9CQ50dtMRj2Ng9YNP09F0a/MuYSgMXSfbJ2+1C0J/o98LsYOVMWtLkzeFTYGu6ei67qaK6Zpmx2T9YFqbWY4jqJROMDdAaWkRRZ8dyNDCPP7v3b0kOrowcxXZWX4GhLI5LT/IaUN9fGZYiM997jTyBmeD1oXy63R2dljl+zSys7JQhoEyDXwa+DRAGbS3d7J/fzcdXQYdsQTdHV3Eewx6ekwMdLrjJoYZRykdHUuwg7l+lKkR74EeM45hWGKtTMMKuygdpbAmFVNh6kBCw0SRi4Zh+lGYJEzLC/b5fQQCfmvyUn4MFMHc3FM7cIIgHJF+K8Sa50UKXdOsjAHsDTpPGpuGAk23U9fA7/MR0K383+yAj7y8JPwrowAAIABJREFUHHricVSngS+gEcrNorh4MKPLP8fQoiD4EoT1BGcPGciAYA6D8rIZMjREMDeHYI7OwFAWObkKf3aceALMRJxQbha6pmEYceKJbnSVQNMV3d0JegzQfQF8AT8D8hQ52T0MGeins0ujI5Yg1p7gQHsCrdPANCGRMGk7kAClyA5YApvo1ugyDMAklOMny+dH0zUShka8J4EJxE2TRALw6Wj+LPyGiT/bT05PNgnDIJFIYCoTzX5JxTA0ekxlxUAEQehX9FshPrTVZr1PpykTpWv2O2w+dJ+JjobyWd5vQPcR8CkCWT5C/myys2HIoGwKCwfi8/sIZikG5GUxaEAOg/L9BLI0/P5ulKkTCOWSCAQZONjySgMBk+ysBAMGZuP3Kbq7D2AmdPQAGAmD7riBEU9gJKzwR1bQT5ZPIzfHign/4+8f8cG+TrICWRQW5TJgYICc3DxA4+DBLva3dRE7kCCYm01CGbwbaeOjfT0kDANTJTD9OgFDJyc7i4EDsqzwRcLKqjBzAgR8OgkjTmeXwjAUyoSuhKI7bpLlN+nsAkPTMZSJgSKeMIgrg454HBWXGLEg9Df6rRDrmolfN9E0S3wDPh+6z0dWQCOYHSAv18q9xdTI8kFutp+sgGbl1/oCBHyK0/JzGZQfACCUl0N2lk52jkYw14dhahhdCbq7TXxmglCen0F52fgCGt2dcRSKrgM9JBLWW26+HA094Aezh5ysbLoSGoo4AwZk49cB3SQ4MICGnwEhH4luP/v2HqAlYdA5MIuCohDZOaAnDLJ1H2Qrsnw9BLMClAzL47QBceKJHvw+nXiPRqyrm9zsLDo7E8Q6usnJ1ghkZdHdaXCgw6SnS7M29DQTIwGJeBeGAXHD4GB3B4m4AnR6TIOEUiRMhRG3Qh2CIPQv+q0Q+3VFls/Er2vk5eQyKNtPjt9Pbq6PYI6OX/fRFTfJzQkwMOhjQE4AX8ASoq4ua9ne09PDgf0GAb9Gtk8noPnw5/rx4ae7M05PD2T5TAYNykJTfjraOkkoK16Lbv3pQFesGzOhyDU0BuYPpqO9mwMftVv5wRjkDchG8+n0xHro6ekgN8fH4LJBFH92AH/b+hHv7milM9ZDuCCXRCJBd7dBe8ykvT1OT08H3d09DMjL4vTTQ/h9Gvv3x4knrL9EIoFP9xEa4MOHjwNt3bTs7eRgj8HgkA9N09CUn1iPgWkoAppO0K/ToazwRo8y8Zk+fCgMn0KTvTpB6Hf0WyHWlEZAD5Dt9xMMBAgFssjJ8aH7oKvHwO/TMZVO2/5uurt1EgMMPlM0kGzTpKe7m2y/RjBHI8vvI1yQR3a29Xad0WUSp4fuzh78/iyCOVkoBa3RNvIHhxiYC0OH5NLdYxBPxBkwMIcQGj1x2P9RDx/ua0XTNXy+gJWjrGdjan5Mw6TrYA9+vx+frvP+ewesDTYf+ND4v1372fX2R8RNjYBfw0xAjzKt3ORQDp0Hu2jbpwhk+dn/UTdDQln4/X4SQUUsFieQpdPT00PB4BxOG2QJdkIZvPd+jHi3YuCAPHriJoZhEswOcDBm0B7rJivLTpPTNLrjCfxZgUwPrSAIKfRbIe5KxGnr6CCUnUVWQCPmBy3uRzP8dMR70FScbF3H5/Nz8KDJ/vZO2vZ3MXRQDpoyyB8UZMjgXAbl5RAKKlAmmuYjFuum2wyg4n7aO3qId3aTPzibz34uH3+2n7a2Dt77xwEGDMgilJdNR1eCLtNkf4cPf/Yg/HnZ+LOzMVF0dMSItu7nwK73OXCwHVOBX9fw+xRDwiEKhw1FHxjgtOJ8zC4fLe910tGynyy/QVYCBmYpjLjCpylCwRw6Yz72tXah+3zkDcqipbWDnu44gUAWHd1xdKWj69DRBZ2JHmI93dYGYTcElElX3HqJJHawmwHBXAZkKQwtwKBQkI7uOHHDxPBnZ3poBUFIod8KsR8/wUAWft1He5eBaZh0dnXTHVcMCuUQyvbx/7P37sFxXPed7+ec7p5XDwCCJDAkJVLkkHqYFOgolhTC2RvTIbTrRE6g7F0xFXJv+bFXVF3TcYlK/FBda61NvCtrvbZcieXaSBVLqbWYWmlzJWZt3bsRadF2IjJSYkuEKFoPguCbMyCI1/Q8uvucc//omREAAnyJFCC7P1WQMDPdfU73EN/+9e/8HlppkrbBbU2gVIDt2CRTSVKOAQWHj40wz7WZ15omkY5SnQNfcOTIIE5S0taSJpPLcGbUZ3RgDKMl87IJsvPTDIUKJ9PB4mvX4BtJ8ZU+XnzxZQ6+fQq/5pN1JH5QQ9UESWkYqgqUUizJOszPClSr4YSUpNpcasYn3TaPZLqN7o99gKuuuppTR0f5x3/4OUePDOIKGylCDp/wyKaThKFP+zwHcCiVqqQzML/NxSuFLOlMc2qoQrXis3RJG+2Lk1R9TRAYLKFpn9fKwKkSwyMllubaqIUKoWxC3yeVthHJJMOz/eX+AtGZywFQLBRmdR6u6+Jms3il0rR9/c41z8a+l+MczjePmOmZs0KcSthkEnaUgeZYjFcCvErkwx2v+bRn0ziWRUWBpzShDnGkT9UP6ZiXpTUrGCsrgioMj4xiOxLbdnBsQUtrCieZoFSpUdh/hoQQdOYytLQKTo0pjpwY4cabFmJKPv/vXz/Hiy+8QjhWoyWdRIcWbdk0WTSFsQq3Xn81SzpaefYnb2EsaE9auEJz0/JreGugiBzTrFl2NXtf6ccXpym+chDPydC6dBHKGFK5FgItGT41wlCtBg60pCxa29K0uwncVJaW1iRVH/oOFDGW5qbVHXilGtpoBofKnDwTUAshk5YMlk6jdYKB4hgnR6vkF7dhghpLrprPgf5TJIMEXKFQ4p7bbuOebdvOev/hb36Tnp4e+vv7eezRRyfv09PDH2zezL+bUNbxwYceAmO470tfmrTttnvvxRjDtx5+eNL7uVyOv3z8cT79yU9SLBbPuX1j2/u++EX6+vqa223o6Zn2nLY/+STbn3yS7z/33KR91q1bx7Y/+qPmdqVSifu++MXm+Js2b6a3t5c//Oxnzzunmehau5ZNmzdPey0msqGnhy13302hUCCfzzfn3DjfB7/2tea2BvjcZz/bFMlNmzfTe8cd9B88SGcux3/80z+lv7//rDG++8QTPPm977Fr587mez233cYfbNrU/O5677iDTZs345VKuNksffv28ehf/AXFYpFNmzdH51Knv7+fHc8+O+l4v8zMWSHOpiV+0mG8GlCuVKn5KioVKQ2+hsHxKrVqQEsqQUvKJp0QtM53mecmKHtlfn60gjGCRQtbUKHGsQ06qNKSSTO/XeD4CowgtzAVlboUmlfeKvHamTK3rF3CP+85wKGBMkcGq3S6Dv/nx29mbGiERZ2duAmf1owg3dpKx9LlmEBw67/oxhaGlowEbbCDMyxbfhJdq5FNZ3j19QGqgaI9Ow817rDr7wYIgworlrawOH8VNSFJtKeY39qGo8rYUjF/gcvwqMf4UJXR8Spt89JobXO04DFWDRgereGVQ8aqAq9UYdmSLOWqoTg8xNLFHew/WKDk+Sye30Zh/DT9J8dpm5+gs+P81/9S6du3b1rRKBYKfPn++9n+5JOTLKXfveOOSX+MuVyOrq4uPM8jn89PKwrvhk2bN+N5Hps2b27O8+FvfpOHv/lNIBLKQqHQFLLpyOVyfPnf/3se/sY32LVrV3TcTZt48KGHJomcm82y7d57zymiM9G4GXml0nmbg27evJmHv/EN9u7dSy6X48++/W369u2jr6+PTZs3s2/fvqbwP/i1r9F7xx1sf/JJutauZUNPD3+4dSvFYpHe3l7+7/vvn3RTvFDWdXfzu729zWMBfPn++yed/8R/G11dXWy7916yrsuOHTsuerxfNOasEBtsAqVwbJs2KXBaEmgTkkkloopqSpMA7KRNS9rGTToYE3JmtMLQWMBwRZNwLA4MnEYKieskCMIQI8osbEnzLz60mJaURkqDDjWlwOYnB07wG+vX4B09xskjAYtbsly7JMfrbx/j1PEh1q1dwitvDbLuxmvoP3yQ8PgIP991gIUJi58dHqQlJbi9eyWnCiOk0g61ikdNCXLtLolkmlqpzInTJdb96hquW7OKva+8zfHCGUr//Da/8qtXs68CoQty3DBUMvT/9BRDw2WkZRH6mhVLshSGhxkeC1HakM442EIRhFAzhn0Hz2CkxBEhiWSJBe0uCsnJUoUg1KRTLuLKNuiYkf7+fhCCfD7ftCpzuRz5fJ6v/smfNLdb193Nzuefx/M81nV3X3Yh7urq4uFvfINtf/RHuK57SY/PmzZvZufzzzdFGGD79u30/t7vsa67u3lj6T94kPzKlWzo6ZnW8suvXMmmTZv46p/+6VmfffVP/gTP8+i57TY2bNgw8/msXYvruuzduxeAQqEQjVu/zivyeR77i79obr9r1y5+t7eX7U8+ybp16zjU398Uzp07d3LX3XfT2dk5yYq/EPL5PJ7nTdpv+5NPzvik0dfXx8Pf/CZfvv9+du7c+UvvxpizwUy20bRn0rSmEyQsC9tA1k5iByF2EJCo1yZ2AF3TBLWQwIdsOksyYdHR4tCZsVi5sIXrFs3j6nlplndmWNGZpS3j8NO+U+w7MMIbA+McODTCG4eGuHb19QwWhhkpGdYsXcjv/MZqPpTPoZXm717p5+9fPUaxMMS3/2Y3/+2Hb/LW4REOHDrFkZEAaeDYUJW/2f06pObx4r5T9B0J+eGrBf7n3sP0DwWMByHjgeSNtwsk1Tif/HgXv7f+RlLJNI4wZFMWp8fGOVMW9L01xOlxRTqRIOEkGRwvs39giBOny/hK47oJatUqtYqJYoOVieKqlcIPNcfPlDkxXOJk8QxnxssMjVUYHB9n3PNn5fv0PI+dzz8/6Q9zXXc3ffv2Tfrj7e3tZdfOnezds4fe3t7LOod13d0YYO/evfQfPEjvHXdc0nFW5PMcmuYGsXfPHvL5fPO153ls/9732LJly/RWrTGUSqVpx7hQYXJdl9KUbYvFIm42CzBpPhC5UBpzyWazk250jTFzdX/yxbB3zx5yuRybNm+ms7MTYFpX1ET6+vpws9lLGu8XjTlrEVeDqPi6Kwwd7VmSjiDj2KQcScZNQxhitMG2ojZCrfMcomJlmlVXLYpqMiiFbUeNPRIJSVBVCGkx7vkYO9o3qBkkIXZCMjRSQM3vYMnyTlotw9/8+HWCqiLUGiybn755jEWdizh+ZgTPT7DrwCBtLRleevsU7W0Zip7hlKc4/JO3EDJJtTKGZUkGfUVHewsjVR9/tIblBLz0/Gusyi9j2eL5dH/4RvoLp7nl1ms4cvQYhZ+XWDjPxdOGIc/HGx+jLZvGSQiE9FGhZrxUQWuNbwKU1lhWFP9s20kSjg1aUakpqliR9WyBtCSpROKKfm9da9fy/Qlt6wuFQvNRd++ePXz5/vt57NFH8TyP3t5enpzgAuhauxYDTYsZIejq6nrn9buku7ubv332WSCy1u65995zuiBmIpvNniV+DaYK7o4dO1jX3c22e+89y/Lt7++/IF/x+eZyMVwpy7O/v5/Pffaz3LNtG5s2b6avry96argAH/D5XC+/DMxZIV7UlibjGixLk0pYJB0H27IoeZqRkXFaMikSlsLNGJKJNC3ZJMmkIpmyEWFUElPaSdIpie+HjHsBqQUuGPA8iXQMvm8Q2Cg0tlRcHdi8OHCMrt+8jeXXdNJ2/dW88Uo/y7z59Pcf52DR40BxAD8UhEaCZTFUrZJIWNTGfXxjYzCMj4dU/RraGFQQIizJibEREraFCkNGjw6SdBwKoeGq3FX8xm+u486V1/FfvvofeXXPMXKuy+KODCOFCiNetdn66MxIBdsWKKURRIWOkimBbSdAyHqnDkVQUVT8ED8wJB0bITRIEZUAnbbd1OVjJh8xRALrlcus6+7mUH8/nbkce/fsaX7e09NDsVCga+3a5rEm+nLfDblcjg09Pezbt695/IY/+nIJPUwvdN96+GH+7NvfZt26dZdtnLlIoVDgvi99qXldN2/eHPuAL5A5K8SphEXWSmBLhXZsjo+UyTgJHMdmyZJ5dLansJCkEwlCVUUIn2zGIWEnCWUYdWnGoIWgpT0DokxprEIi6TBvnh31fXNlPenBAgELhKC7luHQrh+S+tB1fPg3b2TpihTlkuH6kV8Fk+bM4BlOHi8yMjhMaaRMqVKmWo7qHLsZQ9mrkExKaHUo+4ZkOsHC+W10XrWI/PIlLOycx7KlOWwrRah8hsYG2fPTl/jhf3qMo2+eoNW1md+eRkhIO1ALNL7WBKNjtKRdRqtlMiKqtaG1oFIVBKqCsARhoMHUq3TUK9D5YVS5TVpRF+wgnN1aEzuffz4S3GKx6QuGyCraUBfibRMiLzpzuUv25bqu23z0bywAbp6wct/wQ1+sEPft20c+n2fXlPdX5PPsqFvcEykUCmz/3ve46+67OdTfP6M74lKY7liduRz9Bw8Ck90UEN18GteyVCo13QgTuZhr3di2p6eHQqFAX18fhUKBQqFAyfPYtm3bjELcuCFe7nWA9yNzVogXZCQLLYsx36LkG5Z3dvDK20fwygE3rlxM/9FB2luTtLkpDrx9gnU3LcTNGCpVjdESIaKeb7UgRBdLtLdlyLZkqJaruO1ZSl6FUPkYrSnXbKqVCh9cNZ8jR07ToiWv7X6VF59/hSNnNKlFaXLL5pNqb8Nxxvjgr89nRf5Gjh4Z4sShMcZHayTsBHZC4WYSOKkW0ul2JGlQNWrVYU6fGePwoVf42c+qnBkq4fswNOahfY1fE6SNxHZsrl7YxoGBQcarhpoJkFrSkkqAgnLJw80kSNqRNQwgpY1UilCFJBIOlrTAGGq1WpSlbVmgo+puCHCs2e3QsePZZ+nt7SWXyzUjFSByG0x0YzSYuMo/E4VCobmw1djOdV3y+XzT9bFp82Ye/Yu/mPSo3NXVNW0kx/nY+fzzfPn++9nx7LNN/3bvHXeQy+Xo27dv+vOuuygai5EN3s1NxvM8+vbtI5vNNi37xgLo9u99D4DCqVN0dXU1nzy6urqaIt3X18e2bduarqJ19e9gOmHsP3iQrq6us65f41gr8nk29PRMenrJ5XIzunByuVwk0s8880u/UAdzWIhtN82JM+PYxsGvGd46fZpRL6R4xsORg2Rdi2vndVKreeSvyrI0147Ej/zBySQ1bSiNVxge8Vg430VgsCyLdDbD0HiVU6c8qlU4OjjG0aEK416ZI4USSRPS0WLz2zfdwI9fOUVx5BTlwyH/9MYwJWXAkhhxEKVfRJmo7CZSIgW4GQfHgrTrUKkEjI74gCGdlFRCMFhUqlCt+jgJiagqOue3MeqP0Lv+JvBLtGbTHDt1GstyyNppbG1I2BYjfkA2lcC2LLQwaG0IwxBjgqgDiVH1esUS0FjSwg9DRKjRRoNVt5LV2b3/Lif5fD4KvZrARF+h53n0190SEy3RDRNEdCJ79+6d9EjftXbtWce/74tf5Kt/8idsu/deutaupVAo0N3dzd4XX2TXzp3k8/lovCki2XCV9PT0XNTjc19fHzuefZbvPvEEe/fswc1myefzPPpf/+s5ow0aLooG67q72bZtG7+/ceMFjw1w15Yt5PN57vvSl5oLgvfcey99fX3kV6xg74svNq/tY48+yoMPPUQul8PNZuns7OS+L34RiHz2hc2bo3C3vj66u7vZ8cwz04752KOP8uDXvsZfPv54U/DdTKbp997+5JM8+NBDkz7P5/M8/I1vNI/R+Lfhui65XI6df/d3PPbYYxd17r+oiDfeeOOC/zL/evt2Xn7ppSs5nybH3zrImo4k7S0CoyyOD45xzbI2Xus7yQ3XLsY2NbLZNEtySbIpBycpCI3gyJFxvIpi3AuZ5xrmt89jwTxFzdjsO3CCsbJFYajKqdESaTeBDhXCGJQQ5Je0snSez/XtFjdct4z/8XdvcGasws03r+Zvdr/CoaGQQEOoo47KWkdF2YUGX4C0iCqxCRupIZEyVGtRo1CjHdpdwXjZJzCChDRs3nATZ04NcvxMic2334Isl9j7z4f5x8MjeNQLDxnQxmAlHCQS3w9ARDHQINBaowQIYTBaEIYKjcay7GZHk0aXDq017QsWsOqG1VfkO8vlctM+6haLRQoTsrZydXfDRMurq6uL/v7+s6yjhmXb19dHPp+fdmFnYjjcinyebP3YjeNPN16DRthVY35TX59rfhPH27Nnz1mfTTfmxOM3BOlcj+bTHadxnSfeyLq6usjlck33wNRjzDTPiftOvGYzca5xJn4OTBpr4r+Nxvn/IlnCWz/7WVauWnXJ+89ZIW6tFrHKw8xz06TSKRIJEz1e+yGpTDrqB2cZKlVFcXCUD67ppFgo8/qhURa0pllzfRbfSvDC7gFaXJdEGqo++EoR1kIOnxmnFoQkEhZJ20KbqBB7KilYlrD51Md/hUxbmmOHD6OkxT++VeRnb45y9EwFryHGypBrbeHTn/o9/vzxv2F4rIJS0NaW4jd+7Vd5fvdelucWsOn3/xVP/rf/yRf/r48zfGaY//SX/wspbT7xW2u5bukCQs9n6NRJBo6Nc2ws4Oh4iMaiGgaEYdR4tOKHKA2WJRHSYIyIOjtLK6o7rAO0ikpfhjrEsi3CQGOUxnbsSKiNYV77fG7oWvuefIcxMb8svFshnrOuiRtWtHG1m8IrS6o1Q+H0KOOez+KWDAcHTpNb4NKx0GFhWwLHmc/r/WVMUKNzfgYhLYbOKN44doyuGxYyrz2JZVk4tqEwWGH/22fomJdCGUGgDH6o0aHAV5qhIR+PMk+9cADbVtx4dSdLcwnu+I21/OYtPmE6R/+ZMkPDVWqVGosXtDNWPM6yBa3Mz6SRtqQ95XDztVeRVjeRWzCPYv8h7v3kv2R8ZJy9r/YThJrf+vUPYAzs+dlJvNFx/LFxhn3BeKCwbAdbC5RQyIRAa0MqmUAphWXZKB2igEArVBh1LNHaYNsWUaNRKwrti5zEgMGSEq3NpC5TMTExc4M5K8S1SkAVxU9eOkrGTaOVxp3XRkUbll3VTqvrsKA1pKY0e189zpmSYn5LIlrAa01jpwy/1rUY27IJVY1A+wyPS94+NcqpkoexHLyaphYYSl4VrRSphI3UmlSby09PjDPiVfnnnw/ybz7axfF/6uMjt1xLa2qUtIDrl7XR0tbK4aMn2LDuw3StWYUyimtWrODo4WNIBEIG/OyVN8ktaCH0qzzzw1c4eHyEjOuy7/W3OD6/jbeOFlm8cB5hqBguV5EmiS2ibiTCisLdQmUITdRIVamw2SlaKQhMPZ5aWihV79lnRf37hIgW7kKtCVVUEd7EShwTM+eYs0JsJ218VUM6NlIaVi5t47WDp9GZDImqRaVaJZNqIZl2uH3DNVSrUWIHJiSoBijfpxRKNB61UDJakgwUh3nzlMdQqYKNjxRg25KUbSETFgIIheD4mI8wBikMCzvn8//840HGxsrkOlrxjjg8/fdv0uYmsSzDwjYXQZJXX3uDbMbFKIv/tWsPCzo7WLFsMW2pJPsPnmRk3OOnbxwjQJC1BQsWdnLw+GksHLyyYrwSoLFwEpKSXwVjYVkGgyYIQiwngVYaZTS1QCEtK2qmqkFIC22iBTwpAWXqvf0UlrTQWmGIOp2oWIhjYuYcc1aIf/TySRZQxs2kOHh8lCAISdhJLFuwoD1BJuNQCTVDxVGUtDl1apSV1yxAaQfhJEAqxqqGctViZDTk6MkhJOBaFjqTRIqo75vRilCD0QJTb1JaUwqlDI5t8frJUUqBZlmby4FCmV2vHccLAwrjNRxpyC9ayNM/+AlvHxti5eJWThaG+Ie+AYw0fOCaxRwfHOaajoXsfbUfIQWubeEmU5w4PUotgJpRnD5TIp20cR2bIAhwnCQo0ALC0BBoUGGA0aCMJgh9pJQopRDCRmiiJA8pEUJiiCxj2446eDjSQYV1a5nZDV+LiYk5mzkrxEsXt7E846JCn+vz16CNJJN2ODXkUdOCN/afRisVhaYloGpa+dFPB0k4KWp+FcuxCGs+rekUliVYNC9FGBqUgPK4ROmoxrFCoAzoegRCVNjdwpYCja4vzGneGhpnYKyCUJooQsygtOC1Y8P0nxrBEhon1c7fvzpAYKL43dcHhpBCcWJomNGqxpI2lpCUyjXGfIUyGoFFMpHEQuKHkZiGoUKFCmUMwrIwwqANKG1QxqCIulkjwLFtwiBAWJFFbwxR52Z0tA00m7ACaHXlmtblcrlpw8Qm0rV2LV1dXdGq+5Q6Ew3WdXeTz+fPu01xQsxrLpdrJghMpVQqsXfPnrP2gSgqo+e223Bdl76+vklzbxxzz4svThstMTErcCZc16X7wx+ms7OT/v7+Sfs0am3MdOzGvlPHb1xDz/PY8+KLzevT2H4qjesYM3eZs0V/FrQ6uBlJe1uK0VKZgZPDHC6MM1KqUC5XWLw4S3ZBimNehX8+OMg/HzjG4KiH71dpy9i0JW0WtGUIQh+Epur7BFqTTSdxHQujJQqbWlDPPJORBakApQx+qKjWQmqhxtcGJSSBgpo2qFCiNPgaDp4aRSOohIK9bx5iTEeV0Gp+SEUFeKHm+EiF0XKN4XLA4HiNkWqIbdm0JNNkM2lSdvQ1aGOiehnaIGwbIS2CWpQJZzAYoQFFwrJIWA7SCFQYCatVT/AwxkTWr5FoFXW8jkLd6mnf1pUrv9a1di2bNm2a9jPXdfmzP/9zNm3aRGdnJz09PTz40EOTwt1yuRzfffzxZrGf7u5uHnzoobMK1wBs2bKFu7Zsab7u7Ozkxhtv5MYbb2TDhg3cddddzdddXV1AlHSxrru7uc+6dev47hNP0NXVRWdnJ9u2bZt8zFyuWTthIp253KTtZiKXy/HdJ55oxkH39vbyl48/3gzB23L33WedW9fatc1jZ7NZ7tm2bVLgWVgjAAAgAElEQVTI3oMPPcRdd93VDOv7829/u3l+je0b5934mS6kMGZuMWct4rHRCum0oBxCcVjjpF3295/BtiTj1QojpRoSSWvGYtE8l0xnC0qFmFBj2xZBYPCqYdTjrqbxA01oDEFokMbCTQC1AJlMEBqoBQqlQ7QyaBHVdhBCYhtIJuwoXhcw9e6bSim0jtKMm58RuQgsKUCAlCZq7ikERgrSlkPKcUg6Nhgi0RUGlEGpENtx0EZSDatYtowcDJbAGA1E2YLGRNaxIMqk0yZakFMmCnODyFq2LCuao1IgovoUUghmK2xiy91343nepMyru7ZsmVSvdtPmzfT3908qjnNXXXAn7tfT00OpVCK/cmWzZGNfX18zrrXnttvozOXOWVAnl8ux5e672f697zWTORpF1Pv7+ydlkPXecQd79+y56FTou7ZsYc+LL06ax4VkCs5Eo7LZ1MLu99x776SMxHdbSCjmvWfOWsRIi+OnS/zs54McLpR4+bXDFEZLVANFWzrF6mXzuOnaTvJL2knZBmOqhKEPUlINDGNeDaVC/JrGq4WM10IqNYUfBtiWiArKp5O4ySSW0QgDUlogBVLaQGT1am0IgxBjQCsNiHpTUImwLCxLYDsWthV1lk4lHBJSkLZtUpZNUlokhaQtlSGdTGKUpuoHeDUfL4g6ilTDEC8IKNV8StUqoTbU/ACjo7A0g4VEosJI/I0QGCyUMmjlI41GIDC6bvVKCQIsy4pcHSrEkhJD5GaZDdZ1d58lPo3i5A2rcENPz1m1Gnbt3HlWcsWG225jx44dUd2K2267pPl0dXVhYFJGXaFQYOfOnfRMqaHbqNQ2XTKJ67r896efntZqn47HHn30kt0EjWs40U2x49ln6du3L65g9j5nzgrxiZGAY2cqJJKaqxakWX1VO2uWdbAga9GSiWotjJTKGGFA2oyVFF45YKxUZqxUITQKmXLw0Ti2JuHYUednHVVjU9ogtMHGwk2kcBMOCUuQStpYAixhsAQgQYlo4UwYg9A6kkUDFqA1zUI7lhBYRGnPlrRxbAfbsrFth2q1hletUgkCqkEQVUoLDVU/RGmBNpJaEGKQdes18hUjokQWrRW2ZZFIJpEissK1MSAi61urEG00Sqm6e0I1f7ctu55ZpxCz8I03ssOmCmqjkPiKfL6ZjTV1m6mlIpsV0/bte1c1iztzuWlrCjfSryey49lnETBt/WLP83j4m988a94QCXj3hz/MPdu2sa67u5khd6nV3vL5/Fl95TzP41sPPzxJnHtuu23STyzSc58565qY59qo0EJpG98PKVdrmGoNozSObZFI2IyXypwZ87CMhRGC1kyaZMqJOnGgqFXK2DJByVdYgB+EKAwhAqkEvo5eC61JOxYZOxFFI4RwxishLIEwAhVopJRoB0Kl6okTUK3VsKRAChnVdQAyyRSaSOgbQggKhcYyVnTrkwKjwQ8VUkb7RkIJvvYRIhrHkhZKa2wB0nHQKiQMAjB1F4U20cKhiULYjK6nU9fdD4LITaGVQlpRx2vLmrNf+QWxoaeHvXv2UCwWo0Wqd1GzeLrKZdOl3TbE9sGHHpp2gW6mRbtGjd5NmzdHxeGzWXY8++wluSUuhhtvvHHS6z0vvnhFx4t598zZv8qRsTKUQ3ylMUaitUCI6FG96vtQqWFbdtSK3s2gVEClVkGjSGcSeOUAJ5GhVK7hVQOkEBgDlm2jTI1xv4qUNknHohYGVEOFUBBUa+gQEo6DDgIStoNJRFlrtSDEsaJMNa0UjrRRRhOGAQKDm8kglMZxHCp+DcuyCOoCLYXEsiLVbLhpGxXUbNtGawVGE4SR5YsQhDqyhkVCokIfg8AohUE2j2FhE2qNbcnIBywjkbYdG6UUaIOUURibAJQfvOff5bnKPrque1HdgxtNSBsLaIVC4ZJrFk9XVH2mamiNQj/3bNt2UYVqCoVCs8pco0+bVypdUo1ez/MmlbScidhH/P5jzromnGSGsWpIqRowXqkw4nmMVgIqCpSwCJVAGYkWAiWgpjTGchguVTl0/AwnzpQ5XBilOFyhXFWUg5CxSpXxSoVqqAlCQ7laY7RUwSuH1HxDuRwQBhonEQmmlBLHsZGWBCSWXV+004bAaEI00pKk02mSTgKlQpQAFep6+kRU8S2ZTGALiUTUBTRKuJAyyoDzfT/y/QJWo45y3Zdryajgu9YG3ygCYQiMqo8fbdewfBGi7gqxCYOwGVGBoGkpX8moiZloVFyb6s9tFPFp1K8tFot0T4hqgMgv+t+fegp4p4PHxPCzRm3gi3387tu3j66urrP26+7ubpZ2nMr2J58km82eFUUxE1MjPvr6+tizZ8+kMLupbpBz3Zgavegmks/n+f5zz8Xuh/c5c1aIh0ZLnBkvUwkMxrKxEkmk7eArha9DsCXVWohSgsHREtXQcLpUplQN8KoB1dBQDkMC7YOlCbQmBKpBSGB0lGFmBCoEx7KQWpFJWDgSjI5ifo20OVMuM1ypUBgboVStEmgddd/QdfcthlArZFR2DaUMFd/HDwJqfkAQBvhBAEI03Q8GCZbED2oIDE4iihW2HYmTtKPFP7uenoxB6Wg/ocDGBlOPDNZRXLAxGqM1KgxRRuOrECPAyOgmFRpNoA2BjtwZs8Hf1usQN8LHcvXQsB3PPNOMg93xzDP87h13NMOtXNdly5Ytzfq9PT099O3b12wXv/3JJ3ns0UcjkZ+hSeVM9PX10d/fz7Z7722Ot6Gnhw09PTO6Dhouika4WIMZ/bDGTOrhlsvl6K7HDkNUHrS3t3fS5729veycob3Q9iefpLe3tzm+67rNRqa/SJXMfhmZs66JUGscJ0moAmSgcZIOxigyaQcDlEpltBHoIMCSFqVSiWoQRq2ALIe0NKA1WlhUfBUtzokoJE0FBq1DkokEOgypBhpjoORFHZNdy6FarlIJfKgneAgpCeoha0KISAAxSC0j10S9IwaANtE2CceOajwIQaAiF4VtJwjDaF/HsaPEEBWFnjXCzrRWGB2FvWkMSivsevtly7JQdetWCAE6CrUL69l0qt4uybbtphWs6zcdjEFxZYV4as86iOoFN8Rly5YtfPn++/E8jx3PPMP27dub2+3YsQPXdfnaQw81H8Eb2zQ6eDRq6U5k7969rOvuvujH/W89/DCbNm/mu088AUQW531f/OI5awo3XBSNG4rrutyzbVszaWQiX/3TP2XL3Xfz54880nR57HjmmeY8dzz7LK7rTvp8+/e+N2Oft76+Ph579FG23Xtv8/r07dt3VoPOqdf/XO2rYuYGc7YMZvHQQaqjo9FKvyUIQkUYatAGIQW+UgR1EbKFpOzXcBIJdKAQFoRhFDebSNhEfllZX+DSaKJFLcuWaBW5D8J6bzlLCiq1Gkk7GT3SR0G7UeQCkagJEUVIRItq0WtpRckVsh7+FgZB1GtOiEhopYzqCjdcFCISbFuIyFo2JirgbohuFrrunmj4fOtV1NAGaUeLeFqbeiKHwdfv1JWI/h/dXEzdohYIjDC0t8/n5ltufk++w5m4kK4Ul9q54lLnA1eusWZjjMt5/Pfy+sScn1/YMpgKga9ClFJ441XCun/VtqKY3WpQjxsz4OvoUTwM/Uj8VBTSZYTBD4PIemxUWTAGQVTXV4VR8oZfq5GQFsZohLHJJtMoE+0rRRROptQ7AicEWAk7EjpDXfRk5OqoJ2fUNRMa5XY0CG3QQhPN3KBF1GFa2ha2baPqFr2sZ8FpDMIIjBEEKoqeEICuR1tQd4sIKZqLd4600ZjIXSEsQq0Rsr7wpw1qluKIJ3IhAvJeisx7MdblHiMW4V8s5qwQV2s+pVqAECATDoQKEUKgomaaqOiRXQiBZcnIp2vqFccsiVWvTqZUiJNwCGtR5lqoQqSMPqspHyEjy9aWkhCDH/gIIQh01DsZoxCWrCdRRNazRuM33BQqisQIVCSilpRYCCxpIY2pW8bRNsKSzaQLTRTNYNkSIwXVwK87FwyBUu8U56lnw0kpQUf1JxACoVV0LAEi+k/kEjH1pA0R1Ss2EN0RpkRqxMTEzB3mrBALIZDSiiIKjCEwIcKIeo1dEDZYRpJ0EnXxUUhpYTs2QRAS1nxs28axE/g1n7TlEKCpKYXv+xhtSDoJLASGej2J+uO+lIJQRRERQoioJGbdIo8e9aPFPsuyUEJDwycsrGZMscIgdV2AiUQ80Lr+GqRWGKEJjEaEAstQ7zsHlojsd4UhVCGNbL7oZiCifYwhgRW1eTIQaoEURGNIGeV5GCKXijFgdCzCMTFzlDkrxCEGL6g2ayPYwkImnHqygqlbtoIwCOq1eKP4XaOoW8lR2FkQBEgpKWmfWqWGkDaZRBKjVFS9TEiqQYixJluLjcUztMZyEiDAVwEGgS0lxkTF1oUQhA2/rIncDvXINWgswNk20gD1+dYHqNebkCgR+b2FkZH7whhCYXAsq5lWDVG95WjBMfL5hnUXROSnlvUbBQSqUX/YUPcOR33r4lrEMTFzkjkrxLK+UCakQCCjRSlDvdNElGChtSZouCfqMb6hUliWhbQtvFoNjMYWUZugTCIdJTXUS0waDMIWOAkHPwxA1wuVEVm+lowK7wQqrItYFDYWqsgva9ULsmOo+2WjKm5RiFhUnEdKiQ6DaE5S4Kt6VIWRWEJEUR715qXQWBCMmn9qmFDoR0duCCnBRDHHRlAX2rrNXV9INEQheLrh3WiWwRTRfGNiYuYUc/ZZ1RKRUFkiEuAgUPWebRaWZTcFSk4o/2hMFFEgBFQqZaQQOImoN10ikUBKC1X3/SZsB1lPE/bDEEtIdN3K1XWHqqonSVi2HVmw2iAN2PU5NbokW5ZFGIaEJjqWrIeySQG2ENgyyrDTocaWNrawsRBR1IRlRZ0zlEIQDROdU72ITz3u1xDVTA5NFIqnG+/VhbzRj07X05xF3U8tAFmPvACNlHFh+JiYucactYiVMYQmStE1YfRwrnRUOF1Kgan3Z6O+eBUVvNFoDRaCbCqDUYYgjAQOIajV3RRG6agwfD20QSsFltW0wFUYuS2ifnchyo/icgWiPgcxKf5XCEHCsqM0aupZbvV5+c2bR1SWEgnCEpE5qwxBGIKJtgFoRMsJBMpEwtmYl6FRJa7u+zCNBkh1QSa6MQiiMXQ9vC/K0hNIKZulMmNiYuYOc1aIa6GmUqsvhMko1lYrjahbqdFDOZGg1bPhogW+yGfrV6tRVTITiW2t2ojRrVctUyp6oDdB9LjfrFpWFz8hoqgKEcUpV/1oOwGYUKGJBLFZZMdoLBF5ZU29LGUj/lihomLvgmgcaLobRGMBTummqGutMcqv3zQUICLfcT2uIioe/04YmqhXYIuiMRpNRlXzs8aTg2os3MXExMwp5qwQ+yqkpqLuFHX9iUSlniHXrDAmBEZdiLhMiZ9tGIYG0JPbByk94dhaEzWvB5SetHvY3C8KgVNGT78gNmloNWn+50LVFxQb8dKT3p/AxGNNrL428bOGcOs5EEccExMzmTkrxNN1kmiIynRCc/HHv5ApzLyRmfLqYqZxUXO+3AZsbBHHxMw55uxiXUxMTMwvC7EQx8TExMwysRDHxMTEzDKxEMfExMTMMrEQx8TExMwysRDHxMTEzDKxEMfExMTMMrEQx8TExMwysRDHxMTEzDKxEMfExMTMMrEQx8TExMwysRDHxMTEzDJztuhPLpcjnU7P9jR+4chkMrM9hZiYmCnMWSFelMuxKJeb7WnExMTEXHFi10RMTEzMLBMLcUxMTMwsEwtxTExMzCwTC3FMTEzMLBMLcUxMTMwsEwtxTExMzCwTC3FMTEzMLBMLcUxMTMwsEwtxTExMzCwTC3FMTEzMLBMLcUxMTMwsEwtxTExMzCwTC3FMTEzMLBMLcUxMTMwsEwtxTExMzCwTC3FMTEzMLBMLcUxMTMwsEwtxTExMzCwTC3FMTEzMLBMLcUxMTMwsEwtxTExMzCwTC3FMTEzMLGPP9gRiYn4ZyXV20rV6NSXPY+/LL1+RMVzXBcDzvCty/JjLRyzEMZcN13Xpvf12ulavJtfRQWFwkJ27d7Nr9+7ZntpFkV+xgrs+8QkAHnv8cfoPHwai89v2mc/gui6e5/HwI4/glcuXNEbX6tXcs3UrhWLxigix67r8+de/TmdHB/c98AB9+/df9jFiLh9zXohPFQqEYTjb03gHY67csYV4z8ZvaW2lrbX1shwLIgvvwQceoLOjo/leZ2cnXWvWsGnjRj73x398yaL1XuNmMnStWRP9XrcqATZt3Mi6W28F4Kv/+T9f8Pn03n47vb/92+x7/XW+9cgjl3/CM9CYu5vJvGdjxlwac16IXz9wgEql0nwtLkSsrhDmSopwnfOd3+WYgxCCVStXXlYhvuczn6Gzo4NCsci3HnmEwuAga9es4a5PfYpcRwd3fepT76kIXW4aYgqw/amnLsqKdTMZOjs7yQ0OXqnpnYXneXzuj/8Y13XpHxh4z8aNuTTmvBBPxRhzxcW4IXaNcd4LAX6vkfLyrdN2rVnTtCC3P/00fa+/DsDO3bvp7Ohg08aN9Kxfz2OPP45XLnPP1q0A7Nq9u/nIvGnjRjo7Oujbv7/pymi4OtbdfDMA/YcPs/3ppykWi82xz7fNXZ/8JK7rsmv3brrWrGHdzTfjlcvsfflldvzgBxd0frnOTu765CcB2PvSS2x/+umzzr/3t3+b/PLlFAYH2fvyy+x84QW8cjmyom+5BYD88uXcs3Ur25966qz9N915J24mM+05btq4kfw11zSPP9Hdk1+xgt+t3yD+9rnnuOsTn6B/YIDHnniCP9i4MfpOnnqK4uDgBV+LiS4mN5OhODjIo3/1V5PmFHN5ed8JMUwWxouxIKfb9lwiOxsCfK75Xup8hBCT9jXGoLW+tAlOQ3758ubvU/3Bu3bvZlNdENbdeiu7du+mZ/16gEl+y67Vq5tivmv37mldHfkVK+i+5Rb+8AtfoFgszrhN15o13PfAAxSLRbpvuaXpIslN2K5rzRpKnnde/7Xrujz42c8CUCgWeXiKVb9p40Y23XknAMVisXlTWnfLLdz3wAN0rV7dvD6u69Kzfj27XnihuX/WdXnwgQcmzT9X9+sCPPjAA3StWYPneXie1zx+NpNhx3PP4WYyzeu5ds2aSdei8f6uF16gODh4wdfiwQcemPSd5lesYN2tt8a+5ivI+z58zRhzlkA13pvp/Ymvf9GZKsJXgsYff2Eai6kw4XE8exG+yk133tl0dXz6M5/h9z/xCfr278d13abwTd3m333mM/QPDJDr6KD3t35r0vG8Uonf/8QnmtsATeE/F3d98pPN8/vWd75zll943S23UCwWeezxx/n01q1NAe2qi+J9DzzQtID79u/n43fe2XxigEic7/vKV/j4nXc2rdKuNWtwM5mmKBeLRe77ylf49NatzW0aN7eJlEolvvXtb5/X0j/XtehZv74pwlPn1bjuMZef970QN5hJfIUQ01qWc02Ep5vn5eC9OM/shAWtc+Fe4HYAK+pisOtHPwIhcLPZpl+2a/VqgObCWWMbI0TTqmt81mDvyy/jlcsUBgc5VBefiVbhTOQ6O5u/TydEn/v85/n01q3s+ad/OsvSvJDjF4rFpjBP9Du7rkv/oUN8eutWPr11Kwgx6cYx3bX81iOPsPNHPzqv//pc12LDhKeVwunTdHZ2vnPd6zeImMvP+9I1MZVz+XKnE+aZtp1NzjXP2VygvBAalvB0gjxRMAoXsVjVsMo23XnnWQLYEMeGKEy3zeVk78svs+6WW5q+4B3PPffOPFes4Muf//wkl8DlpPf229m0ceMFCWDpMkSlNL6vrjVr+O40i6uu675vol/eT/xCCPHFiGpD2N6LR/Z3w8R5znWKdYF1XZf88uWTVukn+hovZrHHK5dxMxl2vvACr53HLzndNpdDlCCKI97x3HNNX+2mjRvZ80//RLFYxHXdpgjv+P732fHcc+Q6OnjwP/yHyzJ215o1zUXChx95hL79++m+9dbme1eSvv37J/myG8TJIVeGOe+asO3p7xWXIlITrcy5LMLTcaGW8WwI9576oy5Mfnx3XZdt9QiJiY/g0zH1Ubv/0CEgsn53/uhHzZ9SuczOH/0IeGexb7ptLleSROOm0gi9ayR1NMZtWMI7nnuO4uAg3oRQy7PO8SIf6xs3sUKxyK7du5s3vCtJ45rmly9nz8svT7qmE7/nmMvLnLeIZ0rmOJeQSilnjAq4VNfElbCgJ4rmhQqtlHLaRcipx30vbzSe5/HY449zz9atrLv1Vv7yO9+hWCySX7GiKT7/8etfb27ft39/07ps+FUnWs4QhcE9WI8Q+MvvfIe+/fvJdXTQtWYN2596iu1PPz1pmz/7+tebC3Vda9Y0LdnLRWFwkO1PPdWc87pbbqHv9deblvuXv/CFpsV61vWpi1fDjXGh82rcBHKdndyzdSue59Hz0Y9etnOajr/9wQ/o+ehHcV2XP/sv/2XSdd/70kt8dcL3GHP5mPMW8cVYeEIIpJST/v9uxp34c7mZesyp1vrUxUcpJY7jYNt289waPxNjgqfGQL9X7Ny9m69+/etRWFn9D7chwn37909yVzxWj0nNdXTQs359M354In379086Xs/69XStWUPf/v3srC/I9e3fz7ceeSQS/eXLJ22z5wqkDe947rmme2Xb1q1gTDM2Or98Ob23307/oUPvCG/95rJz9+7mfutuvfWC/cl9+/c3Iy561q+n9/bb6XvttebnU29el4PC4CCf++M/nva6T42fjrl8iDfeeOOCTae/3r6dl1966UrO5yx+9JOfUCqVJr03nVU7SZwQSMvCaE0QBpeUoDHVWr1SXOichJC0trWwaFGOQ4cOoZTG6Mn7XExs8LWrVnHdtdde/IQvgPzy5biZTJQI8alP4WYyzT/wiY+2XatX45XL9A8M4GYyzRoOUx9/G8crDA7O+Hje2KZ/YGDS/g3Rm3jcxljAjMebbr+p+zY+czOZZrJFcXBwxnNpnG9jcXO6OTTGnfherqODzo6O5rlNndt0+0x3Dhd7LS7kusdEbP3sZ1m5atUl7z/nhfiHu3dPSnE+F1JKpBAkM2mEZYHWVMplVKiu8CwvnQsXYotkOsGvfOhXODowQBAEDA+NorVu7nsxvu8rKcQTyXV08OADD7DnpZd47K/+6oqPFxMzG7xbIZ7zPuKLxUmnyLbPo7V9Ht74OJUjFybis8FEq/tCBFlaklqtRqVaZvUHPsBbb/QzMjJKGIZNa3iuRYMUBgejONiYmJgZ+YUQYiEEQsK89jauWXkdViqFX/VJJ1yKx09BqICzxWk2Y4ovJt1aCIHE0JLJcupkgUxLK8XTpzG2ZsV1qzhdGGR0eBilFFrrOSfGMTEx52bOL9adDyEEUggSbpoly5dSq1U5VSiSSCU5dvIEbR0LZqwu+W7C2N7tQuDFvN+YY6k0Hi3apTJk0i4qgETC5voPXMuNH+wi5WawLOuS5xUTEzM7vK8tYiFAJCSpFpfrV6/BFklOnjjJwgXz6X/jDWzXRYQ+lrRQWl02K3E2UpENUaGe8ZExnCCgWvEIlaK9fQGpVJoFC3NU/CoiDOk/dBi/GmDMzIt374dEkZiYXxbmvBDPVK5RSIGVTrL8upV88JYPEXg+YVWRzrgcOPAaCxbOZ9XSVQyNDhGUK4ycOYNR727RbrqQs4sR98b+00VknO9YhihywghoW9hOsXCSXGcHoyPjZBa1UPUqFE6eZMXS5Vx37XW8/vrraCUuKWLk/UJnPdX5XBl7F7JNTMxsM+ddE9PZbUJIWtrb+fX1v8nC9kWcPlwkrISMjo6ydMnV5K9ZxVBxCCU0yhgWLlmEk0pMe6z3mpnC4s4nkFIIQNCSzaLKPtlEku5f+zW0CimNjzIw0M+SRVeTSrexqHMJK1auJJ3JRGF9XNnKc7nOzma9h+liW8/12SWP2dHBdx95hO8+8kizCNClbBMTMxeY8xbxdA7eTNbl2us/gKxp2lvmUa2V2PfKK3zkoxsYL3ssyS1m4O03GThxDI2hcPzkFWlx9G79yxPDzs6HlBLLdsi2tbFq5bXs3/8ayg9YkltEpVKlfd4C0i0utnAQCFbkr6dj8TW8ub+P4aEi5jLWH55Ko/g7RGUhP/eFL0z6vPFZYXAw7hYREzMNc98iniDEUkoWLlzIzTd/mFtv7aalbSFXX7WUVDLNB7vWcvCtt/EDn3JlhJofUh7zcCwbaQmElBfWE27CuFNdCROtyktJkW6cw8UmiwghkLaNtC2Gx2oMDQ+TSqQpe1V+/vabGNti8VVXc9VV1/CBG26gvb2d61atZOXSq1jT9UFEMhGd/3tAfsWKZkuhmJiYC2POW8RaqXoar82iq5fy67/xvyEUlEbHcSyLk8ePRD7gMY9E0qHslTiwfz933Pm/89KLezh9ahCNhbATGC4tpvjddsaYKLyN8LLG5xd6fEtGBZD+9e//AX0/3cvixQsZHB7Gr/lcs3wVjhAkEg4JJ0Em5fLWz99i0aIc7a3z+MhHPsqen/yYWrmCNvqKV3XbtHEjO3fvPm+BmJ7167mxXmO3b/9+9r700uQstnpHi0Zt4oltlKYj19nJho98BIjqNByawfrOr1jBho98pJn91j8wcNZxc52dbKinX3v1lvdT07AbNScax5mYAh0TczHMeSGOHLuC6667nmqoODlwHF8rrlqcw0lluOHGD+GNRW1kHEuipaF0ZoSTx46RdNNcO28Vg8NnOHn0KFXMNNHEV2ja0yzMXSq2beO4bSzsWMCbP38Vv1JhrFRidVcXh/sP4UgLjOLkqeO89fO3WbZ0BR0d8zl6dIDWtlbSiRS33nwzP/nJT8Bc2QU7z/NwXfe8zUIbZSUb9KxfT2FCt+fp2iD1rF9Pz/r1zS4YE3HrLYcaHTt2fP7z09ZH3vDRjzarp00k10vYf/AAACAASURBVNnZrOvQtWYNX/7CFyZVS+u9/fao0FB9m4ktkibO76tf/3rcTijmonlfuCZs22Ze+3x+9eabuW7tjdy2YQOZjIvW8Obbh2ibv4BFixdx9OhRBg4fIuWm6XvtVTJZl1KtyvETx0DMLMLnshCnFv+5nAJ7IUTJKpJUSwo7YUEQks6mWL5qFSuvuZZbbr6Ff/j7HxP4NX72ys9oa8sirSiqZNWq6yicGkSHikMDR5orn1fSIn70iSfwyuVmsZjp6L39drrWrKFQbwF031e+8k6Lo9tvBya3QbrvK1/hq1//Ol653LRCp9KoC1woFrnvgQdmtMY318Vzx/e/z8fvvPMdYa0374SooI+bybDrhRf43Oc/f9Y2jcXJxnE+9/nPs+MHP8B13WZj1JiYi2HOW8Q33NDFylXX0dLSyqpVK2lta+HM8DDdH/51SuUK7QsW8OYbP+fQwNtk2xeyZNliLAPHBgaoVUqMVWrMa8syfHoYgbjiNvHFCtx5oyUsCyeZYGG2DTfTyoc//Gv8f7ue56YbV3DgwH6KZ4YoVz1CrfnYx26nMj7O6FiJgYEj/Na//G2Gh84gpMWKG1ZjjOL4sWPRPK+Qz7hYLLLj+99n08aN3PWJT5y1cAfvtOPZ+9JLzRrFf/uDH3DP1q1sWL+e7U8/3Wx1NLEr9I7ly+lavfosS7dRmtLzvKhp6DkK1HzpK18BIsu9s7NzUo3k/PLlIETTCn/y6acp1hcYGzeVXEcHG+qlKPsPHWrWzyg8/TS9t9/eLNATF8mJuRjmvBAfGniTvtdeZdXK6/G8Mgaff9jzImOjJVasXMXSa5Zx/NgxpDR87Hf+NQNHD1P1Rhkrlcn4AR+86WZee/lFdIdNpeRhwuCC438b/t1zpR5P9AGfv3DPxRWml1KScByWLVvKidODZMtldv3wh3TM7+TEkcPse/UVbv+dj3NVbjGDp4qknSSplnay8xZy/OQxsAzzFizkxMljuMkkCxbMJ51KceLkiYtZt7xodjz3XNSEcoaFu0YYW+/HP07vxz8+6bNcZye5jo6mdTrR5zqxDf3ULsQQFVA/nwAKIbjnM5+ZVCt50vgTjjvxWBPdIZvqscn5FSv4/jSlIXOxEMdcJHNeiG/7l720trazsHMe2bTL/tcP8Lk/vJeDR45y7apVlMZHcN0UVa/M3z7z3/k3G/+ARx/5M27q/jCt81wOvPISC9sWIL0zjKTSVLzgrDGmK8p+IdERU7c5nzV8rmNNFXwhwElY3PyrN2Msh4/9m3/LSz/5IcWRArad4NDRI/yrj32MFflV3PjBD1E8cYS/+qvvcufv/x/oIORf9dzGj3+8m1Apkuk0y65aQqUyzsG3X8KS9hV1rXiex8Pf+Q4PPvDAtN2GG/Tt3z9tH7tLaXPklcvkV6xg0513nrNubsOPvPell5p1jb88jdV+zrHq7YJm6joStxOKuVjmvBAXiycYGR1h/vybkcIi67YQaIux02dguc/Le/cSSIFUips++CF+vHs3/3bzJzg1WKRQLKCFYfE1yzj+syLtHQuoVEr8/+zdeVxU973/8dcMO8MmIMOqCIqigmtUXDGiTUyM2myN5mZro72/NG1Merv8mvTmJu3N8ks0yTVtNW2T3kRttkZcYiJoXAE3VBAUBGSHYR1gBllm+f0BTAYYjDHqQfN5Ph48hDPfM+c7B3zPd77ne75fzNdmTO03Be1A5ez7nb+eCN6JoKGhrHjwIV569WUiS6sIHBLEhZJC5tx+N8mVH+Pv50/26Szm35qIm6srzS0tfPTP9/Hz8yM6eiRubm4EDxmCm7s7UVEjMBpbGHJrImfy8lBd49tbsnNybCtxOHosbtw4dLW1vS7oBQUF2VrA9vP89oTdivvuI27sWDKOHu21FNI7774LKhWPP/IIK+67j4xjxxyOV+5Z4h66WtdFJSVEjRjRq0xRSYnte/v19579j/9Ao9Hwzrvv9lostWdieOhqzRsMBllOSHxrTk8++WT/S9ADOJOdTWVFxbWsTz/evoFUVFZgtTjh7OpMR4eRE8cz8fcbikUNEcPCiR45ApxdCQ4OwWw2kZ5xjOqKEpycXVGhorPTQlBIOLrKsq6pJPvMb3y9L8A5Ojb0blm7uLiwfPkPOX7iCJHDRqGrKcHd1Z2oYSMYPWo03t4+pKbu4957llNeVszR48eZGD+RqVMmo29qJvNEJm4uruTk5nC+IJ9Wo4HykgsYW1oIDQvHzdUVFxeXq/IatEFBJHX3+9qvrXYmJ4ek+fNx7T5OxrFjXCguRkXXShVRkZEEBQXhpdGwIDGRXz/1FEajkbzz53F1cSFu3DjGxMTQ2dnJlEmTWHHvvWiDgtiVkoJer7dd2Ptk61YOpKV1LbsUFMToUaPYlZKCl0ZjK9NTr56fXVxd8dJoeHjlSob4+dnK5J0/b3ueyZMmoQIWL1rE3FmzbMfKKyhg8aJFaDQa5s6ejQqYMmkSqx55hCkTJ15yiJ24OU2bNg1/f/8r3n/QB/GIESMIChzK2HHj8PD0wMPdlejocFydnThz5jT6pha8vX0JCwlm+/ZkZsyejclqxdVFzfn8c6idVbh5eNBhtVBbXcmYMWOprq7Cauk/nvZqDuu6nJEJA4Wwk5ML0TFR5BeXETFyHCGB/pisEBoSQUiIlvLycjy9PBk9agyH0vdzobgUi9lMekYagYFBxI4exwP3/4jZM2dhNLagVrsQFzueWTPn4OzmScqXuxkyxB93d7er8loHCmJja6stUOHrIO5pZcaNG0dUZCQzpk1jTEwMupoaPklOplGvJzs3F41GQ9y4cUyZONH2HJs/+mjAkD2Tk8PSO+5gyJAhaDQa8s6f71Wmp7Vrf9yOjg7bxb/s3FwuFBdzJieHhFtuQRsUxJSJE4mKjMRoNPLqm29SXllJZ2cnmadPM2XCBFuZnvrt2r2bvPPnr8p5FTeO7xrEg36FjiqdnrDwSBYuSsRiNoHFik5Xw6hRI6lrqCd8+DBa9HoOZ6SRezaPZXffR+7ZXMxtzRxOP8qMObdS12rGy82dc6fSiB0zhrLyYrKOHunTJ6v6VksN2e93KQN1Q/Q8Zt8d0RXCzowdH4+3nxcjR45l6sy51FeVY2prw93Nlc8++4iqyhoWJCWi1xuZMDGe8LAIWppbOJNzhtGjR/PRRx8SGzuGsbGx+Hh7ERMzllOZmWSePI67pwfe3t40NzTQ2Kz/1q/XEY1GQ9Tw4QD9liq61GPaoUMZERmJV/dyPH0fh67ugZ797VcRHuh5e5b3ga5uBkdltEOH2uaeSD92zHbxsKa2tlefddzYsbaLdwOtYHw5ZcTN76ZfKmmIfzCFhUWMHTcWb40nZksnaYcPU9/YgIffEIb6BWNsacY3wBs/Xx+c3bxxdbJy9HgGUyYnEBQcxtm8HJw1nmh8/KnMy6LVaKSiopS66mosVqttzvhvah07ulNuID1l+4a9vV6PqdU4OTtz770rCRs+gl3bP2H1vz9BSWU13t6+VJQUsm/Pbob4evPgg4/Q0tKCq6s7W7d+zIIFtxEVHc35vDwMxg7CQgPY+fl2hvj7oauo5bY7bqOktJjxsXFkHM1gz569jIkZhV/3R3IhxHfzXYN40HdNaDTejB8/ntjYWJqbmiksLCE2fioqZ3fuuPMuwoeHcbHTiK+nB21GIxovb4JDw5g7ZzYtxmb0DdV4+/rTXK/D182NJ5/8GVmns7jY1oFKpeJiqxGsjqe4vNzAdbTfQEEOvbshelZhdnd14847lnLLjFtoNTThO2QIe/ekoh0aRnNTI1HDh9Osb8LD3YORo0YRERFBq7GV5hY9Y0aPw2gwUHyhkJGjwvFw92LixKmYOkzk5Z3F2NqKwWDk+Inj1NfXM2/eXEJDQ2luarrSX4sQws5N30eckZHGocOHqKmuZMas6bS1tTF27Fg62o0MDwsh6/QJnJ1cmDUnkTGjx+Pi5kxtQyOFefkMHRpEbs4ZXNzccHZ2Jj5+GuUVFbS2tdNQV8vcWxdgaGiipaXJNjmbo66ES331Ldv3ORyVtb84qFY7ERgQyH333UujsYXy6nrUKogeN4GQiBCGBvjhq/EErIwdM4rz5/MIDgmlubmJWbMS2LxlC8ePHcXHV8Pc2fPp6LjIF7t3ExwSQkBAIJMnT6C2ro5p02agDRrKzh07yDx5ko6ODny8va/Bb0yI75+bPogjQsOZPGEyIyJHcj6/AH9/P87knuLQ/gPoamr5+c+fwmBoxMXFFT+NF2VlBbQYTNx55+3knDuLj483p0+fIjJ6JBZ3L0ZFR5OSkoKvrx9jxoxmzszZqCwqKivLMZlMl6xL3zAdKIh7OOqWsN9PrXZh+vTZPPrYoxw5fgRXv1DmLbid2upKmhob8XD3pLn5IubOFmp11XR0mHBz86StvY3qah07Pt+Gq5sbkydNpaCgkJzcbDpNZlTAqOgomvWNeHl5oW/UU1VZRV19HdOnT8fLw4NGvf47/eEIIb72XYN40M81UVZZyekzZ4iOjuahhx8iMHAoXp4erH58FX988b/4fPs2QoKCCfQdQtSISPILCgkICMBgMDIsfBgzZswgMEjLDxbdycVWI2kH9hE/bhzL71uJvqaWxoZG1O7O/HjVTwgLC+9eEWTgteP6ftl3L9j3C/dtWdt3Rzg7OxPgH8jPn/k1CYnzOV9USP658yxfNJ8QjYrKqlIiw4bi6QxBARp27txB9qksMo4cIUgbjJ+fHwEB/owYMQKr1Up9XR3z5s1l2bLlTJ82k+ysXF7671c4cOAgpcUlJEyfSuLcWXS2XWTnzp1YVTfXSh1C3OgGfYt44Q8W4+Wroaa2ivq6Ojw83AnwD6KsvIzK8nIC/AOYPGUSRUUF/NeLz5NXWMykSRPw1nji4+PBm2++xaxZidTV1hIVFgwWCx4aT0qKLnDH4qWERkYyJmYU23bs4MX/foXGpnpKiy8Al7cUkn0YOxp1oUKFmq4bNNQuLgQODWJO4kISExOpKCki/+wZLnaaGBc7mi/37MHLOwgXtQVvT2/KSgvZtetzxo+bxAMPPIinuycajSeZJ08yenQsMaPHMCFuEp6ubmQcPcqo6BjcNZ6ERoSSNG8urUYDKhWUV1Xx9tt/xsXVjYceeojsM9m0XWwjQFrEQlwV37VFPOjvrFu37lVamluIHRPHvz34bwRpgzCZOvAPCmD/wQPkZp3l+Mnj+Pn68dDDj+HkrOKtN/9EeEQINXWN3HvPPVwozMdksZCdfRQXtSeL71jC8IhOvvxiByNHjuLfVt7NSy+/yPv/+79MmjgdN1dnTpw4RUtLCxcNRsxm8yXnh7BvHUPv0RUqlQoPDw0BwVrCh8cwP3EW25KTWZB0Bysf/Xea6nV8vu0TOkxW5iSE4kI7kyZPJDw4jNbWJjra27n99tspKCggPn4C5/LPUlVdjTZYS8fFDvLyz6DVhrJkyRJSv9oPVhOR0dGEBQfj4u5OWMQwzGYL829NZOfnO8kvPE9np4mggIDr+WsUQlzCoA/i6VNmMmPGDLTBwRw8vI/mpmZGjhzFlo/+iVXtzNQJU3n8xz+l09TGXza+Q2NTC489ugoPNyeGRUZSWlFCVvYZ5iQm0dhwBo2fin+8/x733rMcd083JkyaTOreg8SPm8DYcXFs2vw+QcHhRI4YQ0N9FdpALQVFxbQam+k0d3CxtRWLBVRWc9fcvnRfdEMFqu7VN5zUuLi64uPtA1jwCQxi/oIfoPXxJvf0caKiovjxwz/kk20pjB8/mjFjY9HrDXh5ajicnk5wWDh79uxlbOwIhgzx4Z13/saKHz3A/oP7mTQ5jlZjMzU11USGD+fixTY8Nd7k5p7l1vmJZJ48yqeffMQvfvYEMaOjwepEU3MtVVU67vnhvXz++U7q9XVoAwOV/tUKIboN+iBWO6vYd2AvJ04cZ0HSIu697z46ze38sOMe4uMnMjI6isbGBvZ8tQdnV1eefOL/oHZSMyIqkmMZGVRUVvCT//Mz9M2tTIgfx3O/+y3TZ86l7aKJiPAIsk+foKOjHY23HzpdFY889mPST5wmNHQE44dr2fzRJh548GFamvRcqCghK/M43j7eePn6UVddg9lkxt3DA72+DhdXVyJGRGNxcWX0iOHknjzFLdNmM2HSLWSeSGPnga9YsfIhMo5kYEFNU10Nf/qfPUSEhzIsPBxnN3dqqqv41yf/RK1WMXx4KO1tHUSNCOXgoQPEjhtNxpEMOjs7eO211/jRjx5g2fIfcvzEUUpLi4keOZzhkdH828oIii+UYDJ1cGD/Ado7Oxg7dixB2iCsSP+wEIPNoO8jPnjoALraWhYl3cYDK35EwflCtm/7grGxsYSHh5Cefpi//u97tLS28fNf/JyUL7cTExNDWUkFuqpyjhw7yW2LFmMwGCkoLCVp/lzKyyuZMnUG1ZUVhAYH02JsISBwKAaDEbPVSvKnW0icP4vbFyZy6HA6zc1NnMsrYETMWCKjRtFY38BQf3/mzpyFs7MTxostuHp7MzQoiFa9nuhhUdRVlHP77UuYt2AhmedKiI0dx5jICMprGjh37iwmsxPDI4YxxNcfFzdXdu3azicf/ZMxseNoaKhl/PixbPz73/ntb3/HiYw0Tpw6zqmTJygpKWXevIVMnBDHjp1b2bx5MzqdjunTZuHv709zQx0Wq5mmpmZmTE/AP2AIX+7+kuzsbHJycmhsbMRisRAYGCijJoS4Sm76PmK12pX5iQswXrzIw4/9GxHhUTz72/+k9EI+WVk57N2/nyZDOz95/F5M7a3MnDWP3XsOEj/hFsqrqimv1NFqslLf1MqUSRP57z/+X8aNm8oQH2/SK8up0FVj6jAxdcpU9E1GQkLCiY4ah7OTB58m7wK1E0N8fZg0fR6mDhPpJ0/wm+de4P0Nb+Lh4Y6hrR3cPAj08cVF5cTkCZOpb6glauRopk2ZwITxI/nks084n3uIJQvmc+LMGeYvXEhDQx0lpRU4u6oYNXIETq5udHaYcHVz4+4HVtLe2s799z/I8SOZrFj5GLUNNWg07uj19WzZ/CF33LmMV155nZwzOZzJPcVfNqwnNnYMP/3pT2lvb8dk6iR5+2dUVVVx//33s3//foqLi6948VMhxLUz6FvEpWUlnDmTTXlFOYmJiYwZE0taWhrZOTm4erpTXFLCih/dz/ixY9ibsherszs/WLSIf32yhU+3fYJPoJb21ouo1VYuFJ7F39+f0dGRvP32W5SUlJGTdZqw4EA+/XQzE6fNoKxKh2+AloryCppaWhgWPpzCgiJmLljArh2fUFp6AQ/PAIKDA0icMw+c1LQ01JF14gg11VVog8NoN7YyxMuLsooyCorLKCopY9y4WE6fPI27ty+1tbVknjzJ7Dlz6Whrxc1FTVlJMYFaLfETp9JhamNYWBjOTs7s2JFMaMRwtEOD6ejsIFir5dZb5/OXd/5M4JChhIUNpbq6GicnJ8rKymhqaiI3N5fx48czatQojhw5wsGDB4mPj+fChQu2kR3SIhbi6rnpW8Rmkwmr1cKIyEiMLa28v+t/GR45gp//7ElcPNwJC9OyeNECvtr/FWPGjiZ13342/u3P1NfXcPc9K/B0ceHzzz8nJm487q4uxI6MRd9Qg5ObGz/58ROoTE3k5pzF0NpGXl4uixbcxoWSIrQjwvl8z24wmRkWE0nG/q8YOSoGPz9/vF1NfLXnIEZ9M9WNtQRqh+Ls6kpIWDhNBj2+3p6EDIvA0FzP6exsQkLCqatrBpUTB/bt5kd338PZzAzef/fPDPEP4K67lqFWWygrvcAvnvgFhw5/RWhwAIV5Z6ivr6W9o53qmioC/L1IS0snNjaGRx9+iOLiEo5lHuH2xXcye85c8s/lYmxtZ8yYMRw+fJi0tDQWLVrEtGnTeO+993oNr5MWsRCDx6BvEZeUlGAymairq6WyspLRo8ey+PbFnM46jdVqZeKE8ZSUVtBi0PPqq/+P+vom7r3nHu5Zdi/+vl7s+GIPM2YlMW/OXEK0WoJDgvjoo4959ne/p72tBa1/CJ4+PgQHB+Hp4U3AkEAMhkZKikupr61myuSJpGWkE6YNwWqFhsZGcnKy8fb1wWw109LUSH1DAxY1ePsNob2zgzaLhUa9gdOnjhIaEYqbk4rRUdH4+2ooLy8n88RJJk2eTHW1jnZzK6l7Ulm+7IeczD5F7tlzREUOo6KynOKSYnJzc/HzG0JYaAhHjqSx6Ae3kZl5An1DCwcPH+Ts2XNotVr8/YdQUlyKRqOhqamJUaNGkZWVxdGjR3FxcaG4uLhXEAcEBMg4YiGukpv+zrqeRS7VajVqtRofH2/+/Oc/UXShkDGjY9BovNjx+ed8/PHHgAp3jRuxY0bj7enBp59+yvi4OIYNCydEG4TJbEKv11NVVc6Wjzbj6TMUJw9nOq1qqqqqOXEsHUNLDV+lfMHOz3eCSs2ObVvx8/IiIiyUuNgxREeEsWjuHIry84iNGUlBXh6Lbl3E9Im3ED82nsW3zqeyIJ/EWTMwNrXgpnLFiprO1g5qamppa+1gyrTpxE9NYPnye0iYPhuVyonKiiqmT55KYWEe7//jf/nzn/5Mi9FIVHQkqXt2Y7FamDJlKim79xIWOpyhQwNZtmwpVqCooID9e/ehdnEnNjYWk8nE22+/zV133cW4ceM4fPjwFU3xKYS4PgZ9i/hCcTGdnV3rzJlMJioqyrj//hV4+3jx179vZPfur5g9KwEXF1cWLVrMA/feS7WujvRjxzmdk81tCxfi7+NKSmoKoRGReHp4cCrzKIVFF5gQP4Xs3BwC/b25UFDA7YuXcPzEMepq9Tzy2E9JnJ9EZ3srjfUNaEOGYWztwMvbnS+/3EFFRQWWdjN1NTUEaIcSHBxOu9FIaWkhNRU1dFqslFWUkX/+LNEjRzNx0mRycrI4ejqLBfMX0tjUTEREOMOGjaC5uY7Tp7J58MFHGT82lpkzZpOVlU1h0QWeefrXNDbUsXPHTlQqUDtbGDEiirb2NsJCwokcHkFBUQFOzs58+snHFBQU4OPjQ3R0NNu2baOhoQGj0dhvXT1pEQtx9dz0fcQWiwVL92oa0NUyrquvZ+/e3ZjMncydcysxo0eTdzaXkJAQykrLOJSewZ59qURHj8bZ2ZmI4RHs2LWbZr2eU4X51NTrUTm5UlqaT8ruzxkaEEBzk4GhQ7V4ew/h7vvux9PPA2O7gdDhY3Bx1nAo7SA/++mT/HXDWwQFavH1CyA+fhLllWWcPnWaJctGEjp0KP/aeoZp0xKInzKVkVHRuHk48ec/baC04AL19VVMnzKVYWHhtLQ04ax25szp05zOPMqUqXOor9URGR5Jbu4ZfvbEz3hz/Zv84x//4Bc//wXZOTnk5Z/l811fYuq0EjtmLFVV1bi6uhIdHc2ihT/AbDaTkpLCuXPniI+PZ/bs2Xz66ae21vDlrl59JaKionj297/nN7/6Va+VlwHeWr+e5K1b2ZOaCoBWq+WlV15h3euvk52dbSvXs93RcyxdtoygoCDe2bix1/a/v/eerfxLr7yCVqvtV7fHHnnkknVfumwZK1auRKPRoNPpeGfDBjIyMr6xbFFREW+sXUtRUZGt/k89/TRxcXHodDr2pKayedMm275rnn6aGQkJaDQaUlNSeGfjxn4LjQ50Dh5fvRqsVtvrX7FyJUuXLbPVedvWrSQnJwPw7HPPERUdDYDBYKCosJDNmzb1O6di8Bj0XRM9egLEYrGwZ8+XmEydBA3VEhA4hFdffpU5826lWldJdW0VeefzwWpl+rQEoqKiWfvqWmLGxuPp5syXX+zEWe3CivsepLDgPNrQaG7/wXKeefrXzJmbSFrGIfz9g7CanXFTO+Or8cBvaCBqtZWMjP2czc8lbvIswkOHg7MrS+66h2Z9Azu3J7Pjix0Uni9i2PDhVFaUYbVAa0snt9wyg9FjRxM7fjxnsjLZuzeFRn0j7W0XOX48ndq6BkLDwjFbLHh4eODk4kJ2Tjbj48ZxJvcMVVU64seNo6ioEBMWdu9OISc3h7KKMqqra5kcP5l//vNDYseOJSAgAKvVSlZWFp988glmsxlwMG+y+uquz1dUVISuupqkhQt7bY+KiiIqKorsrCzbtp4wWrFyZb/nCepeqr4vjUaDpntJo4HKa7Vakj/7jN/86le9vi4lKjqax1et4g8vvMCdixezZdMm1jz9tMNjabVaHl+1iiefeII7Fy8mIy2N3z33nO3xl15+mezTp7lz8WL+729+w9Jly4iLiwMgKSmJ8XFxPPbII9y5eDFarZaly5Y5rJOjc+Bl9/qXLl3KgqQkWz3++OKLrHjwQRYkJXWdKy8v0tPS+M2vfsUba9dSo9Px0iuvDHhuhfJumCDuYbFYMJk6cXJyYty4caSk7CF27FhqanR88P4HfPFFCvfcew/jxk8kYeYM9qZ+wX0PPERO9mleXfsqJquZHz1wH+PHjqCyqobHHvkJ7hp3NF6e1NbXYzKZSEndQXNzAw119VRXl1F0/hxuzh7U1dRx1/IV+AeFog0LwcvNA7WbMxMmTmDs2DEMHz6MWxcnET16FOGhEYwcFYN/oD/OajUfbNnMyJhYvHy82X/wK/7x7kYOHNhLUXEhViscOLAfY3MTG/72VwKDgvHx8SUkRIvKaqG4tIjMzEx+/MiPWb5kKREREVRXV7Nzx070ej2+/kNoaKhn86ZNLFmyxDYrW99REtd6pERGRoYteHosSEoiOyurV2ts6dKlrHv9daKiohwG3ndhMBqpqanp9QUQFxfHjBkz+u9gtbJu7Vpbyzw1NRWNlxdRUVH9ivZ9LcnJyWi1WoKCgtBoNARptbZWqU6nIyM9nRkJCV37LlzItq1bbS3g5ORkW3B+WzNmzmRPaqqtHkVFRWz+4AO0dkFr7D4PRUVFbN68mTPZ2ax5+ukrOp649m6oILZvdJ19KAAAIABJREFUFZvNZr7a9xUzE2bi5aXhz39aj17fzNJl92M2mZg5YxYVFdXEjp/I1s8+5FjGYYZHjuT5F17l3nseYPv2zxkXN5n2i02EhAZTWVVJS0sLc2bN5uDBfZw8mcmhtL2k7N1NeVUl02fNISQ0jJ1bP6GpvprG1g6aDUZKyio4d+4cu3encDormz1ffMn2nTtp7TTRZuqkQV/HqczjBA0NwtBqZv6CO1i85If4ePlw7lwB8xKTcHNzR6/XEx4ZRXhoEG0XL+Kl8cTNxQNnZzV/e/evnD13lsCAQG6ZfAthYaHMm5fID5IWsm3bNn7/+99z++23MXbsOHbv3o2Hh8cll2gaaNt3lZqSQlx8fK8wTkhIILW7SwIgLj4eK12hXVRURNIVhtG3FRUV1e9NArpCbI9d/WYkJKDT6WzdDfa0Wi06nc72c0/YabVaW1eAfVeDwWCwvdFotdpez2k0Gh12o1yO7KwsFiQlERcfb9uWnJzM5s2bB9wnPT3d4ZuLGBwGfR/xQCwWC05OTuzatZ3W1lY6O82Mih0OKgtf7NpNwrwFWC0W/vXph9ToqlFZoaCggMrycoICAwgMCWLixIlUVlZSfqIKdzdXYuOn8Pe/bUSldsbV1Z0DB1OZmjCXyVNn0tnRgbunD+HDhvHhPz8gJm4CprZmaitrqKutY8HCO/H08cTZVcWxIxkUnMtj8rRpbPvXR/j7BXDHkrsxtOjRePsQHT2S0sLzZGdnEjvmIfLO5nAh/zyvvfpH7rzzhxQUFTNu9EhMFoiJieVMTha1dVXk5uZSU1PNrbfOJ/NEFj+8eyn/Sv4XlZUVrF27jscee4z09DQqKyt7XZxz+P0Acy5/F0ajkeysLOLi48nOziYuPp4grZaM9HRbmaTuViXAnj17WLBgga0VeTWsWr2alQ8+aPt544YNZKSnf+MxHl+9moSEBIKCgvjDCy/067u9Ekaj8aq3+IGufmerlTVr1mClK5i/qQ/YaDSi8fK66nURV8egbxEP1HKzWq2YzWaam5sxm834DvFj6bIlvPHqH1Gr1ESEDGXvni9oaDQQEj6MyOgxrPn175gUP4a331pLVUUl9fUNtF1sY9SokbR2WrnY1kbrRQOTJt7CtIkTADXjxk9DDXh6e+Di4cmwyGHUVFdSUXqBE0eOcP78GebOnc/wiFDCQ8L4we1LiYmJoby0jJycHJxdnGk2GugwmxgWHkaQny9NtbXMnD0HU0cHR44e4sGHHmbO/AVUVlXw17/+haCh/mRkHMPDw5248RNwc3UH1Lz6/14iPeMIvj6+NDTqWLduLcuXLwdAr9ezdu1aOjs7e7WG+46W6Fop2ql7Avyrb/OmTbaP3ElJSaSmpNhCTaPRMCMhgW3doZielkZUdLTDluoVH/+DD3r1D9v3TX/Tfn944QU2f/ABj69efU0C9GravHkzjz36KO9s3IhKpeJ/1q+XFu8N7IYNYvg6jC0WCxdbjWxY/z+YVK5MuWUa/++lFzmXf54fPfgwGndPpiRMR+PpQXG5juqqasrLywnwH0LirXOpKCkl0N+Hf21+F3dPX/7wwrPkZmfi5TOEMTEjaW+tp6m6FrXKQuSIGExmE+MmTSMo0B+sTuDkirOLB53tJhpq9USED8eCmRHhw5g65RY62jsIChhK2sGDFOSf5/SpY2g8PMHqhIuzK9VVNUydfgsRw4djsXSy4S9vERMzClNHJ77+foRFRDIjIZERI6I4efIYf/v735g0aRL5+fnoquuIixvf77xc6hxey9ETRUVFeHl5ERcXR1xcXK+P/QndF+neWr+eHZ9/zocff2wL56ulbx/x5bZsjUajrT9VpVI5rJPBYOi3rSewjQ4e02q1vY4f1KcrwtE+lyMuPt523Iz0dNatXUtGRgZ3LV064D7aoCCH3S1icBj0QezUvQTRpVgsFtrb2mhsbGDJXUs4eyYLfV0dUVGjcbJaycw8iYuHP011TVSVlWI2m/H3D8DJCT7+9F8MDdGSunMHFeXVPPmLX3E4/SQdJgvOTmrUTuDm5kloRDDZOWdoNTRhsZpRWSx4e3nh7OREeHgoNdVlFBbkkJV5jDGjY1Bjpa31IoEBgYCV9ANfERExjMTEebi5u9NQ34CHpyv6xhpa9A1YOkw4O7tjNptpbDKQX3CWzs5OTB0mQoNDUTupmDt3Hs4uThw7dozPPtvK6lX/zqHDByksvNDrXPQYaCXqa3nhzmg0kpqSwuOrV3d9bLYbnrZg4ULWrV3LnYsX275+++tfk5SU9I0tUKPRaAvyHj1h+V26EZYuW8ZLL7/ca5tGo6HGri+4x4ULF0iwC+iei41FRUXodDqMRmOv1n1cXJwt/LKzsnq1WKOiohwGY8/z9O0/jouLs53LZ597zuGIC68Buh60Wi0rVq4keetWh48L5Q36PmJV9x11PcOwBtLTOv70ww8wW8DbL4BRo6J54bn/wD9Ay/DwYLZteYcGQwc/vPteOk1m2to6iB03hf37vqCitAifAC2nT50iIjyEiGGRZBw7wqmsbKydbbS1txPg58vhQ/vx9tIwMjKCtvrh5OScpaPDREz0GHx8XPk0eRvl5aWYLRY8vX2YMSOB2ro6Dh/8CpiHi6srCQkzKC+vwWTu5NjRw7i5ODNq9Bh+sPA2tEP9MBg6yDqTjY+3L9FRI9m29VOOnzjKA/ffT2hIOKWlJeTn5/Pmm2/Q2trCN900dy1bwI5kpKezdNkyUlNSbNu0Wi1xcXGse/31XmWzs7NBpSIuPp4L3cG0avVqDHbhmp2VRWpKCguSknhr/Xr2pKai0WhIWriQzR980CuIk/pcxAJ4Y+1aVqxcSVBQEG+sW9frsdSUFJYuXcpTa9ZQU1NDXHw8uupqW+i99MorZKSlkZycTHpaGitWrODZ556zXWi0P/7mDz7gqaefZk9qKlqtFivYPhEkb93KS6+8gkajwWg0krRwYb9z0WPzBx/w7HPPkZ6ebquTwWCwPde6tWtZ8/TTBAUFUVNTY+veefKJJ2zPMWPGDFsLPCEhgeTPPuv16UQMLoP+zrqS0tJ+/Z6XYrFYQKXGy8eX1pZmysrLiZ86jVPH0jl98hhJd91NmDYQq8qNoKCh6KrLObhvL50WK/etWMnkCRPIzT7Jjh3/otVoYPbshUwYM4pqXS2GZj2HDx3koUd+isnUQZA2hIJzuRSVl2Iyq3B1gjO5ubR3tlNaXMbyu++molLHpAlxHD16hNrGeiZMmIS5w0RDfR3NBj2NDXqcXdyZPXs2x45kUFZaSkR4BOPHjmf79m3k5pzhwX97kOStW8nOPsNPfvwT0tPTMJvNdHZ2AANP4GPfGrbvK1ap1AQEBDBkiN93/O041jNs6sD+/baQ0mq1nDh+nLy8vH7l886do7OjA51OR0V5OeXl5dTodL2+ysvL2fX559TU1DBkyBD0en3XTSJ79tiep2f/vvsWFRWh8fKivKyM8vLyXsfu7OwkIyMDFV3jb89kZfHee+/Z7uY0Go1cKCqisbHRVrazowONlxepKSns2rXr69eRl2erX01NDW+vX297nsbGRg4eOIBWq6Wzs5NPPvqIzMxMh+cvLy+PgwcO4OXlhaurK3tSUvjHe+/ZHi8vL+fggQO2OpeXl7Nu7Vr0en3X+e9zHt5ev37AY4mr47veWafKy8u77KbSls2bOXb06BUf7EocPHQIY2ur7SP35Qayk5MaqwWCI6JInJ/Ixx+8h9rFjZ/+8tecPvwVcxfdhafGi+SPNjMn8VZ2bPuMW2+7DT9vf8ydBv76141cbO3gV//xLLWVZbR1dHAi8wiFhecIHTaS+++5lx07t1FdWYzBYOKpX/4OPy8XikoukHn0CDk52fj7a1l+3wNkHk3nxIljWNWQOG8B9y5fTllFGZmZmRSXVtDR2YqXuzdLly6jqKiAnTt38qMfPcjp00f56qu9/HD5vWRnZ5F//hxDhvjR2Ki33W1ov17e5Z8bZ2JGjSJqROQV/16EEF974mc/I3rkyCvef9D3Edv7Nh+vzWYLFquFel0Zn2x5H5PFjIePD1VlJWQcPY6xuYW3Xn2RwOCuCYHarRY6ccLZ2sHeL3YTOTyGAD9/hkcOwzcwkPDoERQUnceqciZo2Eja1U74+gfQ3NyEVW2hrkGH2aLGGTWlVeWYLJ34+fsz45ap3HnXUrTaoWCGrOws9h1Mw83dm7bWDmZMn86oUaM4fiKd/fu+IiIilKqqMjZuXE9HuwmVSsW27VsJDgnCYrFQV1dve1OyWCxXNNG71Wqha7U9IcRgMPiDuPvj9ZX2cXZ0dGDq6EDtpEbj7sK50yeZMi2BC0V5VOsqMbRe5NixNLxcPHBTqfj0kw/JzT/PvPm3ETN6NJW6WlSubhw6dBi/oSEEaYPx9/VBbVKj8Q3A31+LWtVVzaLiIswq8HDT4OTsisnSyfETxziXexZvb29mzZzF8LAwOtoNnC/Iw8dXg666ijGjYsBq5cvdO8k8cZKYmNEYjQZUKhUREcMwmTrZt2+fw2FpV0pmYxNi8Bj8Qfwdr/BbrVasWLFarOgqK8k5k02oVkvWqeOoUDFlykS2ffYZTq4uNNXVcDY3B2cXNc6uLrg6q2hpaqClqQ5DUwMPProaH29vMHVy/EQ6aosVtauGBYvuoPRCEdHRI3BzdaWxoZH7VjxEU5OeysoKgrRBnD+fT3hYGBMmTiQ94zCdbW3k5GSxe/dudLpaVCoVZrOZL7/8kvvuuxeVSsWx40cpKyvFZDJd1RCWSeGFGFwGfxBfBVZ65qgwYTaZ+PSjzRTm5+Ps5Ex+zikutrURPSKKHVs/wWQyYTAYMDY3kJ6eRnWVjpNHjlJdXYOHXyAWqwp9QwPBIcEcz0gjYc6tBPgH0n7RiE5XTUN9HWHhYfgHhODh5s7pk8cxdXa1yA+npeHt7U11ZTVnsrMJ8A/A0NJMS4uBYcOGo1KpaL1oYO3atVgsZozGFtvFnqt+TiSMhRg0Bv3wNQYYC3vlrFgsZlSoaG9vZ+fWT3H19Ka1uZGGhnpAhcZLQ1NjDcb2izS1tXMk4xAqdy/aWvWUXyjk4kUTk6ZOpqPdiNVqor29g71fpRKkDSM76xgXistorK+npbkJXZWOWbPmYTAYyMs/x4X8c2g0blRWVbHq8Uc4cPAQ+7/ag9nU3lU7q5WWlpar+HqvH41G029Ohb6ioqKIio5Gp9MNeNfb5ZYxGAy223o1Go1tvgdHesbx2u9jv59Go6GosNDhY33rMND2gfTcgFHTZw6LqKgo27jhgZ47Lj6eosLCfjeGxMfHOzw/fYfuQdeNI3Izx+A26IN4oNEA33VsrBUrWK2YrdBmbGHXru0AqNUqPDy8aGu7SGjESHy9XLFYOnFzduF85jHqG+tx9vSl4Px56up1nD+XR21VBab2DurrGjCZrDQ31lNZdgF9ox6zuZPyshIC/P2o0TVw5txZhg0bQXZ2Nhs2voPFYqZaV3XFr+OKXvs1ag0nzJzJggUL+O1vfuPw8Z75eIsKC23jbH/761/3CtNnf/97oqKibGN2+5bp8exzz6HT6WzHiouPZ2n3nWU9s6f1hFRPYD2+erVtXgbonkP5uecwGI0YDQbi4uPZvGnT149HR/PSyy/zzoYNveaqiIqO5qk1a/jxo49e8nxotVpeevnlrrv9dDrbTRzr1q7FaDTy7O9/329O5oSZM3lgxQp+/Oijtv0fe+QRWxA/vmoVSQsXkp6WxoIFCwhas4Y/vvgiRUVFtvJ9w7lngiUxeA36ILYMcCPH1QwT+zvN1Go1DbpKkj/9EDd3T/61+X3MVgjy90NXVQFWK8GBQ2iorQZgZFQkF85lY7WCt483Hh7uAJSVlREQEIDRYKCwsAAvLy901Q22/3RWq7XXmNbredPFtZh57ZusWLnSNh+vfaisefppW5j23HRhX2bN00/3KgNdd9RZwdaSNRqNZKSn2yYXSlq4kAdWrBjwDaHHs889R2pKim3WMq1Wy1vr15OdldUrHFesXGm7ueLbvuasrKxeN5G89PLLLF22rNeE8ZcrKSmJGQkJPPnEE7a6PL5qFY+vWtXrtX7T6xaDz6DvI7aCbZzs9WCxWOjs7KCj04zB0EJzix6sUFl2gbSD+7FaIT/vLGdOZWI1W9m1/TP0+nrAype7tlGQn4/FYiH7dCbl5WVYsZKbm0NhQTFgcXh7sRLBqFJd3199UlJSvxUpNm/a1DVDW/c8ukkLF/YrYz9pUI+EhAQ2b9pEUWHhgJOrf5OeMLefOlKn05G8dWu/CetTU1MHnMu3Z+4MRxMX9bxJ2EtOTqaosPCK6nxXd4DbvyH0TKA02CcpEpc26IPYfqzs9dAzobrV2rVEk8XcNfdxW3t7951sVlpbDeib9FitVvT6BkxmM1arlcaGuu5+ZjCbOr/xtmz7Y97MF8+0Wi1BWm2/AOqZzzcuPh6tVmvrp7WXnZ3NH158sddz9UzQvnnTpiueMCgqKsrhfBI1NTX9JufZvGlT14oaDibV6WmN6xw8V2pqKkuXLeOpNWts80xkpKcPuAzTldS5p3vGPvDj4uN7fUlID36DPoiv5IaFa1mP673vtdAV/DfmOOK4uDjbKhnZ2dm2OSyuhKPwdLTNaDSyzm6+ir4Gmgs4Iz2dHz/6KCqVirfWr+dv7757xatyfBsrVqzo9SUGv0HfRyxubo4+vl/KipUruybc6V4br6iwkBkJCb36dC+Xo9nKBmo9Zmdnk9293NClVsLoS6fTsW7tWjZu2EBCQgKrVq8GuKYT8Egf8Y1n0LeIxbVxPVvptiki+wytsu+OGKhMXHw8b61fD3R9NA/SajEYDIwfP57x48d3zWR2GdNo9pWdlUVcXFy//RISEmyzwPW1bu1aoqKjHXZROPKU3SKkRqOR1NRUUlNSek2l2bcbZKApOG117nN+oqKi+Pt770n3ww1OglhcF5s/+KDXR3uNRsPjq1aRmpLy9WKc3RfK7MssXbrU1m/cM7XmG+vW2b7+8OKLGFtbv/Xad9nZ2RiNxl4X5uLi45mRkDDgvL1Go5F3Nmzo1y890MoY2qCgXs+v0Wi6ptnsDtr0tLRe9e55vQONT96TmsrSpUt7dY8sXbYMXXX1VVnaSShHuibEVRUXH8/f7aZsBPjDCy+QnJyMRqPh7++9R01Nja0lvG7tWlu5zZs2odFo+J+336aoqKhr3K1dmbi4uF7le6SmpHQF6Ldc++63v/kNL738MkkLF9rWl9v8wQeX7OZITU1lQVKSrSXbM+TtDy++2GttPoA31q3jqTVr+PDjj9HpdF03uxQW2oJ+W3Iyj69a1evxjLS0Abs+UlNTCQoK4u/vvUd2dna/89Oj7/nPOn263zzMYnAZ9NNg7t23j4sXL17XY34fxIwaxajvMG2fIxqNxuFHZKPR2Gvdup47ygYalztQmZ6J0B2xf6ynHn3L2ncT2Otp0fa9y22gY/Z9/kvV63Jec88did/m+AM9n6OLicC3HgMtvp3vOg2mBPH31LUIYiG+r75X8xELIcTNSIL4e2qQDW0W4ntNgvh7SonbqoUQjkkQCyGEwmT42k3sUq1e6ZkQYvCQFvFNSroehLhxSIv4JnN5Aazq/hJCDAYSxDeBb9/6taLixpx9TYibkQTxDUy6H4S4OUgQ30AkeIW4OQ36IJ7gYFXam01PvDoayaDq3n61I9jDw+MqP6MQ4koN+iAO8PdXugpCCHFNyfA1IYRQmASxEEIoTIJYCCEUJkEshBAKkyAWQgiFSRALIYTCJIiFEEJhEsRCCKEwCWIhhFCYBLEQQihMglgIIRQmQSyEEAqTIBZCCIVJEAshhMIkiIUQQmESxEIIoTAJYiGEUJgEsRBCKEyCWAghFCZBLIQQCpMgFkIIhUkQCyGEwiSIhRBCYRLEQgihMAliIYRQmASxEEIoTIJYCCEUJkEshBAKkyAWQgiFSRALIYTCJIiFEEJhEsRCCKEwCWIhhFCYBLEQQihMglgIIRQmQSyEEAqTIBZCCIVJEAshhMIkiIUQQmESxEIIoTAJYiGEUJgEsRBCKEyCWAghFCZBLIQQCpMgFkIIhUkQCyGEwiSIhRBCYRLEQgihMAliIYRQmASxEEIoTIJYCCEUJkEshBAKkyAWQgiFSRALIYTCJIiFEEJhEsRCCKEwCWIhhFCYBLEQQihMglgIIRQmQSyEEAqTIBZCCIVJEAshhMIkiIUQQmESxEIIoTAJYiGEUJgEsRBCKEyCWAghFCZBLIQQCpMgFkIIhUkQCyGEwiSIhRBCYRLEQgihMAliIYRQmASxEEIoTIJYCCEUJkEshBAKkyAWQgiFSRALIYTCJIiFEEJhEsRCCKEwCWIhhFCYBLEQQihMglgIIRQmQSyEEAqTIBZCCIVJEAshhMIkiIUQQmESxEIIoTAJYiGEUJgEsRBCKEyCWAghFCZBLIQQCpMgFkIIhUkQCyGEwiSIhRBCYRLEQgihMAliIYRQmASxEEIoTIJYCCEUJkEshBAKkyAWQgiFSRALIYTCJIiFEEJhEsRCCKEwCWIhhFCYBLEQQihMglgIIRQmQSyEEAqTIBZCCIVJEAshhMIkiIUQQmESxEIIoTAJYiGEUJgEsRBCKEyCWAghFCZBLIQQCpMgFkIIhUkQCyGEwiSIhRBCYRLEQgihMAliIYRQmASxEEIoTIJYCCEUJkEshBAKkyAWQgiFSRALIYTCJIiFEEJhEsRCCKEwCWIhhFCYBLEQQihMglgIIRQmQSyEEAqTIBZCCIVJEAshhMIkiIUQQmESxEIIoTAJYiGEUJgEsRBCKEyCWAghFCZBLIQQCpMgFkIIhUkQCyGEwiSIhRBCYRLEQgihMAliIYRQmASxEEIoTIJYCCEUJkEshBAKkyAWQgiFSRALIYTCJIiFEEJhEsRCCKEwCWIhhFCYBLEQQihMglgIIRQmQSyEEAqTIBZCCIVJEAshhMIkiIUQQmESxEIIoTAJYiGEUJgEsRBCKEyCWAghFCZBLIQQCpMgFkIIhUkQCyGEwiSIhRBCYRLEQgihMAliIYRQmASxEEIoTIJYCCEUJkEshBAKkyAWQgiFSRALIYTCJIiFEEJhEsRCCKEwCWIhhFCYBLEQQihMglgIIRQmQSyEEAqTIBZCCIVJEAshhMIkiIUQQmESxEIIoTAJYiGEUJgEsRBCKEyCWAghFCZBLIQQCpMgFkIIhUkQCyGEwiSIhRBCYRLEQgihMAliIYRQmASxEEIoTIJYCCEUJkEshBAKkyAWQgiFSRALIYTCJIiFEEJhEsRCCKEwCWIhhFCYBLEQQihMglgIIRQmQSyEEAqTIBZCCIVJEAshhMIkiIUQQmESxEIIoTAJYiGEUJgEsRBCKEyCWAghFCZBLIQQCpMgFkIIhUkQCyGEwiSIhRBCYRLEQgihMAliIYRQmASxEEIoTIJYCCEUJkEshBAKkyAWQgiFSRALIYTCJIiFEEJhEsRCCKEwCWIhhFCYBLEQQihMglgIIRQmQSyEEAqTIBZCCIVJEAshhMIkiIUQQmESxEIIoTAJYiGEUJgEsRBCKEyCWAghFCZBLIQQCpMgFkIIhUkQCyGEwiSIhRBCYRLEQgihMAliIYRQmASxEEIoTIJYCCEUJkEshBAKkyAWQgiFSRALIYTCJIiFEEJhEsRCCKEwCWIhhFCYBLEQQihMglgIIRQmQSyEEAqTIBZCCIVJEAshhMIkiIUQQmGqvLw86+UWrqiowGgwXMv6CCHEDSdIq8XPz++K93f+NoWnTJmCj4/PFR9MCCFuRmVlZVy8ePGK95euCSGEUJgEsRBCKEyCWAghFCZBLIQQCpMgFkIIhUkQCyGEwr7V8DUhrorSVjhUB1ktUHIR9KbuB9SAqutbq6r7e3Xvn63d5WyPq/p8z9ff93usp92hgkiXrq95npDoea1fsRCXJEEsro+mDvhzPhyu7Qph+zC1qnr/3O+x7m0W+3B2FMrd31vty9gFsf3+++22+znBUh942FdCWShCglhce6+egr+cg2YToAJ1d2CqVF//a99itar7PNZd3qlP2KpUX5ftCV1V39ayXSCrBwj6JjP8ow7+0QB3+cAbWoh0VeBEie8rCWJx7ZS1wCO7IbsRhwHcq6VqH759W7P2Ld0+YWu1C1y1uquVbOuC6BvaPS1lR/t3P7a9HnY0wnNa+E/tdT1d4vtLglhcG18Uwi/2QnNnV0t2oG4IqwqcHHRT9CpL/3B29DxWdVer1z6c6dvivtT+dm8Wf6iALCP8bXhX14UQ15AEsbj6Ps6Bp74AeoKxT/eBfReCyi5srerua3VO9A9dR/v1DVe70LbvurDt2yd8cbDNvvW8vQ6SLkLqaPCT/yri2pG/LnF15VbDM9sct3J7BaiDPlxbIJodbOsT4o5atvbdD70u5Dm4cGd/XEch3bPfmSZ4vBA+Hn39zqH43pEgFldPuR5W/RPUnY77evsFsoM+XFXfYO1uJfdqVfdp5fa7uDdQNwR8HcoO3hjsuzbs3yh26GC9F/ws7LqfUvH9IEEsrp43U6Gyrnc/ba9WZk/XgX0rtU/L1DbCoc8Fur6h3a813afla3sMUDnZ9TPTO7gd9SOr+tQFNfwqD5b4w3CP63U2xfeIBLG4OnIr4bMj3UPE+va59mkFw9ch2LfvuFdA06cbwtGNHA66E3oFqRow96/PpVrqfcv0bP9pNuyadn3Op/hekSAeBFpaWsjPzwcgNDSUkJAQhWt0BV76FJw6+3cDWOy6D+zDT+UgAC91k4ejPmCVmv79war+2xy+GfQJWUd9z327Qw7XwqF6mB1w/c7rd2T/t+Xt7U1MTIzCNbr29u3bx3vvvUdxcTETJ07kqaeeIjIyUulqXdKgDeKqqqobM5C+hcrKSv7rv/4L6ApggLy8PEJDQ3nmmWdunNdfUQ/Hcx10J6i6L9rxdRDal3FHv6sgAAALjUlEQVTU+nQUyP22DzA+uF8r3O64A92Np7bfzy7Ae11UtCuzs/KGCOITJ06wceNGWlpaGD2660JjZWUlVVVV3HnnnaxatUrhGl4bzz//PMnJyaxbt47IyEj27dvH8uXLeffdd5k4caLS1RvQt1qzLjg4+LoslfT888+TmZnJa6+9dtO+g1dWVvLLX/6SZ555hilTpvR6bPv27ezYsYNnnnnmxnj976fASx/Sb0SCwxsnBugW6FeGPs9j/7MKZkTCPXHw9K7e+35Tq9rRGOV+2wYob1WBryucvgN8Xa7tOf0ONm7cyL59+xz+bVVWVrJjxw527NjBhg0bbpw3+8tQXFzM/PnzOXnyZK/144qLi1m+fDknT568Zse+6ZZKev755wkNDeUvf/kLzz//vO1j1c1m9erVvP766/3+owAsWbKEZ555hl/+8pcK1OwK7D3WNVJC3Qlq09ffqzpA3dH9byeoOrt+Vtv/3DlAGZNdue6fnTrtntsEWL8uM+BX38c7en/vZOq/re/PKrttLa1wplHpMz6gLVu2kJ+fz4YNGxz+bYWGhrJq1Soef/xxnn/+eQVqeO3s27ePhx9+uN8inpGRkfj5+XHq1CmFavbNBlUQ94TwqlWrCA0N5bXXXrspw3j79u1MnTr1kq2RmJgY5s2bx759+65jza5QfqFdSHb0+XIQgD1h6+QoRDscBGbfsO4JasvXgd1z/H6Bbvccfcv0K9/nzWGgup2pU/qMO1RZWWlrCXt7e1+y7JIlS4iJiWHLli3XqXbXnl6vH3AlZV9fX/R6/XWu0eUbNEFsH8I9btYwzs/P58477/zGclOmTOHEiRPXoUbfQWUNtOp7h5uj1rF9kDk52NYvrO1D10EZlQmwdAe0fYD2hLz98Tu+LveNLeUBWu/25XJqlT7rDp04cYIpU6ZcdnfDqlWrbow3+ss0ceJEkpOT+20vLi6mqamJxMREBWp1eQZFEDsK4R43Yxi3tLRcVjlvb28MBsM1rs13VKmzC8IBuiFUdtvtA89+v14tVQet4r5BrzKBytId7Kb+oanq85y9gvUbQt5hINu1mFvalD7rDu3fv99hd8RAvL29aWlpuey/x8EuMTGRiRMnsmbNGoqLiwE4deoUy5cvZ9myZQrX7tIUHzXRc2HuUv1VoaGhPPDAA6xevZoNGzbcGBewLsHb25uqqqpvLFdZWYmXl9d1qNF3oOrup3V4wa37Z6c+F9Lsh7A5uj2578W8W8bAE3f1HLDrH29P8PGATT/l69EQQPNF+Pf3+owV/qbxxwPMhUHfbd37tQzON8eWlhbb6JvL1fNm/01dGTeKdevW8cYbbzBp0iR8fX1pamri3XfflSC+lH379hEaGkpmZqZtW35+Pnl5ebaflyxZYvt+3rx5bNmyhf/8z/+8rvW82hITE9m4ceM3dk/s2LHjBhhm1N0qdTRiod/NE33vYusbknajI+xDOv8C/O6v3cfrLjNtDNw6EV76mH7h7WTq8zx9juVoHuO+N5/QZ1uvm0zM1/ysXombJUy/izfeeIM333yTZcuWMXz4cE6fPs2aNWsABnUYKxrEiYmJJCYmsmPHDtu2ffv2kZ+fb7uQYB/EA3Vf3Gh6Pj5u2bKFBx54wGGZjRs3Ehoa+q0+aioiNPjrIO4Xcg5CzeFdbN/QMjZ0gqG5d2BXDgGDEap09AtatarrRhLbvBGXqI/DW6cdDXOzq9sgnYktJiaGffv2Dfg35UhLS8tNM4Tt+eefp6SkxOHwtfnz5+Pn5zdo+4kHRR9xX4mJiaxatWrwfyz/Dl577TW2b9/Oxo0be3VTtLS08Prrr7N9+/b/3979hMZRxmEcfyY5djcF0TYbkC5oU7GH9FDsoZQs5OBBVquW0kYrA4WIKERI60EEE8Q/LQ30IkJFYtT2IIIJOYmUbo+KgRT00IK4sbKYQqSn9JA29bCZzey772x2m919J7vfD+TQzTuTl6E8efN7/4zD3tUhscMySReu00ZMlHVHXFN1GVq4dvxA0oPK+3Sv/9zuoL5737Kiw5zcC08gGhOMnlG77l6V9j/m+qlb9ff31zW5Ozc3V9rssd3l83lNT09ramrKunzt2rVrpZFxHMUyiDtBMpnUlStXlEqlNDY2pmw2q2w2qzNnziiZTGpubk6pVKq08y62kkmp73H7qgkzJMPhZ50os63fNe8XClLPXEcc3OO+8VlUsIf6YVsl4a0aIX6/+Nmz8XxzRy6Xq/kvqGBjRzv8hSlJMzMzGh0djfx+Op3WwMBAbFeJxPNvrA4SBLDNyMiILl26pImJiXjXxQePSN9flrVObB5TWXpTc1AS0MbntlKFeW5E8L2uB8VVE95qZdmhli3P1mtqnLjb39u6Z1ujQqGw6aR3YH5+XpOTkxofH2+bssTCwoJ836/aJp1Ol1ZTxE0stjhHBZFpeHi4rvpXuwjKF7EN44VfpXf9yhpw1Klp5uoJc5LM3K5sbnl+6EnJhNT/lPTbH6G2oTbm2RGRk4OWCbuKrdihds/tlb57u/nPtE7ZbFYHDx6UVAzlQqEgz/N08uTJ0iqjYBQsaftsn6+R7/taXFzUnj17ItvcuHFDo6Ojmwb2o9jqFudYBDE2FyzWj60TGWmpYB/FWoM2NCIOH8wTGcbGfc1Rte18Y9tJbNXOlCjdxxLgQZtP35BePtTsp1mXW7duKZfLKZVKKZlMat++fUqlUioUCpqfny+tSkokEspkMvH+f/SIFhYWato5d+DAgcjdd1tBECMefvpBOndW1hUJ5iHsthULUaNlc0Qdtda46uE+tkCOCN7IcPakvl3Sz580+0liG9pqEFMjRmM8f0z69oL07z+qOMc3CFTbMjXPEoJlo+eu4uVl4RoqVQTL1cJBHxXWFQfCh/5d1h9vo//hXwzvvNC654mOQhCjcc5OSmdfsddpy84cNker5qg3CN9qGzJCYVmaDKwy4u4yPousB1vaeJ70YkZ66XArnyY6CEGMxhk4LJ0aky6fi57sqhZ2FWWJGuq7m947NHq2jXojfzGE7tO3W3rr1RY9RHQighiNdeo9aeU/6ccvtLEkTfZlY2VLyhRqHxqlWt/SXCXEbaPuqDZmO9sbpJM7pC8npL4nWv8s0TEIYjTem59J3po087nKyg61lgfC4Vu2VXn9WnOka1srbD07IrTELfJN0KH+9qWkCx8WJ+mAJiKI0Rwj56VEj3T5o8qJr6gzKMIj1KBNd5URbrUJuMiwtgWyUQLxPGlvv3T+YykVz110aC8EMZpn+ANp6HXp/SHpzt/GBJsRgJsduGOOls31vbb7dnVtvEW6LKSr1J4TPdLxE9Lp0y19VOhsBDGaa3da+upP6erX0tVvpN9zm49oS8vYLBNn1TZ72HbIdZsTdxEj6sRO6dhr0vFhKcFxkmgtghitMeQXv5by0i+zxa+lvLT0lyQzkIPwVGjSzlbfXW9bdtxluI1twm69XWKntPtJaeCQdGRIevoZAhjOsLMO7t1ZrL3tQ6mYtgEvomHU55J29BRLEECDsLMO29+u6INagE7Q5boDANDpCGIAcIwgBgDHCGIAcIwgBgDHCGIAcIwgBgDHCGIAcIwgBgDHCGIAcIwgBgDHCGIAcIwgBgDHCGIAcIwgBgDHCGIAcIyD4dvM3bt3dfHiReXzedddQQNkMhn5vu+6G2gygrjN+L6v2dlZ191Ag0xPT0sSYdzmKE20GUK4/Vy/ft11F9BkBHGbyWQyrruABhscHHTdBTQZpYk2MzU1pfHxcS0u1vFmZMTW0aNHKUt0AO/mzZsPa23c29urnh5eQw4AYbdv39a9e/ce+XpKEwDgGEEMAI4RxADgGEEMAI4RxADgWF3L11ZXV7WystKsvgDAtrS2tral6+sK4uXl5S39MABAJUoTAOAYQQwAjhHEAOAYQQwAjhHEAOAYQQwAjhHEAOAYQQwAjv0PCTy5SsCJklYAAAAASUVORK5CYII=;" vertex="1" parent="1">
          <mxGeometry x="320" y="170" width="150" height="310.6" as="geometry" />
        </mxCell>
        <mxCell id="95llRvXmpCQJrTnAEZTI-13" value="" style="shape=image;verticalLabelPosition=bottom;labelBackgroundColor=default;verticalAlign=top;aspect=fixed;imageAspect=0;image=data:image/png,iVBORw0KGgoAAAANSUhEUgAAAWEAAALfCAYAAACw13NPAAAgAElEQVR4nOy9eXxU9b3//zznzJLJTMiAZEOUEEBLNSRW8IJ6C72EarU1uXW5/YGCXVxaxQpotbdKEdur1rXeaq/afgWseKuixbZWKvbGhcXl1ixipbIMvUgWtkkyk2Rmzjmf3x8z5+TMZMImMEQ+z8cjkpz5nM/n/dlen/d5fz5nVDZu3CiQSCQSSU5Qc22ARCKRHM9IEZZIJJIcIkVYIpFIcogUYYlEIskhUoQlEokkh0gRlkgkkhwiRVgikUhyiBRhiUQiySFShCUSiSSHSBGWSCSSHCJFWCKRSHKIFGGJRCLJIVKEJRKJJIdIEZZIJJIcIkVYIpFIcogUYYlEIskhrkO98amlS1m7du3htEUikUgGPTfdfDNjxo494PSHLMJ/27iRN95661Bvl0gkks8k3/rOdxhzEOllOEIikUhyiBRhiUQiySFShCUSiSSHSBGWSCSSHCJFWCKRSHKIFGGJRCLJIVKEJRKJJIdIEZZIJJIcIkVYIpFIcogUYYlEIskhUoQlEokkh0gRlkgkkhwiRVgikUhyyKAV4VGjRhEMBo9YeolEIjkaHPJXWeaKG264gdtvv90W1KVLl3LTTTcRDoezpq+qquL+++9n6tSpAIRCIWpqati2bRtz587l+9//fr97rDQSieTwUF5ezn333Uc4HN7nfJ06dSoXXXQRtbW1FBYWEgwG2bZtG6FQiGXLlvH666+zbdu2rPe63W7++Z//Gb/f/6ls3bp1Kx988MGnyuNgGFQiPHv2bO6//35WrlzJsmXLKC8v5/7776ejo4MFCxYA2J23bNkyAFasWIEQgosvvphgMMjChQtZvXo148aNo6mpiaVLl6aVMWfOHOkxSySHmSuuuILa2loA7rzzzn4iXF5ezq9+9SvbWXIyatQoRo0axdSpUwmFQtx55532/HbyhS98ge3bt9Pe3k5VVdUh2fn666/zL//yLxQXF9Pe3n5IeRwsg0qEL7roIgC+853v2J04atQobrjhBrtjn3/+eQCWLVtmd8SCBQt46aWX7PQLFy5k1KhRvP7667z++ut2/lOnTmXhwoUsXrz4aFZLIvnMUV5ezm233ca2bdu4884795m2traWX/3qVwSDQcLhMA8//DDLli2zPd5gMMgXv/hFZs+eTW1tLb/+9a+pqqqyHS8Lv9/PBx98QGNjI6NGjTokuxcvXsyLL774qb3pg2FQiTBAOBxOW0Wt37/4xS/y0ksv8e1vf9v+rLGxkbEZ/5uR2tpaQqFQ1kea22+/3X7skUgkh84VV1zBnDlzAPY7nxobG+no6GDZsmXceeedVFVVccMNN9j7OOFwmJdeeolLLrmE2bNns3DhQhobGwfM71AFOPPe008/nb///e/E4/FDzu9AGFQi/NJLL1FbW8vChQtZuXIlwWDQfsSxQgj76vCFCxdSVVWVJtQWs2fPZurUqVk/k0gk+6aqqoq5c+cekOebSSgUsp2lBx54gLlz5/ZLU1tby+23305NTQ0TJ04cMKZ8OLEE+UjHhwfV6Yhly5bx8MMPc/vtt/Pee+/x/PPP26K7v05ZuHAht99+O4sXL84q1AsXLpResERyiNxwww3MmTOHhQsXHnIeVtgB4OGHH+biiy9m+vTpfPvb32bbtm2Ul5dTXV19VATYIhaLHfEyBpUIQzK+W1RUxNixYykqKrI7JBQKAX2nJ5w4BTjbKj179mxGjRp10Cu4RHK8csMNN7Bp0yZ7D+ZwEA6HueSSS5g4cSILFixg27ZtKIrCSy+9xMSJE5k4cSIrV648bOXtjw8++ICPP/74iJczqER47ty5JBIJLrroIntltDzYpqYmIBnXda7GlgAvW7aMZcuW2TutTqQXLJEcHFVVVYwaNcoOBx4uQqEQjY2N/PrXv+a9995j9erVvPvuuxQWFu4zDuxkoCNsB3vvp8nnYBhUMeGnnnqKOXPm8Otf/5qFCxdSWFgIkHamd9KkSZx88slAMqZjecWzZ89m9uzZdrrp06fzxhtv2F6wjAVLJEeOgw0h3HnnnUydOpVRo0alnZTYF+3t7Zx66qmMHTv2kDfnduzYwfnnn8/bb799SPcfCoNKhMPhMBMnTrSFMxwO89RTT6V1cCgUskMTHR0dA4qr1anbtm3j29/+tvSCJZKD4OGHH0YIYXunmX8/9dRTjBo1im3btrFt2zZ+//vfU1VVRUdHxwEJqvXC1Ne+9jX+8z//84Bs+vvf/84ZZ5zB1772tUOu14QJE9i4ceNROyMMoGzcuFEcyo3//u//flTjMxKJRDIYWLJkCZMmTTrg9IMqJiyRSCSfNaQISyQSSQ6RIiyRSCQ5RIqwRCKR5BApwhKJRJJDpAhLJBJJDpEiLJFIJDlEirBEIpHkECnCEolEkkOkCEskEkkOkSIskUgkOUSKsEQikeSQQ/4WtfJRo5g0ceLhtEUikUgGPQUFBQeV/pBFuKCggGFDhx7q7RKJRPKZxO06OFmV4QiJRCLJIVKEJRKJJIdIEZZIJJIcIkVYIpFIcogUYYlEIskhUoQlEokkh0gRlkgkkhwiRVgikUhyiBRhiUQiySFShCUSiSSHSBGWSCSSHCJFWCKRSHKIFGGJRCLJIVKEJRKJJIdIEZZIJJIcIkVYIpFIcogUYYlEIskhUoQlEokkh0gRlkgkkhwiRVgikUhyiBRhiUQiySFShCUSiSSHSBGWSCSSHCJFWCKRSHKIFGGJRCLJIVKEJRKJJIdIEZZIJJIc4sq1AQdLSUkJF9XW4g8E9ps2GomwcuVK2tvajoJlSSrGjGH69OlHvdxPQ0VFBZFIhPb29lybcsj4/X5q6+rYsnkz69evz7U5hw2/30/FmDE0NzUdF+Uejww6Ef6X6dPZGw6zNxzeb9pgMEhtbS1PPP44iqIghDji9tXW1qK5XNTU1LD86aePeHn7Y3+Tad78+WguF+PHj+fb3/zmUbbu8FE5YQL5fj9XXXPNZ0qE5y1YQG9vLzNnzeKHt9xy2PL1+/34A4GsjkJpaSk3zp/Prl27qKioYOXvfnfYypX0Z1CGI0KhEF85/3xcmrbPn0hXF7978UWEEEdcgK0yhBCEQqGjUuaBMHPWLP7tG9+gtq6u32dCCIqLi1m5ciWJROKYsPdQEEIQ8PtpaGiw//4sYPXPz3/+czweD0IIFEX51PkqisLin/yEBx58EL/f3y/P/Px8dF2nsbGRoqKiT12eZN8MGk84U9Ra29pYtnQpgD2I7M8VBWtYqaqKqh7ZtcbysoUQHEvTXwhBIBCgoaEBv9/f7zOAB+6/n4vq6vjPn/88FyYeNkzH2LDqdjgEK1dYdbhz8WK+993v2v1jmuanrpdpmni9XhoaGsjPz6e7uzut3E2bNvGX115j9OjRPP2b3xw28ZdkZ9CIMCQHiGma9u+GYaQJLoAAFJIT0BmCOJIDySrDNM208kzTRFXVnA5gpz2Z4mQKQUtLC//16KMoimIvVoNpwjmfQJzXrDocrTDUkcA0TVp27OD+++4D+NRjyTkWMsvJnCurXnkFIG1cqKo6aNvyWGbQiHA2L1MAihDgGJiqYzBZQpzv93P22Wezft06otHogGVMnjKF9rY2tmzZknbd7/dTM2OG7U1u2bKF9evW9bOvn70ZC0BtXR1tra37jFnW1tWxZcuWAWO42WxpbmrqVy+nOF155ZX85qmnMIVAzXz09Pv58pe/zNo1a9i5c2fWSZ5ZZltbG81NTQNu5E2eMgW/389rq1fb9xYXFxONRrO23cFQOWECFRUV+P1+otEoa9esobW1ta/9HfXOFODikhKmpGyz2m5ftmStd3PzPjdcM+1rbmrqN54gexuNrqggGonQ3NTEunXrEEL09c/atcn+IbtD4SwXoLm5OesYspyD8vJygsEgSxxtpSiK7UhMqKqipKSE1a++mnbvoZTpbMt1a9fS3t5O5YQJVFZWUlxSQntbG+vXrcvaTscDysaNGw9paXtm+XLefeedw23PgAgh0A2DWbNmsWXrVurq6lgwbx6KqvYTFqcXpCgKl19xBaedfjrbQiGeePzxrPlXTpjANddei8/nszeo/H4/M2fNojAYJBwOU15eDkA4HGb8+PE88dhjtqCapolhGCy46SZ2tLSgKgrLn37a9l4mVFVx3vnnM27cOK656qqsHtrkKVM4vbKSKVOmZN0ku+rqq6mqriYUChEMBu3rsViMtWvW8Nrq1fa1/2/mTC786lcJpmy3/gW45667aGxsRAjBrMsvZ+RJJ+Fxu7lz8eJ+3tZV11xDVVVVvzKDwSBr16zpt/no9/u55957CQaDvFFfz5mTJpFIJAiHwzQ0NBAMBpkyZQo/vfPOg5p0fr+fefPn0xuL2X0RDAYpLy/ndy+8QEtrK23t7Xz32muZfcUVaJpme3DWvXk+X1odAHw+Hz+85ZZ+C8rMyy/nggsuoKGhgfLycrvtgsEga9euZflvfpOWvqSkhBvnz8cwDNu+UChEeXk5mz7+mCcef5xoNGr3+2+WLyccDrN2zRpq6+pIJBKEQiEAysvLue1HP2Lzpk1cc+21BIcOJRGP8+ADD9ieqTV2SkpLuXHevH7lBoNBhgwZwk8WL7brJoTggYce4tRTT02zPRQK4fP5+NaVVwLJsfzIo4/S1NzM2rfeorm5GU3T9ltXgPHjx/PDW2/tt1DNnDWLz592GkMKCoh2d1NZWUl9fX1au+qJhN1Og5nrrr+eMWPHHnD6QbEx5xQrSyACgQBlZWWMKCtL/jtiBGWpnyFDhtiTUFEUmpuaCIfDTJw0ifz8/Kxl1NTUUF9fb6/kQgjuuuceBMlJIYTgL6tX887bbzN+/HjWrVvH5bNnM72mZsBHNKeYWRt2iUSiX50srPit9bnTo583fz6C5ITxejy8vX49b69fj6qq9PT08K9f/zq1tbV2XtFIhN27dxOJRAgGg0QiEWKxGLFYjNa2NnuBQlGor68nEAj0XUsxb8EC9u7d26/Mnu5uQqEQI048kZmzZqXVwe/32wJ5UV0dwWCQ9//6V95ev54TR4ygrKyMu+66i6uvvZbi4uKs7ZaNu+65h482bgSgpLiYt99+m1WvvEJTUxN1X/863/3e99La2vnvXXffzefGj2f48OG89eabvLBiBatWrcI0Tf70pz9x509/mmZLTU0NI0aMIBwOE967lxeef563336bne3thMNhRowYwfSaGjt9SWkpV197LZs3b2b48OHs3buXFc8/z949e2hra8PldnPb7bcDfSErawGZOWsWmzdt4rf//d/8ZfVq3n77bZ797W/ZsnkzKAp+v5/6+vq0trAFuKSEq6+5pq/cPXtY8fzzJOJxYrEYb7zxBrf+8IcUFxfb42n37t20tbbaebW1tuLz+WjLEE1/aiyWlpWlXS8pKWHeggX9yvxk+3bGjx/Pn/70J+YvWEDFmDH97K2urqZizBgqKytpamxk40cfEYlEKEm1/fZPPrHb6XhiUIQjbK/RIVzbt2/nO1dfnTX9uHHjmPf979sralNTEzMvv5yPP/6Y2ro6nlm+PC19cUkJY8aOZczYsSxauBDDMLj8iit44403GD9+PPfecw+bNm2y07+wYgWXX3EFDQ0NXPZv/8a6tWvp6urqHy5xPjbuZ+NooLimEILpNTVoLhfV1dU8+otf0NDYaMfBX1ixgitmzyYYDDLjvPNYt24dbW1tvPjiizz33HPc9IMfcOqpp/J6fT2/eeopNE1D07T+i4CiIBy21cyYQVdXF9OmTeORX/yCpsZG264XVqzgX7/+dT43fjwjTjyR0ysr+aC5Oa1uAJs3beLmm24iGo3a9SkpKeFHt93G3ffcw6xZs3jowQf3G7edXlNDU1MTkyZNYumTT9pevKIorHj+ea644gqumDMnWX6qLs5733jzTb5y/vncMHcu0UjEvveFFSu46aab7HHx+GOPATC6ooKGhgYS8Ti/fPTRtP4455xzmPHlL9PksOGqq66ip6eHytNP5/tz5xJJlQFQWlbGokWLiKTaILOef161yo75CpLhtKxx3yzXfnT77bzxxht84Ywz0sr986pVlJSUsOiOO1j21FPMmz+fW2+5BSEEi378Y0zDYPVf/kI4HGb+vHns3LkTzeVKC+VZOMehoijcdffdLH/mGb721a9yw/XX230LybF473330dTczFVXXcUPb701a8z+qWXLeOqpp9LmxL9+/euM//zn2b1nT9p4Oh4YFJ5wNiZOnMj4z32O8ePH9/uxPEBIeh6mafLUsmUEg0GmfelLad6wEIJZs2YRCoX4+8aNtLS0IIRg4qRJlJeX88brr7Nx40YMw8AwTQzTRNd1li1dSsXo0bz77rvUpLyigbZMTNNM2723NhedNpimiXBcNx2Dt7aujoaGBt584w3ef//9ZOjD8bN0yRLUlEd7UW2tXWfTNEEI6uvrbYEVQth5p5UpBMKxsZhZppEKt5hCYJgmK55/Ho/bTX19vf00YJeZ4tFHHqGzszN5X+r+HTt28NJLL1FVVcX4z39+v0f5rPqHQiHeeP11/vr++312pPrkySVL7CcIuy6pn5mzZlFXV8d9995LV2en7YkapolpGDz6yCOUl5fbdRBC0BWJUF5eTsWYMRQVF6fV+80332TRj39sx6GLi4vpjcUIBoMs+vGP6ejosOtrbaxde8013HLzzXbZzjZasWJFWl9Zv9vefEadrDY5vbKSf/zjH0ybNo2f/exndDjaWU+188KFC5k2bRq79+yhKOVtWv0fCoVoaGjoGw9WuWTf3wAYPXo0H/7tb9TV1bFo0SI6OzvRHXXt6OjgpgULmDhxYlJMTz+9nwhv2rSJJUuWYDruM1PjaejQodTX1zN58uTjagNwUHjCQL9BuWnTJm6aP7/fjr71SJ2529vw/vtc7vCGrVhmScoLBrjtRz/CNE3GjhtHS0sLwWCQVa+80ue5OuwxTJO31qxh5syZfLhhAy+++GKanbbdfRWwr1m70ZkeYOYxKwEECgro7OykurqaJx5/PPsGILDqlVe4+ZZbko+xlh0O78na0EnbMMxip/W5qqpMmzaNZ5Yvt4VaUZQ+gUuVOXrMGCZMmNAnwg77drS0YFpPA5ZHBTQ2NHDJZZexc+dOfPn59HR3Z/X+hBD4/f6++j/2WNqioaROxphC8Mqf/tQv3uv3+ykpKQGSMf/KCRPS6muVOHz4cAKBAEXFxbS3tfHiihX89K676Orq4ic//SkdHR1s3rSJNWvWpD0RAJSPHk1DQwNf/epX2bFjh91OaRuDGX87+7Crq8s+RSOEQHEcp3SKtbPvFEWhoqKCUCjE0GCQ1pTjYLWvlb61pYWTTjqJN998k8rKSlpbWpLjMHOcWTYpCmRxEETKlsoJE+wyd3zySVbvvKOzk927dtHQ0MDoigqamprS6hyJROzxb+3lWGVv2rSJYDCY9jbsYD7dcqAMGhHuh7WCG0baBLbiwPYGk/WYDSxbupQr5sxh3LhxPJ3aWLmoro76+nrKSktpaWlBITl5Q6EQ559/vj1AnJt/AsA0iXZ1EQwGCQQC9oruXAySZgrb1jTzU/9aO9IWwWDQniiC5MF5a/OjtaUFJVUvyxrLi2lJxfn8gYA9IZVkAX2FWguUwy57gDsmeHFxsb2509rSYrcrgKKqtsfclXraSDaHadepvr6eYDBoHxVUFQVUta9eQtgbhf6UCA+Ez+frq39rq90XzvZVFIXW1laqzzjDMTwEPscTz+xUuGJfWILY2dnJ4jvuYPacOZSWlgLwhTPP5Atnnklvby9/+P3vWf3qq/YiYcXcnW2cdjbdstVhWygUsjez7D51/Fjp7Po47rXGhW4Ytkfu3FAVkOwjYNPHHwPYcWGnPclf++aKkro3c6ySmgN2mak9BegbF06hbWtrIxgM4tI026sXQvDQQw8xbdo0u/+s+UnK1khqPjmfyI4HBo0IZ24aoShJr8gSh9RlZxzW8sBURUEoCg2NjcwG3n33XabX1LD61VcpKyujvLw8+eKHEKCqtLa0cO4//zO9vb0UFBTQ3dOTNvGNlMdnHc1xehJO79uyq58AC9EnhPQJsQBuvPFG2hxHrrpSAzMUClFaVkZ7ezuu1E61ABTTxCS5qZfKvC9fVe3z3hUFzTHZnTZm2tba2kp5eXnyJY9AgJ6eHvsUihVzNQyDQCBAOBwm0tWV9Hgd+YTDYVswrZ31zEfxtLYj+znUSCo0EAqFKCktTcYvHYJjmCaqEJSVlSVtScVFhRB9wgjMv/HGNAF3eoAC6I5GiXR12e3a1trKz+6+G0VRGDt2LGPHjuW8889ny9at1MyYQXtbG40pL49U+1uCZomaNSYyz7E7sRYpVdP6bIO00BSQdjTNEthwOMwZ1dXJPlVVNFVN5i8EJsmFsbSsjL999BFejyetPDvfjAXAWpyd/WP9G4lE6I3FOKO6GgBN0/ruAzvEUFJayo6WluQ+iSMv6yQEGe1kpsZT5rgYTOfVPw2DJiacLXZoDQDV0alOTzgzjaIoLEvFhmfMmEHNjBl4vV4UoKmx0fYGWltbmThxIvX19Zxz7rlp+TvLu/iSS/rsSxrZ3+bU720pYQuFQsnHd/ovLAFL1B15dHV1UVZaSkNDA+edf75dDzU16Sybzv/KV9LuzfSECxwi0W9By2hjIQQd4bD9NKCkBNwq05q45557LgCbN2/uE39HGzhFyTqtoqbuT2s3R/nO303TpKuri47U8bbJkyf362vLrnPPPZdgMMhmawNVUYh0dbF50yY7Jt7U2Ehjxk9DYyNNjY3JOuAQKUcbbd68mVWrVrFg/nzyfT7q6+uZ8eUv22Gu8vJytm/fTmlZWVp9NU2z22tfL1pk9uWAm3PONkp502PGjqVsxAj7Hs3RNmVlZRQWFlJdXU1jKoxi1RGSoqg6yss2LixhNoVg86ZNVFdXI0huODr71+qXshEjKCwstPvCjjFbjhEkbXScXsock879i+OBQSPCNg4P0xq8mqahpga9NQGc2AMMaGxs5HOf+xwnjxrFtd/9LsFgkKVLltjpUr/wl9deA2DmzJmUlJamDVJVVZk9Zw4lqUdVS4AtbyEcDlOV8lCsfFtbWxk5ciRLly5l9pw5BPz+tEFWWlrK1y++2FFNYQ/GVatWEQwG+cIXvkBVVVVanSD5qH322Wen3WuxedMmQqEQ55x7bp+37GiXfs2b+rHLPPNMqqqq0spTgIsvuYTikhLq6upYsWJF1q6yPLTMeH1aefuZbIqisGrVKqqrq/mX6dPtdnX+zJ4zh527djFt2jSWLlnS5y0KwSuvvEI4HOaa1JE4S9yt9i0tLeWcc8+1H40VReG+++/n8SeesI9nZcbSIRmyQgja2toYGgzS0NDAHYsXU5oaK8761tXVUZyKTWfWP5vgDtQvmW1mhcIW3XFHvyOGgYIC7nvgAR566CFGjhxpC6L1uS8vj1AoxNcvvnhAAc7sn4aGBoYGg9TX13PH4sX95kWgoIBFd9zBkiVLmDx5clL4HYtGqnL2E4lTfFXLi3eU6/z3s8ygC0dYA2XM2LHcfMstaa8oZ2P500/T5jgXK1KnCW659VYg6Wk2NjamxZBJ7dY+9sQT/Pd//zd3LF7Mpo8/ZuvWrfj9fiorK6mcMIFIJMJ7772XjGOlBsvaNWv4Wm0tDQ0N/Ozee9myZQv/9ctfoigKv3zkEb7//e/z1/ff5xePPmq/wZf5ZlaqwsnNJ2DpkiU89sQTvPXWW3zv+utp2bGDDz74ACEEU6ZMSbPlc5/7HNA3eFe98go/+Y//4JlnnuHR//ov++2kF1NfbNSvnVP//nnVKm7+wQ9477330soEmDx5MoZpEgqF6AiH2bxpU9bv51DIIjL76KvM/rbqseqVV6iqqkract11tLa00NzcbNd/9549lJeX83p9Pe3t7ckjeMmbWbFiBT+45RY++ugj/uPuu9m4cSPNjY0IYMyYMZxy6qkEAgE0VWXdunUUFBRwwvDhXH/99Tz44IP8feNGW8DOOeecZOiip4c1a9bY9t1z990sXLSI5uZmvnvddXR1drJ161aKi4uZMmUKO1paqKys5M7Fi/dbb7vvBvKEM/6ORCKMGTOGR375S9avW8fWrVsZPXo0Z06cyC9/+Uuu+s53WGidvXXku+qVV5Jxe1XlnnvvRVEUHrz//uS+SJayrXjxPffcw7//6Ef8/ve/53vXXUfLjh2EQiG7zNWrV3PpJZcwf968tM1PO09H2Cpt89JRxvHGoPGELc+lq6uL6upqnn/+eVpaWtjR0sInO3aw/ZNP+v243G4uSr3A4HzsWZN61TUUCiW94IzHKhSFSDTK/BtvZNLEiTQ0NBCJRpl01ll8/rTTOOnkk3lhxQqWLllix7msQfb++++zLRSisLCQv/zP/zDtS1+yxfX9hgbWvPUWEydOTL6WCow48URGpV4GefSRR5JlRSL9Qhvz582jrLSUUChEW3s7k846i7P+6Z+onDCBF1asYNnSpXZM1EJRFLoiEV7+4x+pqanhmWeeYcULLzB9xgx74EcjEapTMb7Myfeze+6hIOU9x+JxJp11FuNOOQXDNBk+fDifbN/OU8uW2d6NoihEo1H7ZY2I4wyp04uG5Asw5eXlaedMnXZb/1o/P7vnHnuw9sZiTDrrLE459VQM02Ts2LG8/Ic/sGzp0n7hJwX42d1305Hqp1NPPZVLLruMSy+7jIoxYygvL+f9v/6VdevWoagqkUiEH/37v3P/ffcRCoXweL1MOecczj7nHPam3jz8ZPt2Vq1aZRlLW3s7i++4g9Hl5Xi9XlxuNzO+/GUKg8Hk25Oqap9BtggGg2kbev0cCUf/1KW+AS/borlp0yZ+ds89CCGYOm0a0770JQqDQVavXs03vvENfv7zn9svYjjbc+nSpRQEAgSDQf7yl7+wefNmKisrk+Wk8q6urrbf8rNoa23lP376U4Y0EycAACAASURBVL7xjW/g9XoJDh1K3b/+K4XBIJs2beL888/n4VSZloOEotjz1rm4KFl+t95KzZbms8qgem3ZMAx8Ph/TZ8ywY5yKtevuwOq4aDTK+nXr7Nc2rTOUpmFQXFzMmDFjWLt2rR2/swaM8wwjQPUZZ9gDKBqJsOqVV+jq6sLn83He+eezxvreBZKbcKZpckbqnuamJpqbm+2zvUIISktLOeOMM5I774pCW2srb735Jp2dnZx33nls3rKF0Natdj0Mw7An4Nhx4zjjjDPs7yZoaGjg448/xjRNzjvvPLZs2cLWrVuTmzSi79xpSWkp48aNo6ysjA+am9m8eTOmaeLz+Zhy9tk0NTaya9eutDKt+peVlVFVXW2fFGhra+PNN99MbmRZC1iq7YRpUjNjBgCrX33VblurD63zwjUzZhCNRFi3bl3a241OLNvTbBkxos+WVDjgrTffpCtlizO2at+barvSVBuMTR1JbGtrY82aNXRHo2mbmFYMdExFBROqqgikTpxEIhH+9PLLRLu7++pMcnOQlFdXXV3N2LFjCRQUEI1E2Lx5M01NTfYGnXWaZcqUKQhgfar+mSE0UwgMXaeoqIgJEybQ2NTErtR3ewiRfN3cen1//rx5nDhiBNXV1XbYo7GhgfcbGmy7nJto1vlqkRqnY8aNQ1MUXn31VfsIWVFxMeeccw4vvvBCWntaG8gKSZGucsyLTR9/nFam5dgIIcjPz6dmxgzWrl3Lrp070+yx+qm4uJiaGTN49c9/ZteuXUflGxCPBAf72vKgE2Fd1+0JmRmiyLayOjvSziM1qa2VWnO57MlrTUDTMOwd20wvxXnsxlmGvYmRGqjWrrd1pyWm9hGy1MS3rpmmaYua5rDbEnBSTwNq6l7n8TfhOHvs/N6EzDKdcTirPawjTvammeg785t2Rpi+jRrrcV9x2OoUfatdBhJhK40Vzx9oM8oSDNMw+sp0pHWeTFEddU8T4VR/2XFfR/6Z8WVnX9ibrUr6aQrnRpTVP2aqL/p5tKnyVFW1Q0zW+BKAK0v9LdutsW598ZLV1qZp9olwbS3z581L61vniz723kmqXbL1gXOj065Pqs3S2tPq39SxUGssQvq+iFOArYXZWY9MezJtytzIHWwcrAgPmpiwhXMgWY829nEeK47qEGDoiz1Zg0MTfUfErAnlnDxq8ua+85aOie7cYHDGuzIXA6dX5fwqQFMI+0C8ddTIXgWtCWvllxJERVXRwL5XOPMA+xREpsg6FwUrbebRH+eGlGW3fXrBNDFTk8+qt/PYleKYvM42zwxBOMm6cFp5Kv0P5tunXOgTu8z+ULLU3crbKSypCtgbVE47MxcZu65WDNNacJX00zj2/Q7hcp6UsfvR2U8i/Ry3/djuGDPOtlStumRpH6tfLeFOa+tUHqqmpW2Qqg6vO/NESr/x4GxLq68cfZxWpsOxUBztY6oqSqoeme1t/W2XmSG6x8NRtUElwtakMq0OdQxkWyCdkzvDQ86crJneoTNN6g9MSJ9Y1mNr6n6ngKspL8X6zN40tAZmarKKlLBZGxGKU9gdE9wqR1OS55ytM8HOiaNm1DPNC4E0LzRzQKedZ3Xcb3nTdruD7Wk7vU7nY65F5qJj3ZMmztbC5+jTbAKc2e/W784F2GlzpjA6659VpBwLsJVGOMtzlGO1g/NYlXORd5YhrL7MsK+fcwAMJC/OOlnpnN6/I2Hys1R9nAtA5rFNu10c/SEy5oyiKKiAcLSjvbgBSqq/0xacLDan1Tl1nt8eOxmLpXOuaAMsAp9lBo0IOwVYc6zGaSLi6Ginp5EtHyBtcGcKiTUYVZcr7XE228rcT8idj+tZJqMpBIpDEDK9MOdgtuwB0sIFad6mVddUfTMf7TVNS/NmMz3lzEluYYsjqUnp9IIHmCiqpvV7LLXqYC1SWmoSH8gEc9rpzMfZT9lscU5w6wuLnG2XuejaApla8Jz29dtczOhvu42thSrV9878nY/VmV7gQO2QeV8m1dXVRCMR+/E9cyFzLhjZcJ4iyWw7kdHXTrudi6azvGx9kTkO0vLPqGfm+D9eGDQiDH0rpbN7snkFmX9nG/TW6gv9xSfz737fOpZZDukDNNOutBVf6fNsUZS0yeoUmEybM/MZyNZ+dUx9rg2QDthnO6Q9mg9gT9rkoe/xOBOnPft6eSEbmRM5W8gjcyHNvKZlEciB6u1cqNlH3Z2/O8eJ8/tBMtMN1M/Z6mz9m9kPf/7zn6mZMYPnfvvbft7uweSb7TPnk0vmOBpoLGY6NM77suXnfDJylr0v2z6rDDoRdg5gSJ/YBxM/OlAvzMo30/vKZtf+8s+Ml9re2QHYlE1Y91Xf/Ql15mfZ6uC0eV95DFTWQHke6gQ70P7Y173Zno72ld4Zrz4Y+5xhoP0t8geSpx3qSl1ra23lqaVL7c06a+E40H7PJoKZ9+1rkdpffQ5k0d5fHscLg0qE9zehj1RH7q+MgQbz/tIdrL1HcuAOVIcDrVu29Icrz0yORp8fSv77884/DQN5pdme9A7G1k/L8Syeh4tBJcISyfFOv8f7jE0uyeBDirBEMoiw49XWfkIWb1gyuJAiLJEMQjKPJkoGL4PvdRSJ5DjHefTseDxN8FlDirBEMsjIdmzwcG20SY4+UoQlEokkh0gRlkgkkhwiRVgikUhyiBRhiUQiySFShCUSiSSHSBGWSCSSHCJFWCKRSHKIFGGJRCLJIVKEJRKJJIdIEZZIJJIcIkVYIpFIcogUYYlEIskhUoQlEokkh0gRlkgkkhwiRVgikUhyiBRhiUQiySFShCUSiSSHSBGWSCSSHCJFWCKRSHLIMfN/Wy4uLqaktPSolhmNRPAHAke1zINF2vjpOdbtA2nj4eJw2NjW2kp7e/thsmj/HDMiXDNjBjNnzTqqZba3t1NcXHxUyzxY2tvaKC4pybUZ++RYb0fZhoenzFy0Y1tbGyUHUebhaMflTz/N8qef/lR5HAzHjAiv/N3vWP3qq7k2QyI5bohGo/j9/lybccwRjUaPannHjAhHo9GjXnmJ5HhHzrncIzfmJBKJJIdIEZZIJJIcIkVYIpFIcogUYYlEIskhUoQlEokkh0gRlkgkkhwiRVgikUhyiBRhiUQiySFShCUSiSSHSBGWSCSSHCJFWCKRSHKIFGGJRCLJIVKEJRKJJIdIEZZIJJIcIkVYIpFIcogUYYlEIskhUoQlEokkh0gRlkgkkhwiRVgikUhyiBRhiUQiySFShCUSiSSHSBGWSCSSHCJFWCKRSHKIFGGJRCLJIVKEJRKJJIdIEZZIJJIcIkVYIpFIcogUYYlEIskhUoQlEokkh0gRlkgkkhwiRVgikUhyiBRhiUQiySFShCUSiSSHSBGWSCSSHCJFWCKRSHKIFGGJRCLJIa5cG3CgdHZ2kkgkcm3GZw63x8OQgoJcmyGRHLcMGhHe8Le/sWfPnlyb8Zlj5IknUjVhQk7KLikuZvrUqQCs/OMfiXZ3H7Gy/H4/ANFo9IiV8WmpPO002nbupL29PdemSI4ig0aEJYOH//fII/tNs+7dd1n/7rvMvOwyAFbX1x8REZ552WXUTJ1KcXExAG07d7L82Wd5rb7+sJeVjbsWLaKkqCjtWiQaZcu2bSx/7jlbcGumTePG664jGo3yre9974guSJJjCynCksOOJXj7wvJMjyTzrruO6dOmAdDe3o7f76ekqIh5111HSXExy5999ojbUFJU1K89ioGK0aOZMmkSP1y0iC2hEG07dxKNRmlrb5cCfJwhRVhy2PnqpZfav8+89FLb23Veh+Tj95GiZto0W4CfePJJVr78cpo9My+9lOYNG2jesOGI2eBk+bPPsvy55wCoKC/nrjvuwO/3c9GFF/LQI4/QvGED/3bllUfFFsmxhRRhyTFBzZe+RO2FF+LPz6dt506eePJJ1r/7bt/n06Zx0YUXUlFeDkDzhg08+OijA8ZPLQFu3rDBFmCA5c89R+Vpp1F52mnUXnABzRs2UHvhhdRecAFNH37I1lCImZddZtvxw0WL0sqYedlltp3R7m7WvfMOTzz55EF5r1tCIda/8w7Tp02zQxWTzzqLq+fMAeBb111HSVERdy1aBMCDjz7KVVdeSUV5OW07d/JafX2aF1974YVpNr9WX0/N1Km2/ZJjG3lETXJMUHvBBclH8WjUDhn48/OBvnhpRXk5W0Ih2tvbqTztNO5atMhOk4nlZWfzdLeEQgCMTgm6Pz+f4uJiaqZNY+all7Jl61YgGUqY973v2fdd9c1vMvPSS/Hn5yfzEIKaadO47Qc/OOj6FmfEiQMpG5yhC+tvK//29nZKioqYeeml9v0106Zx1ZVX4s/Pp729HUWI5OfFxf3KkBybSE9Yckzwwx//mC3btlFRXs7D996L3++noryc5g8/tMMZK//wB55YuhRIbnhVnnYaNdOmpXm6mbTt3NnvmnVCoiQjVhuNRpl7882079xJ7YUXctWVV1J52mn48/MJBALUXnABAA8+8giv1ddTUlTEw/fdZ3vW+wptVIweTU3KO7fSQ3JDcn8s/+1vWfnyy5QUFfHrRx+183itvr5vY/N//oeHUp/N+973mP6lL+03X8mxgRRhyTFBJPU4b3mpkPQEK3p6bI8u2t1tC5nF6NGjD58N0SjtKdF22uH3+5k8aZL9twL97KgYNWqfIjx50qS0PKLR6AGf0rBssY6vWd6y3++328aZT7aFR3LsIkVYckzjDDdYXp+TzONfFtHubvz5+Vk/t05mWGGHg7XjxuuuGzDPgbA2AStGj7bF+EC84H0RcNh0LJ9/luwbKcKSYxrnhtdDv/hFPy9voA2xLVu39j32p04lWEw566xkGoe3ezB2/PDHP+73eft+vM/mDRtY/txz+P1+/t+jj+L3+6m98EL7xMSnpbi4mC3bth2WvCRHF7kxJzmm2bJ1qy2Ap59+Os0ffkjzhx/SvmsXlaefPqCQWuJWedppaR70zMsuy/oIvz/Wv/OO/Xulww4UhcrTTz/gEEA0GmXlH/4AYJ+yOFScb9c5wyOZsW7JsY30hCXHPA8+8gi33XwzNdOmMeWss2hra6MiFQse6Kxv84YNrPzjH5PHty69lNoLLwT6wgrLn302KaIHiPWmnXXGePq0aShC2PHZlX/4wwEfU1v58svUfvWr+P1+Zl52GU8sWXLAdmTL66orr2TyWWfx26VLiUYiB/SyjOTYQYqw5IgS7e4e8CzvQJ9Z16w45/p33uEn995L7QUXUHnaaVSMHs2WrVtZ+fLL+9wMe2LJEraGQv3OF6+ur0/zgi07nCGFbLYtf+452nfu7Jff8mefHVCALQ/Z+bm1KVd7wQVMmTSJ5c8+SyRLednaxs4v1TYr//hH/Pn51EyblgxJbN1K04YN1MjTEYMGZePGjeJQbnxm+XLedTyiHWnWv/02u/fsRbGvZDd7oMooGZ8rKKA40gvRl0ZR+lIKx52Oy+m5pv5SQAiRzBsQA1rjsMHOPXtaO01aBZKp+y4pGZakmyhSdeure+oeBU488USqKiv3aafk2MZalCys17WbN2yQL2vkgOuuv54xY8cecPpB4wmrqguX5gZACBMwAYGipARPJCVG2P9JJymQyX8VwKW6QFVQEeR5PeT7AxiGiR6LY5o6CUMHlwbCpLs7jikAlFQUXaAooCpaqvykQCtCJMtWNIQQmMIgZRaKoiTtFkmbFRQUVU3ZLEAITCHselhpVFVJLRgKiiIQRjK9aaWz0qoqmpr8N1lHBcM0MU0TUBBmn8wrSjJfzeXC7/Mdvk6SHHUmT5rEbT/4Aavr65MvcxQX228LftrTF5Kjw6ARYY/bQ57XC6REWDFQBJgZimuJGFiCJkDRUIGEYWCaJl63hzy3C7cXEIKh/iGc+09nMfqkE/G5vRiKILTjE0L/F+L/duzgH5/sIhozcCsaLk1F1VRURSFOAhC4XC48bheaCXFdR0GlVzdJ6AJhmrbYGrpirxKapqJpKgiBQME0BZgmQoCmKckFQlFxaRoAbpcLFDB0A1XV0HUd0zRJrkEKXo8Xn99LnteDrisIwySu65iGgaq6MAwDI6GjaApuzU1evpdg0E/RCTJ+OJjZmnqD0LkxdzBnkCW5Z9CIcDoKCA2hGH2P/ikPM+klJz1LVaS8RgRJf1BBUzRcCmiqAN3ySjV8AQ8Tzz6NURXjCA4tZU/HXta9/hov/3EViuGiO5bArwZwuzVQVTp6utjZuZOeeBwVFVQVUwFTKOgJHd3UbS/U1Ps8Yst+wzTRDRNVBUVVMBF2SMI0FTQlKfSamvSAEQZCV1BUBc2loqgu9ISJKUwUoWEKBUMXxFUDQxck4qbdJmZK3IWSFHZNU/DnuwkOycfnz8MwjnL3SQ4bbTt38q3UK93W91nIb2IbXAxSEYbUgzhW7MEKS1gIkuFcUwiEnlQZTdPQNHC7VNSUB6moKr16Dxs/3sbJH2zmxNGngAeCRUGmnPMFTvAZtO/cS1tLF9u3hhHePNp276b3/2JgJm2wwgiGYZLQDXRDxxBm0g4h0ux0XlNVFUXtCyugAJqCS0l1Syp24va4UEwFHROBgqGbSc/WTIqs26vh83nwetzoupks3xCoqpIUXwG6rqdsUJN5GCodHT3oooPCIcMOf/dIjioHc+ZZcmwx6ETYGW7IvC5EnzfZt+mm2DFUxUw+1gthktCTj/Iu1U1vrIcPPvyIveEw23bsoLSkCBSTEwo8FA1RGVMxjIDXTXckRq/mJbHHYFckjGGa5Pt8+P0F6PE4Pd3dCGEmY7kpD1RJbewpCqCoCGGiKkkBdrs8mIqJaeikAieoqoZLc4Ew0XUdHYGqCbxaHi5NwRQKpmFimCmv3q3hy3PjD+ShArouSMR19LiZ8ppdCNNA1w00FRACwzDo6Iywa3eC4XEhRVgiySGDToSTCAR69jMBikOQrRCF/Vlyd840BYZIesemUHBpLkwRZ/M/trFjZxvulAgG8vMYd3IR5ScXoykaHuFniM+PEDHAwO93MaxkKEMKTmDP7r30xroRpolQQUVDUTQU630YUwdVw1oUVFXD7XEjFJNEDDQUtJSNigtURQXVjUDFo7jI01SEqiY9W03DdLlQNS0VP1YxuuPopkG8N4GhJzBMgTAhbugkdxUFpkiGTRKGgTBNEgmdQEHvke4siUSyDwapCPeRjAP3nSoQQqRisSQ3u1KHuTRNQ9EUDAWEMNANME0T3TTQjL4jX548HcOESFcvO8PddEZ6+DjUzvDCAiaeegr5gV6GFXqpKC9CEGN4yQmg5QHd9PR4yY+76O1N4HG7yfO6URUVEU8ghIHXq+H2JG3W0PB6XaiqijAM3KkYsEiGqhGGiaknY8eYqVMPkBR1BUDg1pKinDANEAq6qVKgKsQ8LnriJj3xGIYAoWoITBQledpDAIZhkNy8lAFhiSSXDGIRth7zk5txQjERpsAwBQgl7ZiWpiqompKKkZoYAgwhMEwF3TRxuZPH1IKF+RSNKCAaSdAV6UY3dNrDCbqivcTiCQp9/+CkxHDGjSzi1PIiEkoneDU6OqOUBYOccUqQPI8HM27iz88jWBjA1BPEeiKYhgEKuDQVIyEQeipmrOv0JnQMHTAEhpE8AdETN9ATBrpukohDLCEwhdkXXhYCFSVVfxBCwdQFCUMnrgu6YjpdPRrRhI4uTISp4NY0VE3DNA1MBXRFxe9256wHJRLJIBRh5wZcX9gh9TcCVbHO1CoYhpHa61LQhMCluVAUF7FYAmGYqEoyXFFaVMipp4yg7ORC8oa42PbRDtyxIC5Vw+/zEhzio2hoPiNOGELFSUUUFRfgK3QBQ0EFw9DRFAGYqJoLDBNTj2MYJi4tgKIU0tXZS3hPD9GeBN3dCXriCeIxg3jMoCcGsYRBwkwgTAVVMdEUhTyfG2FCwgNuI4FhaMkTH6aZqnfy/K8uDFIanzx/LAzyPKALF0IV6CYYuo7LBW63ioKGicAQgnyPJwe9KJFILAaNCCtKX2jB+aaa9VitKEnP0BSgprxgRdNQ3S68iorLpZDv91BY6COe0FHjgjyvSmFBHqMrTuCUMSX4AgqmYlCsD8c8qZQhAQ9DAl4KhnjI83jx5gm8bg23O4bmMojH4+i9RvJEnKqQ0E0MYSTFzgWJuEGPbmCYyfPAgUKN4DAVTfPR0xunp9ugqytBZ0ecnh4DVfUSixnsaO8hoQs0PZE8cRFXiOsGmktQ6HfhcSW917iRLMODSsI0SSTAZQi8wkVCN/H6BP6EwNB1Egk9eYpDAYQgoQt008CU4QiJJKcMHhFGQUVNvesgkttYSvKcraYouN0iGS81FVQV8lwabpeC1+si4PHi8wqGD/VRXFyAS1Px+10UBNz4/S7yfAAJXJpKrBd0xQ15MCyo4Ms3QenBrQkCPi/CNIh1d+PSVdxeDVPVMRLQ0xsnHjfweDQUTQMhGBLMQ9O8hDbvZGdbL5qiUXpigIICOGlkEGFCZ1cPXZ0xol06BQEPuhAUbNlLZ9hATyQAE113YYoE+Xlu8vLc9PTEMXTwCgP8bjRFJZ5IEIsJTENgGgqRmI4rIVAwiOgmmqqiCIEhTGKmSa+hE43HcafCIhKJJDcMGhHWFBO3lnw5w62oeDUNTXPj9aoU5HkI5LsQQkETKnkeBZ9XQ3MnPWBVUVEVwbDCfPz5yWNifq+GVxG4AZ/LjWEI4j0mZjzBkIDA5/PiydMwTZN4PIHHgM54D4ah4s3TcGsgdDdCj+NWXcQTJnluhYICDU1VESoU+DW6owZ+n4pS5GHvzm7atwuiATdCF/h8yU07lwn5bhfocVyKm9JgPkPzDUDH5VLpjppEYi68Lo3OrjgIg/x8DZfHQ1c4TtueXhIpz16I5KmI7t44BhoxwyAS68E0wDAVYoaOQEEIBdXQ0A7pm0MkEsnhYtCIsFsTeFWBS1MY6vcRzHPhcWv4vBpuV/JLIWJx8PpUhgU8DPF58OZBb9ygO5o8MRGL9yK63Azxu9AM8Ggq+V4FI56gM5zANCGQr+FxuentihOPqiiagj8/6VWrioLLrdDT3YtpCLx5MYYEhxHeE6Ej3I2iCIxEHkOGeHC5NKJ7ezCEybCgj6ITVE4eOYSGd9vZ+vcOujsKKAy6SSQMdF2wN5wg2i1I6AbCNDhhqJcTR/qTb9TpBomEgTB13BpoHg8+vwYmhHVBPKYTN0w8XhUzAbqhYAjANCj0aGg+H9EE9Og6OqCYoCugaCZCHfCrfyQSyVFg0IiwoQOKhqa6kidvTdBUhYQpiPWauFxuENAZ1on1mnTnJxhZOgSXAobRi9flwu+FfJ+L0uJA8qSEabJ3ZzcFQ7x4XALN5cHjSm72dXf3cMLwAHk+hQK/i96YjqELAgVePF4P0R5Byyfd7Ni+g4LCAIXDgslNQ69GTDPZG+lFN0w8HjeqCe2tu1BUDeFW8Rd42dney8cfdxA3wedV0YSK4hZoLigeNgRT76Yz3ANCoasrQdGwPDTVTU/MpDsax+1SiSdilA73cWJRAS6XoDtmENrehRFXGFqYR0+vTiyRQDe9oBigG7jzXHhUDRSF7liCPM+gGQISyWeSQTMDe4wEkZ5uDK+HPI+Gy1QxYwkMAQkjgUuNk6cmvdhoxKCrK05nV4yy4X78Ho3CQh/eApWgz4vbZaKoApeqoaguOvbodPfooCQYHnQTHOblxJHD6E3ofNLSRUGeh8Jhebg9HjpiGpqvgEQgD80bY29nN7tjOvTqhDs6aG/rIBrppLu3B4GCR1Xx50PZSUMoGTkMs0DDN2oYQ8jHH1bQo73Q00Pnrk7yVIXOcA9teidD/G72bIvR25vA5/cRN+K0te7FNHXy/XkIMxnnVVXB3s5eMHRMxUBPCECjOxpDUU2CBflEuiKUDfGhBT3oCgzx+QhHehEIjHw/PbnuXInkOGbQiLBP8yI8PlQUIr0JTMOgC0Fv3GR4YT4+t5tEPIHHrVI8LA/TNBBCkDAEMdNg195OzE6NqD9GXp4LtOQmVm+vwd693fgDLopOKKArLvjH33ajx3SChQGGDcmjU1foignOrPoCQ08axft/beb1197i7x9sY/fuGG5MfC5BXDcYlpeHYsYJ7QW3plPmd+EZotDb1sEH67ZTMCxAZ6wLPD7c3jxO/6dTOL26GtNw8YeX/0rLHpPCmEKorYOW9l58eW6M+F5OHBHArXro6jQo1LsZNtRPeG+ck0cW0BvroadbcHLpMFRM9nT1YJgqLi35mnb3UA+RSA8nlw7BFBDvNdFUA6E6XwM//BQXF1NSWtrv+pbNm6kYM4a21tZ+X1zu9/upGDOG5qYm+1pFRQWRSKRf2oGuZ8tjX+krJ0zoV54/EMhaJ8vmygkT2LJ5c9r/YLNywgRKSkqIRCJs2bw5rZzi4mICgQBbtmw5IJsGwu/3U1JS0i+fTCxb2trasrZDxZgxWe30+/1MOftsAJoaGwe0K1v9s9XR2Sbr161LS+scG5l5HU9oc+fOPaRvff6guZkdn3xyuO0ZkN6O3bgVE59HQ9UU2sLdhLtjdMV1ehMJIgmDXkPQmxDsivTSHu4mIZLf+auhYqgaLe2d9PaYdPck6OnR0U0Vj1sjWJgHaPxfayfh3XF8bi/Dh/lQXPD2tggftXZSXJpP/RvNPPjzF/n9s2uI74kTECoFWh6nnnwCQZeKV4Hzp5xG9SnlRGMJykuGUlFaSNnQfL448VR279xFkT+PqlGj+fhvnxDr0tmzqY3nn3uHV15vojfaRV7AQ8TrZXdHnFg8js9lUDI8n2FDXJxU5uOUiiGMHBkk0h3jk/ZO8jyCESV+AgEvXd3d7NjZzda2Xtr29GAAMd2kM2KwfXeULS2deFwudDPBCcOH8eHmdty+AoQvu+B8Wmrr6rj6mmsYOXIklZWV9s/GjRu58sorKSkp4a//+79p91w/dy6jR49m/fr19rX7H3iAPungmQAAIABJREFUygkTeG316rS0P7j1VgKBAM3NzWnXPzd+PHfdfTfLn356v+lramq47fbbaW5qsgXnkssu44tf/CKVlZXU1tVx5plnUlFRQWVlJVu3bEFRFB7+xS/408sv28Ixb/58Zs6aRTwW48wzz6S2ro4PmpvZu3cvAFdfcw1XXnklb7z+eprYDFSHTConTKC2tpZ5Cxbg9/vT2ieTq66+mq985SvE43EuvfRSRldU2OknT57MbQsXsnfPHiZMmMAll13Ga6tXk0gkKCkp4f4HHrDF9OprrmHvnj1szfJ/pf5/Tz7JX//3f9NEuraujq9ccAGvrV5NSUkJ//mLXyQXNL+fM888k5mzZrF+3Tqi0ShXX3MNM2fNssfGdXPnAuy3HQYDZ511FsOGHfj3sQwaT9jlgXBHjEiPkXzjDVA0Fx4FBCo93TG6DcHQAi/BgJdgQT4nDPUSyPOyqyPO37fsxut20xVLoMe78Xo0jHiCIYF8Rpb5GOp3MXLYEPLyNVRhEtfhjQ9a0YcWMHFsCa/+sRk94WPvrhinjCzm2+d9nmgk6XGOHekn4FfxFgxFCwylY3cnl5eX41NNykr8RCMxNH03X6k5E5cwiUa6GTokQFukh+CQQk6M62yKuHn/vVbKivdSPu4k4kYUw6vgDeTj0kBzaXT1Gmxu2YNpKGiqi5LiQnoSsCEUoSvaS7irl95ek2gi+SU/uiJQhAs9EWPcySewYetutrZHKPTnsT3cys6ITiLcTfER/P6edWvX8tCDD/a7vnLlSubNm8cTjz9uX/P7/UyeMoUHH3jAvjZ5yhQEUDFmDMXFxQfsMR4o02fMYMvmzcycNYsf3norAE889pj9+V333MPqV19NWwBKSkrS8qipqeH0ykrmXnedbd/MmTO56+67+dY3v2mLrj8QYN78+XY5B8PMmTNpbmpi9auv4vf7B0xXUVFBbV0d37ryStrb23lp5Up+/eSTLH/6adrb25l5+eU8/thjdn3uuvtuauvqWP7001RWVtLW1mbbV1tXx8zLL+e11147aHun19QQiUTS6jpv/nyuvuYafnLnnUD62CgpKeGuu+8mGomwcuXKgy5vMDNoRDgPD0PyfPg9gDBwezyYeoJAfh4KJgrgNhVMl4LPreJSFcJdcT5p7aErZtLba6IKkz2JHtyaC2GoGKaLvTu76O6Jc8b4IgoKVTweFWF6+WR3Dx/9/+y9fZAc1Zmn+5zMrOqPLH1LlWDjsVSyxx6Lao/Xhqli985lQqXdGGaW7o24OMLdc2PADjURAzjU2rCBWMlLGG4Iza4lwha+Aawt5l6pZ8fMhNUOg/eOSosG76rbaLFNl4SNxyoJkEBVQmpJXVndVflx7h/5Qbe6W0hCotxwnggpuiozzzl5MuuXb77nPe+pjHP7Zz/OoRcP40228dlVi/mDjy7m4OHXGPnlMbpWL+KcLXntpOTwb36DobXz25M1Vi5bzM9++zoL2uG2P8pQeessi5akqJ4ao+ZIPr3S4rzt0WhK3jxd53M3foo1vuB84wZ++uIr/OaXR8jnbuDnJxw6rlvI+ROneXOswbmag6YJkm3tnDlT5ZOrLF5/6zTjNR/dECxa2IEQTdqSOudrHr89YeMAumxwut5AoCFFklN2g0bDpa2tHSPZmgW3S6OjwUrF2Wxs/eTz+RmvrYVCgcHdu8lkMhTWrZth3b4XLMsim83ylbvu4ns7d2Ka5hW9Eq9dt44f7dkz7QExODhI97/7d2S7uuLzGRkeji3a2YSmUChwe08PX7333hnbIjHr7eu7uAiHbpioLZVKhXK5HL9JZDIZjk5xF4yMjJANl7fK5fPTLNGR4WHW9/dfUb/Mdszg7t2sChdovZBKpcL2bdvYtHnzh06E582S9x4ehgjyH0gPnIkmHXobhu+zMJlkQTJJZ2cSa0EHK1ILuG75QtqEYPnCBNbiDj59wxI+ed1C1nx0CauXd/LRRQl+b1mCz61axvJFnfymfIbDr57l5Vfe5qXSCcqvn2bNjZ/i10cqdCxcTuFfrObza1ayzDSxmy4vvPI6P//nU/yPg4d46tkRfvrqGHZDYjdd3hizsZYspO4m+f8Ovk7b8o/zs1+dptI0+c3JCf7xpdc5r7Vzuu7y5jmHhivwnAn+8BOL+eK//jzWiuUkzYV0Jg3Gxmu8Pe5x5lyD9lSK9oTBeG2SmuPz6tEKDUcPZgO2J6idG2diUjIx4eB5HgkNOg1BqrMDic6E4zN2rsbYOZvxCYezE3UmGtd2skYqlSLb1RX/y2QyQLD6Q3HvXtYWCvG+uXx+mv/Ssqz4u5HhYbq7u69q29YWChT37o39pt09PVdUTiaTmdVHWy6X4/MFqNVqbN+2jd6+vllXRC6VSgzt2XNFbYiYrdxIDCMLvlarTdsWifqFfvBKpRJ8fxHRn4sfDQ1hWRYbBgbI5fOYpkmlUrmoG6VarWKmUh+61aLnjSWsY7C4o5MEDp1LFrFgQRIjXBLIXGDSqE+C75NM6LS1aRgJh9WfWUEiaWDXJjASCdymQyKpoQkD3ZB4jsb4+AS+r6O3d+K6HpMTHk2tSXppB6+ePoG3dAWdSxdwyhD81787wLIFJktTHTQbDr8sV1i6OM35s6c535T88JcnWdDRRtM5S0KDWtNH1+A3P/019bqDdnySZJtE1zxWaD52w8BxPP7hv/+Chq+x/OUqv5+x+Pjvf4ya6GDtv1nFC8+/hNfQWJBqo3r2PBN1hwQ6y1OdSF1g2zV0LUF90qHZ9DA8Bwm0JTXaNB0hNJKJJG6jgYPAMBIIL1jxAyBp6Nf0umW7uqb9iMvlMuXQBTEyPMymzZt56sknSaVS5PL5aVZgNpuNrbpqtTrDcn6vFAoFngzbMrh7N+vvvvuKLO3LEamR4WFKhcKsbolKpRIL33wncmv09vXR39+PmUoxtGfPRfv3g3Lul8u8EeHrF2qYIolhGOgJHdcNkvScrblMuudIL0mxsNNAM1wSehuaMFhoaiSSGovaO4MMZkY7nabBxESDmu2RMA0WmB0gBJ50cd1EkJFMS6Hjcv2y5fz8eJU/umkNXZ/7NP/qz2/iN6UTnHntBD//5RHeqNqUX6/iORJPCjR0xieDNefakgYGQQKhyaaPi8ATGmfONUgkDE7Xz6MLD6FJlizq5NOfWM2N/+IP+PSaT/C5/B/y6pG3+U/f2MKZE+N86vrFmJ06E67gvO0w4TSRdZ+m44EmMYSLEDrJ9naSCYJMcppO0/VwnCa+3aTpenieIGFoCHzQBK7r0XCvbe6IuXzCEA7CCEEmk4lH/KdalL19fZTLZQrr1gHM8N2+F7JdXaQti1QqRWHduiCiIhx8u1yRt217zmgKe4rVGbF92za+//TTV92yj9pytbgSC3gqkYsBggfqwMaNAHMK8dS3pA8T80aEO9raSXoOAg+77oCRoKO9ncXL21mQdGhLGjhSp1PrQCRcli9JYHYkka6gIZ0wh65kouGjGTptCY/J+iS6oZFM6kiSeAmN5kSD9g4DTfh06OA1OvnNT/Zx7tVDLPh9izF7nOu7ruNLf/wZJiYE7uQk58/anD9zjreOn6E2XsPzNJrNBroOrtOgc0E7iWQHaO0sWZZi6dIFXPcRi862dto7DYyEweuvneTUqdPs++nz7Px//47y4SruhMuKpR3YTYeGhHO2zUTTxfM9Eo6GkUjQaDSDFTM0F6fp4zgiyEeMg+t4GHoCXQt85GFKC4SmBz70hEQTrc0dMbRnD909PbGlFBFZ0LVajRtvvBEIfpzZbPZdfZSR8F1sv0KhQPnIkbhsCET+Qr/opVA+coRsNjvNl21ZFplMhsFdu2a2z7YZ3LWL3r4+Kld5oNG2bdIXDBxG/VCpVLBtm1QqFfuM0+l03EfVSmWa8Ebui9kGQy/24AHYsHEjI8PDcZ+USiUGBwf5Um/vnCKc7eqK2/hhYt6I8O9ZbXRgUBlrorV14nseBw+/ji8FXZ/8GOOnJshcvwBDJPin/a9y6x+lWfmRFLpuAjpOs0mz6VJ/u0kqZZIy21iwqA2n6bJgQQe12gQNp8H5SZ/fVmq0Gy5/lL2B2vlTtPk61VeP89vRt/jV8RrN9l+wIL2Y5R+zENppPnKDycfXfARtscO5imDsTI0lyQRtbdDWZmIkUgjRQb3movljnDxe5tev1KlPCsZrgvPnGziOx9h5G+EJpAtp06StHVamFzBafpvzDRc0ge5L0imT8XoTTTos6Exg6AIhNDzPR9MT+JMNPKC9vR1kMDMQ3lkM1feCxVDF9KXvWsLQnj18f+dOzFSK7d/6Vvx9oVBgeHh4hhW95dFHKRQKFx28KZfLVCuVeNQfgh94Nptl+7e+hWVZrC0U+Oq9906Pac1m2bR5M4O7d1+WEAzu3h2EuZVKjAwPY5omvX191Gq1OQV9aGiIXD4/beDuUmOAL2RqrPHwgQOs7++PLfpMJhP4rI8cCfrmyBHWFgqUn3wS0zQpFArsDvtoeHiYgYEBhsJBxgt99FMpHzlCd3d3HGdsWda0sqqVCr29vfF20zTJ5XLTBgUjTNMkm83S29c37R74sDBvRPjEWRdvosbC9gTj9SbHTp5FCJ0zZ89Ts2ssNDWQOmfOvE0h/zFWr1yK25zEd3wc6TPh65w9N0m97mC2OYE4odNE49evn+fNt8ZB6rx11qZ6bhJ7os4bb53n48sNli+C/L/4PP/lh79kkalRsyVv/fo0vxo9hRO6V335Kr4vELoGQmAYgvY2nWRCo60jwfj4BI26hyshoUPDC1Jfuq5ANwQJXbLMaOMjH7U4euw1ev/N59CaNU6drnFYSDqTCTQtCJ+bbDTwEWi6juuB6wd5JZACKT2angOaoDE5idC0eN07z/fQtCCXsAzTfTav8XUrrFsXuxMitm/bFodI2bZNuVzGtu1pFlc2m50WqhYxMjJCLp+PRbi3r4/evr54e6VS4St33cWDDzwQh19Fg0/bv/WtYHn4QiGOGphK5B55N5G/kFKpxPbt2+nv749fuctHjvDg/fdf9LjHtm/n2zt2xJ8L69bFD4fLIYqYePCBB2Ire9M3vjHjvKM6tzz6aHxNRg4ciK/FyPAwxWyW7zz+OLZtI6Wc8xweefhh+u++m+8//XQssoO7dsVlDe3Zg2ma07aXjxyZdk2n3hul0VEe+eY3PxBxwpeLePXVV6/IFvrbwUEOvvji1W7PnLx26BV+f6nG9cs70bV2xicnWbooyUu/eIObP5ehTXdZvKQNa7nJZN2lvd3n9FiDYydquI5EF4IbPraAZgM+YnVytu7xs1+8zrm6YNxucvL8eYykRkJodLTpoAl+77oFpDsm6bI6+f1PfoTnD77G26fGuCn/Wf7LD3/Ga2MSVwbJ0X0hg/wWSNoMnXHXC5PLSwyRQEeSaIdmw2fhwk7On6nzr77wCcpvnOTE2zXaNJ/77/w3HPlVGUcICjet5viREwyPvskr1TpNLYGHjyaMwJoVwQoinusReJw1PC9YfUPoOj5eEEXiuAg9WN5JSpC+RNO1YD8hSF93PR9f/Yn37Tq+35imiWmaVz2+eC6i1/srfaW+0jC52Y67WFsutu1y+uxS9n2vfTLfuOfee1n9iUv/Tc2bGXO3rEyyJJUglUyweEGSG6x2lqSSfOrjS8EXuC40G8GkjHPjdczOds6ccXj9pM11SxeyZs0CTp2f5OXSaY69OUb17RrtHUmWLGmjU9PwNJ+EbtCW1NDDZZDO1eqcseFUZYLsx69n9cqlrFm1nLaExpIlC0hIn5o9gev74PsYUvIvuz7FwL297H/hZwipgQ+fzFzH/3nH7QwfeJk//Zef545/+79Tr7zNHYU1fPqjS3n51eNct2wJN3/6erKfuI5lusavX/5nTlQnOdOQNI0k7UaCYJlQD1/6uE0X35cIDYQWLAyq6TqakaThNIO144SGZhh40scHmk0Xz5fouob0g2dvp2myZNmy9+06vt84jvO+/vht28ZxnCs+/kqPne24i7XlYtsup88uZd/32ifzjQ/sjLkVS3QWGklOnvI4Zzc4/NuzSAmfumEZZ+wav3f9ApYt6eCjK5L8+vVJ/ucvK6QXd7J0gcFYzebIEZcztUn+9R//HmiBf9V1HI4dt3lzsk5HW4JkGzgeTDoeDVfi+JK3ztRgaYL/57//ioZb58br0vzh7y9hzQqT/63rFqS5jFOOwbHX32LZkmWcP3eWscoJ/u2ffIFz58axrr8O1x7HGH+LLQ9+mePl16hVj3PvX/4JJ94e5/mXX0cKjX+5ZiW/Kr/Jf3ujhjdRR5dwrulhOxI92QbIYHVlTQTr1WkG0vPQDQPXc/CBiUYjcD/4HiAQOiAlCd3A930Sbe3BatPSR9MFvi/DxVAVCkWrmDci3HTAcQW/+u1plixq57rlCxGJDs7X6pgdwXJBhmYwqemcOnue0+caNB2P5YvaWLIkwbKlSdLLk3iui8Sl6Wm8dcbl5ddOc6bWwBM69oRLw5M4DQcdSXubgZlI4JLgf702hi/g1Nuv4egJXjt+in99s8diy2b0ZIOlixdRs8dwfJc1n/kUyxa1sXj5clIdnRz77eukFi7iuX/8J87ZTT5iLaG6yOT//q/7mXDA9Tx+8ZujOC6M2RNct3QRY+cnmHRcNJJoro2v6xiagedJGk4QYiYA13EwdB3pegg0Gq6DJjQMoeF7wcrKmh4ke/f8wHr28fF8H03Mm7k6CsUHlnkjwo2mx+nGBOOTTRYs7EDXfF4a/Q0fWb6QJdoCdCEYO9ekvUNn7S034PgGk7XzeD5oJGg2XXwXJpvj2I0ElTMOv33zDNW6S9110L1gIcw2XdDRkQhWqBCChvQ4Pt5ASI12Q7Jg0RL+4cUjLGtPUnd8/uHZX/Dz18boNCCRgBsWdzB2epL9wy+xsL2NL3x+Df/4wv/i02s+xWezf8Avf36IAy/+mjdOjlE5O45EY1lnkhWLlvDL376BEAZvVWs0fYkIw8p8XyI8n6ZwkVLi+hIhfQQSx/dwQmvWk4HPGClxvCD+V9M0PM/D9300TcNI6DiuxPB1EMT7KRSK1jBvRLj4szdZtThBeonJiepZ/KUmX8h+nIWpJB3tEnvC4cx5yZkT4zjSx5eSj123hMlGsApyW2c7J8+OY09qnDtbx3NcbkgvQT9d4+26D9LH8xw8X+D4Igjd0gRSRNEHGs2my6HqeSYdSGouz/zsCIdP2Hh42A4s8BJ8+lN/wK4f/xO1SZf/Y93nef5/vsyRk+McqfyM5//p57iazmcz1/PS4TIJTSeRMEDo/OLVN3A0jXqziS91Um0G7ZrA9z10I4HwBL6ApuvieD4JXaPhuPhIHK+BIPBja1qwCKiUoOs6QgOkQNM0dEMHGaxYLYUECYZ2bWfMKRSKizNvRPjmGy1WtAfW3+duvI63xybQdYNfH6tgtrVx6u06Cxe1kV62gEbd4bWTNX597DiLFy7i/PhZBLB8kUmqrY0O3cOTEmeyiRCStkQCx/fxJeBB8MLuo0mCFTs0Dan5uL7BhBeI4LG6y5sNiY6LL4JJwBOux98//wvGmx46kv/2P37N2doECJ9EIkFd6hiex6HySTytDSF9QOdMbRLbk2h4JI0kHQkDHYHnSzRd4Dkurhu4EIShIwQ0fQdfgCcDXzEChNQwNAPf85AiaFRkAXuei99wEZoIVqIWQYREFEN8Lcjlcpip1IwUlBGZTIa1hUKcWzjK9HW5+0CQvnFkeDgOccrlcuTCvLgXcvTIEYaGhmYcA0F8ci6fx0ylZmRPy2azrF23jqeeeGJ6HuFslkwmc0lhbdmuLtYWCkE88JEjcUwuBBMcBnftmnZ+uVwOy7IYGhois3o1t3d389iUMC/Lsri9u5vM6tXYtRrFYjGOO472v5CRAwcumsNB8f4yb5yCugZuuGz7GydrnB6f5PW3xug02+lckGTRsg7Gmk1eev00//PQG7x9rkYyoZEUTT5uLeSG5QuCVSjsccBAIvCkx+LOdpICXMfD8QQN1wtWxEgmEUKn0WwyOekw0XCCJY48QGgYwkD6kqYv8D2B5wkajuRcw8eXgronOX5+nAkpaUqB3XSpOw7nmh5vTzQ5N9Hk/ITD6dokvmawpL2DJZ0mne1JdCHxpYcfTq5wfImWCFZxjsRYSkBINAFCgoGO8AlMYHhnIoYUeK6PJoIQNQ0NgcAPxVfTrt0tkFm9Os7QNWNbJsOWrVuxazX27d2LEILvP/30tP1zuRzf3rEjSG8YitWF+0AgRN09PdPihavVKodGRzk0OkrKNMmsWhV/jnIU5G+5ZdrssvX9/XwpzHm7b+9e+vr6+PZ3vvNOPdddR6FQmFZP9H0un3/X/ujt62PDwACHRkcZ3LWLVCrFlq1b41lqhVCcL+zDqOxocsXU8/72jh0gJUN79jAyPMzAxo1xUqRo/+i8o3/vV7ie4tKYN5awfa6JnxScPF3j/KSDrxucOzeJxOdcvU5S1zGTCVYsaecjn0iDhEbDwXUcmgmN+oSDL0HTJLWGi+v4TDoerudiaAZLOjQmHBdb+Ex60JwMpjF4nsQHEEHomkCCFsTbSk3D1yRS+niuD8JHkyKIxZUaUoIvJEIXiEABEUJD0zQE0GkkMYBkWxLPC+J5fd8nYei4gdrTaLg0kRi+xPV9DF0HP1jY1Ac8z0MDhBbUiQhcD4FQB1YwMlg3T9O1IJwu+qxp13RljYuxafNmhn74QwYHBwEoFotUKpVpuSH6776bp554IrYwIwvvwvwRUbLwaKpzNAEkmoyRtixM06Q4h0UOYdL0KXl4IZhB9p0dO6alnrRrNQrr1s2woKcyV1a1XD7Pj/bsidtRKpUuaQbgXGzYuJHhAwd46qmn4u/MVIrevr5pFvzFzlvReuaNJewkkxytnOONtyc4M97g5NtnkcLFWmLyh6sssquWYS1uI6lLpOvg4QSiaBhMNl0aTRfP9xmvOdQnGrgCEsk2kB7C90loOhqCdiNJu6aRCBfD9HADH6ofRDE0PQ/H9UMBdPG9wDoXRjhbTtPA0NB0gaYJ2jSdZFhumzBo1xMYUqPTaENKaHqSczWbetPFnnSYbPiMNxzGGw627zPpSRzHo9FwkNLH9wnC01yJH04IkULD80ToxpYI3wtnyQVTlf1QaDWhYeg6QggMw8DzPVz5/ueOsCyLtGXNEId9xWKQWCedJpPJkLYshqfkY4j2uTDdYzabjS3BK01HmcvlGBkenmYl2rbNcCjuETXbZmjPHjZs3DhrgptMJsO3wxUlLsSu1WbkdXjk4YevWCSz2ewMV09x717+9irmXFZce+aNJfzb195moSG4bmk7CS2Ysjs52aQ+YYNvYJqdeJqO2ZFg/GydiaaP7/vouoaeMNASGnpbEl36tCc0ahMO0vfwAITEMARJ1yBhaOhCI+n5NH2XjoSB60oargO6HkQaSPCRCF/Gr/NCCFzfw/dlYDELDU0IDF0LXAMEA2WBj1ZQn5xE17WwjTquG0yuEEIipMDzQbqBePqeH4aZBXmVcUDogqSeoOl7SDewxtEETdcJHiBuMDXZc924Xt8PZskhZRw8r0WNex9Jz5EYJnITWJZF1Gmz7TM15WG08kZklUa5Hy6XVCo1ayrFo0ePzhDUwd27yeXz9Pb1TVsZBIK8FVOt6alEU4Zz+Xzg8igWLztPRETktriwzbZtzxD1DeFU6rgds0wHV7SOeSPC1y9LMXH+LE1Hx3Y8ahNNJD5tiQQ+PuO1Mzi+5M2TDmZnB7qmkUwm6WhP4roNHM/Db0yi6wanxycxhIbr+pBI0Gw4eFIy6TaRmk7CECAEnclOfF8ipc6Z+jh4Et1IIP0gXaUvBI1mk0TCQEqYbDRpSwi80GLuaGsnIQSu7+BKn2azGQpv4KKQBD5ZTdfxCAQcGfi/AVzXRSLRROCmEJqG77m0J5NBVITjhtaxRPqgCx1PAuFgneu68bHBtGUZf6eHlcz3WOFCocCPQss4yv1wNXMOz8Vj27bx7R07pmVOi5jL51qpVPjyXXdRKBTIdnXx7R07KO7dy1NPPnlNZ/UdmiMJj+J3g3kjwmftBrgCe2KSZLIdTdcxEkkakw4Tjh8Ii2ZgdugkEwl836XpODTdQCQdT+B7UJ+s40gN6TXRDR052cT1wry7UrLIbMduNnA9n/FaE98X+J4kkdBA+Biajp7QMAyDiUaT9vY2NA0mJhpAMHlC0zSShkbCAB1IJjuwG5MY7QbNZmCB6iKIcvB9H891ARFaxC6goWlBmJzr+viCOPeDFoaX+a6HLySu5yHQ8fCRnkfSSAQhdUIGkzgIXBJSSiQyiJhAohP4g/1rGB0xF9UpKzZMFZ/o9X5qnoHZ9omW8IlW3khb1rRIiO6enssW4VqtNqt7Ya5VHsrlMoO7d7Nh40Z+dJn+3GKxSLFYZHD3br69YwdHy+XL9glHq2NMTUsJs680rXzCv9vMGzPIlRqnztrYTZe3z45x5nyd0+eC1ZZ9EfhWHV/iaQaOJmgimHB9ztUavHm6xvG3x3lzrM5YbZKm49KUkvGJBnXXxQV0LbBmq2PnaDR8mpMe0hUkBHS0aSQSiTChvIHreTSaDq7nMznZYLxWx/GCJeQ7OjrQDQNDGHgeTDRcJhsOTtPFdb1AoJMJhJToWjhIJwS+9PF8D5D44cw2pAzEWISxvaFvt9lwcD0P1w8mbjQ9F9f38aSP4ziEw4eB9QyxBex6HkIIdE1/xzXRglyWUQazC/23+Xw+3hbllZ0aDQBh1rTeXiDwiZaPHOGpJ55gcNcuBnft4qknnohzDl8OI8PD5MNleKZSKBTmFLGhPXsQMGsY2IVYlsWPn3tummsjWlYpcs/MlqM3Wrb+QmzbpjQ6OiMqI5/Ps2Fg4F3bo/jdYd5YwqfP2Uw6QSrGtmQ7hghmkvmejyuD2WXNpofmS+xGAyEE9ckGruvh+wKpaWhqocS7AAAgAElEQVSaj6aBJz08KfAlNJsOhm7g+x6GpmOI8MkkfIxk4KrQhY6hCeqOx6RdR2garuvS0daOL2UQz6sF04SbNBFCAw18z0XTdRpuE88PLFeBCCxRXcMJrV6h6RCGpSU0HalJhAiS7CS0wEJuNhyEptH03MDn7IPwoE0PEvZEERcAvuchwqgI13PxhUBqwVZPSpww7aWGRMpr6xOO1pibSiScmzZvxq7VKB89Gi8vPzWf7FNPPMH6/n5qts3RcLHKwrp18T69fX3s3r17mtVbKpVYWyhcUTrKcrnMt3fs4LHt2+PwLgmzuhwgEMLt27axZevW2Lq3LIsv9fXNiCWuVCrsKxb5D5s389j27di1GtmuLnL5PI9885sADO7axfr+fiB4W8jl8+Tyee67555Z6x/cvTsO8yuVSqQtK+6TqVzY/3atdsW+aMXVZ96IMIhYLIUIrDgjKWjXOmg4TcbtCUBHODqaFNQbk3i+xBMSPZHEkBLp+jgSpOPE4V3JZJJJxwUIw7ok0gsGtZzaBIm2JDQ9GuPnkEIgNIEmgoHBpuuEr/gC1wtyNnge+H4TKSVGwsDznDhUTNM0RDiNuOE10XUDfPAcF6kFfmbpekFom++GRmqwvyAQfqELXMfF0HREKKy6ruNJHyRIIdCEhiuDyAnPdRFCC63eyDVBINBu8BZxrahWKkGy7tByjXjk4YcplUrxGmRr162jWqnMyCcbWaCFQgEzlZq2TyaTiS3JC4kSq09tR3kWy7h85EgsnhCsaNzd3U1vby9mKsXIgQNs37YtFtNarTajvlKpxOCuXbEFW6vVSIXpHS/0827fti2IM+7tjZO3P3j//fE5Dw0NYds23d3dWJbF6OgoD95/f+xusC+ov1Qq8ZW77mJ9f3/ch08+8UQ8ESPa/8L+HxkZUSL8O8S8ySdc+e1vcGwbx3Npug5uEO6K13RJtidphNN5hdAQEpqug57Q8V0PiQyn9Uo6O9qDZDZeYL02mo3whVyiJwIR1BMGbtNBhINZUvq0JdqDMjUNCCxwH+IIjGQigeu5QbkiCFeTnh/G5+o0HSe0VIOQscCa9kgYRiCavhtMNQY0PfIXB5ZsEN0QxisDoKFrwSQNZPDAgGBAUAvXMPJCq1tIH4QWT/DwwyndYY9w/Uc+SjZ7IwqF4upwufmE540lXG80qdfrSAkN18GTQRiYlBKn6eC4Xug3dcEPpx57QCRGQqALwcTkJJomEATTdhOGjgicrni+j6vB5MQEqWQ7Hj7tiSSe5+F6XlCX6+JFywNpGrqm47oOMope8GWQSEcGccSapuG7HrrQgnXuXDdwFfiBTzgQ82DwLZzPEUwpBlzfCZcKJY71lWGOCN+T6KGvWAtdF9L38UMfsi/9cG6ciB8kUgRijtCQvs819kQoFIpLYN6IsOP7OD4ITZBoa8NtOqGVSzi7LDTohURP6Gi6Eb5ye4HoCoJcu56PnkggvMBCbThNpAhy6zacJglDpz2RDAe2YLxuYxgJmn4QCqaJIDVkWFWQe0HTcAkym0XNcFwnWFlDSrzQWpYynEkc5nOI3BRBGFwwo00XAkd6SF+Gwhycg5CB2wMRpLAMkvAAMhiYi/Q0iHgIY4TD77ywPscPckpEZQXlzJuxWYXiA8m8EeHAYhT4joPr+zjSC8K8EBi6jue7gCSpJ4DA32kYBrqu4XqB70LXBW1tbTjNJgkjge00aDSd2IXRkWxDIxgw8zQ/XBhTx/E8PD9IwoOUgRuAd6xN13WRIohIEAQ+Wl3TkV4wMcMVgZWqIQJ3hhDh5A4/nPEWREFI6dPwg2WLdBGuCRdashoCj8D9gQBd08I0EYKm9NEIlmaKxNvzQRBa5ZqGJyOXTCDKIrTkfalSWSoUrWTeiLAjfCb8Rug6gE6jLVjsUtNxnGacC6EZugYQAtxgyrGmacGrv/RpNCYxjAS15mQwMGckAleBL0M3gx+Kqx6GjslgQFA6cfiXoQWz4Zq+F06u0GJ3BEhc3yOhG7j4wYSQUHRBxikmAXTdwHGagXnsCSDM+xA4HRC6hvBDa1iHhKbjeoFvV0qQXjBAqYXJfNzQ3+wH4cAITcfHpxm+KWihCGuhDzn4X/kkFIpWMm9EOCF0kkIPohp8Px6Ec91mOO04WMLHD8PV9PA123Vdksk2Gn7gN0aC77okhYGWTIaiFQx6SSlJtCVJeB7NZjDpQgqB4weRBloYq+sjabpuWEegiEILLPJgBYsgMZCUoBvBVGfX99DQgkgGz43jfqXQ8AMnNoYWJOURvo8Mhd0N/BfoIonjBr5oSZDDJ5pNJ2VQlq5r4IdRwlLiey5C09EESD+KNw76M/Cn+2FpCoWiVcwbh6AIZ4fJKBSLwJYLQr9Cq9X3Q7epQDeMYEXhpE7TaSIdj4TQ6GzvwPODV3EZDsZJGeR70ESwWGij6cTWqusHrogoraQQIhiQC5a8CNsWzG7zwsE7QzfwCSIUXM8lYRgYuoEuBLqUGJoW53JIaAZJEWzzpR/6rwO11DUNXQ/C4oKJGoFLARm4JaL2Bysna/iSwC0TzpALHlge4fr278y60/TQDSFD612hULSKeWMJ+4Q+Ul0PpEhKmk4Qp5swEjRdN86hKwG7Xg9Ex/HRkXQk2/B9SbPZQCLxCJPbaBrS8/D9yFcq4hlnnh+u5RYuay9kYC17TiDSWsKIk6ILTY8fEK7nkRBGsGqzL/HdIK2k1IJUkroWuB6EJoKJJnqwKrPvuchokDGc3Rb6FeLZdoEF7aPrBp7nggjzP4QWrib0ODoi8DqEA3CaFgxgikCYo7jla5lPWKFQvDvzRoRrkw520w/lkzAxTejgbAS5F2IRDhOdS88JZ475jDedaVN/J93AAiaMQBDinXAugCAIOLA+Q6Wj6Xmh9a3TdNwg/E0GUQq+HwpiKOBIN/YRS18Glm44ccIJc/oSDuYBYejYzPOOLHwgnOFGFCA9zZUwdTJGRNCOYK28KCNbvM0PrOggb4VCoWgV80aEPT/wq8afZ/wx14FTd5gqRN6UrwRcmFdXTv/wTkSEDCzQeB8Zr9sGQXKc4FsJcXsDV0Ow4Z0wNkLxj/efxT07VVT9Ke6PqOrZ9rtYGRd+16qk7gqFImDeiPC1lYp3L/3dxOri2y9PIN9rWxQKxfxBOQQVCoWihSgRVigUihaiRFihUChaiBJhhUKhaCFKhBUKhaKFKBFWKBSKFqJEWKFQKFqIEmGFQqFoIUqEFQqFooUoEVYoFIoWokRYoVAoWogSYYVCoWgh8yaBz5o/+AMclXbxqtPZ0dHqJigUH2rmjQgvXLiw1U1QKBSKq45yRygUCkULUSKsUCgULUSJsEKhULQQJcIKhULRQpQIKxQKRQtRIqxQKBQtRImwQqFQtBAlwgqFQtFClAgrFApFC1EirFAoFC1EibBCoVC0ECXCCoVC0UKUCCsUCkULUSKsUCgULUSJsEKhULQQJcIKhULRQpQIzxM23HMPWx56iLW33vq+1Gel0/TecQfpdPp9qU+h+LAyb1bWKNx6Kxvuuedd93vwP/5HSq+88p7rM00T0zQBqFarc+7342eemXNbpVrlK5fQ5kuh6zOfIZ1OUzp8+KqUN5VIaG3bxrZtAP7D175GZuVKMitX8sh/+k9XvU6FQhEwb0S4Vq9PE8PZhONq0n3bbfR+8YuXLKSztaN66tRVb9e14PuPPw7A9scfZ9/+/QDs27+f1G23XRPRVygU7zBvRHjkxRcZefHF+POWhx4iu2YNwwcP8lgoIhcSWbPXSqin8uTTT8cCdqVcqvV9JVzuQ2vo2WcZevbZ91TW+9n/CsV8Zd6I8OVgpdNs+Ku/IrtmTfxdcf9+ntq5E7teZ9PXv07uppsoHT7Mgw89BMD3v/td0itWUHz+eax0Oj7WSqf58TPPTLMSL4foYTG1rtzNN7Ppa18D4Mt/9VfY9ToD99xD7qab4uMqp07xf/31X1M+dmzWcgfuuYe1t946rdzIZTPVes/ddBP9d91FesWK+NihZ5/lqaefJrtmDVvCY6Mye++4g6+E/ufsmjUU9++PH3KZVatY/5d/OWe/WitW8L3vfheAwWeeofvP/gyzszP+PPiDH1x2/ykUH3Q+kANzkYDYts3IwYNUq1UKt97Kpq9/HSAWjeyaNay99VYKt94ai9TgM88wcvAg5aNHgcDaK+7f/66uBWvFCrJr1kz7B8TCnVm5MhakfCi2pcOHqZ46Rf+dd5K76SYq1SqDP/gB1WoVa8UKtjz0UHzMlWCl02z6+tfjh8u+55/Hrtfp/rM/o/eOO6ieOkVxyoOldPgwIwcPzl3W175Gds0aykePMnLwIHa9Pq1fp9J9220Mv/hibNH33nHHNPFWKBQBHzhLOHfzzbGg3ve1r1E9dSq20LJr1pBesYLKqVMM/fjH9H7xi/R+8YuI8NjBH/yA6qlTDD37LGZnJ5lVq6jZ9pzujqn0fvGLM7778zvuYPjgQdbX65imSWbVKkqHD7Nq5UqAWABl+Pe+/fspHT7Mvv37+d53v4tpmlgrVlB+7bUr6ov0ihVxHY+FFuqAEKy99Vaya9Yw+MwzPPb44xTCiIuoDbNx+223BX1XrfLgQw/FD7HogZdds2aaC+WRv/5rSq+8gmmafP+738Xs7JxmjSsUioAPnAhnP/MZIIhMKMwSzpVZuTIQ2ueeo3DrrVihf7NSrTJ4kUiHd6N0+DCVWaxl27YpHz1Kds0acl/4AtVTp8iEIhwNej32+ONk16whs3Ila2+9lVToFwZiH/GVtql87Bj5m25i/Z13Yppm/AC4XKI2j7z4Ina9Hpdv1+vBA+vjH5/Vj23bNnat9p4seoXig8wHToQjAbPS6Vmt00jUbNum9MorrA1F+L2GtV3Mity3f39sLR4NrdrIFQGBFd17xx0AlI8du2qDWFY6zZaHHiK9YkXwMDh2jNR7FMNIgOPPocC+l4eFQvFh5gMnwrVQwKLX5guJBM5Kp6dNfCjcemvsDrjaRC6JzKpVcZ2Rm8A0zViAH/nrv2bk4MFpA1zvhakuhGigrveOO2Z9OL0bkfheOHnDTKUAZn0LUCgU784HbmAuGliy0mkKf/InVE+dCgaQ/uRPyN90Uywm/yGMTig+/3wsvJEYwjuik7pECy9lmqTT6Rn/4B2XBBAPTkV1TrVMozovZQArethkVq4knU5jmia5m2+e0SZ4J1458kvPeQ4XsZKj9uZvuik+r94vfjF2M6h4YoXiyvjAWcKlw4cZ/MEP4lf8qWFSlWqV4v795G++OfZxDj7zDAL49n/+z3G0xL79++PQMNM0+XEYXnUxn/H6O+9k/Z13TvtuqgUauSSiNkbCWDl1imq1Sjp0HUR/R8z1mj9y8GBwbqYZT7a4kOGDB+NBuL/7m78Jygv7YuogWenwYbJr1rD+rrtYf9dd/PmUh1HE0LPPsvbWW8msXMn3H3889gXDOwOalhp4UyguG/2+++6b+c5+CRwqlXjzxImr3Z5LJrNyJY7jcOiVV3j1n/952rbSK69QPXUK0zRJJhLYts3Qs8/yWCge3X/2Z9i2zb79++NQK8dxSCYSpDo7g7C2Kdaj02wGYWuzxOxm16yheurUrP/Kr70WW+aVU6f49Cc/GUdfHH/zzbiMkYMHSXV2kjJNavU6f//DH+K4LmNnz3LizTcpHztG9sYbGTt7lkOvvEL52LG4jnQ6jdNsUj52jKf+5m9YsnhxXO/xEyfifYSUHD9xgr995plgAkW9HvuwDx0+TGblSkTYzp/s3Ttr/75w4ABOs4lpmggpKR87xuAzz/Cj554DAss7GvgcefFFxs6dC/oobPvUflUoPqjcfPPNLF269JL3F6+++qq8kor+dnCQg1NmsCkUCoUC7rn3XlZ/4hOXvP8HziesUCgU8wklwgqFQtFClAgrFApFC1EirFAoFC1EibBCoVC0ECXCCoVC0UKUCCsUCkULUSKsUCgULUSJsEKhULQQJcIKhULRQpQIKxQKRQtRIqxQKBQtRImwQqFQtBAlwgqFQtFClAgrFApFC1EirFAoFC1k3ixv9L9eeonz4+OtboZCoZiHfOHzn2fhggWtbsaszBsRdlyX3B/9EZ0dHa1uikKhmEe8PDqK4zitbsacKHeEQqFQtBAlwgqFQtFClAgrFApFC1EirFAoFC1EibBCoVC0ECXCCoVC0UKUCCsUCkULUSKsUCgULUSJsEKhULQQJcIKhULRQpQIKxQKRQtRIqxQKBQtRImwQqFQtJAPtQjn8nnS6XSrm3FRCuvWYZrmNSvfsixy+fw1Kz8i29VFb18f3T09v1N9nslkyHZ1zbrNNM1r3v8KxbxJZXm5WJbFlq1b59z+5TvvpLunh+LevewrFt/Hll0eGwYGqJw8SalUuuIyIhGxbXvGtmxXF1/q7WVkePiKy383crkcm77xDYp795JKpQAY2rPnmtV3OUQP4tLo6IxtqVSKDQMDjL788qx9p1BcDT6wIlypVHjg618HoOuzn2XDwABfvvPOFreqNXT39JDNZnnwgQdaUn/+llso7t3LY9u3t6R+heJ3mQ+sCANUq1UgEOSpny+ku6eHVZkMpdHRaVaxZVnc3t0NQKlUmtVazGQypNNp7HqdtYUCpdFRRoaHsW0b0zTp7umhVCqRy+UY2rOHarVKtquLXC4HwMjIyDQrzLIs1hYKmKY5w0Lv7eujuHdvfB6FQoFKpRJbyVPL3VcsUi6XKRQKZLNZ0pZFb18fg7t3z9oHU4+N2gnvvJJH/VMaHZ1zW3TeUykUCqzKZLBrNbq7uxkaGqK7p4fhAweoVqvxOWRWr57zGkT9Mdc1uPBaDe3ZQ2HdOob27Inbk8vnyeXzVCuVaX14sXKu5duBQhHxofYJQyBsZmcnR8tl+u++m7WFAhD8GL+9Ywd2rUa1WqW/vz/eNpXM6tVs+sY3WLt2LUfLZfr6+ti0eTMQvM729vWxfv36+HMul2PT5s1xuQMDA3SHP3rLstjy6KNkMhmOlsus7++f0VbLsuLPa9eti/2ZUbnVapVqtcqWrVvJ5XJUKhVs2w7qCx9GF5IyTXp7ezlaLmNZFgMbN8bbvrNjB6tWreLQ6Cj5fP6i26LznkqlUsGu1bBtO34Ydvf0xOexdt06NmzceNFrgJTxNYj6aipRv5mmSbVaZdPmzcF1Dd0w6/v7Wd/fz6HRUSzL4js7dpDJZN61nKnnqlBcKz7QlvCl8KM9exgaGgIgnU6TzWbZVyzS29fH8IEDDA4OAoE/tVAozOo/Lo2Oxq/axb17+f7TT5PNZmNr67Ht2ymXywBs2ryZJ594Ii6nfOQImzZvplgsks1mkcAjDz8MwPDwMH/3zDOXdB69f/EX08q1azVy+TyPbd9OtqsL0zQpXsT3HbkqSqUS39u5E9M0SaVSFIvF2HqOtqXTaYQQpC2Lwd27qVarDA8P093Tg2ma06zhUqlEtVqlUqkwMjIya91Tr0Emk7noNVi7dm28b8Ta0Jqeeg2ifrMsi+6eHr58551Uq1WKxSIDGzfS29cX93PE7d3d08oZGR7mezt3XkLvKxRXzodehGtTBCNyIUDwel45eZINoTWUSqVmtZ4uJLL40pYVi3CtVgOC1/e0ZU1zP5RKJcxUCsuyyHZ1Tdt2OYNBkfUcUSwWLyq6U6nNUo9pmoFwDg+zYeNGLMuaFiVQqVQY2rOHLVu3Bq6IkZE5XR2XU3+lUomjJyI3xtRrMFskg2VZ0wYup/bbqkyGcrk8zf0wPDw84y0Dgrea2QboFIpryYdehC9G+cgRjh49Gn8eOXDgko5r1Uh6JPZXiyjC5JFvfpNKpTIj4uSpJ59kX7FItquL/v5+ent7+ep99121+lOpFKWXX76iazC1jAtDzOa6PvZV7j+F4lL40PuE56Jy8iQIEVuUxWKR0TmsJDMMu4JAuLLZ7Kz+V9u2KZfL5KfE5UYDU+VymXLok43LnUU8ptY1lVLol43I5XKzWnuXQ7ari1qtFrsUpopXNptl0+bNlMtlhvbs4b577yWzevVVjQEuHzmCGbpELnYNKpUK2Ww2/jy1D0uhH3hquwrhAOqM+srlaeWo+GDF+4GyhOfgqSefZMvWrZimyaFDh+LIh9leuS3LYsPAAIcOHeL2228PoghKpWliEJf7xBNs2rw5dlf09vUxuGsXEPgyu7u7Y3HL5XLT/aujo6zv7yeTyWBZFpkwmgBgaGiIgYEBECKOytj+rW8Bgbh0d3dfNDpiNoYPHGB9fz8bBgawbXuaK6BcLpPJZOLzzmazVCqVOaMOroSnnnySLY8+Gtcx1zUY2rOHQqHAhoGBIPpkipBWKhUGd+1iy9at/GhoiEwmQy6f57577plR34XlvB+TWBQK/b777nvoSg48VCrx5okTV7s9c3L8xAmusywSicRlH2vXapw4fjweHIuohhZoJHS2bXP8+HGq1SpjY2P89IUXYl/oyIED/OQnP5lRdmb1apYsXsy+ffu44YYbePXVV3l6504cxwGI640+V6tVfvrCC9zwsY+RTCb5+x/8gBdeeAEAx3EYGRkhmUySTCb5yXPP8dJLL3H8jTewbZuXXnqJs2NjmKlUHMp1tFxmbGyM48eP89MXXuBTn/40AH+zc2fsJz1+/Pg7x10w6cO2bcpHjnD8+PH4u6jNtm3HfXD27FkGd+3iaLlMpVLh7NmzjIyMICB+oDy+Y0d8nhf2f9ROCIQxOqeLXQPbthkZGSGVSrFkyZI5r0HUb9FD70dDQ/zpbbfFIWqRJW+F7dy+bRtnz56dUd+F5Ty9cydHwzeU2c5LMT+oVCosXLiQzo6O96W+m2++maVLl17y/uLVV1+VV1LR3w4OcvDFF6/k0Cti+Gc/47NdXe9bR14qhXXrWLt2bcsmQijCqde5XBw10d3Tw+3d3Xzlrrta3DLF7wIvj45yww03sOwyhPG9cM+997L6E5+45P2VO0Ix76nVamRWr+bvnnkmjnB58P77W90sheKSUCL8Hhk+cIDRl19udTM+1Ni2zfZt2zBNM55ooVDMF5QIv0ds21bJXX5HUNdCMR9RIWoKhULRQpQIKxQKRQtRIqxQKBQtRImwQqFQtBAlwgqFQtFClAgrFApFC1EirFAoFC1EibBCoVC0ECXCCoVC0UKUCCsUCkULUSKsUCgULUSJsEKhULQQJcIKhULRQpQIKxQKRQtRIqxQKBQtRImwQqFQtBAlwgqFQtFCPtAinMvnyeVy074zTZPevj5M07xq9ViWxY+fe450Oj1jW3dPz7Ql2K+U7z/99FUpx7KsYBn7jRtZWyhM22aaJt09PWzYuJHevr5p5/O9nTsvq565+uNSuZrX6cfPPXfZfbdh48areo9cLXr7+mbc0xHZbHbGdVP87vOBFuF8Pk8un5/2XSqVuuoifDGidc8ul/X9/TNE8r1iWRbf3rEDpORouUxfXx/r+/vj7f13383atWs5NDqKZVls2bq1ZUL0fl+nqZimSeoKr9u1prevj4GNG2ff9hd/QW9fH5Zlvc+tUrwXPtAifKmYpkm2q2vWH93FtmUyGTKZzEXLLhaLlEqluKzoXyaTmdNiSVsWmdWryWQyM+q9WHvSlkW2q2vOtuTyecpHjvDUU08xtGcP27dtoxAKvWVZrC0UeOThhykWi2zftg0hRPwQm7p228Xa8G5tmu2hlLasyxK8C8swTZP0BcIzW1/Mdtxsn23b5sknn5y2YOjUc57rwXphG2Yrf7brHp3/pfarbdszLHvLssisWjXrGnsXu0/f7d6/2H2quDp86Bf67O3ro7unh/KRI2S7unjqiScYGhqasS2TyfDkE0+wb98+ALZs3Uomk6F85MhFLY+BjRspjY4yuHs3/XffHd/YlUqFbFcXj3zzm4yMjEw/ZmCATCaDFd78Tz35ZNyeqC4JPHj//VSrVUzTZNM3vhH/kKIl32dbddhMpd75IAS18Eebtiwqlcq0Y0qhRQzw1XvvnbW/BnfvZnD37lnPvf/uu0lbFinTRIZlZDIZNm3ezJfvugvbtrEsi+/t3MmX77zzkhfp7L/7bqSUPLZ9OwD5W27hS729fOWuu+I+jx446YGB+LjCunXkcjkefOCBd9qXTsefo2s1NDTE98M2VatVcrkcA//+31OpVEiZJrVajXK5HNcf8ejWrezetYt9xeKMdq4tFOi/++64jOHh4fi6DmzcCFJihdcg29XFg/ffHz+8L6RUKtHb1xe3O7ouw8PD5G+5Jf7Osiy2PPpofI0vvC8udi27e3ro7u6mUqlgWda09iquLh9qEbYsi96+vvjHls1mWd/fz9DQENmuLtYWCtx3zz3xtk2bN7Nv3z4KhQLpdDoWjmw2y5atWy+pzlWZDPfdey+2bdPb10dh3boZIvzgAw+wZevWWLwjSqOjPDg4CMCWRx8ln88zNDQU/LhPnoxFYWDjRrp7emb8aIp797K2UGDDwEAgLvk8g7t2xX3xbkR+2q/eey/lcplsNsvAxo0M7dkzq4BGgha1t7unJzgfIchkMpRKJbLZLOVy+aotU5/L57kxm42vWyaTCVwwwMjwML29vbG1m81mkeF52bYdC9GF9N99N4O7dk07l9ko7t1LoVCIRTibzbJ92zYsy2Jg48a430zT5Ds7dmDbdlyfbdvxfTEQ+uvnEuGhPXveMQLK5biuRx5+mMK6dfF+GzZupLh3L4PhPbO+v5+BjRt58IEHyOXz0+7vyFVVGh2lVCrR3d3N9m3bKJVKsZjvKxbj+hRXjw+1O6JWq2HbNt09PbEofPW++wDI5XJUKxWs664LXmuFwEylSKfT5PJ5RoaHY+G5HAHZVyxOO+5yXsOn/iir1Wps1ebyeY6Wy2S7ush2dVGr1Wb4wiHws9q2TSo8LmWa8d+Xgm3bVCsVbu/uJtvVRalUii3a2RgeHo7/HhkZiV+ho4cBwNp16xjas+eS2/BuZCNlyMoAACAASURBVLNZjk4R9amiUalUsOt1MpkM2a6uwPKvVOLX9cjCnUomkyFtWbEAw9zXe2jPntiFlO3qQkL8oCmNjsZl27bN0NDQNBdBuVyO+zGyPueiVqsxMjwcX+NCoUDNtqe13TRNstnstAf8j0LjItpWGh2Nz6VSqUwrs1KpBIPKYT99+a67lABfIz7UlrBt23z13nvp7euLR8MHd+9mX7FIKpUKLOXe3nj/0ugoqVQKM5XC/h26IU3TZO26deRqtfi70ujojP1u7+6eZjHvKxb53s6dFItFalOOvRgPPvAAt3d3s76/H9M02VcszumOmIpt2/FDY2R4mE2bN/O3g4OBtfitb11S3ZdCKpW6qFgMHzhALp8nlUpRDK9zLp+nWq3O2mfmZT6kyuUyuXyerq4uRsKH0IW+4mjf2b6/VIp797Jp82aG9uyZ9UEWPVwrlUr8XfS3GT58p26LiIyCx7ZvJ5fL0dvbSyas51Kus+Ly+UCLcK1WmzEgEd1kkT8ybVls37YNIHYrjAwPx1bRIw8/PKPcaqXyOzVyXq1WGdy9O/7Rz8WFP7zo70wmw9FyGSscILKn+IlHpwiTZVmsymRiN0fkzy3u3fuubwPpdBo7FPpSqYRdr3N7d/c0a+xqMNs1n8rI8HDsW9+9axe2bfP9nTsplUoUQzfCVKpThOtSfNaRxZ/NZnng/vuDMqrVGYKbzWbjsq+EUqlEuVyOXWP7Lmh79JYXveEBcb/Ytj1rP6Uti9LoaGzJDw0NMTQ0FLsqRoaHlTV8DfhAuyP2FYtku7ro7u6OIw42DAxQ3Ls3sETSaTZt2hSPomdWrw5eWW2bfcUiuXye7u5uALJdXbHfN/L95fJ50pbF7eE+VxO7ViOdTl+S2A/98Ies7++PX4W7e3ro7eubsV9pdJS1hUK8X29fH5VKhVKpRKVSoVwux8dlu7riV9aIWq3Gps2b41fWSFjmEqfevr741b9QKEwTueLevXT39MwqfFPJrF4du1myXV2k0+nAH93VFbsK1q5dG+8fvVKvLRRIhz7/qZTL5fg6V6vVadbrbJZwpVKhNDo67VwuFnNc3LuX/C23ULPt+OEyfOAAIuyPSOCy2ew0d82VMDIywvq775613bZtU9y7l/X9/fF9NPXej1wT0f0d3RfFvXuBwH8cbYuiNy71bUlxeej33XffQ1dy4KFSiTdPnLja7ZmT4ydOcJ1lkUgkLvmYsbExSqOj/Oltt9HT08Mf//Ef88I//RODg4M4jkO1WuXs2Bi9fX3ccccdLFmyhMe2b2dsbIyxsTHK5TLdPT3ccccdZDIZBnfvplqtUq1WcZpNunt6uO222/j5Sy+RTCbZVyziOM60NmRWr+bEG28EP/5MhmoodhDc3Mlkkp///+3df1RU54E38O+g6VlzL6ZJ33KRmDc4WJN9tzO4a7YHyL6VHgZy1q2CPdV9wzRbzb5CbWwSxfjjbYwkuqs0ijbHbQJsg4mA2827CtE3OSt4it03QtKDlZn+wobRbBJl5m1jlLmaE2x4/5i513vv3BkQYZ4Bv59zPMLM/fHcy8x3nnme5z63pyem7J8ODeGrCxfC7XbjZz/7GVwuF0719ODixYuR7Rq21dfXB1mS8M3ly1FWVoY777wTLc3NMeEYCARMy0mSpB8vAJzq6cFfL1oEr9cLl8uFf9q3D319ffr6Q0NDelBr56Shrg5nz56NKb/L5cLZs2fxzeXLsfCrX0VbayvefPNN/flQKBTpPKyrsw1xWZbhdDpx//336zVLl8uFK6qKn504gXvuuQfLli2DJ9qBdfHiRXR3dyMUCiEQCGDZ8uVYtGgRAv39UFVVP3dDQ0O486678LMTJ/DBBx8AAByItoka2k9dLpf+9/yl34+/XrQIixYtgtPphKqqUFU1pkNVO0f3zJ6NN994Q9/+0NAQuru7UVpaimXLl0c6VA3nw/gaAa53ktq9Lozl+uD993H//fejob5eP4daO/DFixdxqqcHs++5B8uif2/ja19VVfT99rf45vLlWLZsGRRFwQ9qavDBBx9gaGgIp3p6UFpWBq/Xi/z8fLQ0N+PUqVMx5ZkMgsEgZs6cidtnzEjK/r7yla/grrvuGvXyjr6+vuGx7OhgSwt+/s47Y1l1TLrefhu5bnfSTiRNLI/HgyKPxzTMKlVlZGSYmkzsRq5Q6ur1+TB79mx84QaC8WY8tmYNcubOHfXyU7pNmFKPJEnwFBejtLQUzZMkxCoqKwFE2mG1ixe0r+1EN4shTEk3Z84c1NfV2X6dT0Xbt21DXn6+Pi63Pk4TCtFYMIQpqVRVjbnSbDLo7uoacfQJ0VhM6dERRESpjiFMRCQQQ5iISCCGMBGRQAxhIiKBGMJERAIxhImIBGIIExEJxBAmIhKIIUxEJBBDmIhIIIYwEZFADGEiIoEYwkREAjGEiYgEYggTEQnEECYiEmhKh7AkSchQlJh/o7mN/FhotxcHIrc3T3Rr9MlCkiQ8uW6dfs6cTmfCZbXjp9Eznl+69UzpEM4vKMDLjY3YuXOn6Z/L7Z6w/Wm3K3e53ciI/jxW2k0xRb5BZVmGx+PRy/DCvn3Iy88HEAlk47msqKzUb4p5q9PuSTcaxvNLt54pf4+5YDCIv1+5UnQxxkSWZTy5di18vb0pc2PJv122TC9LXn4+XC4XNvt8AIA9tbUMk6jSsjL4fT4EAgHRRaEUN+VDOJ68vDzkFRRgb20tgMibZo7Tqf9e7vXCU1yMcDiMttZWHO/oABCpnZaWlcFTXIxgMIi2w4dHddfg0rIy5OXnQ5IkdHd1oSV6u/dVFRUIBYNwud1w5uTA19uLhvp6OJ1OrIrWKtdWVaGttTXmRpOSJKHc60V+QUFMWRRFwZLSUtvnVlVUQFVVZCgK3G63vk8tXEvLylDk8QBAzD6ffuYZNNTVocjjQV5+PmRJwo6aGmzeuBFFHg8URdGPzeV2o9zrhSRJCPT3o6W5GaFQCACwo6YGba2tKC0rizkn8VjX8ft8aKivN51jY7njbc/pdKLc64UzJwfBYBB7du/Wy2V8LtDfj/q6OoRCIbhcruvfAHJysHnjRv34FEUxLbujpgZOpxMZGRmQJAkN9fUxr5uO9nb9NaWdK+1bj7Xs2nGpqmpaT1EUrKqo0I+jpakJfr/f9pi117N130UeD5xOJyRJgpKZic0bNyb8G9D4m9LNERprmzAA+P1+uF0uPTjKvV4cb28HEAmpvLw8bH/uOeytrYXX69Xf3BWVlXA6ndi0YQPaWluxtqpqxK+dHo8HS0pL0dLUhL21tfB4PCgtLQUQeUMvKStDW2srtj/3HJw5OSgtK0MgEEBDXR0ARN5c0dqm0dqqKsiShE0bNuB4ezvWVlXp7dA7du4Ehodtn3Pm5KDI48Hx9nZ9n+VeL4BIGKyqqEBDXR321tbGHJvL5YIkSWhpbkZ3VxcCgQD27N4NIBIKWpuwoijYsXMn2g4fxt7aWoSCQeyoqdFryi6XC6XRc9JQV4fSsrIR29BdLhfKy8v1dTzFxfo65V4vlpSW6uXOy8/Hk2vX2m7n6S1bEOjvx6YNG+Dv7cWOmhq9zMbnAv39epmVzEyUlpVBDYfRUFenH19LUxM2bdiAYDCItevWAQD27N6NYDCI7q4utLW2Aoi8blwuFzZt2ICWpiZ4LX0GHo8HLU1NaGluNp2Lcq8XRUVF2Ftbi5amJn07APD9LVsQHBjApg0b0H3yJJ7essX2m4jx9dxQVwev16u//hRFQWlZGULBoP56o+Sa8jVhRVGwc+dO/fdgMIjNmzZBVVXsqa3F01u2wO/3o+PYMb0W4SkuxvbnntO/StZH33SKoqDI48GjK1YgFAohFAqhu6sLLpcr4dfOJWVlaGlu1rff0tKCoqIitLW1AQCOd3Toz3V3dcHpdEJVVb12FgwGY5ojnE4n8vLy9LJ0GGrqefn5GAbQ0NAAAOjo6MAcpzPyFTm6H+s+tTe2x+NBR3u7/lxDfb1eAzRSVVUvk1ZOo3KvFx3t7XrtOxAIwFNSgrz8fL0W1lBfr5+3YDAY+YCMU5PTNNTX62ULBAJwud3w+/3weDxoNpzjvbW1eGHfPlMNXzs/GYoCv9+PUCiEtrY2fZ28/PxIjbKlRf87GTty/T6f/pwkSXh8zRq9/K+3teHHjY36+dDOTygUgiRJKPJ48PiaNfrrpqW52XS88c5FaVmZ6bXY0d6OIo8Hfr8fiqKg+8oV/TjsXoNaDdxYVu11r73+jMdFyTflQzhRm7Df70d3dzfy8vKwJ9oMoUTfdMFgUF9OCxKtE2rnD36gPydJEoaHhxOWwel0oqKyEt5vfUt/LNE6o2lXlWQZwWDQFIBaEJd7vQgZyg8AZ8+etQ1TqwxFQffJkyMuN5bt+H0+veMSAMLhsP7zzbZ5ZyiK6duCFjhOp9P0FV1VVTTU1WHtunUIq6reTKItG7Sct7179tjuT1VVuNxuPP3MM8AIf39Zlk1lAq7/rTR250J7La6tqtKf05p2gEiYVlRURELZ50NLc3Psh3VOTsy+Q6EQJFnmSJYUMeVDOBFFUeByuSJvKJcL3d3dpjeDlRoOQw2HsWnDBvPjIwSIqqqof+mluO11Y6GGw5DjhLWqqpCib3yNJEkxwRxvu9Z1x1o+q4xo2+lEUFUVsizb1sqt2tra0NbWBqfTiSKPBztqavD4mjUIh8Oj7ljMy8/HktJSfO+xx6CqKhRF0WvC8UiSNKYPG615w6q7q0v/5uRyufDy/v2mjlMA+t/cuG/tGEdzrmji3RJtwvGUe73w+XzYU1uLtdGxmqqqwu/zwVNcrC+3dt06PLl2beSN4HDA5XLpXytdbveIb9xAfz9cbre+jsPhMNUIx8JYFs0L+/ahKNqcoHUMaUpLS2M62WzLGgiYtjlnlMOsrPx+P4oMQ6+0D7yuUZRB6yi6EYH+fr3dHoh0ZgWDwZgPPpfLhZ/8679GapSBAF5va9NrnN1dXciPdp5qZT76xhu2NUZFUUxNMom+ZQSDQYSCQXgM5Vu7bh1WVVQkPKZgMAi/z4e8/Hz9taPVqo1lCwQCaGtrg6qqMW34dvvWas6UGqZ8TVhRFLy8f7/psbbWVqjhML7scmHzxo0IhULw+/1Yu24dtm/bhob6ejy9ZYve/JCRkYHNGzfq7cgVFRXILyjQv9JtHuEFvXfPHuzYuRM/bmzUOwSbm5pGLLv2Bnr6mWf0jjCN9rV6R00Nuru6IMky1HBYb29taWrCjpoanA0EMCf6NVtrA0ykrbUVefn5+HFjY6SmlOCrtt/nQ7nXq4+OsG4nIyMDL+zbB7/fj/z8fLQ0NY2q9vX0M89gz+7dN/TNQTvH2tdvp9Np29Pv9/vR0dGBF/btw9lom3Lb4cN6yFmfi1fmjvZ2lJaW4seNjTFtztoHufYh1FBfj+3btumvKUmWId1+O7Zv2zbicWmvRWdODtRwGE6nE9u3bUMgEDD9jSVZRqC/3/acafvOKygAcP31TKnB0dfXl7hBK46DLS34+TvvjHd54up6+23kut24fcaMUa8jSZJtjcr4pjH+nJGRob/hJEnSaxXWF7Y2CkBVVVOnmfaYqqr6fo3b12qYgUAg5quh8XdJkvRyKIqCOU4n/D6f7VdZY1msHTPauqFg0PTcSPs0ltXv95vOi/EYteUkWY58EIzymK3n2lqmn7z2GjZv3BhzPNZ9x9ufJMtxz5fG6XQiQ1Fizo3xuUB/v+n1YD1H2v60c293box/l3h/q0TnYqTjivc3ttJez9bXbLzjmkp6fT7Mnj0bX7jrrqTs77E1a5Azd+6ol5/SIUyTj8vlQl5enj6yg+hmpXoIT/nmCJpc/H7/uHZgEqW6W7pjjohINIYwEZFADOFbFCfaIUoNt1QIu9zumOFqo7WqshKlZWXjWp7SsrKkX7VU5PHgJ6+9hp+89tqIQVxaVjbiWNaRaPNyJCP0b+bvSyTKLRXCAMYcenKc4W43Iy8v76Yv2rhRXq8XLU1N+PqiRTFDuFwuF57eskX/Pd4QvxsRjo5tTRZeikuTzS0RwonupqFN6BLv+dFOzD6a7Vif27xpU8xIAG07o91GPPGWzVCUuONJlczMuFfIxdteovICkbGu27dtiwn8m73DyUj7te6LKFVN6SFqkiTh6WeeuX7RheXKtnKvFx6PB+Ho5Z4NdXVoi17G+uPGRnR3dSEvPz/m6iKn06lfJRYIBFDk8aCishLBYNC0HZfbjSfXrkUoFIKSkYEMRUFba6s+B+7L+/frV4a9vH8/Av39kUt2ZRnhcFi/mk9RFDy5bp1+HN1dXfiyy2U7MZHT6dRrs5Iso+vkSTTU10OW5cj0lohcMtvV1WWai3dVZaV+h4eXGxuxKXrMSmYmXti3D3I09LRjAyLNFdqUiMMAGurqYuZW1s6lNtubNgWkVr621la0NDdjVUUFJEnSJ8zZUVODQH+/XsYdNTX6PLjG8y1JElqamnD8+HHb/fr9frhcLuytrcWT69aZ5lZ4ubERzc3Npnl9iZJtSteEKyorkZGRgUdXrMDfLltmmgRFmwpy08aNeHzNGmzeuFGfU1cT6O/H1xctMtVWtQCuf+klBAIBKIqCispKbI5u5+9XrsSqykrT/AMtTU14dOVKPL5mzYjtwI+uXIm/XbYMoWBQb4Mu93pNx5FokqGnt2xBW2srHl25Eo+uWKHPTxwMBvFoNLT31NaaAhiIBGhDfb2+nPEKue3PPYdHV65ES3MzlkTLpE0ovmnjRjy6ciX2RuffGMmOnTv18mnnw+VyRabTjF4mLkmSaRJ17XdtFra169bhe489hsfXrMHe2lpUGM63VffJk/j6okXo6OiA3+fTz6l2Vdxo5tMgmkhTOoTnOJ14vbVVr/kYa2mBQACPf+97kGU5cj+wnJyY2cOs0w1qk34ba14ulytSI5Nl/b5yqqqaJnQxzn8LXJ/a0Mo4uY02D612HMZpCuPdyUObTEirqaqqitfb2kwT29wov8+nB7Lxw2hJaWkkFDMzI+HpcECS5YTtv1r5AmfP6udKm9zI7/dDjs7F4XK70dHeHrnjiMsVuctFIIBQKIS8/PzIh59hv3A44u7XOF9Gd3e3fhm1NtFRqtw2im5dU7o5QpZlBBNcE7+jpgYYHh71fcC0W8wY2xgzopO9l5eX648F+vsjUwg6HLbbudG2UFmWRzUNpaIoCFtCJRgMTkjnnyzLkTtyGI57NDNzSbJsWge4Pt2i3+dDfvQDsUubojEa3Nq2JUmyPd9203dadbS363fEdrndI95OiSgZpnQIBwcGoMT56p+Xn4+MjAy9XVW7zUsiHe3tONjSghf27UN3V5d+dwbtbh1W43VXZ22EwUiX8wb6+/VRHPrE4NGpDsdbOBxGoL/f9rjj0eZjtuuoA6BPsO9yu1FfVwc1HI40ETkcaInOOqdGJ2Ify/nWZjcr93qhZGSwKYJSwpRujvD7/VgSbYOVJMk0pyoQGXamPbck2sGUiBa4LU1NeHrLFmRkZKDr5El9LCwQ7QyMc6+vseru6kp4HJpAIIBgKKSXRSuXdp+z8XS8owMut9t0rzLtXm3xaDOpGc9VuderNyV0nTyJvPx8faYwv98PJTMTGRkZ+gdQR3t7pJ3bsN8bOd/Hjx9HfkHBqOY1JkqGKR3C2hy8L+/fj5f370c4HNa/+nZ3daGjo0N/To0+pwWC9et/2DBFYVtbG9paW1Hu9UJVVWzeuBF5+fk4+sYbeHn/fj1EVMP+NMbfgwMDpp+NtUPj/qzHkShw/mHbNjidThx94w28sG+f6U7Rdsdl1HXyJByAPlm4cVpGAKbjCQQC2L5tG4qKi3H0jTewY+fOUd0WafOmTXr5Xt6/39QcpKoquru6TAHZdviwabva+db2+8K+fXHPt92xdkW3xRERlCo4leUkYWxi8Hg8WBK9eWOqsw5RE01RFPzjzp1x7ztIUw+nsqSblpefj1UVFXhdG59bWormSdCppN3DzXpDUlE8xcVYsmQJjre3iy4KkY4hPAl0d3VBDYf1YW97amsnxZy7Whv23uidrEX78pe/jO6uLt7enVIKQ3iSmIyTnXd3d8cd0yxCvNvXE4k0pTvmiIhSHUOYiEgghjARkUAMYSIigRjCREQCMYSJiARiCBMRCcQQJiISiCFMRCQQQ5iISCCGMBGRQAxhIiKBGMJERAIxhImIBGIIExEJxBAmIhKIIUxEJBBDmIhIIIYwEZFADGEiIoEYwkREAjGEiYgEYggTEQnEECYiEoghTEQkEEOYiEgghjARkUAMYSIigRjCREQCMYSJiARiCBMRCcQQJiISiCFMRCQQQ5iISCCGMBGRQAxhIiKBGMJERAIxhImIBGIIExEJxBAmIhKIIUxEJBBDmIhIIIYwEZFADGEiIoEYwkREAjGEiYgEYggTEQnEECYiEoghTEQkEEOYiEgghjARkUAMYSIigRjCREQCMYSJiARiCBMRCcQQJiISiCFMRCQQQ5iISCCGMBGRQAxhIiKBGMJERAIxhImIBGIIExEJxBAmIhKIIUxEJBBDmIhIIIYwEZFADGEiIoEYwkREAjGEiYgEYggTEQnEECYiEoghTEQkEEOYiEgghjARkUAMYSIigRjCREQCMYSJiARiCBMRCcQQJiISiCFMRCQQQ5iISCCGMBGRQAxhIiKBGMJERAIxhImIBGIIExEJxBAmIhKIIUxEJBBDmIhIIIYwEZFADGEiIoEYwkREAjGEiYgEYggTEQnEECYiEoghTEQkEEOYiEgghjARkUAMYSIigRjCREQCMYSJiARiCBMRCcQQJiISiCFMRCQQQ5iISCCGMBGRQAxhIiKBGMJERAIxhImIBGIIExEJxBAmIhKIIUxEJBBDmIhIIIYwEZFADGEiIoEYwkREAjGEiYgEYggTEQnEECYiEoghTEQkEEOYiEgghjARkUAMYSIigRjCREQCMYSJiARiCBMRCcQQJiISiCFMRCQQQ5iISCCGMBGRQAxhIiKBGMJERAIxhImIBGIIExEJxBAmIhKIIUxEJBBDmIhIIIYwEZFADGEiIoEYwkREAjGEiYgEYggTEQnEECYiEoghTEQkEEOYiEgghjARkUAMYSIigRjCREQCTRddgBvR6/OJLgIRTTKXL1/G7NmzRRcjrkkTwn+5YAE+HRoSXQwimoQ+d9ttoosQ16QJ4enTp2P69ElTXCKiUWGbMBGRQAxhIiKBGMJERAIxhImIBGIIExEJxBAmIhKIIUxEJBBDmIhIIIYwEZFADGEiIoEYwkREAjGEiYgEYggTEQnEECYiEoghTEQkEEOYiEgghjARkUAMYSIigRjCREQCpcxN265cuSK6CER0C7vtc5/DbQLuYyk0hC9dvoxf/+Y3uHz5Mq5duyayKEREmDlzJrLvvRf3zJ6dtH0KC+GBYBC9Ph+uXbuG9PR0zExPF1UUIiJcvXoVH128CJ/fj48++gi5bndS9iskhK9cvYpf/+Y3AIC/XLAAd955p4hiEBGZXP3kE5zu7cUHH36ImTNnYk529oTvU0jH3MDAAK5evYr777uPAUxEKWPGn/wJHliwANOnT8fv3n03KfsUEsLBUAgAkPHFL4rYPRFRXLdNn46ML34RQ0NDuHL16oTvT+gQtekCeiKJiFIJxwkTEQnEECYiEoghTEQkEEOYiEgghjARkUAMYSIigRjCREQCMYSJiARiCBMRCcQQJiISiCFMRCQQQ5iISCDOoEPjRpJlyJKEsKpCDYdjHgcQ8xwAKIqi/2z3vN0+NMFgcNRlMe7HKhgMxqyjLW/ch91jkixDURTIkgSfzxd3H0R2GMI0blavXo3ikhL09vZiw/r1+uNLly7FI3/3d/rvwWAQL/7oR+g6eRIAsP6pp+DOzdWf7+3txe5duxAcGIjZx3dWr0ZJSYnpsfZjx/Diiy+awnv9U0+hoKAAhw8dwksvvmi7H6OHiov1cu56/nm0HzumL3/g1VfRdOAAAODVpiYEBwbwd488AgAoLinB6u9+F1L0g8F6bEQjYXMEjRst4HJzcyHJcszzJ996KxKIw8OofvZZuC23j9HCLjc3F8/v2mW7DeOyu55/HoH+fhSXlKC4uFh/TsnMREFBAYBISGrbOXDgAHY9/zyO/fu/A4iE/a7nn8eu559PeFxLv/EN27IomZlY/d3vAsPD+nZkScL6p55KuD0iI4YwjYuCBx+Eoig4+dZbACK1X6v+/v5IzfSllwBEAtLI19uLA6++isOHDkFRFFOwWvl6e9F+7BgOHToEAMjMzNSf08K99/RpyLKMHKfTtI7WZBAcGED7sWNoP3Ys4bHJsozVq1fHPO52uyFJEt566y19O7t27cLhQ4cSfoAQGTGEaVxoNc+mAweghsNxv/YDQH/0tjG5cZbp7+8HAOTk5MTf34MPorikBEu/8Q3TOgDwjehjWth/y9AUMhbtx46huKQkpuautQ/39/dDluVIrVuS4rZTE9lhmzDdNCUzE8UlJQiHwwiHwwgGg8jNzYXb7bbtqNJqieEEHXAj0cIXAA4fOqTXZpXMTDhzctD/7rtQw2EE+vv15pFEHX6JHD50CAUFBQnDXLI0QzxVVcVOOhoV1oTppmk1RFmW8WpTE5zRGmzBgw/aLq/VcI21VyOthpwoxJ7duhWHo00RsuGr/yPRDrOcuXNNZUnUtDGScDiMA9G2aiNVVQEAc+fORTAYxEPFxfD19o55P3RrYk2Ybpo2WuHAq6/qX8XXP/UUiktK9JEJQCRcZVlGyUMPQQ2H9REHGq15oeDBB/X22njC0fVLSkpQXFKCAwcOIDgwoDeDaJ1tmZmZ+NYjj6DgwQfRevjwmI9Rqw0bm1najx3D0qVL9bbtgYEBKIa2aaLRYE2YboqSmQl3bi6CAwNoOnBA76Dy9fZClmVTO6o7NxclJSV49913sfo734lpOy156CHkzJ2LQ//2iIZ57AAAETJJREFUb1j9ne+MuO9wOIzD0WCtWr8e7txcKIqC3mgHXPuxYzjw6qtQw2G9eeRmHLB8aITDYTy1fj18vb0oLinRh+G9+KMfsSmCRs3R19c3PJYVD7a04OfvvDOmnXa9/TY++ugjlHg8Y1qfiGgi/fJXv8L5CxfwtcJC3D5jxg2t+9iaNciZO3fUy7MmTEQkEEOYiEgghjARkUAMYSIigRjCREQCMYSJiARiCBMRCcQQJiISiCFMRCQQQ5iISCCGMBGRQAxhIiKBhITwbdMjM2heu3ZNxO6JiBJKZjYJCeEZ0VmJLg8Oitg9EVFClwcHcfuMGTc8g9pYCAlh55w5ACLTxV29elVEEYiIbP32zBl88sknmD17dlL2J+TOGjNmzMB/+9M/xa9/8xv8x1tvIWvWLL12TEQkwrVr1xAMhfDJJ5/gjpkzMSc7Oyn7FXZ7oznZ2bjtttvwu9/9DucvXBBVDCIi3W3Tp2Pel76EOdnZmD49OfEo9B5zs+++G7PvvhuXLl9mJx0RCTV9+nRIt9+etPDV95vUvcVxx8yZootARCQExwkTEQnEECYiEoghTEQkEEOYiEgghjARkUAMYSIigRjCREQCMYSJiARiCBMRCcQQJiISiCFMRCQQQ5iISCCGMBGRQAxhIiKBGMJERAIxhImIBGIIExEJxBAmIhKIIUxEJBBDmIhIIIYwEZFADGEiIoEYwkREAjGEiYgEcvT19Q2PZcUPP/wQajg83uUhIprUMhQFn//850e9/PSx7mjBggWYOXPmWFcnIpqS3n//fVy9enXUy7M5gohIIIYwEZFADGEiIoEYwkREAjGEiYgEYggTEQk05iFqROPiP68A//F7wH8ZeO8qcOmPwDAQqR84IssMa3UF7X8HMGx4bjj6mLbOsOF5OK7/07Y77DA/nj0duPc2oFACCm+f0MMlsmIIU/Jd+hRoOQv8n/PAW7+HORjTDCGq/W8IVziioWyzjB7elqC1Pm9d70T09+ccwOenAaXpwLc/z0CmpGAIU3LV/Rqo8QGXr0VCMC0ajg5DsDriBK1DC9NojVhbxhrMpmW1n41h7Ijdtvb4pT8Cr34EvPIRsFAGGrOA7M8l+yzRLYQhTMnx/iCw4hjgvwggDUiLE4IOhyU47cI4LcF68WrJxmAGTDVuY2Ab9/Gzj4Gcy8BWBXhGSf45o1sCQ5gm3skPgJVvApeHIuEbU7M1PGYMUrtmBWPzBBzAZ3bBm2ap/Y4Qxto68Zo3tn0I+FTgn++NNFcQjSOGME2s134JrD1maHqwCcd4tVdrIDrSzEELx/VQt63ZGtaxqykbt+dwmIPa2szx+u8Bz1Wg434GMY0rhjBNnF8NAFVHok0P0XBLswk72w43m+YJrYZrV4tO1Iln2j5gCux4HwxaWYyB7r8GLP8tcOzPknkWaYpjCNPE+OBjoPJfgLSh2M42R4Jaqt5JZx1uZtNMYFtTNoSndb/xwtlYjrjt0NHH/+MPwL4PgTV3J/d80pTFEKaJ8cMO4PzvI+GlhZsx4D6L1wRgGaLmsHsOiAnpNMt68WradiMlYj4IbJYx/r6hD/jqTMCdnswzSlMUQ5jG3wcfAYffvj78zNqRhjRgmuWrvymo44SfMSztQtURJ8CNTQrGJg3bfcDc1GFXtuE0YONvgTf/MoknlaYqhnCKGRwcxJkzZwAAWVlZmDVrluASjcG+NyPNEHZNCNPs2m4tw8Zs231tarYjtisbQhOw75Sz67BLFNRak8lboUjTxH//QpJO6s0zvrbS09Mxb948wSWaeJ2dndi/fz/OnTuHOXPmYOvWrcjOzhZdLJNJEcIXLlyYnGF0A86fP49nn30WQCR8AaCvrw/p6emorq6ePMf/4R+Atv8bHbVgCTa7mq4pBHG9puwwrG8dnmY3eiFeQFsD3240hrGN2K5mbfowAIBpwGcADr43KUK4p6cH9fX1GBwcxH333QcgEsjnz59HYWEhKioqBJdwYlRXV6OtrQ179uxBdnY2Ojs7sXTpUjQ2NmL+/Pmii6dL+RCurq7GqVOnsGvXrin7yX3+/HmsX78eVVVVWLBggem5zs5OVFVVobq6enIc//FTgGPIHFymWiUQe7EFri87TQvE6GNagDosQWvsgLv7TmD33wDL/8XcuRbTdIHYDwNrR562P238se18E3+MlPON/wQuuYA7bkvW2b1h9fX1+mvI+to6f/48jh49iiVLlqCurm7yfNCPwrlz5/DKK6/gF7/4hX6/txUrVqCwsBBLly7FL37xC8ElvC5t5EXEqa6uRlZWFl566SVUV1frX6WmmsrKSuzevTvmTQIAhYWFqK6uRnV1NQYHBwWU7gb99OeRpoi0IcDxKZD2aeTnaUPXf04bigS1vozh/7ToctOM63xqWM6wjLb8tKFo5de6zJB5m2nXYvevb+eauRzTtJ+vmR/T1nEMAYNXgF9eFH3G4zpy5Ag6OztRV1dn+9rKyspCRUUFVq1ahaqqKgElnDinT5/Gt7/97ZgbbmZnZyM3NxenT58WVLJYKRvCWgBXVFQgKysLu3btmpJBfOTIETzwwAMJayHz5s3DggUL0NPTk8SSjdGZfkvwRsPMYQy8Tw0hN2QJuCFzKMYEaTRAjcs7rgH4zLLMp+bAtH3O+LjxA8LywTHtWux62v5/+XvRZ9yWVsvdvXs30tMTj+JYvHgxFixYgPr6+iSVbuJ9/PHHCZ9L9HyypWQIGwNYM1WD+MyZM/j6178+4nILFizAiRMnklCim3A+BKgf29Q249REp1nC0RqY1tqvFuTTDD9rAY9hc7BOs4apTQ3a+E+rtVtru45PDc9di13+V/9P9Fm31dPTc0MduxUVFejs7JzgUiXP/Pnzbd8v586dw6VLl1KqTTjlQtgugDVTMYhH28QwUm0mJZwP2gTep7Fh67CG4bXrQTvNUlu21lJNTRjGxz4zhPin5lqrFpjGUDY1j9jUuvXAtwle43IfXBJ91m2dOHFiVB/uGu31NSmavEZh/vz5KCwsxMqVK3Hu3DkAkQBeunQpCgsLY5opREqpjjmtE666ujruMllZWXj44YdRWVmJurq6ydFZlUB6ejouXLgw4nKDg4OQZTkJJboJjuFozdFmmFfMsDNE/7cZsWC3ntZh9sD9wGOLtR1G/ku/Hbj7LqB5dXQb0acvfwJ8txHmS6at80VE6yH6KAu7Drw0w3bTzGOHHdcm9pyO0eDgoD7KZrSysrJw4cKFyfGBPwpbt27F3r178ed//ue44447cOnSJTQ2NqKsrEx00UxSJoQ7OzuRlZWFU6dO6Y+dOXMGfX19+u+LFy/Wf164cCEOHjyIrVu3JrWc462wsBD19fUj1lqOHj2Khx9+OEmlGqtou2zcS4vthn/B8lycOSO0bfT1A9//58jutHXu/i/AY0uAza/E7lsLyTRL+CYck2xT3nhjktNSM4THEqSDg4NTJoABYO/evfjhD3+IsrIy3Hvvvejt7cXatWsBIKWCOGVCuLCwEIWFhTh69Kj+WGdnJ86cOYN58+bh4MGDphCO12Qx2Wi91vX19XGP5+DBg0hPT7ft4U4pWZkwX6ThQNxLhROOF44zvhcO4MoQoA6a9zHtMwCfAReCuD6MzFD7tRsaZ7zwwjp1pmk4mrH8Ntv5fMq8hUzmzZuHzs7OG/rgHhwcnDLD1Kqrq9Hb22saogZEmiS+9rWvAUidIE65NmErbTB5yn8Vvwm7du1CZ2cnnn32WVPTxODgIHbv3o2Wlhb09fWlfnvdrEybdlXLz3r7rLV919AWbGxPtnauWUdZpA0BGIo0hRiXsQ55M/6vt/PajZIwLmddxtJGnDYE3COJPuu2bnQ0zZEjR/QLOSY7bYxwY2Oj7RC1n/70p3qNOBWk5sf4LSY9PR0tLS04cuQIqqqq9LDNysrCggULcOTIEdTX1+vt4Cn9lfG+OcDvfhdbo4x3xZy11hnvqrZ4jyEtGsRae7RNswdg2HZ0G2kO+/JYL1e2tk8jLXK1nNZMkv9fk3Neb1BnZ+eo+0u04WyJ+mImk9bWVjzxxBNxO9+ys7OxcOFCdHZ2orCwMMmli8UQTiGLFy82NbkYaU0VKR/EfzEfePdX5jC0Xl5sO1+D1l5raR+OuUOGIcy17aRpNeFrkeYC27kpbAJWD35YHnMYAlvruDOsN83w859mJue83oDz58/jxIkTeP3110dctqenB7t3755cl8aP4Ny5cyM2NWRnZ+ujJkRz9PX1DY+8WKzMzEzMnDlzvMsTN4SsysvLJ0FH1fjTLkNN2SA+/Q7wxApcD0zEGWkQ5/dRPWap7aanA3/xZaDz5+Zwtc45AcTWwq0153gBbhfYX/kS0PTYBJ/QG7d48WI88MADACJNWn19fXA4HHj44Yf12rFW+wWAqqqqST/KyGjFihV47733cO+998Zdpre3F0888QRWrFgx7vt///33cfXq1VEvn3IhTCPr6elJ7U66VUuAd39rCDHgerDFmU/C7l5ziWqwwzY1V7uOvIQjHuxC11LbHrb5XdvOjkeApXlJOaWjdebMGXR2dmLWrFlIT0/Hfffdh1mzZuH8+fPo6enRRx/JsozCwsLUfh2N0enTp0d1Rdz8+fMnZLwwQ5jE+/f/DfzgqcS123jDvqxBCxhCcBS11nj7iBfYdqFvVw7jnUCGHUDWF4GOHRN/LmnSudEQZpswjb+HvgkcagD6f3U9QG3vERcnnG2nkDSsZzeUzS7Mje3JMcFrvWjDpibtMH4IWIanfe9vknY6aWpjCNPE+O5W4Kmlsc0KMZ1lNmNvE13kMarxxYbaK9JgmpIyXu3XOO1lTKeipUb9wJ8BpX+VvHNJUxpDmCZGbgGw+jmg7vvm5oBEQ81MYWxTk427niF4HYh9zK65wwEk7OwzBrGxZp6lANu/k8wzSVMcQ5gmztJK4MpF4MAO+wCNd/siU3gidgSD9nta2vUbhprGGSN+c4Wxs81aM4cjsr00mw6+YQcgpwMNz0bag4nGCUOYJpZ3E4A/As3/CNuRB3bDz0y1X0tQa8FsuhOHtQlDa46I1wRiF9jRmniaod3aWAvOmgXs2gpkZSTx5NGtgCFME8/7fcDxGdCyPU4bsU2AOixha5p0xzJaId6EPHE72+wC3ljzTTOv/6UvAT/4B2CWkvxzR1MeQ5iSo3wLUPQI8L+KgOB7MM1qNqrhanECU78haJrlMZvtxBvG5rD7UAAg3wEs+x/A//z7pJ4qurUwhCl5lGzgx/3A8f3A8VeBX3bGtt/GdIoZ22+1UQ6W2rOx9mptZog34sE6fti4vZl3AN/0AsvLI+3ARBOIIUzJV7Qi8i94Dni7DXi7FRg4B4Teix3dEG9Mr92QNFMzg01bc0zHHyLbke8AlNnA/Dzgr4qAufczfClpeMUcpZbQOUSTeHSGjcvGWy/B9qSZgMzXMY0fXjFHk1tGtugSECVVmugCEBHdyhjCREQCMYSJiARiCBMRCcQQJiISiCFMRCQQQ5iISCCGMBGRQAxhIiKBGMJERAIxhImIBGIIExEJxBAmIhKIIUxEJBBDmIhIIIYwEZFAnNR9Cvv444+xd+9enDt3TnRRaBwUFhZixYoVootB44whPIU9+eSTeOWVV0QXg8aJ9rdkEE8tbI6YwhjAU8+JEydEF4HGGUN4CissLBRdBBpnCxcuFF0EGmdsjpjCGhsbUV1djffee090UWgcsE14auIt74mIxtGN3vKezRFERAIxhImIBGIIExEJxBAmIhKIIUxEJNCYh6gNDQ3hypUr41kWIqJJ77PPPruh5cccwn/4wx/GuioREUWxOYKISCCGMBGRQAxhIiKBGMJERAIxhImIBGIIExEJxBAmIhKIIUxEJBBDmIhIoP8PxCpaPCJ1CWQAAAAASUVORK5CYII=;" vertex="1" parent="1">
          <mxGeometry x="320" y="520" width="149.17" height="310.6" as="geometry" />
        </mxCell>
        <mxCell id="95llRvXmpCQJrTnAEZTI-16" value="2 - Seleciona o produto a ser avaliado" style="text;html=1;strokeColor=none;fillColor=none;align=center;verticalAlign=middle;whiteSpace=wrap;rounded=0;" vertex="1" parent="1">
          <mxGeometry x="100" y="210" width="220" height="30" as="geometry" />
        </mxCell>
        <mxCell id="95llRvXmpCQJrTnAEZTI-19" value="" style="endArrow=classic;html=1;rounded=0;" edge="1" parent="1">
          <mxGeometry width="50" height="50" relative="1" as="geometry">
            <mxPoint x="100" y="600" as="sourcePoint" />
            <mxPoint x="320" y="600" as="targetPoint" />
          </mxGeometry>
        </mxCell>
        <mxCell id="95llRvXmpCQJrTnAEZTI-20" value="" style="endArrow=classic;html=1;rounded=0;" edge="1" parent="1">
          <mxGeometry width="50" height="50" relative="1" as="geometry">
            <mxPoint x="100" y="720" as="sourcePoint" />
            <mxPoint x="320" y="720" as="targetPoint" />
          </mxGeometry>
        </mxCell>
        <mxCell id="95llRvXmpCQJrTnAEZTI-21" value="3 - Descreve tecnicamente o produto&amp;nbsp;" style="text;html=1;strokeColor=none;fillColor=none;align=center;verticalAlign=middle;whiteSpace=wrap;rounded=0;" vertex="1" parent="1">
          <mxGeometry x="100" y="570" width="220" height="30" as="geometry" />
        </mxCell>
        <mxCell id="95llRvXmpCQJrTnAEZTI-22" value="4 - Adiciona a qualificaÃ§Ã£o&amp;nbsp;" style="text;html=1;strokeColor=none;fillColor=none;align=center;verticalAlign=middle;whiteSpace=wrap;rounded=0;" vertex="1" parent="1">
          <mxGeometry x="100" y="690" width="220" height="30" as="geometry" />
        </mxCell>
        <mxCell id="95llRvXmpCQJrTnAEZTI-23" value="" style="shape=image;verticalLabelPosition=bottom;labelBackgroundColor=default;verticalAlign=top;aspect=fixed;imageAspect=0;image=data:image/png,iVBORw0KGgoAAAANSUhEUgAAAVYAAALGCAYAAAAeIbldAAAgAElEQVR4nOyde3xU5Z3/3+ecmdxmAiOSCagrk4DdagyBVmiwXUnX2Kq4ghdsF1RQq9styooVL79VZKu7VqurPy30t7UXoS3dVXCBCqINNUFuImggDUqBkFAFkqAOZCbJXM45vz9mzsmZyQWEAYJ+377yIjmX5/k+t8/zfb7PM6OyY8cOE0EQBCFjqKfaAEEQhM8bIqyCIAgZRoRVEAQhw4iwCoIgZBgRVkEQhAwjwioIgpBhRFgFQRAyjAirIAhChhFhFQRByDAirIIgCBlGhFUQBCHDiLAKgiBkGBFWQRCEDOM61hfr6ur4c11dJm0RBEHoF+Tm5jLpmmuO+f1jFtb169fz85///JgzFgRB6K+cffbZp0ZY4/E4nZ2dx5yxIAhCf+V4tU1irIIgCBlGhFUQBCHDiLAKgiBkGBFWQRCEDCPCKgiCkGFEWAVBEDKMCKsgCEKGEWEVBEHIMCKsgiAIGUaEVRAEIcOIsAqCIGQYEVZBEIQMc8xfwnIq8Pl83HTTTfh8PrZt28ayZcv6fL6srIxLLrkEn8/HmjVrqKmpAWDYsGEEAoFuzzc2NtLU1HRCbBeEzxs+nw+AYDB4xOfGjx/PwIEDAWhqarLHYl+43W7OOeecY7avpaWFcDh8zO8fD6eNsAYCAd555x0g0TBz5syhpqaGysrKHp+fOHEiixcvtoVyzpw5PProo/zoRz9izpw53Hzzzd3e+dGPfsSjjz564gohCJ8TAoEAO3fuBOCrX/0q27Zt6/bM+PHjefjhhxk/fny3e8FgkGXLlvHoo4/26Mx4PB6+8Y1v8NFHHx2zjX//93/P22+/TUtLyzGncaycNsL6i1/8gmAwSGVlJU1NTYwfP56qqipuvvlmFi5cyM0338zMmTO57bbb2Lp1K08//TTLli3j+uuvB+CXv/wlDz/8MM899xy33XYbt912m532zTffzC9/+cujmkUF4YuKz+dj4MCBNDU1MWzYsJTr6c8tXrzYFtSmpiaqq6ttAS0rK2P8+PFMmzaNadOm2Q6Pk7/927/lvffe47vf/S5XX331Z7Z1zZo1PPfcc1x44YUirH0RCASora21G6empoampiauvvpqFi5ciM/nY9iwYZimCcCtt97K3r17jypty/tds2bNCbNfEE5nfD4fra2tAFx33XUcOnSo12evvvpqxo8fT2NjI7fddhtr1qyhrKyMsrIympqaWLhwIU1NTTz88MPMmTOHm266ieeeey4lpOB2uwF4+umnj8ne8ePH8/TTT5OVlUV+fj5tbW3HlM6xctoIa2NjI+PHj2fYsGE0NTURCARShPS5557jueees593imQgEODqq6/u1niQ8FaHDRvGrbfeenIKIginCT6fj7KyMmpqauz4qHW9L2FduHAhAMuXL2f8+PFs3ryZsrKylGcWLFjAo48+ym9+8xtM0zxinPZ4OO+884hGo/z5z38+YXmkc9oI66OPPkpVVRVVVVV2o9bU1KQsSXoiEAhQVVVFU1NTj/FT8VYFoWd27tyJz+fjnnvuYfny5Z/p3YULFzJ+/HgWL14MJMZqY2MjPp+PUaNGMW3aNAKBQK97JJnmzDPPPCn5WJw2wlpTU8N5553HP/zDPwDwm9/8JmVzytp5dJ4UsETVis2KtyoIvWONh+XLl7N161Y7dpoeQz1aampq+NGPftTjCZ677rrrM4v1sRKJRGhsbDwpeVmcNsI6c+ZMRo4cyfe+9z0gIZrjx4+3N6EefvhhZs6cyXXXXcfy5cuPKKog3qogOJkzZw7Dhg1j2LBh9jg7XqxVYlVVFWVlZQSDQZ577jmef/75o3o/GAwes7Bb1NfXH9f7x8JpI6zWTv/48eOpqalh4sSJNDY22rPe888/TzAYtEVy8eLFDBs2jIEDB7J582Y7nWuvvZZt27aJtyoIJ5Gamhr7lMDRODLhcBi/38+YMWO45JJLPnN+jY2N+P1+Ocd6JGpqarjooouYOXMmPp/PnvUsT7SxsTElhrpgwYIeZzpn0N3asRQEAZYtW0ZZWRl/+MMfgMSGcFlZGdu2bePQoUPU1NQQDAapqalJ+ftoPlRjjU0rzHAk/vKXvzB27Fj8fj8ffvjhZy5Lbm4uRUVFvP3225/53Uyg7NixwzyWF+fNm8f8+fMzbY8gCMIp5+yzz+aNN9445vfluwIEQRAyjAirIAhChhFhFQRByDAirIIgCBlGhFUQBCHDiLAKgiBkGBFWQRCEDCPCKgiCkGFEWAVBEDKMCKsgCEKGEWEVBEHIMMf8JSwul4vcnJxM2iIIgtAvOF5tO2ZhDQwbxiV/93fHlbkgCEJ/ZNCgQcf1voQCBEEQMowIqyAIQoYRYRUEQcgwIqyCIAgZRoRVEAQhw4iwCoIgZBgRVkEQhAwjwioIgpBhRFgFQRAyjAirIAhChhFhFQRByDAirIIgCBlGhFUQBCHDiLAKgiBkGBFWQRCEDCPCKgiCkGFEWAVBEDKMCKsgCEKGEWEVBEHIMCKsgiAIGUaEVRAEIcOIsAqCIGQYEVZBEIQMI8IqCIKQYURYBUEQMowIqyAIQoZxnWoDjhaPx0Px8OFH9WzzgQO0tLScYIu6KB05krpt205afl8ErPYuLi7G4/EQDodpaGj43NVzcXExoVDopPbXTGG10eetTTLBaSOsU6ZOxQSCweARn73zrrv4p9tvP/FGARMnTWLM2LEUFxWxbNmyk5LnsVBeXs70W28lGokw8667TrU5fTJl6lQuGT+eqqoqfD4fPp+PYDDIeV/6EpOuuYb169axuqrqVJt53BQWFnLPvfdiGAYz77zzVJvzmXn8iSfYu3cv4VCIhoaGU21Ov+K0CAWYponH46G2tpYrrriCr3zlK33+rPjDHzBNEwBFUU64XUuXLiXP4znh+R2Jp595hv985pke7427+GIeeughDre14Una2t8oLCzkuZ/+lGgsxsGDB/nK6NGYhsGHf/0rpmFw/pe/TEdHB6O/8hVuv+OOU23ucWGaJgV+P9XV1Xg8Hru/HivFw4fz0/nzmThpUoYs7BvTNPF6vVRXV5OXtP9U9v3+Rr/3WNM73Buvv85vf/MbTKDHZlQUVEU5oY2sKIptl9O+4x0cx4Pf72f//v0EAgG7kyuKgmEYAPz2N7/hnh/+kI0bNhAKhYBTOwmkY5omjz/xBIsWLeKKyy/nF7/4BVtraxP3SLT1//vZz7jsW9/i8iuu4Nxzz/1cDebjdQSKi4uprq6mvLycpf/7vyenXqz+nvzXMIzPTXscL/1eWCHRYIaj8XRdT7lvDTxFUVBUFcM0UTWtZ+HNAKZpYpomhmGkCKxhmqicfMGy7Em/5vz9wIEDzP7hD1EUBVVVUdX+tViZeuONrFy5knHjxvHYo4+y/8CBRBkcgmMCr69axfp16+jo6EBV1dNWXK3+4vzbmgw/6wTtbP+TMbWbpoluGHZeRjL//tanTiWnhbCmY5gmqmMwWaIKJAaiqqIAI0eOpLmlhZbm5l7TKh83joaGhm7PlI4caW+cNDQ09PhMN0EzTXDYVXnZZWzbtq3X/IuLi/EXFrJxw4Ye73s8HsZdfDF+vx+Aurq6HjcKLDsqKiqALs/BqhNrEF988cXs3r2b1tZWDMPoNhD8hYWMHDkSv99/xM2iwsJCioqL2bhhw1Hb2Rt+v5+Lv/51qqurWVNTw/79+xP1qiiJnzThaGtrS0ycaYPZ2kwpLS0F6LXdLKz2CYdCtv3hcJgNGzbY73g8Hiovu8zeQHPe6w1nfYTDYeq2bUuJQdr9pofVTrqo+gsLGTduXFf+69fbG12WCFs/kyZNYm9T0xG93259e/fuPjfP0p/fsH59ip1OB0NI0O+FNX1mB2zRsAZViteSDAUUFxfznX/8RzRV5cEHHugx7fJx47jxpps4sH8/jz36KJAQjLvvuYePP/4YgEAgwFlnn82NN93E+nXr+P2iRT0u/1O8BtNk3MUXM2r0aMrLy+2007n7nnts4U0P/k+85hquuOIKdu3ahc/nA+Css8/m7lmz+PdHH7WfN02TFxcswF9YSDAYxOfz8drrr9PY2Mj6detY9LvfoSgKZSNHUjZ6NNdcey3333dfN0Gadc895OTm2teszaK7Z83iwfvv7zbw7r7nHnRdp7i4mImTJtHa2kpjYyPBYJCvlZcn3nvggSOKkGmalI4cydKlS/nud7/L1H/8x0Qbqiooij1ppg9cxfG+oihcWlnJ5Btu4ODBg/YzF5SUEIlE2L1rF4t+97uU98vHjWP6Lbfwyccf4/V6ae/osO2f88gjrF+3jvb2dq648kpaW1sJBoPU1tYy55FH+OPrr/e4UenxeJgydSrDAgG7LYLBIGPGjkXTNJ55+uluopgsRMJZcPRjZ5tY7Q9w2be+xa5du3jhv/6LcDhMcXExjz/xBB6Ph2AwyMiyMhb9938D8NPnn0+ZtIuHD2fGnXfS0dFhp3nx178OYPcVJz2NhSsnTOD2O+7g//3sZ85GtPv/6bh6OBGcHr67Y3YfMmQIo0eNYvTo0ZSNGkXZ6NGM/spXGDV6dGKJmxTdPXv2kJuby+6GBi5MejAWVqeeOGkS1dXVbNiwAdM08fv93PH977NlyxaGDh3Kjh07eGXJEuKxGADRWIx/ufvuHpfeCTO7PAWPx2MH9tOx8vd6vdTW1trBf4spU6dSUFDAwYMHyc7KYvXq1by9cSODBg1iw4YN3HPvvbZXZpom69evZ+vWrfZg2Vpby+HDh2kLhewYq6Io1NbWUjhkSLcY8fM//Skb336bwYMHs2fPHlZXVbHjgw84//zzee211/inf/5n/IWF3coxatQopkydCsB7777Lli1bMA2DoUOH8vjjj/PAAw8c1UZZUVERAOvWrgVATQqrpqpoLheaptn/WmEMa3JVFIWJkyZxzbXXsmvXLlRF4e2NG3l740ZaW1ooLCzkrLPPtu20yuz1evH5fBQPH47H42Ht2rXs+OADPHl51NbWMmXqVL53++2Ypsmf6+r4ywcfcPU//ANLly5lzNe+ZnvnTiF5/Mc/xgTcbjeffvopf1q9mg8//JChQ4eye/duHnjwQfu9lMmZxEThvPb4j39MTm4u+fn5vLFqFQsXLOD1VavIzc1lxIgRPPTww3aIZ/fu3exOTsChUIi9TU3s3buXht277TQLCwu5/4EHyM7Opj0c5pUlS/jZ/Pns2rkTSEzaEydOtPMvLCzkvgceYMmSJYwYMYLgp5/yypIlvPqHP4Bp8sjcuRSm9QnxWrvo1x5ruifa2NhIIBDgwpEjuz0bCAQoKytj0e9+Zwvfildf5Stf/SpTp07lgfvvT1kaFxcXs3v3bs4//3zmzpmDoijMuucelrzyCl+/+GJm3nmnHUNa9dprDBk6lPvuv5/NmzdTedll/PGNN2y70m1O/tJzOehhKegQueLhwznr7LMJBALM++lP7Q0cgFeWLOGmm2+mtraWW269lYf+9V9pa2vjZ/PnM7iggH//j//A5/Pxw3vusQXI6dX3VL9Tb7yRla+9xhWXX87/eeABDhw4YJfrlSVLeOTf/o0NGzYwK+mBQurS78CBA8y+916arfdITH7/+tBDrHztNSZOmtTNE3LmbxiGLb7Nzc0oSZs1TbPrzJ4IevCG/H4/4y6+mNraWtoOH+bxf//3lLJ+/RvfYHxFBWedfTalpaVsS4YozOSEAzD73nvZtWuX/fdTTz9t/27ViQksXrKEp556ilf+93+5tLIypVyXVlay5q23GFdezr8/9lhXPQL/m6zHRb//PbPuuYcH7r+/x7qwynnZZZehahod7e08cN99KZPgG6+/zn88/ji6YXBhaSlba2u59557qKys5IbvfpdgMMgPZ83ClZyIrDT/9eGH2blzJx/+9a/8ZuFCO7333n2XUaNHM2XqVK686iqWLl0KJCb33//+9/zz97+faF/HyuOVJUv4yVNPMXzECPuaM/Qk9HOPNaWhTJNAIMDll1/O6FGj+Mro0SlHrAYNGsTu5AxtDdhVq1YxYsQIdMOgtLQ0JR41cdIkgsEg727ZgmEYFBUVsbuhgSuuuIIFCxag6zqGrif+NQz27dvH2jVrgMQgctqV+KdrYKTEnNL/piu8YQf/HfcnTZpEY2Mjf9mxg/feey+xcZfcsIvH4yx48UWKi4rY/v77XJgsk/W+tZRN2VRL5ucUemdo5asXXQTA7xctYt++fejJMls/P3niCS666CI+/uQTcnNzu5VlyeLFifeSNuq6zr59+1i9ejXBYNC2sa+2dd7tySO1nk//gUT8b/HixRQVFbFgwQLiyfYyDAPdMHjrrbeIRiJUV1fztfJyu76sOti1axc7/vKXhO3Jd1atWgVAbW0t+/btSzyv6+jxOLXJic7y4J39KRAIsHz5crs+rHY7dOgQjzz8MJWVlXz8ySfk5eUlytzLZHd1Mq358+YRd7SFYZocPnyYP/3pT/h8PsrHjevq00B1dXViWQ4p/aK4uBhVVfnyl7/MghdftNvKqqf33n0XVVGIxWJ2exUOGUIgEODJJ5/kI0e/MAyDQ4cP89BDD9lnyu0+Jtj0a48VujfY66tWsXDhwsSSP7lJlT747HcNgz+tXs25w4Yx5cYbeTDpKRQWFjK4oID8/Hyef+65hLAWFxMMBikYPJj9+/Z1pUeXMK1atYqly5fbdjm9KEtUbXFNF7b0MqUJnZVeUXExf/3wQ15ftQrTOr7isMMwTXbt2sW1112HaRisW7s28Uza0tLKR3EMPNtuw8AAvF4v+/fvZ9SoUfxmwQKSBUmJXx4+fJihQ4bw1tq1jCwrY/26dYnwgmkSDAYJhUJ2uZ1l37VrFyPLyigsLOxxM8XphYWTx7+GjxiBAke1u2y9f+GFFxJub2fd2rVd9WW1R1JY1q1dS9Hw4RQPH56Sb4r9iYt2e1miYVj3HOlBom9Zm4Qej4e9e/fi8/lY9dprKXVo1cnhw4cZOnQodXV1lI4cyfp163pd7Vifxrrx5pt7LLvX6yUQCPDRRx/1HpaybDYT52UDgQDNzc3ce999zgxtGzzJNP1+vx2GqqysTHi3jues/nNg/34OHjyIz+ej7dChI7bXF41+L6zpmKaJoeugqmB1elI9HegSlyVLljBv/nwOHjxIgd9PS3MzU6ZOJRgMEunsTCzZHMIUCoe7vKJkHpDwKtva2mw79KS4OAWtJ+FwerSqqtoxT0tcR40axdq33rLFyVoW7z9wwLbBOgFheRiWHR6v1y6nM+90jy998FlCm5uXB0BnZ6edhlPULK8nFA4DkJfc3LLef/bZZ8nNyUFRFLRknj3tEB9pU2PdunVcWFpKSUkJXq+Xzs7Oo1pWWvkEg0Ha2tpSJ1pFQU0+Y53btVYP1rvPPvsskyZNShFzK82lS5cyqqws5Z7h6F/OcllxdJfL1VWPaRONJUbBYDDhsfbi4Vlpeb1evv3tb/dZ/mZH2MYZMrPzTz5n9anCwsIjptnW1oaRXP18+ctfTowxx96FZbeu6131KiGAbvR7Ye1tgJmA4pxJ095RFQVTUQiHQqxevZphw4Yx9cYb+d1vf8uI884D4P88+GBKegBDCgsTQpGMTzk7U3FxcdfzaYeh03dFrX+9Xm+Kl5QudJMmTWLtmjW2p2R5byNGjOBga2vKZGExdOhQK1OrwCnPWGJg7ayn149lf6itjUAgQGNjI978fDra21Pys0RySHLZu//Age7CmRRVp5inHBQ3e98xtq7X1tbyvdtvZ/HixVxz7bV27LLXtndMdqFQCJ/PR35+PqurqromomT767rOkCFDeqyDriIotv2GYXQJhTWxWWVzxGXTl9sABw8eJD8/n46ODtsO0zRRDAPdNBkxYgQ7d+1KxGyTYpterra2Nluwpnz3u7S3t6euBpL5mZDY3NO0bvE8TVUTk0zynVAoRDAY5O2NG3nyiSfsCcguRzI0YtVbvtfLqFGj6OzsJD8/n/aODntD0bD6MJCTk0MgEOD97dt7qdkvLv06xpo+gBP/KCkbM9ZGh+YY2M7nFEXhf195hREjRjB06FA7hrnjgw8SmyVJEV63di2BQIA9jY2UjRqV8r6a7KjXXn99j3YGAgG8+fl2h4NE7C4QCLD/wAEKhwyxl2VWuYYMGZK4bpUtKTJr167F5/Nx3fXX23k7d8OHnnUWZWVlXdWS/AmHw/h8PhobG8lP2qI6BlA3iVIUQqEQh4JBgsEg06ZPT6lP6/dv/N3f8dqqVZz/5S+zbevWbmVXHe1hvWeFUOx27KV9ne21bOnSxMZkaSmVl13WyxuJd0aWleEvLMQk4e0CfO1rX8Pr9XbZ4bDr5mnTaGxs5I3XX08J09hlcPQdVVXtQaGklc/yhO1yOSYNSPSDm6dPT/FYrXcvv+IKux6tDUlrJXDIEavENNm9axebN2/muuuvt9M3zNRVR0/x52AwiNfrTckfEqdEQqEQZ59zTmIn39EP7TCNo52sFVF1dTXXXn99l4AnT2qoqsoVl1/OgQMHKC8vp2H37l7b64tKvxbWlN1gR5zOFtPkj3NQW884f0JtbayuquKcc85h0jXXUFFRwcIFC1K8unA4zMcHD9LY2MjkyZMZd/HF9vsej4d//ud/5lvf+pZtm+U1NB84QDAYZOzYsRQPH443uezavWsX5eXlLF68OHE0xe+3O/qQIUN45N/+DUdi9r+vJCeB9957j0f+7d9SjrSUlZXxk6eesgXZpGswhMNhFBIbLjdPm8bw4cPJSy71eySZ54IFCxLHjoqLufGmm1I89JEjR3L95MkAfPDBB31+qsf5KahunrJjIPeEQuKjytbm0N9feimz7rnHPppkUTpyJP/x4x/z7csv54477gDTpPa99ygKBKiqquInTz/NkGRMV1EUvF4v9953H6+tWsUVl19ubzz1NMmkePxpv9tx7rQJoyeP+tprr+WmZD1aP2VlZVx+xRV2PVocOHCAiy66iP0HDvCtb33L7jvz5s0jEAgwvqKC66zJPFl3Xq+XGXfeyYwZM1KW/+vXrWPUqFF8+OGHTLrmGrvfWF7w6qoqDh48yJzkMSlrXClA2ahRPPrYY4weNcqOJy948UVGjRrFyJEjufGmm1LKOO7ii7n8yivx+XwsWLCgq24kJGBzWoQCrMYOBoOcO2wY//rww32+c+6553JXsuNZjf3KkiVcd/31BINBNm7cyIHm5i4hJiEACxcu5D//8z95a+1azh02jFtvu42srCyi0SjnnHMOb6xaRVZOTldGpsm69ev58RNP8NRTT3HDd77D0CFD+JeZM1EUhf98+mlm/su/8Nvf/pZpt9zCBRdcAKZJVna2febQeaAdEt7CS//zP9x6220sXbqUf5k1i7POOotgMMiXvvQlQqEQ69au5Z3Nmzn//PNTNhYWLljATdOmsXTpUq6/4QYGDx7Mj+bO5fDhwyl5WPFe0zTZunUrZWVl+EaNIq7rPPnUUxQUFBCNRqmqqmLXrl0MHTKEJ598Ei35TnpMLX3jLiUkwhE8VlVFTXpk8+fPZ1pyw+bDjz7i5unTOffccwHIysri4MGDbNmyhTFjxiQ2iZJpP/HEE8x55BHeeuutrnoGtm/fTmNjI2Muuojn/u//pdmKW6eFTZwboCnxaMcK5Ggl4/VVq5h6001MuvZawuFwSj2OGjWKH86aZfe7UFsbOz74gLZQiMF+P08/8ww/ff553nv3Xf7nv/+bf/r+97n461/nkvHj0XUdr9dre5NDhw7lFy+8AHSFRD4+eJC/fvghPp+PabfcwpmDBjH73nsBWPDii/xgxgwAZt9/P/n5+YRCIbKzsxkyZAjBYJAR551HXV0dhmGwdetWttbWMr6iAo/Xm9IvNm/eTDweZ2ttLW+sWoWmaUdZO18ctLvuumvusby4e9cudjvO/p1IDNPEX1DAXTNnkpOTY3+VXG8/Bw4cYE1NTcpg6YxEiEQiFA8fzk+efJL2cDglNmiaJpFIhD8sX87o0aMpHzeOvXv3EovF6OzoYOHChSx48UX+6fvfZ/DgwbyyZAmqqhKJRNi8eTN33nknQ4YMoT0c5o033sA0TT75+GPee/ddrrrqqkR8bedOPF4vzc3N/OSJJ4hEo5x77rksXbqUjvZ2u7x7m5rYtGkTkyZNwu/3s3PnTnJycti/fz//58EHiUQifO9732PlihU0NDTY5dx/4AChtjam3XwzgwYNwjRN3vzTn4hEIhxua2PWrFls2byZLVu2pNTN1tpaGnbvZuLEieTn57Nz504GDBjAGWecwaa332bhggUpoRHTNCksLOS666/nd7/9LR2OOKCVZtvhw0y/5RZ2fPABGzZsSFluO7GFNyloW7dupW7bNr7xjW9QOGQI77//Pjt27MAwDM455xz2Njbys/nzbc/PiiFu2bKF0aNHUzx8OHv27CEWi3HOOefQ2trKf/3Xf/HXvXvtkA4kPL+bp01jx44dbNm8uWvzisRmzx3/9E9s2bKFLe+8k1Ju0zS57/77WVNTwwfvv2+vaL7y1a/i8/m4f/ZsWlpaOPfcc9m1ezeGYRAIBNi9ezdPPvGEHVqw6uHtTZv4xje+wSWXXIKqqixbupRQKMSunTuprq7mvBEjOPfcc8nKykJVVaKRCHXbtvH0U08Rj8e76hzY9PbblJeXM668nMGDB7N9+3be3bLFXl1t2rSJ3Jwczhsxgkg0is/nIxKJ8Omnn/LLF15gTfI4oRXSqq2tpb6+nm9/+9sp/SI3N5eFCxbwxuuvp4Q7Pk8ea25uLpeMH3/M7ys7duw4pgNor69axevJ834nEtM07TOc9qeIrPhqTw2pdO1QQ9dOuvW+5a05wwiAfbbP2lBwxtSsozUp+SsKqqbZ96x3nJsgejI/azNpyJAhNDc322WyPDuXy5Wy8WOds7RjZY7TCXGHjVYZrEFvnXVUkvfsJXnynq7rKfFQ0zTt85Y4l/FJrMrx7jcAACAASURBVPqybLM8E/uLcJL2WYfRrfZy1jfJ91yOzcD09rXtSJ6TTDSjYtcZJITjwP79KR9zdeZnbZg5xdPZNs4NSesd3TBQFSXxqS5r5z953Uh+0Y9dx6qKaZUrudFj1ZXf7+e2228nEAhwy7RpqI6Yf08bTk6httrMmZ4zdusMKeAot/WsddLEal/TKmtPfTHZHoqjDzuPwnXrg8kvWlHT+4Vj401VVVwul92vegv3nG4MGjSIh+bMOeb3+30owMLeODC7zmFanci5dFMVBd1MfLuV1SEsMYWuZXC6B2WdIjCUriMyiuk4/0nXTO7cGFKS6TvfsexVFSVhZ7KT7t+/37bBeUzK6rzOWJViJo5jOdO0jmgp6c+qKhhGYrc3ObgsUbOHg/Wc9a/DRkVVbaHXDaPr7K4jH6dHkh537K29nHXbZ7s66t8Wo2Q7f7RvX+rHPZWujZl0kbFEjOTk4owjqmnC7ixDus2K43fnZpzV9s427nbaImFI17GupB3pG2F2e1pppwmpSVf4IT08YQmiU1ztPpgsv91vrElRVTGS/cIEMAys74iz+4Pjb+cRP6tf2GU0u04QOMfR50VUM8FpIayKqqIkvQvnQXdwHOBOXMS0vi7QEQt0bmo5hdUpFs7Z1nlg3+khmUmhSl8W2+86B7wlaoaBqardPiigJa/Zgy1pt+lIw/ZcwBZxxZFGyg58csCR9KKt+rDqQHOeEHB4IIqSOJKkaVqKZ4UjTzXN23N6L07PsSfhcop4XyJsf+lK0oMzHGVIP6vrFL30zbGUdnO0rXMJbq8wrLpPs825+UZ6mRynBnosi+N3yw5LpFJOTTj6iaHrKe2uJPuO02u0J9S0euupDnH2kWQezr6XLoDOOLPtEBgGimMVYv3rbNee6k5IcHoIK90PcHfdVGwBsTtHmneF433nc04xdS4VVcfyLV0sLGFxip9TBFOWaI53uh0dM017ia/2IHpOAXDa6MTp/dgd3jAgfYeeVE89PS2Xy2V/jaB9jtNR9p7io1YowelBOvNJF+8jtrE1ESWFy1o5QNfml+poS6d3iSNvw+FZ2e3mEFarXiz708tlndXUemh7ywbTESbCee7VyquHeGNvdaIqCkqaLfYqJpmemVYm54Rl151VJ45ztel2pMeKky/bYpq+CnDWf282ON8Tj7WLfi+szs52pMZLH0jO3Wmg2+5lt5nbMfjSRTc9D6dt6TO6Mz/nYLc9T+egcwh9T+V22mk/4xC+nuy38lL7sDv9d1t0HPHcnoQlvczpwnQ0v/eF5Tnbwp1GireXxNle6XE+p3edXo7ebFMTF3t8zjlRKUoidNR84ABul4uPPvqo23LfTsOaBOjhaBrd+46SqIxEWZwrorR6SC/Dkcrb22TdU70kTEjYYPbyXHofFRL0e2GFI3ea9E7pvN+bt9dXXk7P1KJbx+8hbacH63zO6SkcjS29dfIUW9S+FqT0OLGk5+EcDE4P6mhIH9g93bdtPco0e4qH9zq59JBXev0fqb2OZPvRlMmqhzlz5mCaZmKTrgevtaeypNt8pLY6kt0pXmYfY+Jo00uvV+c1oW9OC2FN9456a+RMzZ49dah0T6gvb6onT7g3e4/W1r6EPD2fvmw5kv2fhaOx/7OkmZ6Ws86Pdse5tzrOhEfVU79L75uKovQ4OR3NJNTXvaPxENP7Qm99sbcJpy9EUD8bp4WwOulL3DK1HHHO+p8l7c+a/2d5/kgDKf3vk7E0O9F5ZKI8J9pGS6is41q9ndfNFMfbZ9KvyxL+xHDaCasg9CcURbHjwtB9w0j4YiLCKggZID3+L3yxEWEVhONEPFQhHZlmBUEQMowIqyAIQoYRYRUEQcgwIqyCIAgZRoRVEAQhw4iwCoIgZBgRVkEQhAwjwioIgpBhRFgFQRAyjAirIAhChhFhFQRByDAirIIgCBlGhFUQBCHDiLAKgiBkGBFWQRCEDCPCKgiCkGFEWAVBEDKMCKsgCEKGEWEVBEHIMP3i/3nl8XgoHj78VJshnATCoRAer/cLn65wcqjbtu2U5NsvhHXcxRdz96xZp9oM4Rhobm6msLDwqJ9vaWnB7/dn/tnmZvxHacdnsflE2SuceJqbm7ntlltOSd79Qlg3rF/Ptq1bT7UZQj8jHA7j8XhOtRlHzelmr3Di6BfCGg6HCYfDp9oMoR9yuvWL081e4cQgm1eCIAgZRoRVEAQhw4iwCoIgZBgRVkEQhAwjwioIgpBhRFgFQRAyjAirIAhChhFhFQRByDAirIIgCBlGhFUQBCHDiLAKgiBkGBFWQRCEDCPCKgiCkGFEWAVBEDKMCKsgCEKGEWEVBEHIMCKsgiAIGUaEVRAEIcOIsAqCIGQYEVZBEIQMI8IqCIKQYURYBUEQMowIqyAIQoYRYRUEQcgwIqyCIAgZxnWqDcgkpSUlADTs2UO4vf0UW9O/8Hg8FAcCANTV15+0fIsDATweD82trbS0tJy0fD8PnMr+7Pf7KSwoIBwO09DYeFLz/jzQ74W1tKSESysq+nxmz549LFu5ksfnzgXg1h/8oN8La2VFBXfPmEFdfT0PJu0+kRQHAjw+dy7NLS3cNmPGCc/P4qHZs/H7/Twzbx6rRViPmsKCglPan6dOnsylFRVUVVfz7Lx5JzXvzwP9XlgLCwqoPIKw1hUUsGzlypNkUWbx5OWdahOEzxGWGD8zbx4tra2n2JovLv1eWDds2sQ2x9L1V/PnA/DCr3/NhnfeOVVmHTdV1dVsq68nHA6falOEzxFW+EA4tfR7YQ23t/e4DAq1t/c6IxcHAsyaMYPCggKaW1t5Zv78lPjexAkTKB8zxr5fVV3N6urqHtOynt34zjv2Ow/MnUtLayvlY8YwccIECgsKCIXDLFu5ktXV1RT6/dz9gx8A8NiTT9r2PzR7Nh6Ph0UvvwzAlMmTaWhs5IUXXwQScdCJEyZQOX48QIrtpSUlTJk8mebWVntpdvv06RQHAnYel1ZUUFlRwcZNm/r04J3l37Z9Oy/8+te2jcVFRUy5/no7Hrtt+3YWvfyyXX892dhX/TnbpHLu3F7bxCqfVZera2pYtmKFfb+vugG4O9ney1asSGmTRS+/zMY+JuAj9YV0uxqamlLqo698Ww4e5PZp07qV2ePx8NDs2QBsfOcdJl55pV3XzrboicqKCi6tqOjW54qLirh92jT7uVkzZlC3fTuLXnrpM5dz2/btspI6Tvq9sB4Ls+68k3AohN/vx+/389Ds2cxMduQpN9zAlMmTAWzBKi0pwZuX16MYFQcC9jNO0tMpLipi1owZdjrFRUV48vIoHzuW1dXVlJaUUD52LAANTz7JuLFju6X5+Ny5FAcChMNhwuEwpSUl/GrePGbOnm3bWhwO8yxdQgMJMayrr6eyooLSkhKq+hC5Qr+fKZMnEw6H8fv9VPr9hEMhXliwgEK/n8fnzsWTl0dDYyPevDw7zZn33ku4vZ1ZM2ZQPmYMDXv20HLwIOVjxvRZfxYTJ0ywRaXU7+f5J5+0Y4dWvNlZl8VFRfgLCuxJx1k3gJ3Gg3Pn0tDYyMgLLsDv91NaUmLn4/f7mTVjRq8xyiP1hdKSEntp3dLSQqHfT3FRUUp99JUvitJjP/Tm5dltb71ntUVhQUGvMfe++lzd++9TWFDQ1c4FBTQkxfFI5bTaHSAcDjNuzBg8Hk+vbSkcmc/lcauf//rX3Dpjht1BiwMB/AUFtqgAzJw9O+WZKTfc0GeazS0tPPbkkzz4yCO0tLbacd8X0vKacsMNePLyqHrzTaBraWZ5gBs3bepxkFdWVFAcCNDc0sJdSdssj83yVO2BW1CQIsrlF12UyKOoCOh71z8cDtvpW96MJfilF1xAw549LFuxwq6fcHs7hQUFlI8di8fjoXzMGACenTePx558khdefJG6+vojDsRlr77KrTNmMHP2bMLt7Xg8HrsOrbq36vK2pBBOnDABT1LcnXXznenTWbZiBR6Ph6uTk0tf+fS0PHb2hQcfeSSlPqw0b58+HYCqN9+002xpaaGwoMCe1HrKFxITn3UtvR86sfK2niktKen2jJWelWdPfa65uZlbHZuSD8ydywsvvphSzseefLLHPm/d37hpE9+ZPp1bk5uqwrHzufRYrU6RfrynKClu4XCY4kDAFjvAFqzewgt127fbS0pn57c8Lut3j8dDYUFBYok3YQLjxozhWbAFqbe4sNO2kUkhsLwz617d9u1cmvSOrGcaGhspHzuW5a+9hicvj+aWlj43LULhsH2/oakp5V5VdTUb3nmH4kDAFjUn4XDY9q7uvvNOVldXU1dfn7Jk7w0rr+bWVjZu2sSlFRUUOTxTABSl20alc7XgrBsUJXH/ggt6zSccCuHJy+tR9J31Xbd9OwDLVq5MCXlY/WN5snzNra1sSLars++k52vRWz90Yj1fV1+f6D9Jb/bPacJWHAjY7eHsc5athQUF3drTWU4Ar2Mys97zFxTYz1h9M+zoI8Kx8bkU1t4oHjYMSHSou4/jyJFzydVTOh6Pp2ugeDyUXnCBLQ4bN23qMU1vcvAXFxX1altdfT2XVlRQPGwYpSUl1NXXU1dfz5QbbrCF+7N4GukbZ9aS0F9QQEtLS4pIWDw4dy53z5iRCEskPbqGPXt47KmnjvqcanPyOW9eXop4Wx6iE2vwQ99181nxJvMNOeogHA5TVVMDpLZxyLHCsATnRCyVrYmgJ46mz/WE15Feb3VnPSMbqZnjCyWs1qBobmnpMY51tLO00zOYee+9KQMPujpo1ZtvMnHCBHvJ1VsYwEldfT3P9HJu0BLNcWPH4i8oYNmrr9q2WMs5y/s6FqZMnoy/oICqN9/k2eTpi1/Nm5cy2JtbW3kwuQllbXgUFxVxx7RpPPaTnxxVPlbIIpS2MdlbXY50TEo/T8ZcjxcrH2+aIJU6VgIWhX6/3Td6WqZnCo/XC/QscNYkFw6HefCRR3rtc71hhYDScfZ5iatmjs9ljLU3NrzzTiJm6PdT+c1v0tLamojlXXUVhX7/UafT3NJiC8KljnQqv/lNxo0ZY99zhg6s/HvD2nCylr5WmlNuuMFe9lpxVn/SVstjtTxj69qxYg+sZH6Ffr892C3bXn35Zf7nxRcJhcNUVVfbG1ZHGpTW0rnQ70/5BFjDnj22p3v1VVclNnza2xk3diyV3/wm4fZ2u27Kx46lOBCw6+aO6dNtWz8rznqzduUnTpjA43Pncvu0aYkQQbIurdVAod/PuGQ8uq8Nws/CuGTaztBLT590amhstO29NK3vlpaUdJuwrf5s9XmPx9Otz6f3y4lXXonf7+81Li0cPV8ojzUcDrPopZe4ffp0pkyebHt5AIWDBx+1KIXDYZ6ZN4+HZs9m4oQJKRsZzS0tttg442bQexjAetY6sjNrxozErnIS65Nl0BVnbW5psb1VK2Z5pPjqkdi4aRPlY8ZQWVHBuLFjUzxVb14eq5NCXlpSwnNPPUU4FLK9zyMJTWVFRbd6surjsaee4vG5c6lMHhdzPrPs1Vepq69ndXU1l1ZU8NB996WkW1dff0wfDnH2hdtvuYXbb7nFvmcdh3thwQIenzu3Wxs37NlzxONlR0t63stefZWW1taUpb9l7wu//jV3z5jRpz0NjY32p+ysT/X11uetel2+YgWV3/wmxUVF/Cq5WpKwwPGh3XXXXcf0ecrdu3axe9euTNtzRPx+Pw2Njfx5+/ZuImLd27hpE7FYDBSFM3y+lGs7du5k4zvvkOV2E25vZ09TE6/98Y/2sZ50vB4PofZ26urr2ePwJD786CNWV1fjzcuz01mzbh3PzpuXyDtJMBgk1N7O6jffTFmmWx7enqYmW9Dfra1NlElR+DQYZE9TE/N+/nPWrF9vv2d5Jm9v2sSOnTsBaDl4ELfbnXItHUVR8Hg87Gls5N3a2h6vNTQ20tLaisfj4cN9+3jtjTd4a/16Qu3tBINBduzcyerqanvgx2Ix6pJnL3s7K+r3+/lw3z4W/O53KEn7N27axLwXXiB46BAAnwaDvLVuHZgmsVgspS6d3r+zbqx8rbqx8nH2i56uOdmxc2ePab67dWuKXeltPO+FF+w27i3fhsZG/lxfz6eHDnXrh1lZWbYwPjtvXqINkmkvWLTIarBufbehsbHHPue0593aWgr9frs8dfX1vfb5eS+8YPept9ats99bXV3Na3/8I9FYrFu//6KQm5vLJckz08eCsmPHDvNYXnx91SpeX7XqmDMWhC8qhQUF/DIZw771Bz+QHfh+yKBBg3hozpxjfv8LFWMVBEE4GXyhYqyC0F+Qr1D8fCPCKggnmebW1pRPSQmfPyQUIAiCkGFEWAVBEDKMCKsgCEKGEWEVBEHIMCKsgiAIGUaEVRAEIcOIsAqCIGQYEVZBEIQMI8IqCIKQYURYBUEQMowIqyAIQoYRYRUEQcgwIqyCIAgZRoRVEAQhw4iwCoIgZBgRVkEQhAwjwioIgpBhRFgFQRAyjAirIAhChhFhFQRByDAirIIgCBlGhFUQBCHDiLAKgiBkGBFWQRCEDCPCKgiCkGFEWAVBEDKMCKsgCEKGEWEVBEHIMCKsgiAIGUaEVRAEIcOIsAqCIGQYEVZBEIQMI8IqCIKQYURYBUEQMowIqyAIQoYRYRUEQcgwIqyCIAgZxnWqDTgS299/n0OHD59qM057Bg4YwAXnn3/S8/V4PHg8HsLhMOFw+KTnLwingn4vrIcOH+aTTz451Wac9igZTq+yogJ/QUGfz9Rt305hQQF3z5hBXX09D86dm2EroLSkhPIxY2zx3vjOO9TV12c8n3TKx46leNiwlGvh9nYaGhtT8i8fM4Y7pk+nqqaGRS+9dMLtEvoH/V5Yhf7JpRUVlJaU9PnMopdeoqW19YTZMOWGG5gyeXLKtYkTJrBsxQpeePHFE5YvwLgxY7i0oqLHe1XV1bzw618Tbm+ntKQEv99P+UUXibB+gRBhFY6JRS+9RGHSYy0tKeHSb34TgGd/+lP7mYamJooDgROSf2VFhS2qi156ibr6egr9fm6/5RYmTphAOBxm0csvn5C8nTTs2cPyFSsAKCoqYuKECVRWVNDS0sKil19m0csvU1dff1K8aKH/IMIqHBN127dTZ/2hKLawVtXUpDznFNbSkhImXnklHo+HqupqVldX2/c8Hg8TJ0ygeNgwPB4PDY2NLFu5kpaWlh7zn3LDDYn83nzTFtC67dvxFxQw5YYbbM8VReH26dMB+P3LL3P1lVdSHAjQ3NrKopdfTkm/tKSESysqKCwo6PF+T4Tb27vKXFNDYUFBIkyQLHfpBRdQPnYshQUFLFu5kvIxYygfO5a6+npaWlt7rY9Cvz/F1o2bNlE+dix79uxh2cqVfdoknHpEWIWTQmlJCY87QgdWGMESk8fnzu0mwuVjxzLz3nsJt7enpOXxeOz4rlOMAJatXMmUG27A4/FQWFBAuL2dyuSSfWRJif1eKVBYUGDHfdPDCqUklvsPzp1LQ2Pj0RdUUWwbITGxVFZUUJcUVuvvcWPH4snL67E+Cv1+Hp87N8VWqwxWOkL/Ro5bCSeF5pYWbv3BD7hq8mQ2vvMOkBAuSIhGcSBgP3PbD36QWNoXFDBxwoRuaTkFuDkthus8eVBUVJRyb9mrr3LV5MkJT5YuMSv0+21RffCRR+xnPB6P7e32hicvj9KSkoQ3PmEC5ckyVaUJfjqhUMiuDytMYNXHlMmT8RcU2PXxnWnT7DoTTg9EWIWTQktrq72R1bBnD9Dl1VmbQHXbt1Po9+P3+20vMZMx2g1JcbJiogD+ggJbDBv27AFFobSkhD3J/I+0QVdcVMTjc+fy+Ny5tggve/XVbp50Os76sITVqo+iZJmXr1hBS2tr4rRBss6E0wMJBQinHEtQKisq7CVv+j0nzrinNy+Pll6eP1J81H4nuSS3RPKz0NzSYh8rKy0pycimmTdpTygtBCKcPoiwCv2G1W++2W0JnR5fhcTyP9zejicvj/KxY2loarLvOT3M5tbWz3R+t7mlhWfnzftMNre0tvLsvHl4PB5+NX++vQmXiRMJXkcMVji9kFCAcMrZuGkTABdeeCHNBw9St327fVSrt42jZa++CiTOrfr9fiARK70juRyvevPNoz5DW7d9u/0+ipI48bB9O8VFRTQfPHhUaYTD4RSbPMchilbI4tKKCjudwmQZhdMD8ViFU86ylSuprKig0O/nV/Pm0dLSgsfrxZOXlzhq1MPGzbKVK+1jTb+aN8/2YCHheX4Wj7Guvp7V1dVcWlHB43PnpuRfesEFPPaTnxx1OSZeddVxe63LV6yg8pvfpLioiF/97GeEQyF78hBOD0RYheMm1N7e6wF4657T82xpbU25Fg6HeXDuXKZMnkxRURHevDwa9uyhqrq6193wcDjMzNmzqayo4OoJE/Dm5REOhaiqrmbZihUpIQTLNueJgfRrz8ybR119fUpay1591T5BkE5zWhmstBa99BLlY8ZQnDyRkF7W9L97utbc2sqDc+dy+7Rp9pnabfX1VCbPCgv9H2XHjh3msbz4+qpVvL5qVabt6cbGt9/m408+dcTKkuYqXb/2VQAl7b6iKF1/m2YiXQVM+0nF8YKZloDSQ6ImSvK62aclJJ8ze7XZvp88C4nZlabieKrrL9P5MqZp2umk2qJw5pmDKB87tk/7hP5D+ZgxKZPKrBkzuLSigqo33+TZ+fNPoWVfDAYNGsRDc+Yc8/v93mN1u7LIzsoGLOHQk3e6hMNM/dOSR1DAMExM00DTNNyqC82lomAyMN9LQYGfeCRGtCNCJNZJRyyKK9tNKBTicKgTUBNip5koioKmagAoKqgqqCYYuomiasQNA13XMU0TVU2Erk3DSNisKLg0DUVVMA0wTQPDNDEM3bIUVVXRVA1FAVVTUBQw4gamqWAYBgYmqqKgqIm03G4XmktDMRUMTGLRKKapggm6roOiJGzWNLKyXAw6w3fiGknIKIV+Pw/dd5/tFVsnDoCT8jFd4fjp98KqaS7cLjeQECQUBcUEwymsptM7S4oZCoqqYeg6cd1EU1WyszTcbhNQyXVpXFxWQun5I8jNyUNXVT7YtZP67XXs2N1ENBrHMBTytCxUl4rLpdGpR4gZMVRVJTc7C5eiEI3FMA2FiA4oOoZpoipmQtAxUBQFMFCs/9SEvaaeEGtVBVVLCLhL6xJDBQVDM1A1FT2moxsGJiYqKtk5ueTmuclyZxGLmsT1OC7NjYKKoihEI1EUwOXSyMnJ4Ywz8hhcIDG604XmlhZeePFFJl55ZdcnrurrT/iX2giZo98LayoKmC5MJW4vvy1MM+ktJv7CMBLXFFQ0RSFLU3GrJoqhoKoKmubG0AzOKy3iS18eyYBBfg60fMSaN17jT2+s4azWILE2nRx3Hpo7i0PtbXz0yQE+ORzEVA0MFXSXStxQiEXjxI04JmAaEDcM217DTAhoTDdQjIS3C2AqJqYJhqkkbNJUNE1FcwGGgaknSqgqKrhMjBhgmqC4ME0TQzeJmFFiMQM9lshDUUysUIIJoCpkZ2t4PDlkZZ9mTf0FZ9mKFb3Gd4X+z2k/2kwzsdSHRPxUN007vqjHdTRNw+VKiJaJCaYCikKo4zDvbP4zZ5x5Jq7cgQzqDIOiU3ZhMeeeqRIOG7y/7SP2fdxBR0ynfudOYrGEt6q5E0t2XdeJx3XiRjzpoSY9ZcUREU4606qqoqoKKKbtYWsu0FQXCipgYpgmblXD5dKIRhLerq6bxOIGJEMMubluvPl5aJpKR3uUeEzHNEDTNMAkFovboQ/ThLgOBz8O0R6Bs4aefRJbRhC+uJw2wpoQo+TyOu26CfbmjakkxDPpuyWX5oCpE9cTYQK3koWJwd6PPuTlxcvZUruVAd48VM3kb/w+vlR0Bj7vABRXhLw8lY5OnU/bDxOJR/F4cxkw0Ec8qnMoeAjTNBJepZYUTAMURcUk4Z4qasJeTdNwu7KI6zF0PeFxqyioqoaqKhjxOEbcIK6CO8tNllvBNBV0w0RRNBTNhcutkJXtxuVKhAdi0TjRWBQjBprbZYu9Aok0DYO2UJhYLEZ+Z1yEVRBOEqeNsHZhYHmFztiqiZn0Xk3bM1WSGzimArphohsmhmlgmHE0l4ZpmDR/8jGHth5GUdzEolEGeHIp+pszKfAN4AxPPueeNYyOeCfeHI0zBmZzhj+fMwYVEG7roDMSwgBiMXApLnvpbhommPGEN6rpmIBLc5Gd7cYwFMy4hjv5PBoJ4TfcmKaCoqhkuzVUJRFWMAGy3WhaUjgBwlEMPY7LiJGtmsQ0iMcTm22WoKu6gmFEMQyTeDxOdjRykttJEL64nIbC2oUloqZp2rv/mApm8piSZnmDpgkYxA0TXTfR9TiqntiRz8txk+vNIhKD9nCM8Kcx2trbyc/J47y/GYo3y4Mry+SC886hrcODd5AHA41PtAiKMQAzNoBoZ5ycHDdnDByApkC0vQNVNcjOVsjKSsRQNUXF7VJBNzBMAw0NzETstTMaR48axGIG8TjoeleMVCURO9UUwFSIGzqYKnHdIKbrdMZ02jpjhDoj6CgYZnLiURPhhRgGqqrgks/YCcJJ47QRVstDTYlfYiZilkbSQyVxpCkejydioZqCpqlgmuiGQlw3MQ0VQ1HIy3UxdMggCobk4RvsYc9fmomEO1FMBbdLIytbxTQ76Ywepmion6+WnY2htqNmGbS1d6DHzsDtUvHk5WDGDVwq5OVkYepx4vEIobYIHZ0xojHoCEWJR2LocYNINE5nNOFFGoaJYirouhsjeXQrFoNoPE5cB1M37SNbKokJQzeTIYK4Siym4NYUVAUUTDriOrqeENLsLHciJGHo6Bjk5OScwtYThC8Wp42wQtfh/oSHaiSFFXvTSFVV+xypS1HQTHCrKnneHKLRGPGOOJoG2dkaw4v9fGVUgDOH5BLVoxSoJvFzC8jPy2bQGR7OgTS1KQAAIABJREFUOCOXfE8ug7xZ+AbmkeNVMMjF0A0YmIOmaujxCDHDRDENTOJEI+0oioucvBzcqkaWq5NYJIYny02oTac9bBCLghE3iccS3nNHJIahm2Rnaago6PHEddM0yMnWcKkuFBTiBsTjcWIm6LqJoYCmamRpoLkUVLdGnm4Qj8WIGzpa8iysaWjEDQW3K9P/O0FBEHqj3wur5Y1hKpiKgmIqmIqJljxwpahgKi4U08SlunGpJqpLJc+dRU4W5Oe5GTp0IG63RrYG+V43gwbkcubgbPLyXGRl68SiCr5zBuNyqeTnq2TnJA7V5+Yo5HkU9GiYSDiElqURi8WIdMbB0InriRhudq5GVraC261gmhE++rCNaKdJXp6bgsJscnJcaK6BdHbA4cPtfPpJJ4qhkZ2r0rj3MPv3h9HjJoYZR9FAA/Ky3Pjys1AUEz2e8GINIxuXohCJx4hEEsfJ9LibDl0nK2oSicaJRLRELBmTmKETNeJ0xuOYsdipbkpB+MLQ74VVIRFfVNTE56DcigaqRnaWijc7i5xsFdNIHFjKzdLIzVbIcrvIyXKT5VIYOCCbgjNz0FTI9eSSm6OSnauQk6Og6wZ6h060I4ZmGHiysxngzUbX4+iRCGgGHcEoumGSk6vgdrtRiZGX4yLaqaJHI3jz3biStegryMPUswkF22kNdXBwXzt6xMsZg7IZVJBLlhonW4EBuVkoeoy8fBec42FgrotINIaqgqFrtHdGyM1xE40YtIU6ycpR8brdRDsNQh0mqqKRmwOmodJp6BCNASrhaISOSBTQiJsmMT1OTIdIVEfLPoWNKAhfMPq9sLpdJtkuA5eiMDAvlwFZLrKzNDy5GrnZGoYJpqmS73EzMNdFdraKoZh0dMSJxcHUDUKhCC7VxK2pxFUVT24WGi6inTqxmEmeSyHPm0s8bnLoYAhUyMt2oWsqqgJx3aBd1zH1DvIH+ohEDQ59GsLQDTTVwOvNQlVUoqEIkc4YvoHZFAzOoTNssHVzCwcPwLBhPvI8GpHOKJGwQSik0/lhB5FonKwsjSH+XPJyNQ4Fo5iGhq7HicbiuDQNb76GicrHrYfZ2xwBTLx5KqqpEYmbtHUmPnmVoynEtMS1zngM9MRHYDVVQ1MkFCAIJ4t+L6yKaZKtucnSNDxZWXizXWTnuACdzqiJqrmIR3Wi0XYMI4uhOXkM9OQS6QiTrSnk5Si4NZWCMz3k5bpQVBM9YhAzY3SGY2Rlu8l2a3S064RDYXyDvAwY4CbbpRCJ66iaykCPRiSu0hHWaQt+CgqJz+1rbgwzC0N1E48bdHRGcLlcGAa0HGhPHNTPUug4FGV73cd0RnV00yDHlUWoM4aqmXhysyBucPgTE93r5nAwysCcLNwulViOSbg9TnaWSmc0wtACD0ML8tFUk3BnnAPNHeRlqwz0uohFTaK5KtltEAp34tY0DMNA1RQimoErq983tSB8buj3o609GiPUHiYvO4vcHBeuuIkRhahuEDdiZCkaWZoLUPnr/k4+/TRC4Zk5uFWTfG8OZ5yRzUBPLl5v10dE2zuidERUop0m0UgEYhoDB2YxwDeQuK7TejBEXpbGwDPyMBQIxSDYoaC4fJCnYCgapmIQDrfTuu8QoQ+ChELtGIBLVcnJNvGfNYCCswaRmzuAAaqHzsMKzR+GMUOHQAePEic/J4e2jjjZ+W46wiqffBwBBVxZKq0HOohG47jdLtraSRy3AsLtBqYeIdwZJxoz0BQwlcQnz4w4qIbB3wzOIxTp4IyBA4lGo0TjOrorx/76GkEQTiz9XliztSyMrBxUReVQe4R4TOFwOBH3LBiYi0tViMdj+Abk4XapmKaK6soiO8tEj+vsaTrEQG+IwT4P7lwVRVHp6DDYty+Iy21y9pBBxDwKu/Yepv1wjHxv3v9n792D27jufM/P6W4AJBp6i4D8iC1Bk5dlcO5M4gzpeUSzonZ3nFTIP8aZGjJV63hK1C3LTon0lC1XrJTX8VxLlbLkO7FvXUm1tlNX4m7inYrojb1ORG08mRmRcZ4mIsd2LEi2ZVuA3iKaBNCPs380ugXwoZchmbLPp0olAo0+ffoA+OKc3/md7yG5qIlTuocto3x6xS3EW1oY2fcL9v3rCG++/jZW0WVeVGA7NtjQbEjyRR2BzTWJCKn5AvcNOIjGnIUJirJMLD6HBS1J/upv/xOJxLX8euQ1Rva9iShWOFF0+cOh4zQ3NVMpT7B4YQxDj2JZZWJN0LLAZLzocN01CfLHTqILuOG6+Sye71BxoFy2WbQgwZlxh7feP0PLnBjXNcUpj8NJu0yk2cAzDE5fhvfHNE3MRGLK84V8nmQqRSGfn3IsmUphFYuhF2pQxuTXBvtX1fqonuv56a4307Wmo5DPz1iXdDqNmUiQO3Cg7rrnqkvtdc+HaZrnfW0ylSKVSpE/cmTKfl7nOmaaJunly6c9Vnv+hbRdKpXCTCTIjo7WlV/bptO95x83Zr2wNkcN9JhBzNApe5L3T4/juA4gGHcrxGNNxHSdiVMlHM/G0AVjpTKL58aZPzfKiTNjlEoxitYY0ag/2x+L6ixePAcp4Q9vnSD6TpSFc2MsXNCMKwR7Xz9N01xBxjTZ8T9+xC9/mWMsf4rFZhPXLkkR009x4+I4bx58j/bMUq5ZNJfnXz5ERHO5Zk6ERXGPzCeX8PPfHuA6rQkPk+xr73PmjZMcGP49ec/kmhsX4xmgL5nHe8fHOWk7iMgEC+fFmD+/iWsWxkk0zyNmRsgfHefIUYtridL66UWUKx5nrAlOnPY4XCgSi+qMuwLHhveOjXHgyBg3tJg06zrXXruI371xGL3JgKn78n1g2m+9lfV9fVO+TFu3bOHBb32LgZ07GRwcrDv23See4JGHHyabzfpltLezpreXO7/+9Tpx6V27lnw+z8CuXVOuuWrVKh7YsCF8LpVK8X88/TRfvu22utdu2rSJ4eFhdmzfDkD3175Ge1sbUBUOy8IqFsM6p5Ys4e+7u/mHr389LHd9fz+pZJJ8Pk+mtZWBXbvCOgX3/4277yaXy4XX7evvZ2jPHvYODZ2z/TKtrXR2dZHJZPi76hbc09Hd00NnVxfZ0VHS6TSDu3eH7Xqpx2p56umnufOOO+qEt/Ye2tra6Lv3XvL5vL+jQV8f//Ttb5PL5aZ8BiTw3AzX+bgw64XVbNYZL0qOnyriCX8mXwqdiCYo2zAxYRHRBIvmNGHGdFrmNrN4XhN2RfKrN44zXnJoWWBQOTqBofuJ9nPjzVx3TROJmMH1i+cSa9LQkZyyJHuzb3PdJ1NcGzP4H0+PIGUT77x/igf+/i+Yo5U4eqJIa8cnmdNUYc6CPyO6cAlH3z/Bis99DoMKi+ZFcCoudvF9rr9hMYlYlHzhNL954120qMaKG27k9Z8fJvfWu8S0CunlC3CjcxEJjaZEgqjuguvgaYKDhQkcexzHlaRScxmvRDhy2uL4yXGKEw4TJY+Tlktz1AHd4P1jFte2zOHE6TL7Dx3nE8mF5MfyHD42TsyMcF3q8rxH+Xw+FKJaBnfvpq29ve4L1tHRQbFYDEUV/C+/ZVl0dHQ09MsYXKujo4OBXbuwLIsd27axY9s2AB7dvHmK+KWWLKkrY83atWRfeYUHBgb846kU//zEE2RHR+vuYX1fH9+4556Lq9/q1axatYpsNktbVeynI5VK0d3TEwpfJpPhwY0bGRwcnPHYUPWeZjp2oT3pgN61a9m+bVvYVplMhkc3beLvvvpVoP4zkEqleHTTJoCPrbjOemHVPY14xCAyx0RIj0gkgtAkTbqGEdFp0g0M3Xecihv+8s/88RJHjhUZdzUMXSd/rIgeMYgbUSqVCsfGznDq9ASfW7EQc34MXRN4Msqb7xznpOOxqiXOv//764gJm7/580/x/H8U2bvvFb62+mbySN4/eoqfHTzIvMQcXv79EZYnF/LL3LskmuD2/+lmfv/7t1m4cA7HTxUpO5LWz3yCiYqOJgQnrRI9f/OnvPnOUY6fqvBq7jA3f1YgWkxkNEKl6HD4hMPv3ztGpWJjRKIcP36ST6VTvPXeEaxxSSQqMOMGugeGAWcsl3eOHwUBY6UJNCGYP28uR60SjuuhG01EovoVf+/2Dg3R3dNTN8xta2+vG0ZmWluRwONbttDd09PQL+Kq1asZHByko6ODdDpdJ4QXQiqVoq2tje3//b+Hz+XzeYb27GFVR0dYXnZ0NBS4yb1rgDW9vRTy+Sn3NrRnD0N79oTnzsSydJrs6GjYm8xmsyAEyWSSZCpFLpebciwYsufz+bpj1vg4qeo5F8Pk8Eg2m2XH9u3Tbk+ez+fZvn07a3p7lbDOVoQGTREDQ5PYFQcDjSZNJx6FaNRASEEsqhPTDJpiOq60iUcjCM8FLULM0NGli64bvlWpZqDrAkfq5N6xeD9voQlJaaLCmNFEeukNvJmf4LPLl7JiaQpnfJz58WYOnhjjh//2GqYOP/nlG1i25DNJlwrwh6NF5jQ3cbrs8YP/7zVu/fyfMPKbV2kym8mfOMER610sTadUrGAUysxdME762nm0/fFCjKhORZaJCo9iaZyJokvxVIloIoGu6VhWCcuRHHjnBLYNkSjEDMF4sUTUiOE4/iReImYgNN9Fy3Ylx06OVXNZfX9Wr2oWfrnItLaGf1vFIrlcjnw+T3Z0NOyJplIp2trbubO6kyr4vcrndu8mm82SXr6cTCZz0QI4HalUikwmwyMPP0wikaC7p6cudHAhLEun64Qp4ODBg3yls7Puua1btvi9wT17prx+ZHj4onuItSSmiQlblkWqGlcNQhm1x4J46HTxzunE8HwM/vCHrO/v57nBQYb37aNQKIS94uk4mMv54n4BseOPIrNeWHUM5jfFiAqXOeZc4s0amisRQqM5HqN4Zpx41HeOMiIOc+bEmbtgDiUrged6uJ6HYQjffcqQOGVJueJSqYAei+O4LuOWgzBjiKYIvz3yHnM++UmMZsFP9r/FWwePsjAeYY6h89YxCzMW5eS4wcmSx7tnzjCnKYLjjdOka5wp+0tJ33xpP+MTDhoT6IbgcPEMC+fNpThe4XjxJL9/7zjNifnMNQ9z003Xo81NcW06wb/9688pvF1iXiLOu6fGqNgeOJKWOSau5i+bdRyPcdf/kak4kkjEwGyOgNAw/BQBHKeMphsYrks04qddRY3L91YnTJNVq1aFj7PZbNgjGhkZCcMBmUymrudlmiZt7e3s2rkT8Htwbe3tDRHWTCbD0J49WJbF0J49U3rOF3RfM0xyTUc2m2VoaIi+/v4pAt6I+/mwGRgYIJvN0tnVRXdPD7lcjq2PPTbjZFiAEtZZyjXzdKKOQcJsQuoRrHEH6TicPGWx7AaDVNIkERMI4eG5URJNGk26w7xFcSrlsr89SbPfmxsbc3AiDmbVsV8KD8+N4cz3kBpEhENUa6Ywdpi/+l//Z274zG0cOnSCw394m5f/LcvrB4/x5vET2I5vQagLnQm7ahUYNYhGfSvCsu0iNcG4o2NbDkYkwulj4wg84vEIn/6jpXzhC3/KH61Ic+PyazESi/nO//5fefVXR/nkNfNZPFfH0edw8L0xJuwSWJKK46LrGoYAXdeIxmIYEd87wZGCStnGtm08NCoV3+Bbkx5S85OsSo5z2d6jomXx+Nat0x6rFbVVq1cztGdPeKy9vd2Pga5eDZztZQbx0A9Cd08Po6OjdUPszq6uaYfqM1Gc1BMMME1zSi8RYGDXLr77xBN0TurNXm5mynIoFoskU40LrGezWbLZrL+9d2cnj27ezDfuvnv6OlV7xecT3o8qs15YzViU5qiO4zk4rqDiVIg2x1m6cAHxiEPZlbjjOpGYzsIFGgvnRolFIpRLLoZuICUUx20MQ6DhIB0XTRck4lFKJQdpaGjSQ48I4jGYG01gHhnn33f9C8lPLaHgSayKzi1/82naY39GVNeplCYYH5vg3bcKHC2cwqlAuVTBMCQIj7kL5qAbJkKLMW9eDHNOjEULFxCLxpi3YC4nT5zml7/M8soPs5w4foY39x9BdwzmJgxOj1ewKg7vnyhilSWe61JxdDTNqFoCguvYaJEoxXEbhIbtVEDqRIwYOqA1aUhJNfzhIZBErnyIFfCHpbkDB+ju6SGTybD1scfCY6tWr2Zk375wuFrI50mn0xcUD50sGLXD2yBu+7uaMgZ372ZVdRLrQsmOjpJIJKaEJ9Lp9LQxSsuywpBAvoGCkj9ypO5+TdMkmUySy+X8kECyfj+zZDWDIWFZJCYN+2fqQQahhVohTCWTWJZFprXVD6Xcf3/42oGBAbq/9rUZwwqrOjrqYukfN2a9sF7bEiFuRHnrfQun7JKIJXjpNwe5dskCYlJj6Q1Jrlto8ObbJ3n77RKr/2IJZ85UiMUSlMslKraL4/nZ9XNNgznzYr6bVEzH8yQlW1I4I/nD4ZN88vo4C03B2JkJYkIynjvGW2+N8c7pMq++/DZNC+ciIhMkU1FuXHYNdpOF3lzm2OnTNDfFEFEXTRNY5QqVsROUihVOmzouJWzX4OQZj+PHbM6ctijZDp7t+8guMU0qosQtNy9j9I33ee9UCalDxIMlC+Zy/PQ4TQZEmwSxaNR39pIC3dOwPQ9N04hGYtgVG13TcF3fANzzHN+kxvOIcnmXtNbGWIG6fM+BXbt48Fvfqos/Br3TycPJZHUiJxhOJ5PJKfHb4X376O7uprunh6GhIRKJBOvXr2fwhz8E/LhtdnR0SgwwSGu60KG5ZVkM7NzJ+v5+Ht+6lXw+T2dnJzdnMqHITCYICXR2dYXPBTP+IyMjF3Rd8Nvn5kyGvUNDZLNZBNDZ2RmWHYhq8H93Tw+Du3fT2dUVxoULhcKUY8Vq/HsyI8PDrOnt5fGtWylaFp2dnUjOvo+pZJLunh5GhofD45Pjz8H71NbWRlt7+4xt9HFg1gvr6FvjxGWJ1PxmThUlubfzXDMvjjU2wWc+laRUPE7ejbPsWoNPLf0EdqWMEYly6ozFmZLEqQgqJYfrl0SIRHXKNhw/U6ZwyOX9Y+NYRYtx2+GUZfP28TE+k2ziM9dFWdaSoKK18MqB37B0ocnhExZ/eOs0JRdsx8OV74DUQK9aGQqXRDxKUyxKybYplyp4HtgeCAnBNoeeJzGiGotiUdpuWsrLv3uD1Z9Pc+NcgzPFEq+UKpiGjtQ1IrrOqTNFtEgENEGpIinb/k4BnuuC0PCEb2x9pmiBqO775Xn+klsBbnWPGuMyhQKKxSKFfJ7u7u6653ds3x5+gbPZLLkDB+rSmtra2hjYuXPKUHFw924ymQzgzy5nMpm6snO5HDu2b+eBDRvo7ulh06ZNFC2LkX37GBgY8JPVTZPt1ZSqWgZ27iSVSoXCmsvlpkzuFIvFup7W4OAglmWxpreXhGmSy+V44P77w3pPJ1QDu3aRTqfDsoMZ+nMJ6+TeXSaToa29PWyzBzZsYH1fXyicjzz8cPja4FhHRwf5fL5O0M51rJatW7bQ3d3N+v5+EqbJ6Oho3X0G7T35eNAGwWcgGKHUnvtxRLz++uvy/C+byo9ffJEfv/hio+szheNvvsY1TS7JhQk8VxKNGySiMd569wSfvGE+hi75xA0LKBw5w9xEhOa4Tva10wgRYeHcKIuSUQ4fHqcpquMZ8OvfHcEqg+t4vDtWxJMu8WgEsykCwmVBQnCdqfO//KdrSSxcwO9ee4cFc+K88naBn/z6KGMliQ24wsV1QAP+tPXT/OaNg5RKFQAMXWeuGWO8XKZl/lwWLV5E+dQp/uoLf8TL+w+z/8D7ZG5YwNq/vZXfv36EGxdHOHP8DL/a/z77CyUqwsAT4HkeaDqO5+/o6jgOmg54mr8dtiZA85/3XIkr/d6rQPgGMZEIUvox1vkLFvKpFTdf9vdLofgosHDhQh781rcu+fxZ32PtWpnGcCZwSg7x5mY0zeXEcYubbljIu4UisahAyjPYbgWpaRw9NkE0EufU6TGWXd/EwfdOcOK4JBpzEQJaP7OIiYrNu++Oo0WbAQMX33m/4giOjUnee3+CedExlqUqfPaGJJ5d4ra/bKX1Jot3Txv86vW3ef3AOzgVlz/+zHK++MU/5eBbb3OiooEr+fM/+TTp669n6N9+zl/e9Bk8o0QqvZgbr5nP4XdOcDAq+Is/+QzWWIkmr8Jbr5/gyEmHomMQizfTjEHJ9Q2rpRR4nsT1PJoiBo50EFENzxFVsbURQqAbGkgNz/MzIaSUSNvB0IW/BWO4JbdCobjczHphdSsTxDWP/QdPUqocZWwCUotMrlkoWbZsPovnaZjN8OoBj3/5yR/4bDqJrhUxDIP3CmPEYzE++SdzQNrY0qVU8jh5eJzTpRIiYlByPMoVsEoepVIZKV2iSPIO7Nn7GgviMTpu+gRp2+CPki18+hqNP878OXMXpQDBm28cYHFqPvd87TZsz2bp0mUUjhZYOHcObX/2af7wu9dZsjgFE+P83y/9ltNFjaaITlNzlO/+Xz8jokdYNCfOyYkSdkVDaAaa7uJPOQm86q4Jmu7vY2VgMFFxsB0XryqYuqb5u71WXxsx/C21HcdBauB5/maKCoXiyjDrhVXTNQxdo1hy+dQnFmCaUd7NW0yMC8YmxtFEhErFYPGiCKtuXUKlojMv0YzZHPHzOl0onplAanB6zOW1t06QO1HixNg4nicolyoIXSMWMTA0Aeg4jsvPX3+Pkq0hxm3eK0t2/8sr3HxNnL9ZeTP/577fEo9F0QzJ9Z+4nlhTHF1zWLS4hSbDo3A4j7O4wo/+n3/lhvR1vPbmBKnkIn75+lEiumBuVPDTl1+lWJFcsyjOOyctxssukYiBpjm4tsDQ/IT+imODpoOU2LYN0t/jy5XgCRkufHAcFw/Pj7E6LkJ4OJ6DV5F+aEAqYVUorhSzXlhf/t1xWqKSomWz/9AJYsLj1LhkUULn2iUJdBEhPqeJ8XKJeYm5NDVJpOOCZqAZUJKSU6fGKLtNHHx/nFNjDmNjFSQQ1QVNc6J4nlsdKgtcD1xdo1Rx8KTA1gxe/HUOPLju+k+w82dvsu+1I2gaNEXgpiPHOHgoz3/85g3+6Np5fOZTn+T5f/0FS2+8lr+89Y8ZeulXtCxazPDQyzRFBBHd4PrkIg6+k8cRBoeOncHzINEcQwjNH9a7Esfzqtt1CzzbQQiBIyWu6wISz/XwECA8pOdBNRzg71zroesGUS2C6/i70SoUiivHrBdWQ4/QFHX51A0mkVgTC+ebNEU1rLLNyZNFfj6aZ47ZjNQl6AZSaOhC4+iJPE3xGJZVQgd0rcw8M8qciAlSkh8bw/UcbFvioeG5nr8loQCJQDMMhOtxouziehqe4/D0z/b7OxboEseDCVtgR+ey51dvIJAsufYGXnjpV5SkxhtvHeX13DHmzYlgHzuG7elEdd90+7XDBcqewHYq6EaM5qhRjZVWk009ge26CN1PpwJwHRcPqDgVNCHQNIOIpvvnaRq6roPwwl1svepW4AR7g12mUMBMNnu1zGS5V1vGdHZ0tUy2tbsQ+z+Yaud3Oe3/grIn2/PNZMkXPDfdNQKrP+CcFn2196yYPcx6Yb1hSTOLYi4aHmfKGq8eyBOPN2NZFnObY7S0JBARjfeOFTl+xuboiWMsTpjMnxNBOC5LFszh9BmLWFTn9JkxHM/fmmWhmMvJsXHKnuPv+or0Y5VCwyXoGQpsCbYncRHV1CnpGxggsSX88g/vIiV4UvLc8Ci60HxTamkjhMYJy+PUhINje0y4AseyQRNEdJ1EcxxNaH7uqeeBrKBpkeruswLHdvGEROgaaOA5Dk1G1F/773p4btUDAaq5rTL8W2jC345FgF9l7bK8P+233lpns1fL+Sz3wM8t7ezspFi170v29U1J1TFNk+8+8QSDu3eH516I/V+tteD56hLU4567757ROm8mgrKDFVmpVIqhoSEGdu2a2c5w82a2PvYY2WyWTZs3s2vnzvAaQV3ygfDWtMm5bBo/CktnPyrMemEtnikRadKYsCF/6gzxOQkKx0u4SI6MjXPitIUrYX5zhLnxZpakr0G4LkK4CCEoHBtDjwqEI33R8iQTExXscgVNev4gWROAgSMlnuPiuB6OdEH6mxRGhYYwDFzpISVIT+JJ15+tl/7svCv92XdH+Jsf+jmlEomLEH4WawyNRDyC2RTHs220iO6bZbsuEV1H6DGschlNE3j4vpZIiZQSIfwdYT3poaGh6RoQDP39RQBSymr+qkBD4Lhn9wzwX3VlWd/ff07LvVQq5fuw1viAruntnbLevr29HatYpLOzMxTCi7X/e3TTJob27Dmn/Z+ZSEy71v98fKWzk/yRI+Gy3tqyLzaXM9Paylc6O9lQ8+MyuU1msmlUzB4uTzemkegR3j1pkz14hv25Y/zi90d443CB02ccIgKWJueQWdrCkvkxlrQ049iWn24kIkxUt3CxihVOj5cYK3uMTdjYnqQpGmVePMa8eBOJWARcz9+1FT8UoOsRPOkn2Idi6vpxWAkI3UDoOoahYxgCXdOI6AYxTSem68R0g6imY0aixHWd+aaJGY2hawbWxATjnsOEbeNKyYRdoeQ4FCfK2I70J6Kkhyc9pKaBC07FxnX99CuEhuu6CDw06VdQE8L/p+t+WEDzRRcp0TRR7YFfOYKVVbWrn2ot98AXpMluUM9NYzO3avVqdu3aRS6XCxcPXAzpdJpkKsVAVVRr69LW3h4+lztwgFQqNeNa/77+/mmPTTZrCRL4L8XvIFg1dr42UcxuZr2w/uFIkbcKp9D0CsuvW0B6YTM33bCYlgUx5jTrSGCiUiYai3L0mMV4yXfXn6i4TJQn0CMaenOM5qgOwu/5ORUX6fmz6xGhE8VgXrwZM+ZvmR2J6ugCdA18XZM4SIQEXBdDCDTp90KlJ/2erRAIKdE1/29DM4hFouiajhAapVKZ8UqFieo/z4WJskO5InFWW6TKAAAgAElEQVTRmKi4oOm4rp9T69iOH/D1/HipbujEmmIg/dVbQmh4nv8zID0P13XxqpNbruMgXQ/DMBCahmO7Yez1SnEuy71Udd17evnyKcfz+fyUnQGSySR7h4YYGRk5p2/pTASepZM5ePAg6XQ6fBys9e/u6SE5af09+IYy0w23B3fvDofowbLOWoevi63r5GtMbpOEadKxenX4b/JyYsWHz6wPBaTmNVGihONKpBScniihVxyQEIv6CfFWqYL0QDeiGAiamqNUHJtoU4RSqYTQopy2XSK6gSddHDwc2+/5VZwKUtfRPQ8zYhCPGOiRKEVrgnLUANdDulVRivrDa93QEUDFdnA8D01olG2bSMSgKRrF9Rxcz8O2bV8bpb9yStM0pOehGwYVx4/tSlGNREj8ugrwJOiajuu5GGhohr8dtsTDQyIdB4RE0/zYa3XV6tmwgSaQnodddbnSDf2yxVhn4mIs985Fd09POHkztGcP3d3dl2T/N50b1XRciv1fLpfjG3ffTXdPD319fUj8Za3n25blg3DzzWdX0UmVSjfrmPXCeuykhSy72K5ECA+hx5DSw3FcJmyXqAZInWjMwHVsmhMmpdIEZiLORLmMh0Gl5DBhu3huGSnBiBiU7QqOBCldYrqGbfgrnBzPwylZfrxSSgxNx4jpSPwE/YrrInTwbBdHaOhC4roOuiaJN0XQpEQ3dCouCC2CU02V0oRvQu26spr8VO3lagIppX/MriClQNM0bNdfIiAj4Lo2CIFtVxDS91fVdR1N03Fdvzfr2R4CvyyBwK3mtPozVwJxhVdenctyL2AmsaudMc9kMvX2f0Jc9BYuM9nnzeTMdCn2f/l8nq1btgD+Lgl9/f0Upumxnw+rWJziSAX1bXIum0bF7GDWhwI8YXB6vMy443KyaHHiVJGjZyY4U3bwgNMlB9t1cQARMThTqlAsO7yTP8n7JyZ47+QE758oMl5yKHuSccehWCpTcSWapuO4cGa8zETJZXzcpjLh0BSLoGlgGAaaplXX34NtV7Btm/HxEmXHwfZcjEiEWCyGoRlUbJey4w/lPdcflmuaTtQw0KppT7puIKU/THc9F891cV0H8NA0PezhCnzPAVn1CbClhyMlFc/Bxk/+l64vlo7toAnhx1bxvQN820AdIfze65Ve0FpruVdLJpMJh8jTxUzT6TRPPf20/9oa+79CPk8hn2dkeLguLnqhdQlCCrW0tbdP64JfGxK4ELf9f37iibr7GBke9u+tZog+uZzpQg3gt8nk+8u0toZ7SCmuDma9sJ4oTjDuSGxXICJRMHSMiI4UfhqUYehIqVOcsClOOBw9XeREsYRVcik5HhOOAzrY0hdWVwqsSgXblVgTJZAamjCI6Rq68IhFdexKBUOPINEo2jZHrSLHrCJnymU/c0CC43pogOM6OJ5LJBqpJurDeLmM49rhaijHc0HghwccD4lOxSljGBq6ITCiOi4SI+Lv4xWNGAghqHgeE7btT5rZkpgeRUjQhYZAq8ZjnWqsFSqugycAXcMTYHseFU9SkTJ017pcZFpb6/7VWu5lWltJVjMAllV3CgU/Nhns95RMpUgvX876vr46+7+R4WGGhobCf9u3bQu3cLlQgro8unlzXV2SyeSMebNBSKA2BtvR0THtdQPLvaDsTGur7yk7OhpuT9PX3x9Ooq3p7fWfnyFeW9smmdZW+vr62FtjED5de1/KdiuKy8esDwVI6Tv0l8olYlE/zUjXNWJGhPGJEhOlClIYaEDFruB4+GlRmk5Ek+jSw9Z1f0JHBDPjAtdzEAKoDuXLjt9TtEolYrEmnPEJyrYLmoam+clKnufhSRuvOtPuuR6GMHAcB9u20TQN1/H7hprQ/EUL4K/pd110I4KU/kQTwn+N67kwqVfpOI4fL9X8unry7NJVqpNQEolEgARXUJ288sMBgmr+qufhSb9s9zKFAmayDXxgdDS03Ovu7iaVSk2xorMsK7Sje3DjRoA6+79kMhlu2xIQiOSF2P/VTh4NDAxQKBRC+7/JdSnk8+QmidNk+79kdQ+nyYI4sGtX2AapVMoPC1RzVAEe37q1znJveHi4znk/d+BAeI3aNgksEWu3rL4Qm0bFh8+stw3Mv/kGFcvCdm0cxxcfx3GI6BE8JBO2b0gS0w0/sR8P6Xr+CqrqpFE0FkETfgxVevhDcOnnfeoRA02C1AROxUaPGH7PE3+9vuM6VBUtPAekbzjtun5KluthVM/z5U7Dce3qzL2HFITr9Q3Nn/iypYsmQdf8ZaxS+vXShIYjPT8cIDSkJ9F1rZqB4PlpCvivlZ5vDegh/Rkv/B8HpMTDzx7wn5UsXLiIz9/y+cv+fikUHwU+8raBVrnMxMQEruOEK6CEhAm7XHV38mfCJzwbqvPmAtANHRDoOti2jZQSQzP82KXmJ9cLIbBdhwnPQUPQHI3heR6GHsFxXWzXDst3HQfN0MMJonKl7AtfddWV47o4ri+MmvDC5ameV52lRyI8ieP5aVRSh+pOK3hC4HoufvKBv/bfF1tfGB3XwxD47lVVYZfVSSnH8+0Qg3oFoupWj3vV8IQrr3SUVaH4+DLrhbXieFQ8QNPRDYFdqeA5Hmj+LL2UvuGIEBLQMYQvtkHqkef56/6REs0DYfgZAQhB2baR0iNmRNGrrlCO51HBd9u3JUjpEdEjfhnVnFE0gS1ddE0L80wd20PoGhKJ7bgYhlF1+QekP3QXmj9M901fBE2xGBW7jFvdfJBq2oyovp6qkAaT+7Ynq0N8iSbw46kSPPxguVtN/fKkRAYnVSugiQ9p0yuF4mPIrBfWwLjZcx3cas/Q0AxfpDRR7Z966MLAdm10XScS0bEdN5wZ14WG49hgGIxXSpRsB10IdKERjTSD62FLLxyS4+f8hz1HPA+qAudKiXS8qsO/n4saMSIYnkRKD03ouAJszyGiaX76lBBIIXCkv2UKaAg8SnYZEOiA4/nLZf2Bvi+qbvX6QhO+n6oQVKTnewAQ5MdK37PVc30JFVURl8KfYPNdZfDklV15pVB8nJn9wqpJSq6NwE+kj8diSLTqZJKfVuTi4dglP19UCioVF6263FR6HqVKCV3XGStNAJKYEcHQdD9u6zq+mFWH3bqm4biuPxMfxGmrPVWnOqT2h+S+iApN4DgOuqHjuiCk6yfjV8sTwjdACRz8bduulusvg/VEtXwhwl6n1ARRXUfii63rSqhuu6LjbyToaRqOJ6G6GEDXNDwkFdfxJ6+k/1wQQNfErE8AUSg+Msz6b1tUN2jSDZoMA08KKo5bFzuMRAz8WGp1dVFVzfwkexvLLmMLge1KYppBPBpHk/4sui70qoCKUPxKju2vZa0O63XNT4VyNb/np1fTnTTNX5OvCT/P1XX9iSupaTieiyNdKo4Tip2Lv72Kp+s4Vb8BV7q+WxYg3bNpWZrQsF1ZHeb7q7NcwJHgoSGFv7MA1WW0QdhDujLICUAIjcAykOqPg0KhuDLMemF1XJeKZ+NUh+Oy6qTvOzlpZ42fq1Z5Er8HO1Euo0lIRGM0G1F/Fl1o/lLSoPBA1KTEcZzQQcpxnKrJSXXSSYhqjzlYb1+d0KoaZGuaFvoQSOn6PWKh+UN2rzrp5PlBiwgaMc2Pd4rgBwJZXUlVNU4RfmwX8DMWZFD2WWtA36Og2sOVhOVQXTorqiGBoLyzdVcoFJebWR8KkAhcBzx8Zydd17Bd37LP0AW6piOr1n12ycEwdDzhe1BperX36FWqf1fjoJqG6/iroqT0J8j8SR9/Bl5ovu9fkLuqVR2uNF0D3e/BekIL45cV10XzfI9VV/oeARI/BOB6En+HaoGm6VRc16+z8M7O3AemqQBCo1yxMXTDj+f6O15Vt13hbB5rTS9UiuokVc32137b+X4CuqZVPWQVCsWVYNYL61i5wlilQjC/jU24/j2Yj9Gq2aMSiXD9GX0pJZT92Gx18tw/h9D4D1w7zPMMtMlX0+ofQoS9Vr97yNk0KBEOtEMmqmv6kYRnBUWGfV0hsKlUb0Ewk4FGxbHxq+xPzp3PaMNvAT/XthZ/dVawbFahUFwJZr2wyurwH6iPEtYIjVdzdHIsMXR+qjlnmtKq7lB1j6aNTYYCJ2uvJfwcqSnXmPq/qKn6hbgSyerw/kI4V3nKAUmhuHKo8WFDaIz4zVS0QqG4ulDCqlAoFA1GCatCoVA0GCWsCoVC0WCUsCoUCkWDUcKqUCgUDUYJq0KhUDQYJawKhULRYJSwKhQKRYNRwqpQKBQNRgmrQqFQNBglrAqFQtFgZr0Jy4rPfhbbUc5MHxTDmPVvtULxkWHWf9vmzp37YVdBoVAoLgoVClAoFIoGo4RVoVAoGowSVoVCoWgwSlgVCoWiwShhVSgUigajhFWhUCgajBJWhUKhaDBKWBUKhaLBKGFVKBSKBqOEVaFQKBqMElaFQqFoMEpYFQqFosEoYVUoFIoGo4RVoVAoGowSVoVCoWgwSlgVCoWiwShhVSgUigajhFWhUCgajBJWhUKhaDBKWBUKhaLBKGFVKBSKBqOEVaFQKBqMElaFQqFoMEpYFQqFosEoYVUoFIoGo4RVoVAoGowSVoVCoWgwSlgVCoWiwShhVSgUigajhFWhUCgajBJWhUKhaDBKWBUKhaLBKGFVKBSKBqOEVaFQKBqMElaFQqFoMEpYFQqFosEoYVUoFIoGo4RVoVAoGozxYVfgaiGZTJJqaQEgf/QohULhQ66RQqGYrVw1wtr5pS9hxuPkDh1i5Be/qDvWffvtAAy99BKFo0cv+Rptt9xC3913M/TTn7LjmWfC5x996CEyK1bUvfaBhx4iu3//JV/rg9RHoVDMbq4eYb3tNpLJJJZlcc9999X1GLu/+lUAsvv3X7Cwrlq5ko6VK8kdOhSKViqZxIzHabvllvC5zi99KRTVoZde8l/X0oJVLDbs3maqT3rpUsx4nMxNNzX0WgqF4vJy1QhrgGma9N11Fw889NAHKifV0jKlFzr4/PPkDh4kd+hQ+FzbLbcAMPTTn/L4f/tvH+iaF1ufgWefJbt/f119FArF7OeqE1aAzIoVZFasOOdQPL1sGau++EXSS5cCfm9zb7XH2bFyJW1f+IL/uqVLWb9uHQM/+AGpZJJVK1fSZlnseOYZ1q9bRyqZDMtbv24dO55+ms4vf5lkSwsjL78chiVSySRfue22aa833fHcoUMMvvAChUKB7q9+NRTwoD47nn6azIoVtH3hC6QPHmTwhRcA/4el80tfIn3jjZimSf7oUQaefTbswbfdcgttX/gC2f37EdXHpmky8otfMPj88w1pf4VCcW6uOmHNHToUis83/vEfscbHp7wmvWwZjz70EGY8Hj6XWbGCjpUreeChh1i2dGk4EQXQetNN7G1pIdXSQsfKleQLBXY88wytN91Esvq6VEsLiXgc0zTJ3HQTmRUrKBQKjPziF6SSSf75O9+Zcr3MihU8/uSTdccLhYJfRlU0v/GP/0iqeu3a+pimSXrpUjpWriTb0hIK66MPPRSKM0AGaL/lFh546KGwbTpWrqT9C1+YUp+iZdWJvUKhuDxcdelWIy+/THb/flItLXR+6UvTvmb9XXdhxuMM/fSnfPn22/mHu+7CGh8ns2IFq1auZMczz4S9t9yhQ9y5bh3ZV1+dUs6d69aFveLB55/nznXrpo3hdt9++7TX61i5kvSNN7Lqi1/EKhYZeukl7ly3jjvXrcMaHyfV0kJ62TK2PvnklPpMd52OlStJL11KvlDgzrvu4su3387g889jmiZr7rij7rXFYjF8TXAPk0MNCoXi8nDVCSvA408+CfgTS8nqUD0g6OkBPFcVq/zRowz99KfA5RGXIKwQ9AbzR48y8IMfMPCDH1AcH2fg2We5c906nnv+eb83WR32A2GP+GKuUztJF9xjZsWKuh5q4ejR8DWBsKYu4loKheLSuepCAXBWuLq/+lX67rqr7liiRlxyb70V/m1ZFnB5xKVW0AJq45mpZJL1d91FZsUKLMvCsqxpz7nQ69T2Zos1oRDTNC+6TIVC0Xiuyh4rEE78nKsHWtsbDEQnENhGEsR5a4UtmUyGvenu228ns2IFIy+/zJ133eUP9S9hgUF4nRpRTtX02C/HvSkUiovnqhVWy7LY/r3vTXk+f/RomJ4UxGBTySTt1WH0cHUWfzqRulRyBw8CZ8MMqWSS737nOzz15JNkaibA8oWCH1tNJjETiWnLOld9giF9x1//dSjaQTZBULZCofjwuSpDAQHBRNbkXuuOZ57h0YceovNLX6Ljr/8a8AUrXyiEcdBAfNPLlvH9732PrU88ccn12PG97017vez+/WRffTWsY+eXv0xmxQpSqdQUAQ3CFkF9Htm8ecp1hl56iVXVCazvfuc7WMViKLBqZZZCMXvQ77nnnkvKtD/w5pscePPNRtdnRjI338zJU6f43auv1iXM/27/ftJLl1I4epSRl1/m5OnTFI4eZe9LL5FKJknE49iVCoPPP8/jTz6JbdvA2TilaZoIKfnZvn0gBAvmzyf31lthfmp66VJs26677uTnTp46xb/9x39Mud6OZ57Btu0w48A0TRKmyf/7k5+QO3QI27Y5eOgQuUOHOPzuu5imSTQaRUjJ3pdeIhqNYpomuUOH+PVvf4tt2/xs3z4WzptHJBolGomQffVVnty+nV+/8gpQXT1Wc85MzykUiplpbm7mr774xUs+X7z++uvyUk788Ysv8uMXX7zkCysUCsVsZeHChTz4rW9d8vlXbYxVoVAoZitKWBUKhaLBKGFVKBSKBqOEVaFQKBqMElaFQqFoMEpYFQqFosEoYVUoFIoGo4RVoVAoGowSVoVCoWgwSlgVCoWiwShhVSgUigajhFWhUCgajBJWhUKhaDBKWBUKhaLBKGFVKBSKBqOEVaFQKBqMElaFQqFoMEpYFQqFosF85IW1s6sr3HBPcXno6OggnU5/2NUIuRz1qd3a/EqQTqdZ09tLZ2fnOV+XSqXO+xrFleeqF9annnmGH73wwrT/wBfWVCr1IdfyytLW3n5Zf0xSqRSZ1tbw8arVq1k2i4S1EfWZ3Ibff/ZZMpnMB63aBfPgxo0gJfl8ftq6BUKfTKX4SlfXFauX4sK46oX1zjvu4Mu33caXb7tt2scfRzq7uuqEr9FkWlvp7u6+bOXPBia34d/dfjvZbPaKXDuVSpFMpdixYwcjIyNTjveuXTurRgiKqVw1219fCN09PQzu3o1lWeFznV1dFPJ57rjzTjq7uliwYEH4BTFNkzu+/nXuvuce2trbyY6O1p0LkF6+nP/t618nnU7Td++9U16XaW2lr7+fzq4uPv3pT5PNZsMdHkeGh8Ptth/cuJHDhw/zV1/8Ip/73Ofo/trX6Ozq4vrrr+fdw4d58FvfqisjOK+zq4t1d98dbsV7MJcD4NHNm7GKRdbdcw+dXV2cPHGCw4cP8+jmzaTTaa7/xCfq7jXANE1u/+pXw3uxikUOHz4MwPr+fsx4nN7//J+ntFVte/7t7beTSqX43Oc/z96hITpWr8ayrLp7+vWvflX3vgTXK+TzFAqFKe9dKpWir7+fO+68k2XLlpGr3ufDjzwypR1PnjxJoVAIy13V0UGlUgnbpmP1anK5HAdzOdb391PI5zl58iQAa3p7iUajHD58mFQqxZq1a+ldu5a29nYO5nKcPHmS9f39tLa21rXhunvuCcuZ/Lm52Dacrl2C9za9fDn33X8/CxYsINPaimVZYdmmafLwI4+QTqdJL19OpVLBsiza2tsRQnD/hg119wF+SOG+DRum/WwpZuaDbn991fdYL4RVHR1sfewxdmzbRmdXV/hr33fvvSAlG+67j5F9+3h08+YpsTTTNOno6CB/5Agb7ruP7Cuv8OjmzYAvBg8++CADO3fywP33I4Sgu6fHH75JGX5hMq2tLEunyeVypNNpVnV0sGPbNh7fsoX29nb+y6ZNDOzcyeNbtpBevpyOjg7AjxV+pbOTx7dsYce2bfSuXRsORzOZDJlMhq2PPcbePXvo6+/HNE22PvYY+XyevXv2MLh795S26Lv3Xsx4nA333cfg7t303XtvWGZrayudXV1h3Tq7uqYMf4f27OG53bvJ5XJsfeyxujYO7qFj9erwvDW9vaTT6fB6D27cOG288tFNm8gdOMCG++6jkM/T19/v/3hJGb5f6XSaZek02WyW7p6esNzHt2ypa5taWltb666XXr48fPzNjRspHDnCPevW+e//pk2YpsnAzp1T2rC2nNrPzUxtuPWxx8I2nK53WdsuO7Zto6enh7a2NnIHDrBj2zYAtj72GNnR0fAcy7LY+thjFAoFBnbtYmR4OPwcJlta2HDffeQOHOCbGzeGzz+6eXP4vggh6FRhgyvCx0JYd2zfTqFQIJvNYlkWy9Jp0uk0mZtvZseOHRQKBQYHBxFCTBuPzefz7N271/9ADwyQSCRIp9Pk83nuuftucrkcZiIRCidANpsNBbKtra3uC7J3aIhcLkculyObzTIyPEw2myWXyzEyPBzGB7/S1cXjW7aErx3asycUa4DBwcGw7mYigWmaFAoFLMuiaFlTet+pVIq2tjYGBgYoFAqMDA8ztGcPq6r1DNoquF4ulyM5qT0sy8IaHweo63kO7NpVdw+ZqhB1dnWxfdu28Hq5XK7uHsCPGUoI6zU4OEimtZVkMsnIyEhYv0xra9iOg7t3s3XLFhCComVNW9fz8cjDDzMwMICZSDA8MnJBbZhOp2lraws/NzO1YaFQIJfLkc/np8R7J7dLLpdjcHAwFL2gXYN61BIcs4rF8Fg+nw/r89zgYPgZDkZXwfsyuHu3mui6QhgfdgU+LMxEAjOR4Kmnnz77pJQkU6lwGDoTlmWFvZcg3jU6OlonysGH2DRN2tvbfRE4R3nTkU6n6evvr3tuuNpLuRSSqRT5fL7uegcPHmTVqlWXXOa5SCQSAGyq9vAnP1/7ODHpvShUJ22G9uzhqaefZsf27WFPPzjnmxs3YhWL5PP5S4o5tt96K52dneRyOYrF4gWdYyYSUyaUztWG0723wf3X/jDlcjm+0mDRS6fTZFpb69p1ps+aorF8bIXVKhaxikXu/PrXL/rcQFSDmeOgjI7Vq8MvmFXtRXX39CDhkiY+LMti65YtDZs0KeTzJCYNw5PJ5GX7sgVidc/dd5/3Gvl8nm/cffe0x4JermmaYVus7+/3h+qDgwCkliyZsWxzkpCD/x6u6e3lzjvuCAWuY/Xq896TVSx+4DYM2sU0zfC8VDIZ/pg0imKxyPC+fTy+dWtDy1Wcn49FKGA6crmcP+HS0wOc/aJNF/9LmGaYetPZ1UWxWCSbzZJIJPz4VjKJaZq0tbXVnTcyMkJnV1cYC7tYBnfvZk1vb921LyTlZ7ovP/jiFYg9+KGBjo6OS+oFTydWU+phWWRHR+vauLunZ0obD+/bV5ePmUqlWN/XFx7fu3cvff397B0aOntSdXQBfoggNUN6We7AgbDN0suXT3ldMMoI6hjWvVicNiwUhEg+SBvO1C5Dtfd3Hi6k/UeGh2mvSRvLtLaqUMAV4iMlrNP94uePHJnyOOglPLBhA5lMhu8/+yxPPfMMhUnD5Fp6167lRy+8QHdPD//07W8D/jB1ZGSEp555hqeeeYZ8Pl8nGkN79mBZVp0gTI7bTX5s1TwO4pbfffJJnnr6aX9yoxqmmHyvtY+zo6OsWbu2TpwCHt+6Nbznf37iCQZ37w7rN7mtZmqP4X37SJgm33/22WlfV3tPj2/dSiKR4EcvvMB3n3gCpJxSpmVZPHD//axavZrvP/ssj27aFM7wB9cLYswBO7Zvp7293X9PurvJHTgQCmFtfQZ27Qpft2bNmjAUYlkWO7Zto6+/n+8/+yxmPE4ulwuH6UNDQ3R2dYVtWNs2jWjDoF2Cz15tGcF5MzH4wx/y4MaNdHZ1YRWLM34WstksW7duZdPmzXz/2WdZs2bNFUsZ+7gjXn/9dXkpJ/74xRf58YsvNro+s45Mayvr+/r4h0sIGaRSKf7Lpk2XdK5CofjwCFImL5WPbYz1ctPZ1cWqVasY2LXrw66KQqG4wnykQgGXg9q8wotlcHCwPi6oUCg+Fqge63mwLGvaZYXnY7rkfIVC8fFA9VgVCoWiwShhPQezwXKwNsugtj4z1e1KWvhdScu6812rs6uL9f39DX2/guXHCsXFooT1HHxQy0HTNC8o6fxcPPXMM2EeZm19ZqrblbTwu5KWdee6VuCp8LuaZcOXSsfq1eGPWa1vg0JxMShhvYwkEolpc0kvhjvvuEPlHp6HTGsre4eGGBoamtY562JY39d3xU2tFR89rvrJq0wmw6rVqynk83SsXk0+nw8dgDKZjG/rZllkWlt54P77fau43l7Sy5eTO3AgNMKA6oqfqkvU5NVSj27eHJY7+fF0ZQaWdNOdC7793cCuXeRyufC6D9x/f3hPbe3t7Ni+nTVr14ZuUhdKOp2mo+rUNTI8XJfy1d3TE7bT4A9/OO3E3KObN5MdHaVj9Wo23HcflmXR2dU1pX2nu+6atWsxTdPPpti+PUyOD65bLBbrkuFr225y2Z1dXeFQPDtDb3RNby9t7e0Ui0XS6TSPfPvboclJUN+hPXvC663p7Q0/D4O7d4fvc3r5ctb09gK+e1Xt5GNtm9XWL9PaGq4km9zOio83V32PNbVkCR0dHWRHR3nk4YfJHTgQGpeklizxHYOkZEdV7Grt6bKjo3VWgY9u2kTuzTd55OGHsYrFunjd5KWktY9ry8wdOMCjmzeTy+Xq7N8mC5FlWVMsAIPHHdUfCphqe3chZDKZ0Pqvo6MjFKdaq70d27bRd++908YkM5kMZjwe1rt37drQanBk3z6++8QTU+qUSqX8H4udO/32s6xQqAKLvHvWrZti8ffNjRvPvh81lozp5cvp7ukJ72OycUvAwK5dZEdHGRkeZv+dEsgAAB0YSURBVHu1vXvXriWVTIb3WXu99PLlrOroYHD37jqxzh04ENogDuzcGR7LtLaGlpG5Awforf5YBstuA0u+tvZ2tVxUEXLVCytQZ402sGtXaDkH/vr4gYEBcrkcmUwmfBzY0xXyedra20Obu1obwQsZVra1t1O0rLDMgYGBsHdUa/82pc7ZbGift2r16jpLwMBz9FIZHBwM17QPDg7SXi23o6ODgV27Qqu6YC35TGVks1lSqZQvRDUWhflCYcoOBZlMJrRBDOzrgrIHdu1i65YtmInEtBZ/ZiIRlv141QVs1apVDO/bF76vM62jD5anWpZFoVDANE1WdXSwq+Y+B3fvrvMhDbxMZ7Lkq3UAy46OhpaR2Ww2jF939/Swd2gorN9zg4NT7BAVH1+u+lDAZIIv2HQTO4FtXi3Ba4UQFzXcDkgkEliTLOeCIeFMvSzw17+vWbMmNHF55OGHeerpp3lucNAfSl9CXaYjsDg0TZNktVdZy/muEwjgZOu/ySw7h0VdEOqYzuLvn779bdb09vKjF14gm80ysHMn4LfddPs9nY/08uX++vmaH7MgLPRBqRXiZCpFW3t73eTWpdRX8dHkIyesMLONm2VZUwQ3mUoxOjpKIZ+/aKPkgMlOQ4EJ9rkIbAX/vrs73Ool8OScKZ54SXWrDtmDXt2G+++/qAmeQj6PVSxOa/1X22stFAozWtStWbu2Pq5aY/EngUeqpjadnZ08uHFjaMN4KZNIhXw+NKwO6ns5JqOsYpGBnTtD20KFopaPRCggnU6HQ/9ga5TpemJDe/aEMTbwhSGdTpMdHQ2djYI4WW04AepFuTa3MbC8C+Olra2+AXONCM30xc5ms3SsXh0KzsjICB0dHZe00quW9qp3qWmadHZ2hsPo6azqzpf3OdlqcCZ7xezoKO3t7We3UVm+/GzMsWZ7laDNg7K++8QTYXuOVF38wX+vOjo6zlreXWCPM5/P191nkP96MZZ85xppBIwMD/OVmlxiZcmnqOUj0WPNV/dIyrS2kjtwILT1K06yVAvs6db399PX30/uwAEeqOnBPXD//Ty4cSNr1q7147Y1PcfAYs5MJEIhnlxmINLB9YMv+feffZYH7r9/Stw0OzpKrq0tfH5ozx46J/VYa23oZvq7lkI+T3FszJ9gSiQY+slPQuHeWp04+v6zz2JVTZCn671OtqF7fOtW1vf1hTaBAzt3+j3gmvbN5XJs3bqV9f39pFIp8keOhL3XHdu3s76/3x/uj46GFn+BkXd3Tw+9a9diFYvs2LbN9yvNZhncvZvvPvlk2DYzWelNtl58fOtWunt6+NELL2BZFgM7d56Ne5/DGhL8pcj//MQTPPLtb1Os2f4EqLvfoaEhkskkmzZv9rflOXDgnLtEKD5eXPW2gYFr/wMbNnzYVVEoFB8RPqht4EciFKBQKBSzias+FJAdHaU4NvZhV0OhUChCrnphzefzKs1FoVDMKlQoQKFQKBqMEtarhCttDNLR0cH6/v4pO89OJpPJnPc1s4kLacfaewrS1hSKi0EJ6yyl1r4uk8nUrWi63LS1t/P3PT38riatLCCVStVZIWZaW6+apZzpdDpMGTsXtffU2dUVek+c85xM5or54CpmP1d9jPWjyvq+PkZfeSXM6bzn7ruv2LXT6TQHZ1ifn6yaj9RuRX21kMvluPOOOy7qnIFduy6oxxq4XzVqKbLi6uaqF9bAYi+VSmEmEqE1YJCoPvrKK6HxSGdXF6ZpkmltDY89NzjImrVrw8eB1V1nVxfFYjFMLK99vKa31zdvufVWTNMkOzrKju3bwzpNZ82XXr6c7u5ucrkcbe3tfOPuu0Pbudp6JubMmWJfVygU6O7uDpd+BvZ8k+/PNE36+vvJZrNhfXds2zatoctMdn2ratywHt28ObQyDNo6qFtghQj+SqU1vb2033prXRsG7RaUV7usdXJdwoUFk+qSyWRACFpbW+vuFept+2rfg5lsA03TpO/ee8N7mulzUsuqjg5SqVTo/zCd/eH6/v7QutA0zbrPguLjyVUfCgisAYPdVANrwKGf/CT0Eg2GcsFWGzu2beORhx8mvXw536yxuksvXx66IKXT6TpfgdrH6eXL+UpX11lrvtWrwyWXgUXehvvuY3D37tCf1DRN2trbMePxunoO7NzJPevWYVkWvWvXTmtfZ5pm6KqUSqV4dPPm8P4K+XxofZhIJGhrbyfZ0hJa/E02XQmotTqstQIcGR5mZHiYg7lcWI+AwMUJ6q0Ql6XTjAwP88jDD5NKpcLlpIGz/+NbtvD4li309PRMuzT1mxs3kn3llSnWgalUyjex3rOHRx5+GCHEWUvISbZ9gciCbxtYa48Y2AYmEonw+uf6nNR9vqomOcH9tLW1seG+++rsD4P3aWR4WG0iqQA+AsIKfi7rZGvAwOotsBEM2Ds0FFrqjQwP11kOjgwPX/CeSYFJdXBecI3Orq6w5zMyPBzaEoKfGrZjxw6y2Sz5fJ4777iDXC4X2ub9/+3df2zU933H8df36Mo628ULLQ7umhiTgJaWhM7bRNZOOGo0aRMkZT8yGdJhRYqtqtOCA1q2dQlm0aoQiSZZyBZuP8DbirVpC1DTKCtBMVsjoiooLKSZcBM40u0cez/icHf5gSHeH3ff4/P9cfZhv+07H8+HhPDZ9+PrL+bpz32+3/uc/5Qzbvk635pbbw0sZbd//355nheY3/OXPjx69GhkgRj/PtylDv1lBm+//fbiYi3Z0ApRUv7lu/6pbe7X3H146tSp4vdxR2Ff+Pvp+PHjse8hVV9fX1yVzF06MHzf/r9lXV1dcbEa92vFZRhDyyM+9q1vRReQmeLnJI67SM+ZM2f0hw88oDNnzmh0dDSwdCEw76cCwpY0Nal1+fLAwZ7RkZE5eVNAf0QbHiXWF8IZtunuu7Vq1Sq9+uqrZb+3Vmtra2Qeb6SwMle5/6lbW1sjr7sfHR2NjfBM1NfXa9OmTdpUGElK0vHQOzNI+TUatvT05NdoOHUqMlL2+VGvq6tT6/Llam1t1c1ODEdGRor70d1H/rsEuPt4Oj8nhw4eVFNTkx7ZuVPZXE6HrvCdHXD1qLmw5nK5/OIqFVg7IFtYl3WqJfak/Khx2bJlxSXy/DUPpnLmzBktW7Ys8Dl3ibxyjI6ORo7k19XVRdaVtZBMJiNvcxM2IRX/ve688049uXt3cb+4/DDmcjmNjowU3/7F5Y+WlyxZUvxFExfL6fyc1NXXK1lYJKapqUl/tnu3crnclN8frj41MRXgCi8N6B+kuVLZbDYwH1fOsnW5XO6Klubz5+/q6uq0Zs2ayIgxbvk6f9V/922w/YM35fKXOnSXSFxz662xo8mwUWfUOJXnjxzRxo0bA0s6hs959ZcO9PfvmbNnVVeYGvC3zb/9lwtvwZPL5aLLChaW7fP/Dfy5cn+E2bp8eWTbrvTnpKurq/hvmy0s2u3uB853hW/ej1gjS7uFlqIbefvt4hHd8PJyuUkuf+fQIX3jwQd1+NlndebNN4v/oaXo0nPu/YaXrDt04IBGR0fz0wHO0++Xjh/X86tW6W/27SuGwg2wu3zd6MhI8bYjIyN67LHH9McPPRRYpjCXy0Uew9/WMHepw3sLB8zc5RPD+8UVXgpxsn3on6r05FNPFd89IHyalv/vdW/hgNNo4awAd/vd79Vfmu/UqVPa/+1v65GdO7WkqSnwtbhlA186flxNTU3F/eH+nPhLSPo/J+734H78l8lk5N/WP8vh+SNH1FNYOpKV1jDvlw1E7fJH+3HvSgDMJpYNBIAqM++nAlC7Xjp+nHlLzEuEFVWLU5kwXzEVAADGCCsAGCOsAGCMsAKAMcIKAMYIKwAYI6wAYIywAoAxwgoAxggrABgjrABgjLACgDHCCgDGCCsAGCOsAGCMsAKAMcIKAMYIKwAYI6wAYIywAoAxwgoAxggrABgjrABgjLACgDHCCgDGCCsAGCOsAGCMsAKAMcIKAMYIKwAYI6wAYIywAoAxwgoAxggrABgjrABgjLACgDHCCgDGCCsAGCOsAGCMsAKAMcIKAMYIKwAYI6wAYIywAoAxwgoAxggrABgjrABgjLACgDHCCgDGCCsAGCOsAGCMsAKAMcIKAMYIKwAYI6wAYIywAoAxwgoAxggrABgjrABgjLACgDHCCgDGCCsAGCOsAGCMsAKAMcIKAMYIKwAYI6wAYIywAoAxwgoAxggrABgjrABgjLACgDHCCgDGCCsAGCOsAGCMsAKAMcIKAMYIKwAYI6wAYIywAoAxwgoAxggrABgjrABgjLACgDHCCgDGCCsAGCOsAGCMsAKAMcIKAMYIKwAYI6wAYIywAoAxwgoAxggrABgjrABgjLACgDHCCgDGCCsAGCOsAGCMsAKAMcIKAMYIKwAYI6wAYIywAoAxwgoAxggrABgjrABgjLACgDHCCgDGCCsAGCOsAGCMsAKAMcIKAMYIKwAYI6wAYIywAoAxwgoAxggrABgjrABgjLACgDHCCgDGCCsAGCOsAGCMsAKAMcIKAMYIKwAYI6wAYIywAoAxwgoAxggrABgjrABgjLACgDHCCgDGCCsAGCOsAGCMsAKAMcIKAMYIKwAYI6wAYIywAoAxwgoAxggrABgjrABgjLACgDHCCgDGCCsAGCOsAGCMsAKAMcIKAMYIKwAYI6wAYIywAoAxwgoAxggrABgjrABgjLACgDHCCgDGCCsAGCOsAGCMsAKAMcIKAMYIKwAYI6wAYIywAoAxwgoAxggrABgjrABgjLACgDHCCgDGCCsAGCOsAGCMsAKAMcIKAMYIKwAYI6wAYIywAoAxwgoAxggrABgjrABgjLACgDHCCgDGCCsAGCOsAGCMsAKAMcIKAMYIKwAYI6wAYIywAoAxwgoAxggrABgjrABgjLACgDHCCgDGCCsAGCOsAGCMsAKAMcIKAMYIKwAYI6wAYIywAoAxwgoAxggrABgjrABgjLACgDHCCgDGCCsAGCOsAGCMsAKAMcIKAMYIKwAYI6wAYIywAoAxwgoAxggrABgjrABgjLACgDHCCgDGCCsAGCOsAGCMsAKAMcIKAMY+Nt0bfva66/TFL33JclsAoCosXLhwRrf3Tp8+PTGdGy5evFiLFy+e0YMDQDUaHx/X2bNnp317pgIAwBhhBQBjhBUAjBFWADBGWAHAGGEFAGPTPo8VKNu749J309K//Z/01vvSufclJaQJSfIKH3v5Pyr8mUiELoc+nkiEvqbL9xO+fsvHpcaPSe2fkO5skFp+Ym6/f1x1CCtmz/dHpJ0/lF78Hyd0oYgGAln4OBDZhKLBDEc3Eb0/9/JbH+Q/PjQm9bwt3fIJacs10uZFc75LcHUgrLD34rD06Enpxf+W5EkJf3RaCKAXE8CS8XRv40le6LIK9+OF7yMRvS//Nq9eku7JSTtGpO2fljb/dAV2EmoZYYWt5KvSg8clJaQFJUaQEyrE1h2xTjIqneqyOwqOBDYcbudrb12U7jkn/ft70kPXSo0L5nZfoWYRVtjZ8j3pH09LidDoMm7EqUQhgs5Tf8+PcMxo070c+JoUG83Y+DrXdR/vyWHpX89L/9wqXT+z14gDEmGFlZ5npX96/fJItFTMitHzR4ehkeuEnKf7oTlX/3JkPjbhhNu9bngKwpkScOdmPU869a70m0PSkZ/NH+gCZoCfIMzc48ekZ165PJfqBtErNfq8qEDw4g5aReZLw2cChAMbN6KNmS7wbxeepz31rnTXf0jfWzWHOw+1iLBiZl46Kz1x1BmpFk6NDh+pD4wkS4TRC8fTHWGGnuaHD2K5o9yPFJrDLWxP5LFj7vf7/yvt/k/pd39mLvciagxhxcw88A9SYlyxc6DFy4WRbOBAlVT2UXxNEuO4Eap/0MyLuU34usUo63Kcv/mG9NVrpUX898D08JOD6XvmB9LwaOFgVShknhPNwNPw8HRBKHjhU60mC2p4BOuedVBqCiJ8u8h9SspclJ46K/3RjXO2K1GekydPamxsTC0tLWppaan05pREWCtoaGhIAwMDGhwclCQ1Nzdr/fr1WrduXYW3rEy7B/Kj1YlwGEMj1fABqlIjVi8uhDHzqJFoFu4rEssSUxCBg1ju7Z1fAH/xhvT1FmlR9b5KK5PJqL+/XydOnFA6nVZDQ4Oam5u1bt06tbe3V3rzTKVSKW3YsEGrV6/W9ddfr76+Pm3evFm9vb2V3rRYVf0OAslkUsPDw9q+ffusPk4l9Pf3a2BgQFu3blVbW5skKZ1OK5lMamhoSHv27FFDQ0OFt3ISPzgtde5SJGaRyzFTA240Iy9nDcXW/3hNi/TJn5T+5Y3S8S11OXyurD+i/ciJbNzjf/MW6WvVOWr1f378X8T+z8qJEyc0MDCgbDarrVu3aunSpRXeUhu33Xab9u7dGxil9vT06JZbblFnZ6f549XsOwgkk0ml02ktXbpUO3bsqPTmmBocHNTAwID27NlTjKqUH7H29vaqo6ND27Ztq+AWluHl16XEBckbz49aF1zI/524IC0IXfb8j8cLH/t/Slz2/Pt1Pn9dnfS5xZfvMxG6XWI8/7iJ0G3D2+J/rnj98eDn/O8nMS69OFLpvRzLj+qePXvU0dER+AXc1tam3t5etbW1aevWrcpkMhXcUhsHDx6Mfeq/fft29fX1VWirJleVYfWj2tvbq66urpqLazKZ1K5du0qOSNevXy8pP/qoWi+/5gTVj+eH+TC5sfRKRK0YVeeyH8kFMR97F6XEJSek4Vh/GPyc+zV3exa4t4nZPv9+vAvS8f+q9F6OSKfTxahO9oymo6ND69evV39//xxu3exIpVJau3Zt5PONjY0aGxurwBZNrerC6kbVV0txzWQyamhomPIpWkdHR3HutSr96EfBOC4Yj0atGLLwCPNC8GuBwIY+Lo5gL0q6FBPj8eBoMy6i7kjWv7/wKDbuPjNZ6cfZSu/pgP7+fm3cuLGsaaKOjg4dPnx43o9aV69erWPHjkU+n0ql1NjYWIEtmlpVhTUuqr5aievQ0JCam5unvF5DQ4Oy2er6Tx2QG5O8D6MxXBAOVdyo1J0GCEU08lS/EDnvUv5P4LpOeP3Hdp/6e+62XLi8bQv8p/wXYq4beuzzH1Z6TwecOHEidvRWytq1azU0NDSLWzT72tvblUql9Pjjjxc/l0qlivOu1ahqzgpIJpNKJpN6+eWXS16nq6tLGzdu1I4dO+btAa2lS5cqnU5Peb1MJqP6+vo52KJpCp+76p7g764BEHeeaewJ+s6R/F9YKX3li4UH8vJ/feYaqeGnpM9ek7/sr+V65IfSkdeCt499sUGJ064i58s659x6nnT+g1nekVemoaHhig5qNjc3a3h4eBa3aG4cOHBAW7Zs0bJly4qj1PDBrGpSFWEdGhoqHqhyP3f69GlJ+R8O/yBPQ0ODJiYmNDg4OC9PKfFHq8PDw5NOBwwODhbnWqtS4kL0/NGSEXODFz7VKubVUKfPSH8+Ery/L39Bav6U9Lcv5B/ff7zzH+Qj7z6+F77fRHzMY0/vCp1zq2mdNDNrrvRpfSaTqYkzA/bt26djx44V/8+fPHlSfX19VXs+a1WEdcWKFert7Q2EZHBwsBifw4cPa8+ePcWvdXd3z+sflq6uLvX29ga+J1d/f788zwucMVB1Fi2UMrlJTsB3A5ooDDxLjFjDi6m8Nybl3g3eb/YGKbtQGh4O3bcnJSZ74YA7io7ZtsnOk5UnLfr4HO3Q8jQ3N2toaEgrVqwo6/pDQ0PzcgDi6u3t1blz5/TKK68E5lT37dunDRs26IUXXqi6udaqmmMNW7dunbq6uiq9Geba2trU1tamO+64I3DkP5PJKJlMav/+/Tp9+nR1H3RoWBg88h442j4emn/9MGYeM2YOdoH7eed+vXEpcUnyPgodFBsPHRyLmZ9NXAyeVhW+buTsgNB8701LKr2nA9auXVv2Qc10On1FEa5GqVRKfX192rt3bySenZ2d2rx5c2DutVpUdVhrWVdXl55++mkNDAyou7tb3d3d2rZtmxoaGjQwMKD29nZ1d3dXb1zbbnYOLl0ohNQ9In8x5kCVf45p+NxR92sXgvfrX0+FA1hx56qWPFAWiqkX2pbIL4bQGQWfm90XwExHMpksa4ook8lo27Zt8/ZYhG9wcFD33Xdfya93dnbq0KFDc7hF5amKqQCXP4IbHh4uHs3MZDLFz1dtaKbBf0FAHH+k3t3dXZ2vwvq5L0jPHVBkjdO4hVU+Kjxdn+ypetzLV92XoCb8swIuxN/PRPgxFPOKq0m2MW7O9aZPz+kunYr/C9efBvNP3QtLp9Patm2b2tvbq3s6qQypVGrSqYzGxka98847c7hF5amql7Tu2rWrrFOM7r///uoLzSxJJpM6ceJEyfnYismel377dimbjR7Vn3SlKy8aRK8wD1vqNf9KSPV1+c9l3pcic7klDppF5npLbacX//h//3vSLy6fk905lXQ6re7ubjU3NyuTyRSjms1mtXbtWq1YsULZbLY4TdDV1TXvoyrl51efeOIJLVpU+o0fz507p4kJ24OMM31Ja1WFFfHS6XRZ577OuZ0PSM89o9hRYdyqVcXX5YeDG3MQS+V8rdzFWEqMUou3ca9b+Lv5U9LRh+dkN5bDP3Nm5cqVqq+vLw4s/Gdz/jO5lStXzus51WpBWFE5b74udf2q4keZ/ijQK1w5Ef80f7LFWkqOduPOQig1YvX/XlCYHvAkz/k49rSvhPSn90hf+aXZ34eoSjMNa9XNsWIeWX6T9Bud0oG/Co5I3bnRUiPG8HtbxZ2sX2oO1r1e4LYlTpua8CRdunx7XXSiH7ONzUuIKmaEsGJmfud+6aXvSm//OBq8kuufuk/Jpcvrpk4xKp3wVFxUu9TIN/IihISK7xpb6qCVu2319dLeP5jbfYiaQ1gxM/WLpO17pd9fnz+gFR4BxobPuxzTuANepU7el3O7wP04gQ5PH/h/e4o+Ztwo92u/LjVX19kAmH8IK2Zu+Srp0e9ID/yalMsoEjd/NPiRLo84I3OkThyLXysRwKleohr3tjDuCDl8RoF/m667pU3z5N0bUNUIK2wsv1l69Fnp4buk0bcUPXfUjWPMKDQ8beC+N1YgtO5ot8S0QuSc2BKjXv9z9Z+Uer4urfuVOdxhqGWEFXZab5YeeU7a/7B09O+i86aRt6oOjVjDo9BS8Z3s7V4CI9jwaVuh0fKEJ924UnroG9KNN8z57kLtIqyw1dQi9fy1tOqXpf4/kUbPKRq1mFOivPDo04vGN25KwFPw/sILrbgHxvywTyTyo9S7Nkr33Dv3+wg1j7Bidtzemf/z2qD0fJ90alAaTUVHkbHLDcYc9Y+cylVitBs+Jct9jPpF+VPEfuur0uqfl+qvjlfvYe4RVsyuz7fn/0jS2ZP55QBHUvnLxZemeM7f3uXbTnihrxVu43nR206ErufeV90npRtukq79zMy/H6AMhBVzZ9nq/N+fL/+tRYD5KDH1VQAAV4KwAoAxwgoAxggrABgjrABgjLACgDHCCgDGCCsAGCOsAGCMsAKAMcIKAMYIKwAYI6wAYIywAoAxwgoAxliPtcakUqlKbwKuUEtLS6U3AcYIa41IpVLq7OzUsWPHKr0puEItLS3au3ev2tvbK70pMMJUQI04ePAgUZ2nUqmUenp6Kr0ZMERYAcAYYa0RnZ2dzNXNU42Njdq+fXulNwOGmGOtEY2NjTp79qzGxsY0NjZW6c3BFeAXYu0hrDWmsbFRjY2Nld4M4KrGVAAAGCOsAGCMsAKAMcIKAMamffBqfHxc7733nuW2AEBVGB8fn9Htpx3W8+fP6/z58zN6cACoRUwFAIAxwgoAxggrABgjrABgjLACgDHCCgDGCCsAGCOsAGCMsAKAMcIKAMYIKwAYI6wAYIywAoAxwgoAxggrABgjrABgjLACgDHCCgDG/h+H5B/lby9G5wAAAABJRU5ErkJggg==;" vertex="1" parent="1">
          <mxGeometry x="320.38" y="880" width="149.62" height="310.6" as="geometry" />
        </mxCell>
        <mxCell id="95llRvXmpCQJrTnAEZTI-24" value="" style="endArrow=classic;html=1;rounded=0;" edge="1" parent="1">
          <mxGeometry width="50" height="50" relative="1" as="geometry">
            <mxPoint x="100" y="960" as="sourcePoint" />
            <mxPoint x="320" y="960" as="targetPoint" />
          </mxGeometry>
        </mxCell>
        <mxCell id="95llRvXmpCQJrTnAEZTI-25" value="6 - Recebe a remuneraÃ§Ã£o pela avaliaÃ§Ã£o" style="text;html=1;strokeColor=none;fillColor=none;align=center;verticalAlign=middle;whiteSpace=wrap;rounded=0;" vertex="1" parent="1">
          <mxGeometry x="100" y="930" width="220" height="30" as="geometry" />
        </mxCell>
      </root>
    </mxGraphModel>
  </diagram>
</mxfile>
